<svg xmlns="http://www.w3.org/2000/svg" xmlns:xlink="http://www.w3.org/1999/xlink" viewBox="0 0 42.17 41.6">
  <defs>
    <style>
      .cls-1 {
        fill: url(#linear-gradient);
      }
    </style>
    <linearGradient id="linear-gradient" x1="0.5" x2="0.5" y2="1" gradientUnits="objectBoundingBox">
      <stop offset="0" stop-color="#4573ec"/>
      <stop offset="1" stop-color="#8954ed"/>
    </linearGradient>
  </defs>
  <path id="Union_9" data-name="Union 9" class="cls-1" d="M5391.877,12.965a21.021,21.021,0,0,1-6.7-4.457,20.736,20.736,0,0,1-4.519-6.611A20.437,20.437,0,0,1,5379-6.2a20.437,20.437,0,0,1,1.657-8.1,20.736,20.736,0,0,1,4.519-6.611,21.021,21.021,0,0,1,6.7-4.457A21.179,21.179,0,0,1,5400.084-27a21.177,21.177,0,0,1,8.207,1.635,21.018,21.018,0,0,1,6.7,4.457,20.715,20.715,0,0,1,4.52,6.611,20.428,20.428,0,0,1,1.657,8.1,20.428,20.428,0,0,1-1.657,8.1,20.715,20.715,0,0,1-4.52,6.611,21.018,21.018,0,0,1-6.7,4.457,21.2,21.2,0,0,1-8.207,1.635A21.2,21.2,0,0,1,5391.877,12.965Zm.887-36.23a18.758,18.758,0,0,0-5.977,3.969,18.445,18.445,0,0,0-4.03,5.887A18.162,18.162,0,0,0,5381.28-6.2a18.151,18.151,0,0,0,1.478,7.208,18.43,18.43,0,0,0,4.03,5.887,18.736,18.736,0,0,0,5.977,3.969,18.93,18.93,0,0,0,7.32,1.456,18.928,18.928,0,0,0,7.319-1.456,18.744,18.744,0,0,0,5.979-3.969,18.444,18.444,0,0,0,4.03-5.887,18.151,18.151,0,0,0,1.478-7.208,18.162,18.162,0,0,0-1.478-7.209,18.459,18.459,0,0,0-4.03-5.887,18.767,18.767,0,0,0-5.979-3.969,18.952,18.952,0,0,0-7.319-1.454A18.954,18.954,0,0,0,5392.764-23.265ZM5397.919,7V-10.965a16.258,16.258,0,0,1-2.413,1.314q-1.33.594-2.592,1.026l-1.62-4.14q1.044-.431,2.178-.989t2.215-1.224q1.08-.665,2.069-1.4a14.125,14.125,0,0,0,1.782-1.566h3.744V7Z" transform="translate(-5378.999 27)"/>
</svg>
