<svg xmlns="http://www.w3.org/2000/svg" xmlns:xlink="http://www.w3.org/1999/xlink" viewBox="0 0 42.17 41.598">
  <defs>
    <style>
      .cls-1 {
        fill: url(#linear-gradient);
      }
    </style>
    <linearGradient id="linear-gradient" x1="0.5" x2="0.5" y2="1" gradientUnits="objectBoundingBox">
      <stop offset="0" stop-color="#4673ec"/>
      <stop offset="1" stop-color="#8357ed"/>
    </linearGradient>
  </defs>
  <path id="Union_10" data-name="Union 10" class="cls-1" d="M5391.876,12.965a21.021,21.021,0,0,1-6.7-4.457,20.726,20.726,0,0,1-4.519-6.612A20.425,20.425,0,0,1,5379-6.2a20.437,20.437,0,0,1,1.657-8.1,20.706,20.706,0,0,1,4.519-6.611,21.025,21.025,0,0,1,6.7-4.458A21.2,21.2,0,0,1,5400.083-27a21.2,21.2,0,0,1,8.207,1.634,21.022,21.022,0,0,1,6.7,4.458,20.715,20.715,0,0,1,4.52,6.611,20.428,20.428,0,0,1,1.657,8.1,20.427,20.427,0,0,1-1.657,8.1,20.706,20.706,0,0,1-4.52,6.612,21.018,21.018,0,0,1-6.7,4.457,21.2,21.2,0,0,1-8.207,1.634A21.2,21.2,0,0,1,5391.876,12.965Zm.887-36.23a18.764,18.764,0,0,0-5.977,3.969,18.43,18.43,0,0,0-4.03,5.887,18.158,18.158,0,0,0-1.479,7.209,18.157,18.157,0,0,0,1.479,7.208,18.43,18.43,0,0,0,4.03,5.887,18.741,18.741,0,0,0,5.977,3.969,18.932,18.932,0,0,0,7.32,1.456,18.932,18.932,0,0,0,7.32-1.456,18.747,18.747,0,0,0,5.978-3.969,18.444,18.444,0,0,0,4.03-5.887,18.156,18.156,0,0,0,1.478-7.208,18.157,18.157,0,0,0-1.478-7.209,18.444,18.444,0,0,0-4.03-5.887,18.77,18.77,0,0,0-5.978-3.969,18.932,18.932,0,0,0-7.32-1.456A18.932,18.932,0,0,0,5392.764-23.265ZM5391.755,7a5.87,5.87,0,0,1-.072-1.008V5.128a8.709,8.709,0,0,1,.558-3.167A11.833,11.833,0,0,1,5393.7-.722a16.892,16.892,0,0,1,2.034-2.321q1.135-1.082,2.249-2.161.865-.829,1.62-1.566a17.734,17.734,0,0,0,1.332-1.439,6.6,6.6,0,0,0,.9-1.4,3.385,3.385,0,0,0,.324-1.423,2.564,2.564,0,0,0-.9-2.231,3.709,3.709,0,0,0-2.231-.648,5.3,5.3,0,0,0-1.818.306,9.188,9.188,0,0,0-1.548.72,9.7,9.7,0,0,0-1.207.827c-.335.276-.588.5-.755.667l-2.664-3.744a13.583,13.583,0,0,1,3.69-2.43,10.811,10.811,0,0,1,4.519-.954,12.531,12.531,0,0,1,3.779.5,7.073,7.073,0,0,1,2.609,1.422,5.525,5.525,0,0,1,1.513,2.233,8.523,8.523,0,0,1,.486,2.97,6.586,6.586,0,0,1-.541,2.627,12.131,12.131,0,0,1-1.4,2.431,19.915,19.915,0,0,1-1.944,2.249q-1.08,1.082-2.124,2.053-.541.5-1.17,1.133T5399.244.376q-.578.649-1.027,1.207a2.957,2.957,0,0,0-.557.918h10.728V7Z" transform="translate(-5378.999 27)"/>
</svg>
