<svg xmlns="http://www.w3.org/2000/svg" xmlns:xlink="http://www.w3.org/1999/xlink" viewBox="0 0 42.17 41.598">
  <defs>
    <style>
      .cls-1 {
        fill: url(#linear-gradient);
      }
    </style>
    <linearGradient id="linear-gradient" x1="0.5" x2="0.5" y2="1" gradientUnits="objectBoundingBox">
      <stop offset="0" stop-color="#4573ec"/>
      <stop offset="1" stop-color="#8457ed"/>
    </linearGradient>
  </defs>
  <path id="Union_11" data-name="Union 11" class="cls-1" d="M5391.876,13.965a21.021,21.021,0,0,1-6.7-4.457,20.726,20.726,0,0,1-4.519-6.612A20.425,20.425,0,0,1,5379-5.2a20.437,20.437,0,0,1,1.657-8.1,20.706,20.706,0,0,1,4.519-6.611,21.025,21.025,0,0,1,6.7-4.458A21.2,21.2,0,0,1,5400.083-26a21.2,21.2,0,0,1,8.207,1.634,21.022,21.022,0,0,1,6.7,4.458,20.715,20.715,0,0,1,4.52,6.611,20.428,20.428,0,0,1,1.657,8.1,20.427,20.427,0,0,1-1.657,8.1,20.706,20.706,0,0,1-4.52,6.612,21.018,21.018,0,0,1-6.7,4.457,21.2,21.2,0,0,1-8.207,1.634A21.2,21.2,0,0,1,5391.876,13.965Zm.887-36.23a18.764,18.764,0,0,0-5.977,3.969,18.43,18.43,0,0,0-4.03,5.887,18.158,18.158,0,0,0-1.479,7.209,18.157,18.157,0,0,0,1.479,7.208,18.43,18.43,0,0,0,4.03,5.887,18.741,18.741,0,0,0,5.977,3.969,18.932,18.932,0,0,0,7.32,1.456,18.932,18.932,0,0,0,7.32-1.456,18.748,18.748,0,0,0,5.978-3.969,18.444,18.444,0,0,0,4.03-5.887,18.156,18.156,0,0,0,1.478-7.208,18.157,18.157,0,0,0-1.478-7.209,18.444,18.444,0,0,0-4.03-5.887,18.77,18.77,0,0,0-5.978-3.969,18.932,18.932,0,0,0-7.32-1.456A18.932,18.932,0,0,0,5392.764-22.265Zm4.167,29.679q-1.08-.124-2.087-.341t-1.837-.468a10.6,10.6,0,0,1-1.3-.468l1.043-4.464q.935.4,2.394.846a12.468,12.468,0,0,0,3.619.449,5.744,5.744,0,0,0,3.636-.935,3.08,3.08,0,0,0,1.152-2.521,3.05,3.05,0,0,0-.414-1.638,3.161,3.161,0,0,0-1.135-1.079,5.057,5.057,0,0,0-1.71-.577,13.1,13.1,0,0,0-2.106-.162H5396.1v-4.32h2.375a7.913,7.913,0,0,0,1.529-.144,4.1,4.1,0,0,0,1.315-.486,2.541,2.541,0,0,0,.917-.936,2.953,2.953,0,0,0,.343-1.494,2.36,2.36,0,0,0-.288-1.188,2.6,2.6,0,0,0-.738-.829,3.207,3.207,0,0,0-1.045-.486,4.526,4.526,0,0,0-1.205-.162,8.454,8.454,0,0,0-2.863.468,11.973,11.973,0,0,0-2.395,1.151l-1.907-3.924q.575-.359,1.35-.755a13.41,13.41,0,0,1,1.71-.721,15.62,15.62,0,0,1,2-.539,11.259,11.259,0,0,1,2.25-.216,12.34,12.34,0,0,1,3.8.521,7.154,7.154,0,0,1,2.646,1.476,5.967,5.967,0,0,1,1.548,2.233,7.559,7.559,0,0,1,.5,2.789,5.518,5.518,0,0,1-.827,2.863,5.468,5.468,0,0,1-2.232,2.106,6.463,6.463,0,0,1,3.005,2.358,6.537,6.537,0,0,1,1.063,3.762,8.6,8.6,0,0,1-.576,3.186,6.442,6.442,0,0,1-1.8,2.52,8.628,8.628,0,0,1-3.114,1.656,15.024,15.024,0,0,1-4.483.595A17.658,17.658,0,0,1,5396.931,7.414Z" transform="translate(-5378.999 26)"/>
</svg>
