<svg xmlns="http://www.w3.org/2000/svg" xmlns:xlink="http://www.w3.org/1999/xlink" viewBox="0 0 42.17 41.598">
  <defs>
    <style>
      .cls-1 {
        fill: url(#linear-gradient);
      }
    </style>
    <linearGradient id="linear-gradient" x1="0.5" x2="0.5" y2="1" gradientUnits="objectBoundingBox">
      <stop offset="0" stop-color="#4573ec"/>
      <stop offset="1" stop-color="#8257ed"/>
    </linearGradient>
  </defs>
  <path id="Union_12" data-name="Union 12" class="cls-1" d="M5391.876,12.965a21.021,21.021,0,0,1-6.7-4.457,20.726,20.726,0,0,1-4.519-6.612A20.425,20.425,0,0,1,5379-6.2a20.437,20.437,0,0,1,1.657-8.1,20.706,20.706,0,0,1,4.519-6.611,21.025,21.025,0,0,1,6.7-4.458A21.2,21.2,0,0,1,5400.083-27a21.2,21.2,0,0,1,8.207,1.634,21.022,21.022,0,0,1,6.7,4.458,20.715,20.715,0,0,1,4.52,6.611,20.428,20.428,0,0,1,1.657,8.1,20.427,20.427,0,0,1-1.657,8.1,20.706,20.706,0,0,1-4.52,6.612,21.018,21.018,0,0,1-6.7,4.457,21.2,21.2,0,0,1-8.207,1.634A21.2,21.2,0,0,1,5391.876,12.965Zm.887-36.23a18.764,18.764,0,0,0-5.977,3.969,18.43,18.43,0,0,0-4.03,5.887,18.158,18.158,0,0,0-1.479,7.209,18.157,18.157,0,0,0,1.479,7.208,18.43,18.43,0,0,0,4.03,5.887,18.741,18.741,0,0,0,5.977,3.969,18.932,18.932,0,0,0,7.32,1.456,18.932,18.932,0,0,0,7.32-1.456,18.747,18.747,0,0,0,5.978-3.969,18.444,18.444,0,0,0,4.03-5.887,18.156,18.156,0,0,0,1.478-7.208,18.157,18.157,0,0,0-1.478-7.209,18.444,18.444,0,0,0-4.03-5.887,18.77,18.77,0,0,0-5.978-3.969,18.932,18.932,0,0,0-7.32-1.456A18.932,18.932,0,0,0,5392.764-23.265ZM5396.2,7.414q-1.063-.124-2.053-.324t-1.781-.414a6.929,6.929,0,0,1-1.224-.433l.973-4.427a15.875,15.875,0,0,0,2.375.774,14.382,14.382,0,0,0,3.528.377,5.358,5.358,0,0,0,3.6-.989,3.016,3.016,0,0,0,1.116-2.322,3.632,3.632,0,0,0-.468-1.854,3.51,3.51,0,0,0-1.619-1.35,11.411,11.411,0,0,0-3.1-.827,34.2,34.2,0,0,0-4.9-.288q.4-3.349.649-6.8t.4-6.48h13.5v4.5h-9q-.072,1.3-.162,2.5t-.2,2.106q5.255.359,7.758,2.465a7.232,7.232,0,0,1,2.5,5.85,8.277,8.277,0,0,1-.612,3.2,6.888,6.888,0,0,1-1.836,2.555,8.683,8.683,0,0,1-3.078,1.693,13.852,13.852,0,0,1-4.337.612A17.2,17.2,0,0,1,5396.2,7.414Z" transform="translate(-5378.999 27)"/>
</svg>
