<?xml version="1.0" encoding="UTF-8" standalone="no"?>
<!DOCTYPE svg PUBLIC "-//W3C//DTD SVG 1.1//EN" "http://www.w3.org/Graphics/SVG/1.1/DTD/svg11.dtd">
<svg width="100%" height="100%" viewBox="0 0 247 27" version="1.1" xmlns="http://www.w3.org/2000/svg" xmlns:xlink="http://www.w3.org/1999/xlink" xml:space="preserve" xmlns:serif="http://www.serif.com/" style="fill-rule:evenodd;clip-rule:evenodd;stroke-linejoin:round;stroke-miterlimit:1.41421;">
    <g transform="matrix(1,0,0,1,-3,-2.552)">
        <g transform="matrix(1,0,0,1,0,-2)">
            <path d="M169.768,31.18L165.596,31.18L165.596,11.776C165.969,11.664 166.399,11.557 166.884,11.454C167.369,11.351 167.878,11.263 168.41,11.188C168.942,11.113 169.483,11.053 170.034,11.006C170.585,10.959 171.112,10.936 171.616,10.936C172.829,10.936 173.912,11.118 174.864,11.482C175.816,11.846 176.619,12.359 177.272,13.022C177.925,13.685 178.425,14.492 178.77,15.444C179.115,16.396 179.288,17.46 179.288,18.636C179.288,19.775 179.148,20.811 178.868,21.744C178.588,22.677 178.177,23.48 177.636,24.152C177.095,24.824 176.423,25.347 175.62,25.72C174.817,26.093 173.893,26.28 172.848,26.28C172.269,26.28 171.728,26.224 171.224,26.112C170.72,26 170.235,25.841 169.768,25.636L169.768,31.18ZM24.406,17.866L3,27.42L7.523,17.866L3,8.312L24.406,17.866ZM226.16,20.008C226.253,20.867 226.655,21.548 227.364,22.052C228.073,22.556 229.025,22.808 230.22,22.808C230.985,22.808 231.737,22.738 232.474,22.598C233.211,22.458 233.813,22.285 234.28,22.08L234.84,25.468C234.616,25.58 234.317,25.692 233.944,25.804C233.571,25.916 233.155,26.014 232.698,26.098C232.241,26.182 231.751,26.252 231.228,26.308C230.705,26.364 230.183,26.392 229.66,26.392C228.335,26.392 227.182,26.196 226.202,25.804C225.222,25.412 224.41,24.875 223.766,24.194C223.122,23.513 222.646,22.705 222.338,21.772C222.03,20.839 221.876,19.831 221.876,18.748C221.876,17.441 222.077,16.298 222.478,15.318C222.879,14.338 223.407,13.521 224.06,12.868C224.713,12.215 225.465,11.72 226.314,11.384C227.163,11.048 228.036,10.88 228.932,10.88C231.023,10.88 232.675,11.519 233.888,12.798C235.101,14.077 235.708,15.957 235.708,18.44C235.708,18.683 235.699,18.949 235.68,19.238C235.661,19.527 235.643,19.784 235.624,20.008L226.16,20.008ZM115.784,26.392C112.629,26.392 110.226,25.515 108.574,23.76C106.922,22.005 106.096,19.513 106.096,16.284C106.096,14.679 106.348,13.246 106.852,11.986C107.356,10.726 108.047,9.662 108.924,8.794C109.801,7.926 110.847,7.268 112.06,6.82C113.273,6.372 114.589,6.148 116.008,6.148C116.829,6.148 117.576,6.209 118.248,6.33C118.92,6.451 119.508,6.591 120.012,6.75C120.516,6.909 120.936,7.072 121.272,7.24C121.608,7.408 121.851,7.539 122,7.632L120.74,11.16C120.143,10.843 119.447,10.572 118.654,10.348C117.861,10.124 116.96,10.012 115.952,10.012C115.28,10.012 114.622,10.124 113.978,10.348C113.334,10.572 112.765,10.931 112.27,11.426C111.775,11.921 111.379,12.56 111.08,13.344C110.781,14.128 110.632,15.08 110.632,16.2C110.632,17.096 110.73,17.931 110.926,18.706C111.122,19.481 111.439,20.148 111.878,20.708C112.317,21.268 112.891,21.711 113.6,22.038C114.309,22.365 115.168,22.528 116.176,22.528C116.811,22.528 117.38,22.491 117.884,22.416C118.388,22.341 118.836,22.253 119.228,22.15C119.62,22.047 119.965,21.931 120.264,21.8C120.563,21.669 120.833,21.548 121.076,21.436L122.28,24.936C121.664,25.309 120.796,25.645 119.676,25.944C118.556,26.243 117.259,26.392 115.784,26.392ZM243.156,23.004C243.921,23.004 244.463,22.929 244.78,22.78C245.097,22.631 245.256,22.341 245.256,21.912C245.256,21.576 245.051,21.282 244.64,21.03C244.229,20.778 243.604,20.493 242.764,20.176C242.111,19.933 241.518,19.681 240.986,19.42C240.454,19.159 240.001,18.846 239.628,18.482C239.255,18.118 238.965,17.684 238.76,17.18C238.555,16.676 238.452,16.069 238.452,15.36C238.452,13.979 238.965,12.887 239.992,12.084C241.019,11.281 242.428,10.88 244.22,10.88C245.116,10.88 245.975,10.959 246.796,11.118C247.617,11.277 248.271,11.449 248.756,11.636L248.028,14.884C247.543,14.716 247.015,14.567 246.446,14.436C245.877,14.305 245.237,14.24 244.528,14.24C243.221,14.24 242.568,14.604 242.568,15.332C242.568,15.5 242.596,15.649 242.652,15.78C242.708,15.911 242.82,16.037 242.988,16.158C243.156,16.279 243.385,16.41 243.674,16.55C243.963,16.69 244.332,16.844 244.78,17.012C245.695,17.348 246.451,17.679 247.048,18.006C247.645,18.333 248.117,18.687 248.462,19.07C248.807,19.453 249.05,19.877 249.19,20.344C249.33,20.811 249.4,21.352 249.4,21.968C249.4,23.424 248.854,24.525 247.762,25.272C246.67,26.019 245.125,26.392 243.128,26.392C241.821,26.392 240.734,26.28 239.866,26.056C238.998,25.832 238.396,25.645 238.06,25.496L238.76,22.108C239.469,22.388 240.197,22.607 240.944,22.766C241.691,22.925 242.428,23.004 243.156,23.004ZM138.24,18.608C138.24,19.765 138.072,20.825 137.736,21.786C137.4,22.747 136.915,23.569 136.28,24.25C135.645,24.931 134.885,25.459 133.998,25.832C133.111,26.205 132.117,26.392 131.016,26.392C129.933,26.392 128.949,26.205 128.062,25.832C127.175,25.459 126.415,24.931 125.78,24.25C125.145,23.569 124.651,22.747 124.296,21.786C123.941,20.825 123.764,19.765 123.764,18.608C123.764,17.451 123.946,16.396 124.31,15.444C124.674,14.492 125.178,13.68 125.822,13.008C126.466,12.336 127.231,11.813 128.118,11.44C129.005,11.067 129.971,10.88 131.016,10.88C132.08,10.88 133.055,11.067 133.942,11.44C134.829,11.813 135.589,12.336 136.224,13.008C136.859,13.68 137.353,14.492 137.708,15.444C138.063,16.396 138.24,17.451 138.24,18.608ZM60.036,18.608C60.036,19.765 59.868,20.825 59.532,21.786C59.196,22.747 58.711,23.569 58.076,24.25C57.441,24.931 56.681,25.459 55.794,25.832C54.907,26.205 53.913,26.392 52.812,26.392C51.729,26.392 50.745,26.205 49.858,25.832C48.971,25.459 48.211,24.931 47.576,24.25C46.941,23.569 46.447,22.747 46.092,21.786C45.737,20.825 45.56,19.765 45.56,18.608C45.56,17.451 45.742,16.396 46.106,15.444C46.47,14.492 46.974,13.68 47.618,13.008C48.262,12.336 49.027,11.813 49.914,11.44C50.801,11.067 51.767,10.88 52.812,10.88C53.876,10.88 54.851,11.067 55.738,11.44C56.625,11.813 57.385,12.336 58.02,13.008C58.655,13.68 59.149,14.492 59.504,15.444C59.859,16.396 60.036,17.451 60.036,18.608ZM78.376,20.008C78.469,20.867 78.871,21.548 79.58,22.052C80.289,22.556 81.241,22.808 82.436,22.808C83.201,22.808 83.953,22.738 84.69,22.598C85.427,22.458 86.029,22.285 86.496,22.08L87.056,25.468C86.832,25.58 86.533,25.692 86.16,25.804C85.787,25.916 85.371,26.014 84.914,26.098C84.457,26.182 83.967,26.252 83.444,26.308C82.921,26.364 82.399,26.392 81.876,26.392C80.551,26.392 79.398,26.196 78.418,25.804C77.438,25.412 76.626,24.875 75.982,24.194C75.338,23.513 74.862,22.705 74.554,21.772C74.246,20.839 74.092,19.831 74.092,18.748C74.092,17.441 74.293,16.298 74.694,15.318C75.095,14.338 75.623,13.521 76.276,12.868C76.929,12.215 77.681,11.72 78.53,11.384C79.379,11.048 80.252,10.88 81.148,10.88C83.239,10.88 84.891,11.519 86.104,12.798C87.317,14.077 87.924,15.957 87.924,18.44C87.924,18.683 87.915,18.949 87.896,19.238C87.877,19.527 87.859,19.784 87.84,20.008L78.376,20.008ZM187.8,10.88C189.032,10.88 190.059,11.02 190.88,11.3C191.701,11.58 192.359,11.981 192.854,12.504C193.349,13.027 193.699,13.661 193.904,14.408C194.109,15.155 194.212,15.985 194.212,16.9L194.212,25.58C193.615,25.711 192.784,25.865 191.72,26.042C190.656,26.219 189.368,26.308 187.856,26.308C186.904,26.308 186.041,26.224 185.266,26.056C184.491,25.888 183.824,25.613 183.264,25.23C182.704,24.847 182.275,24.348 181.976,23.732C181.677,23.116 181.528,22.36 181.528,21.464C181.528,20.605 181.701,19.877 182.046,19.28C182.391,18.683 182.853,18.207 183.432,17.852C184.011,17.497 184.673,17.241 185.42,17.082C186.167,16.923 186.941,16.844 187.744,16.844C188.285,16.844 188.766,16.867 189.186,16.914C189.606,16.961 189.947,17.021 190.208,17.096L190.208,16.704C190.208,15.995 189.993,15.425 189.564,14.996C189.135,14.567 188.388,14.352 187.324,14.352C186.615,14.352 185.915,14.403 185.224,14.506C184.533,14.609 183.936,14.753 183.432,14.94L182.9,11.58C183.143,11.505 183.446,11.426 183.81,11.342C184.174,11.258 184.571,11.183 185,11.118C185.429,11.053 185.882,10.997 186.358,10.95C186.834,10.903 187.315,10.88 187.8,10.88ZM43.74,10.264L35.116,10.264L35.116,14.324L42.788,14.324L42.788,17.992L35.116,17.992L35.116,26L30.748,26L30.748,6.596L43.74,6.596L43.74,10.264ZM202.164,26L197.992,26L197.992,11.776C198.701,11.571 199.616,11.379 200.736,11.202C201.856,11.025 203.032,10.936 204.264,10.936C205.515,10.936 206.555,11.099 207.386,11.426C208.217,11.753 208.875,12.215 209.36,12.812C209.845,13.409 210.191,14.119 210.396,14.94C210.601,15.761 210.704,16.676 210.704,17.684L210.704,26L206.532,26L206.532,18.188C206.532,16.844 206.355,15.892 206,15.332C205.645,14.772 204.983,14.492 204.012,14.492C203.713,14.492 203.396,14.506 203.06,14.534C202.724,14.562 202.425,14.595 202.164,14.632L202.164,26ZM93.72,26L89.464,26C89.688,25.533 89.996,24.983 90.388,24.348C90.78,23.713 91.205,23.055 91.662,22.374C92.119,21.693 92.6,21.011 93.104,20.33C93.608,19.649 94.103,19.009 94.588,18.412C93.748,17.236 92.908,16.046 92.068,14.842C91.228,13.638 90.397,12.448 89.576,11.272L94.084,11.272L96.996,15.752L99.908,11.272L104.22,11.272L99.18,18.356C100.3,19.756 101.317,21.119 102.232,22.444C103.147,23.769 103.875,24.955 104.416,26L99.936,26C99.787,25.72 99.6,25.37 99.376,24.95C99.152,24.53 98.9,24.091 98.62,23.634C98.34,23.177 98.046,22.719 97.738,22.262C97.43,21.805 97.127,21.389 96.828,21.016C96.548,21.371 96.263,21.763 95.974,22.192C95.685,22.621 95.409,23.055 95.148,23.494C94.887,23.933 94.63,24.367 94.378,24.796C94.126,25.225 93.907,25.627 93.72,26ZM67.428,26L63.256,26L63.256,12.056C64.003,11.795 64.885,11.547 65.902,11.314C66.919,11.081 68.053,10.964 69.304,10.964C69.528,10.964 69.799,10.978 70.116,11.006C70.433,11.034 70.751,11.071 71.068,11.118C71.385,11.165 71.703,11.221 72.02,11.286C72.337,11.351 72.608,11.431 72.832,11.524L72.132,14.968C71.759,14.875 71.32,14.777 70.816,14.674C70.312,14.571 69.771,14.52 69.192,14.52C68.931,14.52 68.618,14.543 68.254,14.59C67.89,14.637 67.615,14.688 67.428,14.744L67.428,26ZM145.632,26L141.46,26L141.46,11.776C141.815,11.683 142.23,11.585 142.706,11.482C143.182,11.379 143.686,11.286 144.218,11.202C144.75,11.118 145.296,11.053 145.856,11.006C146.416,10.959 146.967,10.936 147.508,10.936C148.572,10.936 149.435,11.071 150.098,11.342C150.761,11.613 151.307,11.935 151.736,12.308C152.333,11.879 153.019,11.543 153.794,11.3C154.569,11.057 155.283,10.936 155.936,10.936C157.112,10.936 158.078,11.099 158.834,11.426C159.59,11.753 160.192,12.215 160.64,12.812C161.088,13.409 161.396,14.119 161.564,14.94C161.732,15.761 161.816,16.676 161.816,17.684L161.816,26L157.644,26L157.644,18.188C157.644,16.844 157.471,15.892 157.126,15.332C156.781,14.772 156.188,14.492 155.348,14.492C155.124,14.492 154.811,14.548 154.41,14.66C154.009,14.772 153.677,14.912 153.416,15.08C153.547,15.509 153.631,15.962 153.668,16.438C153.705,16.914 153.724,17.423 153.724,17.964L153.724,26L149.552,26L149.552,18.188C149.552,16.844 149.379,15.892 149.034,15.332C148.689,14.772 148.096,14.492 147.256,14.492C146.995,14.492 146.724,14.506 146.444,14.534C146.164,14.562 145.893,14.595 145.632,14.632L145.632,26ZM218.656,26L214.484,26L214.484,11.272L218.656,11.272L218.656,26ZM188.136,23.088C188.547,23.088 188.939,23.079 189.312,23.06C189.685,23.041 189.984,23.013 190.208,22.976L190.208,19.812C190.04,19.775 189.788,19.737 189.452,19.7C189.116,19.663 188.808,19.644 188.528,19.644C188.136,19.644 187.767,19.667 187.422,19.714C187.077,19.761 186.773,19.849 186.512,19.98C186.251,20.111 186.045,20.288 185.896,20.512C185.747,20.736 185.672,21.016 185.672,21.352C185.672,22.005 185.891,22.458 186.33,22.71C186.769,22.962 187.371,23.088 188.136,23.088ZM55.78,18.608C55.78,17.32 55.523,16.307 55.01,15.57C54.497,14.833 53.764,14.464 52.812,14.464C51.86,14.464 51.123,14.833 50.6,15.57C50.077,16.307 49.816,17.32 49.816,18.608C49.816,19.896 50.077,20.918 50.6,21.674C51.123,22.43 51.86,22.808 52.812,22.808C53.764,22.808 54.497,22.43 55.01,21.674C55.523,20.918 55.78,19.896 55.78,18.608ZM133.984,18.608C133.984,17.32 133.727,16.307 133.214,15.57C132.701,14.833 131.968,14.464 131.016,14.464C130.064,14.464 129.327,14.833 128.804,15.57C128.281,16.307 128.02,17.32 128.02,18.608C128.02,19.896 128.281,20.918 128.804,21.674C129.327,22.43 130.064,22.808 131.016,22.808C131.968,22.808 132.701,22.43 133.214,21.674C133.727,20.918 133.984,19.896 133.984,18.608ZM175.032,18.748C175.032,17.46 174.743,16.429 174.164,15.654C173.585,14.879 172.727,14.492 171.588,14.492C171.215,14.492 170.869,14.506 170.552,14.534C170.235,14.562 169.973,14.595 169.768,14.632L169.768,22.164C170.029,22.332 170.37,22.472 170.79,22.584C171.21,22.696 171.635,22.752 172.064,22.752C174.043,22.752 175.032,21.417 175.032,18.748ZM83.892,17.152C83.873,16.797 83.813,16.452 83.71,16.116C83.607,15.78 83.449,15.481 83.234,15.22C83.019,14.959 82.749,14.744 82.422,14.576C82.095,14.408 81.689,14.324 81.204,14.324C80.737,14.324 80.336,14.403 80,14.562C79.664,14.721 79.384,14.931 79.16,15.192C78.936,15.453 78.763,15.757 78.642,16.102C78.521,16.447 78.432,16.797 78.376,17.152L83.892,17.152ZM231.676,17.152C231.657,16.797 231.597,16.452 231.494,16.116C231.391,15.78 231.233,15.481 231.018,15.22C230.803,14.959 230.533,14.744 230.206,14.576C229.879,14.408 229.473,14.324 228.988,14.324C228.521,14.324 228.12,14.403 227.784,14.562C227.448,14.721 227.168,14.931 226.944,15.192C226.72,15.453 226.547,15.757 226.426,16.102C226.305,16.447 226.216,16.797 226.16,17.152L231.676,17.152ZM219.048,7.016C219.048,7.781 218.801,8.383 218.306,8.822C217.811,9.261 217.228,9.48 216.556,9.48C215.884,9.48 215.301,9.261 214.806,8.822C214.311,8.383 214.064,7.781 214.064,7.016C214.064,6.251 214.311,5.649 214.806,5.21C215.301,4.771 215.884,4.552 216.556,4.552C217.228,4.552 217.811,4.771 218.306,5.21C218.801,5.649 219.048,6.251 219.048,7.016Z" style="fill:white;fill-rule:nonzero;"/>
        </g>
    </g>
</svg>
