<svg xmlns="http://www.w3.org/2000/svg" viewBox="0 0 94.78 16.193">
  <defs>
    <style>
      .cls-1 {
        fill: #e2d998;
      }

      .cls-2 {
        fill: #dbdbdb;
      }
    </style>
  </defs>
  <g id="Group_267" data-name="Group 267" transform="translate(-1493.297 -598.085)">
    <path id="Path_508" data-name="Path 508" class="cls-1" d="M784.915,271.5l2.652,5.3,5.863.838-4.188,4.188.977,5.863-5.3-2.792-5.3,2.792.977-5.863-4.188-4.188,5.863-.838Z" transform="translate(755.559 326.585)"/>
    <path id="Path_509" data-name="Path 509" class="cls-1" d="M784.915,271.5l2.652,5.3,5.863.838-4.188,4.188.977,5.863-5.3-2.792-5.3,2.792.977-5.863-4.188-4.188,5.863-.838Z" transform="translate(716.897 326.585)"/>
    <path id="Path_510" data-name="Path 510" class="cls-1" d="M798.915,271.5l2.652,5.3,5.863.838-4.188,4.188.977,5.863-5.3-2.792-5.3,2.792.977-5.863-4.188-4.188,5.863-.838Z" transform="translate(761.103 326.585)"/>
    <path id="Path_511" data-name="Path 511" class="cls-1" d="M798.915,271.5l2.652,5.3,5.863.838-4.188,4.188.977,5.863-5.3-2.792-5.3,2.792.977-5.863-4.188-4.188,5.863-.838Z" transform="translate(722.441 326.585)"/>
    <path id="Path_512" data-name="Path 512" class="cls-2" d="M812.915,271.5l2.652,5.3,5.863.838-4.188,4.188.977,5.863-5.3-2.792-5.3,2.792.977-5.863-4.188-4.188,5.863-.838Z" transform="translate(766.646 326.585)"/>
  </g>
</svg>
