<svg id="Group_252" data-name="Group 252" xmlns="http://www.w3.org/2000/svg" viewBox="0 0 94.78 16.193">
  <defs>
    <style>
      .cls-1 {
        fill: #e2dc98;
      }
    </style>
  </defs>
  <path id="Path_494" data-name="Path 494" class="cls-1" d="M784.915,271.5l2.652,5.3,5.863.838-4.188,4.188.977,5.863-5.3-2.792-5.3,2.792.977-5.863-4.188-4.188,5.863-.838Z" transform="translate(-737.738 -271.5)"/>
  <path id="Path_498" data-name="Path 498" class="cls-1" d="M784.915,271.5l2.652,5.3,5.863.838-4.188,4.188.977,5.863-5.3-2.792-5.3,2.792.977-5.863-4.188-4.188,5.863-.838Z" transform="translate(-776.4 -271.5)"/>
  <path id="Path_495" data-name="Path 495" class="cls-1" d="M798.915,271.5l2.652,5.3,5.863.838-4.188,4.188.977,5.863-5.3-2.792-5.3,2.792.977-5.863-4.188-4.188,5.863-.838Z" transform="translate(-732.195 -271.5)"/>
  <path id="Path_497" data-name="Path 497" class="cls-1" d="M798.915,271.5l2.652,5.3,5.863.838-4.188,4.188.977,5.863-5.3-2.792-5.3,2.792.977-5.863-4.188-4.188,5.863-.838Z" transform="translate(-770.856 -271.5)"/>
  <path id="Path_496" data-name="Path 496" class="cls-1" d="M812.915,271.5l2.652,5.3,5.863.838-4.188,4.188.977,5.863-5.3-2.792-5.3,2.792.977-5.863-4.188-4.188,5.863-.838Z" transform="translate(-726.651 -271.5)"/>
</svg>
