<?xml version="1.0" ?><!DOCTYPE svg  PUBLIC '-//W3C//DTD SVG 1.1//EN'  'http://www.w3.org/Graphics/SVG/1.1/DTD/svg11.dtd'><svg enable-background="new 0 0 24 24" height="24px" id="Layer_1" version="1.1" viewBox="0 0 24 24" width="24px" xml:space="preserve" xmlns="http://www.w3.org/2000/svg" xmlns:xlink="http://www.w3.org/1999/xlink"><g><path d="M20,8c0-4.4-3.6-8-8-8S4,3.6,4,8c0,3,1.6,5.5,4,6.9V24l4-2l4,2v-9.1C18.4,13.5,20,11,20,8z M15,22.5L12,21l-3,1.5v-1l3-1.5   l3,1.5V22.5z M15,20.5L12,19l-3,1.5v-5.1c0.9,0.4,1.9,0.6,3,0.6s2.1-0.2,3-0.6V20.5z M12,14c-3.3,0-6-2.7-6-6s2.7-6,6-6s6,2.7,6,6   S15.3,14,12,14z"/><path d="M12,3C9.2,3,7,5.2,7,8s2.2,5,5,5s5-2.2,5-5S14.8,3,12,3z M12,12c-2.2,0-4-1.8-4-4s1.8-4,4-4s4,1.8,4,4S14.2,12,12,12z"/></g></svg>