<?xml version="1.0" ?><svg id="Layer_2" style="enable-background:new 0 0 49 49;" version="1.1" viewBox="0 0 49 49" xml:space="preserve" xmlns="http://www.w3.org/2000/svg" xmlns:xlink="http://www.w3.org/1999/xlink"><path d="M21.9,22.9C21.3,23.4,21,24.2,21,25s0.3,1.6,0.9,2.1c0.6,0.6,1.3,0.9,2.1,0.9s1.6-0.3,2.1-0.9l6-6c0.6,1.2,0.9,2.5,0.9,3.9  c0,5-4,9-9,9s-9-4-9-9s4-9,9-9c1.4,0,2.7,0.3,3.9,0.9L21.9,22.9z M37.6,15.7c1.8,2.7,2.9,5.9,2.9,9.3c0,9.1-7.4,16.5-16.5,16.5  S7.5,34.1,7.5,25S14.9,8.5,24,8.5c3.5,0,6.7,1.1,9.3,2.9L38.7,6C34.6,2.9,29.5,1,24,1C10.7,1,0,11.7,0,25s10.7,24,24,24  s24-10.7,24-24c0-5.5-1.9-10.6-5-14.7L37.6,15.7z M48.7,0.3c-0.4-0.4-1-0.4-1.4,0l-24,24c-0.4,0.4-0.4,1,0,1.4  c0.2,0.2,0.5,0.3,0.7,0.3s0.5-0.1,0.7-0.3l24-24C49.1,1.3,49.1,0.7,48.7,0.3z"/></svg>