<?xml version="1.0" ?><!DOCTYPE svg  PUBLIC '-//W3C//DTD SVG 1.1//EN'  'http://www.w3.org/Graphics/SVG/1.1/DTD/svg11.dtd'><svg enable-background="new 0 0 100 100" height="100px" id="Layer_1" version="1.1" viewBox="0 0 100 100" width="100px" xml:space="preserve" xmlns="http://www.w3.org/2000/svg" xmlns:xlink="http://www.w3.org/1999/xlink"><path d="M10.717,83.036c0,3.013,0.529,5.26,1.472,6.962C14.563,94.272,19.641,95,26.138,95  c3.211,0,6.767-0.172,10.506-0.172h26.707c3.742,0,7.298,0.172,10.509,0.172c6.498,0,11.576-0.728,13.952-5.002  c0.941-1.702,1.473-3.949,1.473-6.962c0-7.731-3.399-14.66-8.771-19.407c-2.684-2.38-5.856-4.218-9.359-5.323  c4.449,0.501,8.351,1.267,8.351,1.267c-8.878-4.88-8.648-22.399-8.648-22.399C72.261,6.456,54.04,5,50.577,5  c-0.361,0-0.563,0.018-0.563,0.018L50,5.071L49.983,5.02c0,0-0.203-0.018-0.565-0.018c-3.462,0-21.683,1.452-20.277,32.173  c0,0,0.229,17.52-8.65,22.399c0,0,2.391-0.161,5.586-0.219c-2.424,1.083-4.644,2.533-6.606,4.273  C14.106,68.376,10.717,75.305,10.717,83.036z M55.997,65.107L50,74.855L44,65.107c-4.359-0.988-7.727-3.022-9.086-5.533  c3.519,0.305,6.497,0.952,7.271,2.217l-3.305-7.37c3.167,3.164,6.994,5.013,11.117,5.013c4.03,0,7.777-1.768,10.9-4.797  l-2.307,4.797c0.703-1.152,3.15-1.54,6.141-1.54c0.307,0,0.623,0.004,0.941,0.012C65.132,61.168,61.291,63.906,55.997,65.107z   M43.898,31.71c0,0,7.498-2.503,16.657-9.101c0.045-0.032,0.093-0.062,0.135-0.098c0,0,0.164,0.237,0.4,0.64  c0.793,1.361,2.494,5.421-0.723,7.279l5.862,0.745h0.11l1.074,0.199c-0.016,0.849-0.075,1.685-0.196,2.503  c-0.339,4.491-1.479,8.628-3.211,12.099C60.858,52.292,55.758,56.395,50,56.395c-8.778,0-16.033-9.538-17.17-21.906  C32.829,34.493,39.759,33.345,43.898,31.71z" fill="#010101"/></svg>