<svg xmlns="http://www.w3.org/2000/svg" width="59" height="66" viewBox="0 0 59 66"><g><g><path fill="#387f8a" d="M58.085 16.778a7.098 7.098 0 0 1 .915 3.47v25.5a7.126 7.126 0 0 1-3.553 6.153L33.365 64.65a7.106 7.106 0 0 1-3.552.948 7.115 7.115 0 0 1-3.553-.948L4.178 51.9a7.127 7.127 0 0 1-3.553-6.152v-25.5a7.127 7.127 0 0 1 3.552-6.152L26.26 1.346a7.127 7.127 0 0 1 7.106 0l22.08 12.75a7.084 7.084 0 0 1 2.55 2.53c.017.025.037.045.052.07.016.027.023.055.037.082zM52.97 47.61a2.158 2.158 0 0 0 1.076-1.863V21.865L33.365 33.807a7.097 7.097 0 0 1-3.552.949 7.106 7.106 0 0 1-3.553-.95l-11.041-6.374a2.476 2.476 0 0 1-.906-3.384 2.479 2.479 0 0 1 3.384-.906l11.04 6.376a2.157 2.157 0 0 0 2.15 0l20.684-11.942-20.682-11.94a2.158 2.158 0 0 0-2.153 0L6.654 18.385a2.161 2.161 0 0 0-1.076 1.864v25.499c0 .765.414 1.48 1.077 1.863l22.08 12.749a2.156 2.156 0 0 0 2.153 0z"/></g></g></svg>