<svg xmlns="http://www.w3.org/2000/svg" width="117" height="38" viewBox="0 0 117 38"><g><g><path fill="none" stroke="#b4b9c1" stroke-miterlimit="50" stroke-width="3" d="M11.487 29.193c-3.6-2.618-6.5-5.881-8.81-9.678a15.224 15.224 0 0 1-.463-.814c-.302-.575-.29-1.149.068-1.694 1.69-2.584 3.679-4.921 5.904-7.059 1.972-1.895 4.116-3.567 6.485-4.939 2.677-1.55 5.522-2.643 8.594-3.092 3.837-.561 7.549-.066 11.146 1.353 2.65 1.045 5.062 2.503 7.292 4.268a40.62 40.62 0 0 1 8.659 9.437c.376.566.409 1.16.073 1.75-2.663 4.682-6.196 8.557-10.741 11.473a24.52 24.52 0 0 1-9.033 3.55c-.542.096-1.088.18-1.636.228-.897.079-1.796.124-2.694.183-5.491-.05-10.423-1.75-14.844-4.966zm14.84-22.638c-6.263.005-11.35 5.093-11.347 11.353.002 6.275 5.105 11.371 11.368 11.349 6.28-.021 11.348-5.1 11.334-11.359-.014-6.273-5.094-11.348-11.355-11.343z"/></g><g><path fill="none" stroke="#b4b9c1" stroke-miterlimit="50" stroke-width="3" d="M31.196 17.911a4.864 4.864 0 0 1-4.879 4.861 4.872 4.872 0 0 1-4.854-4.866 4.88 4.88 0 0 1 4.882-4.866 4.873 4.873 0 0 1 4.851 4.871z"/></g><g><path fill="#b4b9c1" d="M87.35 37.26v-9.258h-5.175c-1.168.001-2.046-.494-2.552-1.557-.142-.3-.173-.654-.248-.985-.02-.086-.006-.179-.006-.268V4.162c0-1.283.677-2.285 1.828-2.657.296-.097.623-.138.935-.138 10.588-.007 21.176-.007 31.764-.004 1.627.001 2.758 1.146 2.758 2.78.002 7.01-.014 14.02.013 21.03.005 1.437-1.051 2.85-2.85 2.836-3.521-.025-7.042-.007-10.563-.007-2.095 0-4.19.002-6.285-.004a.623.623 0 0 0-.491.2c-2.96 2.966-5.922 5.928-8.884 8.891-.063.063-.118.133-.177.2zm2.668-6.608c.118-.112.183-.17.244-.233 1.632-1.63 3.265-3.26 4.89-4.896a.594.594 0 0 1 .47-.19c6.015.004 12.03.003 18.046.003h.314V4.037H82.04v21.301h7.977z"/></g><g><path fill="#b4b9c1" d="M69.667 16.167H61c-1.931 0-1.934 3 0 3h8.667c1.93 0 1.934-3 0-3z"/></g><g><path fill="#b4b9c1" d="M63.833 13.334V22c0 1.93 3 1.933 3 0v-8.667c0-1.931-3-1.934-3 0z"/></g></g></svg>