<svg id="Layer_1" data-name="Layer 1" xmlns="http://www.w3.org/2000/svg" viewBox="0 0 52.55 58.7"><defs><style>.cls-1{fill:#fff;}</style></defs><title>footer-logo</title><path id="_Compound_Path_" data-name="&lt;Compound Path&gt;" class="cls-1" d="M665.44,25.65l0-.07,0-.06a6.39,6.39,0,0,0-2.3-2.28L643.18,11.76a6.41,6.41,0,0,0-6.4,0L616.9,23.24h0a6.42,6.42,0,0,0-3.2,5.54v23a6.41,6.41,0,0,0,3.2,5.54l19.88,11.48a6.41,6.41,0,0,0,6.4,0l19.88-11.48a6.41,6.41,0,0,0,3.2-5.54v-23A6.39,6.39,0,0,0,665.44,25.65Zm-4.6,27.76L641,64.89a1.94,1.94,0,0,1-1.94,0L619.13,53.41a1.94,1.94,0,0,1-1-1.68v-23a1.94,1.94,0,0,1,1-1.68h0L639,15.62a1.94,1.94,0,0,1,1.94,0l18.62,10.75L641,37.12a1.94,1.94,0,0,1-1.94,0l-9.94-5.74a2.23,2.23,0,1,0-2.23,3.86L636.79,41a6.41,6.41,0,0,0,6.4,0L661.8,30.23v21.5A1.94,1.94,0,0,1,660.83,53.41Z" transform="translate(-613.71 -10.9)"/></svg>