<svg xmlns="http://www.w3.org/2000/svg" width="360" height="79" viewBox="0 0 360 79"><g><g><path fill="#3199d2" d="M89.588 44.453c.089 1.661.57 2.98 1.446 3.958.873.98 2.023 1.47 3.447 1.47.95 0 1.788-.216 2.514-.646.726-.43 1.192-1.03 1.401-1.802h5.962c-.683 2.254-1.869 3.99-3.56 5.206-1.69 1.217-3.706 1.824-6.05 1.824-7.295 0-10.944-3.974-10.944-11.924 0-1.69.238-3.217.712-4.582.475-1.364 1.164-2.536 2.069-3.515.905-.978 2.009-1.727 3.315-2.245 1.305-.519 2.802-.78 4.493-.78 3.382 0 5.939 1.083 7.674 3.25 1.736 2.164 2.602 5.426 2.602 9.786zm9.12-3.648c-.03-.8-.17-1.505-.423-2.113-.253-.609-.586-1.113-1-1.514a3.995 3.995 0 0 0-1.425-.889 4.81 4.81 0 0 0-1.647-.29c-1.156 0-2.157.424-3.002 1.268-.845.846-1.328 2.024-1.446 3.538z"/></g><g><path fill="#3199d2" d="M106.76 53.885V24.344h14.548c2.906 0 5.116.719 6.629 2.158 1.513 1.438 2.269 3.403 2.269 5.894 0 1.275-.343 2.41-1.023 3.404-.683.994-1.543 1.698-2.581 2.114a8.62 8.62 0 0 1 1.758.91 5.428 5.428 0 0 1 1.423 1.425c.4.578.72 1.26.956 2.046.237.786.355 1.713.355 2.78 0 2.699-.902 4.843-2.713 6.43-1.81 1.587-4.581 2.38-8.32 2.38zm5.96-24.425v6.407h7.788c2.49 0 3.736-1.07 3.736-3.203 0-1.127-.318-1.943-.956-2.448-.638-.503-1.683-.756-3.136-.756zm7.83 19.397c1.425 0 2.538-.4 3.338-1.201.802-.801 1.202-1.81 1.202-3.025 0-1.305-.393-2.253-1.18-2.847-.786-.594-1.876-.891-3.27-.891h-7.92v7.964z"/></g><g><path fill="#3199d2" d="M132.695 53.885v-21.89h5.43v2.626c.473-.74.97-1.32 1.49-1.735a6.451 6.451 0 0 1 1.601-.957 6.153 6.153 0 0 1 1.667-.422c.564-.06 1.142-.09 1.736-.09h.757v5.917a9.857 9.857 0 0 0-1.602-.133c-3.53 0-5.294 1.765-5.294 5.295v11.389z"/></g><g><path fill="#3199d2" d="M160.057 53.885c-.179-.564-.297-1.217-.356-1.958-.683.772-1.587 1.387-2.714 1.847-1.127.458-2.432.69-3.915.69-2.52 0-4.368-.557-5.54-1.669-1.17-1.113-1.757-2.559-1.757-4.339 0-1.57.252-2.825.757-3.759a5.63 5.63 0 0 1 2.091-2.2c.89-.536 1.95-.928 3.18-1.18a68.647 68.647 0 0 1 4.026-.69c1.453-.207 2.432-.482 2.938-.824.503-.34.755-.896.755-1.668 0-.712-.333-1.268-1-1.669-.668-.399-1.566-.599-2.693-.599-1.333 0-2.29.296-2.868.89-.578.593-.943 1.378-1.09 2.357h-5.384c.03-1.127.215-2.165.557-3.115a5.959 5.959 0 0 1 1.646-2.446c.757-.682 1.741-1.208 2.958-1.58 1.216-.37 2.698-.556 4.45-.556 1.72 0 3.18.194 4.381.58 1.201.384 2.164.94 2.892 1.667.726.728 1.253 1.632 1.58 2.714.326 1.083.488 2.306.488 3.67v13.837zm-.4-10.722c-.298.296-.729.534-1.29.711-.565.18-1.38.372-2.448.58-1.66.325-2.803.74-3.426 1.245-.622.504-.934 1.231-.934 2.18 0 1.631.934 2.447 2.803 2.447.741 0 1.43-.127 2.068-.379a5.118 5.118 0 0 0 1.646-1.024c.46-.429.831-.934 1.113-1.512a4.168 4.168 0 0 0 .423-1.846z"/></g><g><path fill="#3199d2" d="M182.213 53.885V40.627c0-1.691-.283-2.832-.847-3.426-.563-.593-1.528-.89-2.891-.89-2.997 0-4.493 1.676-4.493 5.028v12.546h-5.785v-21.89h5.518V35.2c.682-1.245 1.586-2.187 2.713-2.825 1.127-.637 2.58-.957 4.36-.957 1.038 0 2.003.156 2.892.468a6.164 6.164 0 0 1 2.292 1.4c.637.624 1.14 1.388 1.512 2.292.37.905.556 1.95.556 3.137v15.17z"/></g><g><path fill="#3199d2" d="M205.97 53.885l-.045-2.67c-1.335 2.166-3.366 3.248-6.095 3.248-1.395 0-2.67-.266-3.826-.801a8.37 8.37 0 0 1-2.981-2.312c-.832-1.01-1.484-2.24-1.958-3.693-.474-1.453-.712-3.1-.712-4.94 0-1.66.201-3.18.601-4.56.4-1.378.985-2.571 1.758-3.58a7.937 7.937 0 0 1 2.824-2.336c1.112-.55 2.381-.824 3.804-.824 2.698 0 4.865 1.143 6.495 3.427V23.988h5.695v29.897zm-1.313-5.872c.935-1.158 1.402-2.67 1.402-4.538 0-4.745-1.618-7.12-4.85-7.12-3.322 0-4.982 2.255-4.982 6.764 0 1.958.459 3.552 1.378 4.783.919 1.23 2.106 1.845 3.56 1.845 1.394 0 2.557-.578 3.492-1.734z"/></g><g><path fill="#3199d2" d="M214.154 53.885V24.344h14.547c2.907 0 5.117.719 6.63 2.158 1.512 1.438 2.268 3.403 2.268 5.894 0 1.275-.34 2.41-1.023 3.404-.682.994-1.542 1.698-2.58 2.114.622.237 1.208.54 1.757.91a5.413 5.413 0 0 1 1.423 1.425c.402.578.72 1.26.958 2.046.237.786.355 1.713.355 2.78 0 2.699-.904 4.843-2.713 6.43-1.81 1.587-4.583 2.38-8.32 2.38zm5.962-24.425v6.407h7.785c2.491 0 3.736-1.07 3.736-3.203 0-1.127-.318-1.943-.956-2.448-.638-.503-1.683-.756-3.136-.756zm7.83 19.397c1.423 0 2.535-.4 3.337-1.201.8-.801 1.2-1.81 1.2-3.025 0-1.305-.393-2.253-1.179-2.847-.787-.594-1.877-.891-3.27-.891h-7.918v7.964z"/></g><g><path fill="#3199d2" d="M254.327 53.885v-3.07c-1.482 2.433-3.752 3.648-6.806 3.648-1.098 0-2.099-.193-3.004-.578a6.677 6.677 0 0 1-2.336-1.646 7.803 7.803 0 0 1-1.535-2.536c-.37-.98-.555-2.075-.555-3.292V31.996h5.784V45.52c0 2.73 1.23 4.094 3.691 4.094 1.484 0 2.604-.467 3.361-1.401.754-.935 1.133-2.13 1.133-3.582V31.996h5.74v21.889z"/></g><g><path fill="#3199d2" d="M262.691 29.372h5.783v-5.384h-5.783zm0 24.513h5.783V31.996h-5.783z"/></g><g><path fill="#3199d2" d="M271.366 23.988h5.784v29.897h-5.784z"/></g><g><path fill="#3199d2" d="M295.034 53.885l-.044-2.67c-1.335 2.166-3.366 3.248-6.095 3.248-1.395 0-2.67-.266-3.826-.801a8.37 8.37 0 0 1-2.98-2.312c-.833-1.01-1.485-2.24-1.959-3.693-.475-1.453-.712-3.1-.712-4.94 0-1.66.201-3.18.6-4.56.401-1.378.986-2.571 1.76-3.58a7.929 7.929 0 0 1 2.823-2.336c1.112-.55 2.381-.824 3.804-.824 2.698 0 4.865 1.143 6.495 3.427V23.988h5.695v29.897zm-1.311-5.872c.935-1.158 1.402-2.67 1.402-4.538 0-4.745-1.618-7.12-4.85-7.12-3.322 0-4.982 2.255-4.982 6.764 0 1.958.458 3.552 1.377 4.783.92 1.23 2.105 1.845 3.56 1.845 1.394 0 2.557-.578 3.492-1.734z"/></g><g><path fill="#3199d2" d="M308.648 44.453c.09 1.661.57 2.98 1.446 3.958.875.98 2.026 1.47 3.448 1.47.95 0 1.788-.216 2.514-.646.727-.43 1.193-1.03 1.4-1.802h5.962c-.682 2.254-1.868 3.99-3.558 5.206-1.691 1.217-3.707 1.824-6.05 1.824-7.297 0-10.945-3.974-10.945-11.924 0-1.69.237-3.217.712-4.582.474-1.364 1.164-2.536 2.069-3.515.903-.978 2.009-1.727 3.313-2.245 1.305-.519 2.804-.78 4.495-.78 3.38 0 5.939 1.083 7.674 3.25 1.735 2.164 2.602 5.426 2.602 9.786zm9.12-3.648c-.028-.8-.17-1.505-.422-2.113-.252-.609-.586-1.113-1.001-1.514a4.004 4.004 0 0 0-1.424-.889 4.8 4.8 0 0 0-1.646-.29c-1.155 0-2.157.424-3.002 1.268-.847.846-1.328 2.024-1.446 3.538z"/></g><g><path fill="#3199d2" d="M325.953 53.885v-21.89h5.428v2.626c.474-.74.971-1.32 1.491-1.735a6.16 6.16 0 0 1 3.269-1.379c.564-.06 1.141-.09 1.735-.09h.757v5.917a9.838 9.838 0 0 0-1.602-.133c-3.529 0-5.294 1.765-5.294 5.295v11.389z"/></g><g><path fill="#3199d2" d="M353.047 38.624c-.148-1.007-.526-1.741-1.135-2.201-.608-.46-1.535-.691-2.78-.691-1.187 0-2.085.142-2.691.423-.61.282-.913.764-.913 1.447 0 .593.304 1.067.913 1.423.606.356 1.49.698 2.646 1.023 1.898.534 3.5.986 4.806 1.357 1.304.371 2.349.808 3.136 1.313.785.504 1.349 1.135 1.69 1.891.342.755.512 1.772.512 3.047 0 1.958-.816 3.581-2.447 4.871-1.632 1.29-4.05 1.936-7.252 1.936-1.572 0-2.997-.177-4.271-.533-1.276-.357-2.365-.868-3.27-1.535-.904-.668-1.602-1.469-2.09-2.403-.491-.934-.75-1.98-.78-3.137h5.963c0 1.039.406 1.839 1.223 2.403.815.563 1.875.845 3.18.845 1.098 0 2.039-.17 2.826-.512.786-.341 1.179-.867 1.179-1.579 0-.801-.29-1.379-.868-1.735-.578-.356-1.461-.668-2.646-.934-2.136-.474-3.856-.972-5.162-1.49-1.305-.52-2.321-1.09-3.047-1.713-.727-.623-1.217-1.305-1.468-2.047-.252-.741-.38-1.572-.38-2.491 0-.83.17-1.617.513-2.358.342-.741.883-1.394 1.625-1.958.74-.563 1.705-1.016 2.89-1.357 1.187-.341 2.64-.512 4.362-.512 3.142 0 5.44.638 6.895 1.914 1.452 1.275 2.253 3.04 2.402 5.293z"/></g><g><path fill="#3199d2" d="M69.649 19.78a8.513 8.513 0 0 1 1.098 4.163V54.51a8.54 8.54 0 0 1-4.26 7.375L40.016 77.168a8.5 8.5 0 0 1-4.258 1.137 8.515 8.515 0 0 1-4.26-1.137L5.029 61.885A8.538 8.538 0 0 1 .77 54.51V23.943a8.54 8.54 0 0 1 4.258-7.376l26.47-15.283a8.537 8.537 0 0 1 8.52 0l26.469 15.283a8.503 8.503 0 0 1 3.057 3.032c.019.03.044.055.062.085.018.032.027.065.043.097zm-6.13 36.963a2.585 2.585 0 0 0 1.29-2.233V25.88L40.016 40.197a8.511 8.511 0 0 1-4.258 1.137 8.526 8.526 0 0 1-4.26-1.137l-13.234-7.642a2.97 2.97 0 0 1 2.97-5.143l13.235 7.643a2.585 2.585 0 0 0 2.578 0L61.84 20.74 37.048 6.425a2.591 2.591 0 0 0-2.581 0L7.997 21.709a2.585 2.585 0 0 0-1.29 2.234V54.51c0 .918.495 1.774 1.29 2.233l26.47 15.284a2.59 2.59 0 0 0 2.58 0z"/></g></g></svg>