<?xml version="1.0" encoding="UTF-8"?>
<svg id="SVGDoc" width="32" height="32" xmlns="http://www.w3.org/2000/svg" version="1.1" xmlns:xlink="http://www.w3.org/1999/xlink" xmlns:avocode="https://avocode.com/" viewBox="0 0 32 32"><defs><clipPath id="clip-A004D1C0-DA83-E621-E1EC-D6713C303ACC"><path d="M0,0v0h32v0v32v0h-32v0z" ></path></clipPath></defs><desc>Generated with Avocode.</desc><g><g><title>Group 3</title><g><title>Clip 2</title></g><g clip-path="url(#clip-A004D1C0-DA83-E621-E1EC-D6713C303ACC)"><title>Fill 1</title><path d="M21.42986,31.98442v0v-11.79535c0.13748,-0.00807 0.27663,-0.02313 0.41571,-0.02335c1.07947,-0.00197 2.15915,-0.01222 3.23824,0.00633c0.29425,0.00516 0.40509,-0.10739 0.4572,-0.37332c0.28785,-1.46976 0.58573,-2.93748 0.87663,-4.40659c0.02038,-0.10259 0.01288,-0.21078 0.0206,-0.36087h-5.03116c0.03581,-1.0915 -0.10983,-2.14808 0.16906,-3.18028c0.29876,-1.10583 1.22401,-1.76086 2.49349,-1.78872c0.67889,-0.01492 1.3585,-0.0147 2.03739,-0.00102c0.27379,0.00553 0.39097,-0.0681 0.38864,-0.36459c-0.01143,-1.47915 -0.00917,-2.95844 -0.00262,-4.43766c0.00116,-0.24562 -0.07504,-0.34297 -0.33406,-0.34086c-1.38259,0.01113 -2.76619,-0.02503 -4.14769,0.01615c-2.47187,0.0737 -4.54441,1.72244 -5.28021,4.26653c-0.26222,0.90699 -0.35429,1.87349 -0.4323,2.82042c-0.07046,0.85511 -0.01485,1.72048 -0.01696,2.58134c-0.00029,0.1298 -0.0123,0.2596 -0.02074,0.426h-3.96771c-0.01201,0.14013 -0.0286,0.24453 -0.02875,0.34901c-0.00175,1.46707 0.00655,2.93428 -0.00771,4.40128c-0.00292,0.30376 0.09104,0.39478 0.39118,0.39063c1.07932,-0.01477 2.159,0.00306 3.23824,-0.01069c0.28654,-0.00364 0.4032,0.0582 0.40226,0.37622c-0.01048,3.69802 -0.00976,7.39617 -0.00219,11.09426c0.00066,0.28411 -0.08267,0.37201 -0.37059,0.3707c-2.24371,-0.01099 -4.48757,-0.00837 -6.73135,-0.00619c-3.92099,0.00386 -7.46985,-2.56686 -8.72442,-6.34076c-0.29148,-0.87672 -0.45749,-1.7781 -0.45727,-2.70714c0.00102,-4.58324 0.00233,-9.16641 -0.00276,-13.74966c-0.00503,-4.51318 3.36414,-8.33692 7.63898,-9.04208c0.55843,-0.09203 1.1307,-0.13838 1.69678,-0.13976c4.43902,-0.01084 8.87841,0.02503 13.31722,-0.01404c4.34419,-0.0382 8.24909,3.00551 9.15796,7.38816c0.10494,0.50632 0.1719,1.0306 0.17343,1.54674c0.01325,4.66808 0.02576,9.33623 0.00313,14.00424c-0.02031,4.19211 -3.09261,7.92803 -7.19103,8.83559c-1.10188,0.24403 -2.2095,0.22519 -3.36662,0.20933" fill="#ffffff" fill-opacity="1"></path></g></g></g></svg>