<?xml version="1.0" encoding="UTF-8"?>
<svg width="1515px" height="920px" viewBox="0 0 1515 920" version="1.1" xmlns="http://www.w3.org/2000/svg" xmlns:xlink="http://www.w3.org/1999/xlink">
    <!-- Generator: Sketch 53.2 (72643) - https://sketchapp.com -->
    <title>Group</title>
    <desc>Created with Sketch.</desc>
    <defs>
        <linearGradient x1="50%" y1="100%" x2="50%" y2="6.53950944%" id="linearGradient-1">
            <stop stop-color="#F3F9EF" stop-opacity="0" offset="0%"></stop>
            <stop stop-color="#B1D9DB" offset="100%"></stop>
        </linearGradient>
    </defs>
    <g id="LAST-VERSION-HERE" stroke="none" stroke-width="1" fill="none" fill-rule="evenodd">
        <g id="FAQ" transform="translate(-405.000000, 0.000000)">
            <g id="Group" transform="translate(355.814038, -326.954409)">
                <path d="M1249.80442,1308.16214 C1503.69657,1332.76315 1793,1240.08415 1793,1001.48383 C1793,543.951659 250.447468,140 215.347854,140 C215.347854,140 89,849.592751 89,856.487571 C89,863.382391 995.912267,1283.56113 1249.80442,1308.16214 Z" id="Oval-3-Copy-2" fill="url(#linearGradient-1)" transform="translate(941.000000, 726.000000) scale(-1, 1) rotate(-10.000000) translate(-941.000000, -726.000000) "></path>
                <g id="undraw_questions_75e0" transform="translate(431.185962, 524.954409)" fill-rule="nonzero">
                    <ellipse id="Oval" fill="#B1D9DB" opacity="0.1" cx="385" cy="671" rx="83" ry="8"></ellipse>
                    <path d="M301,345.959153 C304.334157,340.278787 310.636824,337.212457 317,338.174945 L317,350 L310.048,350 L304.608,348.57868 L301,345.959153 Z" id="Path" fill="#4C4981"></path>
                    <path d="M301,345.959153 C304.334157,340.278787 310.636824,337.212457 317,338.174945 L317,350 L310.048,350 L304.608,348.57868 L301,345.959153 Z" id="Path" fill="#000000" opacity="0.1"></path>
                    <path d="M317,340.872008 L308.370602,347 C308.370602,347 308.297677,345.776044 308.078904,344.100293 C307.64946,340.929509 306.685236,336.173333 304.602836,335.253313 C301.434672,333.840424 266.163527,320.385128 278.674128,315.858957 C291.18473,311.332786 310.380077,326.168112 310.380077,326.168112 C310.380077,326.168112 311.368609,326.51312 312.948639,329.82355 C313.758911,331.565017 314.868984,334.53044 315.703565,336.953707 C316.473323,339.138755 317,340.872008 317,340.872008 Z" id="Path" fill="#AE6E79"></path>
                    <polygon id="Path" fill="#4C4981" points="386.321809 350.464832 387.287234 350 390 353.164118 387.781915 358 384 356.450561 384.87766 352.585117"></polygon>
                    <path d="M373.579798,632.004973 C373.579798,632.004973 371.096479,631.715848 370.106397,635.546748 C369.116316,639.377648 367.623078,650.002974 367.623078,650.002974 C367.623078,650.002974 367.030652,656.484182 365.837685,657.96193 C364.644718,659.439678 363.459866,668.667569 371.89179,669.840129 C380.323714,671.01269 384,665.350668 384,665.350668 L383.699729,639.594492 L373.579798,632.004973 Z" id="Path" fill="#444053"></path>
                    <path d="M403.215872,633 C403.215872,633 408.607918,638.739229 408.508981,645.249154 C408.410045,651.759079 407.898872,660.687679 407.898872,660.687679 C407.898872,660.687679 407.404189,664.303394 408.508981,665.303659 C409.613773,666.303925 408.508981,671.321651 408.508981,671.321651 C408.508981,671.321651 399.027555,680.069875 391.063158,670.58375 C391.063158,670.58375 389.513151,665.164278 390.156239,661.671547 C390.799327,658.178817 392.596675,642.477926 392.596675,642.477926 L403.215872,633 Z" id="Path" fill="#444053"></path>
                    <path d="M416,515.441902 C416,515.441902 410.655398,530.368723 408.371795,533.829546 C406.088192,537.290369 404.517203,543.532788 404.517203,543.532788 L402.436047,556.284465 C402.029767,559.135598 401.7972,562.00873 401.739629,564.888007 C401.836804,567.758549 396.589376,609.579523 396.589376,609.579523 L388.272851,620.164143 C388.272851,620.164143 384.612608,627.579038 385.203754,630.675989 C385.794899,633.77294 384.806957,638.68925 383.584177,640.168994 C383.584177,640.168994 383.389828,649.872237 383.090206,652.031208 C382.790585,654.190179 384.18342,660.343652 383.090206,661.427181 C381.996992,662.510709 367.445098,662.025547 367.048302,660.238534 C366.651505,658.45152 368.829836,649.856064 368.829836,649.856064 L370.117399,641.551706 C370.117399,641.551706 372.692526,637.007355 372.10138,635.519524 C371.510235,634.031694 373.186496,630.578957 373.283671,630.279773 C373.380846,629.98059 376.061245,625.137055 375.567274,623.261095 C375.073303,621.385135 378.684958,581.488637 378.684958,581.488637 L388.880192,510 L416,515.441902 Z" id="Path" fill="#AE6E79"></path>
                    <path d="M416,515.427032 C416,515.427032 415.190212,517.67549 414.080802,520.627601 C412.315464,525.286276 409.772729,531.700041 408.371795,533.819091 C406.09629,537.280745 404.509105,543.524662 404.509105,543.524662 L402.427949,556.287489 C402.025715,559.139619 401.795858,562.013359 401.739629,564.893096 C401.739629,566.025413 400.978428,573.247976 400.006682,581.570504 C398.508574,594.292891 396.589376,609.595342 396.589376,609.595342 L388.272851,620.182503 C388.272851,620.182503 387.851761,620.991301 387.325399,622.269201 C386.280772,624.695594 384.806957,628.634439 385.203754,630.664521 C385.794899,633.729864 384.806957,638.671618 383.584177,640.159805 C383.584177,640.159805 383.38173,649.865377 383.090206,652.024867 C382.798683,654.184356 384.18342,660.331219 383.090206,661.423095 C381.996992,662.514972 367.445098,662.021606 367.048302,660.242251 C366.651505,658.462896 368.829836,649.857289 368.829836,649.857289 L370.117399,641.542849 C370.117399,641.542849 372.692526,636.997406 372.093282,635.509219 C371.494039,634.021031 373.186496,630.567465 373.283671,630.26821 C373.380846,629.968955 376.061245,625.124257 375.567274,623.247846 C375.186673,621.816275 377.18685,598.385407 378.118107,587.272527 C378.433924,583.778521 378.636371,581.5058 378.636371,581.5058 L387.406378,519.988651 L388.118991,515.030721 L388.831605,510 L416,515.427032 Z" id="Path" fill="#000000" opacity="0.1"></path>
                    <path d="M406.999579,664.078899 C407.088655,665.176663 393.030789,666.770453 391.022522,665.575111 C389.014256,664.379768 391.022522,649.564024 391.022522,649.564024 L391.937579,642.806679 C390.95774,642.700968 389.467735,637.334123 390.156052,636.041202 C390.84437,634.74828 389.564909,629.283856 389.564909,629.283856 L387.232729,621.965432 L385.807508,617.48493 C383.491523,612.353901 380.139013,597.717052 378.057866,586.788204 C376.746014,579.925149 375.911936,574.517646 376.098187,573.826461 C376.592155,572.037513 375.288402,559.010717 375.288402,559.010717 C375.288402,559.010717 373.668832,545.780632 371.531,541.60913 C370.081485,538.844392 367.255335,528.460361 365.5062,521.759936 C364.615437,518.320277 364,515.848276 364,515.848276 C364,515.848276 378.964825,514.58788 388.042514,514.148775 C392.212906,513.945485 395.144327,513.921091 394.804218,514.262617 C394.464108,514.604144 394.375032,516.425618 394.391228,519.060251 C394.431717,525.882649 395.379165,537.884865 396.383298,541.113104 C397.768031,545.585474 399.152763,559.002586 398.56162,560.303639 C397.970477,561.604692 398.164825,570.248565 398.164825,570.248565 C399.185124,573.760072 399.772557,577.384011 399.913961,581.039175 C400.230651,587.51502 400.117029,594.004862 399.573851,600.465527 C399.573851,600.465527 401.055757,624.632591 400.658963,626.917566 C400.262168,629.202541 403.825222,636.366465 403.825222,637.756966 C403.825222,639.147466 404.813159,648.596366 404.813159,648.596366 C404.813159,648.596366 406.934796,662.989267 406.999579,664.078899 Z" id="Path" fill="#AE6E79"></path>
                    <path d="M415,374.06977 L413.305713,375.914567 L412.200392,377.117342 L405.745966,384.106442 L389.069341,386 L380.194505,383.610703 L378,383.017442 C378,383.017442 378,378.531416 378.395334,373.151434 C378.960096,366.25173 380.307457,357.872938 383.526603,355.58929 C385.138617,354.318315 386.425034,352.676973 387.278238,350.80257 C387.922107,349.510094 388.461716,348.167541 388.891845,346.787901 C388.956389,346.60911 389.004797,346.438446 389.061273,346.259655 C389.787301,343.851197 390.310881,341.38548 390.626472,338.888593 C390.626472,338.888593 392.756433,337.702071 395.717401,336.320505 C403.438509,332.687799 416.774967,327.673526 412.135848,338.888593 C411.45403,340.530985 410.872057,342.213645 410.393153,343.927246 C410.320541,344.179179 410.255997,344.431111 410.19952,344.674917 C408.650458,350.916346 409.675098,354.703462 410.828827,356.792065 L410.828827,356.792065 C411.023857,357.153843 411.247812,357.499021 411.498474,357.824177 C411.813616,358.260211 412.191598,358.646427 412.61993,358.970064 L414.540122,371.249749 L414.701483,372.265607 L415,374.06977 Z" id="Path" fill="#AE6E79"></path>
                    <path d="M412.050829,340.063204 C411.178722,342.245468 412.474881,338.280745 412.050829,340.063204 C408.562401,342.645272 400.345392,350 395.728826,350 C392.608443,350 391.672328,349.408623 389,348.150906 C389.808721,345.515145 390.384516,342.808001 390.720211,340.063204 C390.720211,340.063204 418.411609,324.170995 412.050829,340.063204 Z" id="Path" fill="#000000" opacity="0.1"></path>
                    <path d="M419,326.5 C418.991091,337.499124 410.687953,346.720582 399.75,347.879032 C399.008065,347.951613 398.258065,348 397.5,348 C385.625878,348 376,338.374122 376,326.5 C376,314.625878 385.625878,305 397.5,305 C409.374122,305 419,314.625878 419,326.5 L419,326.5 Z" id="Path" fill="#AE6E79"></path>
                    <path d="M422,422.431817 L418.890939,430.461985 C418.890939,430.461985 416.362781,430.567325 412.419183,430.688872 C399.107493,431.110233 369.775956,431.645037 368.466878,428.257943 C368.173377,427.398738 368.018745,426.499013 368.0087,425.592024 C367.836884,420.430352 370.26686,412.505524 370.26686,412.505524 C370.26686,412.505524 371.665938,396.647764 371.665938,395.959001 C371.665938,395.270238 370.463222,384.160893 370.463222,384.160893 L372.868654,375.247487 L379.569498,370.588207 C379.569498,370.588207 382.572197,375.15025 384.372179,375.539199 C386.172162,375.928147 388.577594,378.124086 388.577594,378.124086 C388.577594,378.124086 394.476628,381.689449 396.382973,379.70419 C398.289319,377.718932 413.090086,369 413.090086,369 L420.895465,377.524457 L422,422.431817 Z" id="Path" fill="#000000" opacity="0.1"></path>
                    <path d="M422,423.440853 L418.947126,431.464274 C418.947126,431.464274 416.464658,431.577737 412.592329,431.699304 L412.214737,431.699304 C410.54369,431.756035 408.631628,431.812767 406.591023,431.853289 C396.203219,432.096423 381.894883,432.161259 374.415343,431.042842 C371.603485,430.637619 369.763727,430.054097 369.45844,429.25986 C369.289121,428.782217 369.170624,428.287767 369.104949,427.784847 C369.056746,427.412041 369.024611,426.9744 369.008543,426.59349 C368.839832,421.430945 371.225893,413.504777 371.225893,413.504777 C371.225893,413.504777 372.599686,397.644335 372.599686,396.955456 C372.599686,396.266576 371.418706,385.155352 371.418706,385.155352 L373.780666,376.240439 L378.303739,373.047279 L380.360412,371.588475 C381.052184,372.63311 381.806072,373.634496 382.617932,374.587128 C383.252021,375.445773 384.100236,376.119681 385.076298,376.540305 C386.851785,376.937423 389.205711,379.125629 389.205711,379.125629 C389.205711,379.125629 394.998137,382.691595 396.870031,380.706 C398.292027,379.190465 407.129292,373.736159 411.210502,371.248088 C412.463787,370.478164 413.275209,370 413.275209,370 L414.303545,371.150834 L420.939528,378.525899 L422,423.440853 Z" id="Path" fill="#FFFFFF"></path>
                    <path d="M317,340.900245 L308.294278,347 C308.294278,347 308.220708,345.781684 308,344.113655 C312.299728,342.298446 314.915531,338.283729 315.667575,337 C316.468665,339.17498 317,340.900245 317,340.900245 Z" id="Path" fill="#000000" opacity="0.1"></path>
                    <path d="M347.762995,361.727852 L345.896658,361.222484 C345.896658,361.222484 342.839728,364.482924 341.069926,364.914932 C339.300124,365.34694 335.56745,367.800422 335.56745,367.800422 L331.231436,371.289092 C331.231436,371.289092 328.013614,371.794461 328.970916,369.49585 C329.928218,367.19724 327.201114,364.311751 327.201114,364.311751 C327.201114,364.311751 321.690594,352.851304 321.690594,350.454881 C321.690594,348.058457 317.137376,338 317.137376,338 C317.137376,338 311.425743,349.26482 301,345.678336 C301,345.678336 308.57797,362.917913 308.77104,367.205391 C308.964109,371.49287 313.983911,383.450534 313.983911,383.450534 C313.983911,383.450534 315.858292,392.327081 325.986386,391.829864 C325.986386,391.829864 339.959777,394.46267 343.008663,391.829864 C346.05755,389.197059 348.808787,387.12668 350.248762,386.825089 C351.688738,386.523498 353,384.836221 353,384.836221 L353,372.984521 L347.762995,361.727852 Z" id="Path" fill="#B1D9DB"></path>
                    <path d="M330,373 C330,373 331.74309,382.031746 330.626601,383 L330,373 Z" id="Path" fill="#000000" opacity="0.1"></path>
                    <path d="M416,514.603645 C416,514.603645 415.188514,516.918374 414.076779,519.957498 C408.599251,519.616117 401.344569,519.258083 394.455056,519.208125 C392.020599,519.208125 389.634831,519.208125 387.378901,519.291389 C382.591136,519.441263 378.452559,519.840929 375.815231,520.606955 C372.480664,521.660372 368.995347,522.122176 365.509363,521.972479 C364.616729,518.450426 364,515.91921 364,515.91921 C364,515.91921 378.996255,514.628624 388.093009,514.179 L388.807116,509 L416,514.603645 Z" id="Path" fill="#000000" opacity="0.1"></path>
                    <path d="M427,478.593091 L425.321468,482.168 C425.321468,482.168 425.087442,483.232348 424.788857,484.922305 C424.159407,488.562212 423.174884,495.127046 423.546098,500.359413 C424.038359,508.012969 422.456666,542.631424 422.456666,552.631424 C422.456666,562.631424 386.142273,549.552127 375.490051,552.631424 C364.837829,555.71072 359.592417,552.631424 359.592417,552.631424 C359.592417,552.631424 360.883595,508.110466 357.720208,502.146868 C355.565554,498.084471 354.048419,479.949931 354,468.022734 C354,462.522249 354.274375,458.354229 354.960314,457.509251 C357.131108,454.828069 366.403383,428 366.403383,428 L368.517687,428.113747 L374.166593,428.414364 L406.284656,430.120571 L411.328322,430.388689 L411.860933,432.013648 L427,478.593091 Z" id="Path" fill="#223554"></path>
                    <path d="M443.70395,466.877249 L444,470 C444,470 428.229312,464.885698 429.029448,458.600365 C429.829585,452.315031 429.029448,453.024023 429.029448,453.024023 L441.703609,454.091494 L443.70395,466.877249 Z" id="Path" fill="#4C4981"></path>
                    <path d="M443.70395,466.877249 L444,470 C444,470 428.229312,464.885698 429.029448,458.600365 C429.829585,452.315031 429.029448,453.024023 429.029448,453.024023 L441.703609,454.091494 L443.70395,466.877249 Z" id="Path" fill="#000000" opacity="0.1"></path>
                    <path d="M340.408862,375.810015 C342.030179,377.320938 343.941309,378.41132 346,379 C345.40391,378.858114 344.849863,378.554265 344.388721,378.116348 C343.252769,377.232695 342.173212,376.269514 341.077543,375.332842 C340.191339,374.572901 339.087613,373.309278 338,373 C338.71205,374.025658 339.519338,374.967386 340.408862,375.810015 Z" id="Path" fill="#000000" opacity="0.1"></path>
                    <path d="M341.403913,379.94402 C341.918241,380.521783 342.334828,381.178796 342.637407,381.889402 C343.149475,383.898509 343.11868,386.006542 342.548141,388 L339.983773,381.849042 C339.537444,380.799666 339.091114,379.750289 338.555518,378.749346 C338.320181,378.321524 336.843235,376.537584 337.013652,376.166267 C337.468097,375.11689 340.925123,379.354755 341.403913,379.94402 Z" id="Path" fill="#000000" opacity="0.1"></path>
                    <path d="M412.315046,413.592551 C414.070392,413.341136 415.711881,412.432771 417,411 C414.351983,411.395147 411.842477,412.628778 409.235198,413.274506 C406.814454,413.939715 404.276827,413.662532 402,412.484211 C404.99837,414.219004 409.12113,414.27683 412.315046,413.592551 Z" id="Path" fill="#000000" opacity="0.1"></path>
                    <path d="M405,395.979997 C404.524886,396.05145 404.04113,395.929818 403.654329,395.641652 C401.664366,394.486327 399.701589,393.281487 397.765997,392.027134 C395.882058,390.797538 393.60665,389.551437 392,388 C395.955458,391.614518 399.641782,394.667878 405,395.979997 Z" id="Path" fill="#000000" opacity="0.1"></path>
                    <path d="M410.374724,416.987177 C411.410316,417.034913 412.447683,416.949245 413.46216,416.732208 C414.488454,416.514933 415.395471,415.909391 416,415.037897 C415.63322,414.951787 415.24792,415.013697 414.925055,415.210618 C411.793307,416.551759 408.354328,416.970687 405,416.419665 C406.608376,417.118774 408.669361,416.978952 410.374724,416.987177 Z" id="Path" fill="#000000" opacity="0.1"></path>
                    <path d="M392,462.802973 C389.954925,463.384484 387.853599,463.77273 385.727046,463.961981 C384.072136,464.034023 382.413998,464.003657 380.7633,463.871079 L372.731349,463.39384 L368.715373,463.151433 C368.241488,463.151433 366.305788,463.151433 367.26159,462.249982 C367.743507,461.81062 370.426179,462.090903 371.116927,462.068177 C372.450231,462.027776 373.788889,462.00505 375.132902,462 C377.791478,462 380.458086,462 383.116662,462.151504 C386.096516,462.287858 389.028178,462.499964 392,462.802973 Z" id="Path" fill="#000000" opacity="0.1"></path>
                    <path d="M383,466.791593 C381.590135,466.732011 379.773898,467.591697 378.322567,467.778956 C376.699087,467.975997 375.063005,468.041456 373.429507,467.974726 C370.197165,467.895096 367.004342,467.226455 364,466 C370.327804,466.331958 376.672196,466.527729 383,466.791593 Z" id="Path" fill="#000000" opacity="0.1"></path>
                    <path d="M364.798756,471.279058 C365.393258,471.409391 365.978731,471.58422 366.550976,471.802292 C369.94289,472.848761 373.551822,471.92438 377,471 C376.139965,472.404012 374.588687,473.005731 373.037409,473.389436 C370.514299,474.082985 367.884167,474.187021 365.321207,473.694656 C364.517436,473.520245 362.49997,473.206304 362.106123,472.299365 C361.44703,470.965118 364.043211,471.14825 364.798756,471.279058 Z" id="Path" fill="#000000" opacity="0.1"></path>
                    <path d="M384.095544,477.809066 C385.120624,478.022018 386.132334,478.296599 387.125328,478.631359 C390.973314,479.601665 394.967119,478.26955 398.831308,477.37325 C403.47655,476.302554 408.240044,475.854699 413,476.041136 C412.149392,476.041136 410.796521,476.797645 409.962116,477.052556 C408.868477,477.389696 407.758637,477.702168 406.648797,477.981747 C404.469621,478.524461 402.258041,478.968499 400.03026,479.289193 C395.532891,479.94921 390.981701,480.150305 386.444842,479.889467 C384.370979,479.774346 380.774124,479.988142 379,478.927384 C380.533612,478.002332 382.322428,477.60974 384.095544,477.809066 L384.095544,477.809066 Z" id="Path" fill="#000000" opacity="0.1"></path>
                    <path d="M387,349.319004 C385.326656,348.744119 383.484895,348.953362 381.981597,349.889145 C379.695346,351.518119 375.236345,351.379656 374.044575,351.086441 C372.852806,350.793226 360.46489,349.188686 359.451481,349.587785 C358.438072,349.986884 356.476111,348.195012 355.187055,350.589604 C353.897998,352.984195 353.306167,354.271084 352.01711,354.86566 C350.728054,355.460235 348.441802,357.35799 348.7742,357.757088 C349.106599,358.156187 345.531291,360.542633 345.531291,360.542633 L352.76298,384.162752 C352.76298,384.162752 348.101297,414.03813 345.823153,416.628198 C343.545008,419.218266 323.317358,452.783269 330.557155,458.761603 C336.288766,463.289392 342.354218,467.373559 348.701235,470.978906 C349.511962,471.378004 352.365723,466.002391 356.33018,464.308258 C360.294638,462.614126 372.593373,440.199447 373.355457,427.452728 C374.117541,414.706009 377.619883,386.321142 377.619883,386.321142 C377.619883,386.321142 381.88431,370.780733 383.367941,366.59427 C384.851572,362.407808 384.656998,353.236686 384.656998,353.236686 L387,349.319004 Z" id="Path" fill="#B1D9DB"></path>
                    <path d="M434.225047,404.192727 C434.225047,404.192727 431.454345,403.099178 431.25991,404.192727 C431.065475,405.286277 430.563184,407.651583 430.563184,407.651583 C430.563184,407.651583 431.057373,413.402842 428.94289,415.679045 C426.828407,417.955248 426.51245,427.562281 426.51245,427.562281 C426.51245,427.562281 423.174645,437.072109 424.754432,440.044943 C425.329636,441.122292 426.220797,446.525235 427.111959,453.005528 C427.679061,457.05571 428.238062,461.502811 428.732252,465.569194 C429.631515,472.956727 430.303937,479.072503 430.303937,479.072503 C430.303937,479.072503 428.513512,485.609497 426.034463,483.624908 C423.555414,481.640318 409.021382,466.687044 408.308453,453.410546 C407.822365,444.087026 408.0168,435.98666 408.178829,431.99318 C408.243641,430.300204 408.308453,429.344361 408.308453,429.344361 C408.308453,429.344361 419.601898,415.670945 418.313765,410.818826 C417.025632,405.966707 414.052393,380.037438 414.052393,380.037438 L413.533899,376.027758 L412.974898,371.718363 L412.845274,370.770621 L411.05485,357 L411.05485,357 C411.370807,357.072903 422.486021,359.584016 423.952386,361.050183 C425.418752,362.516349 434.484294,364.614343 434.484294,364.614343 C437.268911,365.369839 439.422649,367.579136 440.106712,370.381803 C440.195828,370.657216 440.26064,370.948829 440.325452,371.248542 C441.516368,376.999802 441.135599,377.688333 441.945745,378.684677 C442.755892,379.681022 434.225047,404.192727 434.225047,404.192727 Z" id="Path" fill="#B1D9DB"></path>
                    <path d="M440.9754,464.063141 C440.812816,464.401698 440.162476,464.693014 439.235742,464.952837 C437.061307,465.454037 434.852647,465.803984 432.626664,466 C432.626664,466 418.806945,464.93709 419.002047,458.866691 C419.148373,454.512696 425.391634,453.355304 428.89534,453.095482 C429.670856,453.025347 430.449579,452.993812 431.228434,453.001001 C431.228434,453.001001 441.568835,462.819143 440.9754,464.063141 Z" id="Path" fill="#AE6E79"></path>
                    <path d="M440.975118,463.106794 C440.810668,463.446687 440.152867,463.739152 439.215501,464 C435.57293,459.312646 430.49142,453.297339 428,452.767739 L428.756471,452.095859 C429.540884,452.025447 430.328541,451.993788 431.116331,452.001005 C431.116331,452.001005 441.575361,461.857887 440.975118,463.106794 Z" id="Path" fill="#000000" opacity="0.1"></path>
                    <path d="M436.821318,378 L440.920444,378.602478 C442.400281,381.191396 444.043197,383.684967 445.839395,386.068319 C446.940847,387.428208 447.57313,389.103596 447.64301,390.847434 C447.64301,390.847434 453.660527,399.705487 455.562521,400.698761 C457.464515,401.692035 460.374895,408.465841 460.374895,408.465841 C460.374895,408.465841 465.088889,411.551504 465.088889,415.036106 C465.172456,417.941891 465.473893,420.837456 465.990697,423.698761 C466.097274,424.195398 465.293846,430.374867 463.285274,433.468673 C461.276702,436.562478 459.268131,443.385133 459.374708,444.606372 C459.481285,445.827611 453.758906,452.178053 452.160247,454.164602 C450.825887,456.022295 449.652089,457.988709 448.651395,460.042832 L443.338928,470 C443.338928,470 432.107324,453.570265 428,452.67469 C428,452.67469 432.607417,448.294513 434.911126,447.496637 C437.214835,446.698761 439.428362,440.169204 439.526741,438.638584 C439.62512,437.107965 441.633692,432.166018 443.732444,431.31115 C445.831197,430.456283 446.946159,429.52 446.044351,428.119646 C445.142544,426.719292 446.044351,424.04885 446.044351,424.04885 C446.044351,424.04885 440.125214,416.28177 439.321785,411.83646 C438.518357,407.39115 433.107511,404.370619 433.107511,404.370619 L430.000373,396.798938 L436.821318,378 Z" id="Path" fill="#B1D9DB"></path>
                    <path d="M451.797341,415.119077 C454.096853,413.170692 456.991238,412.070097 460,412 C458.071918,412.333591 456.044108,412.75892 454.631289,414.109964 C454.07634,414.694916 453.578216,415.331619 453.143674,416.011433 C452.661654,416.703634 448.739004,421.707501 448.157256,420.915222 C447.184904,419.755993 451.007825,415.794599 451.797341,415.119077 Z" id="Path" fill="#000000" opacity="0.1"></path>
                    <path d="M443,411 C444.202508,410.891864 445.255248,410.115272 445.752974,408.969168 C446.223249,407.83616 446.513642,406.630985 446.612785,405.400822 C446.895022,403.34201 447.292742,401.302201 447.8039,399.291881 C448.114671,398.486736 448.053605,397.577448 447.638248,396.825283 C447.426585,396.182991 447.140495,395.57003 446.786325,395 C446.076389,395.822199 445.871297,397.737924 445.579434,398.839671 C445.216578,400.204522 444.885274,401.577595 444.569747,402.950668 C444.404096,403.608428 443.094658,411 443,411 Z" id="Path" fill="#000000" opacity="0.1"></path>
                    <path d="M440,370.454126 C439.597826,370.978046 439.134911,371.452796 438.620885,371.868503 C436.988797,373.16095 434.826279,374.250182 434.622268,376.29046 C434.679136,376.953327 434.595735,377.620703 434.377455,378.249453 C433.855187,379.143598 432.573997,379.062312 431.553942,378.891612 C430.693121,378.814324 429.868178,378.511436 429.162932,378.013723 C428.093914,377.10332 427.995989,375.4776 427.179945,374.331468 C426.174922,373.132424 424.66643,372.468272 423.099723,372.535048 C421.573721,372.486276 420.055878,372.827677 418.529876,372.892706 C417.549044,372.941998 416.565793,372.876522 415.600277,372.69762 C415.281548,372.649033 414.965582,372.583916 414.653665,372.502533 C413.971655,372.335272 413.305454,372.109539 412.662517,371.82786 C412.329788,371.696029 412.005483,371.54401 411.691425,371.372658 C410.669949,370.850149 409.723124,370.194059 408.876072,369.421794 C407.382711,368.05619 406.142324,366.170355 406.26473,364.146334 C406.338174,362.902658 406.901245,361.756526 407.080775,360.529107 C407.692808,357.017553 405.350761,353.701084 402.812863,351.189347 C401.800968,350.18953 400.72379,349.222226 399.711895,348.206151 C398.136226,346.758448 396.892105,344.989652 396.064177,343.020105 C395.38337,340.923683 395.160776,338.706423 395.411342,336.517226 C395.640627,334.297738 395.703364,332.064304 395.599032,329.835518 C394.848271,321.93452 388.075104,315.878714 381.301936,312.586631 L381,312.432188 C386.482855,306.164441 395.083005,303.57504 403.13331,305.768119 C411.183614,307.961198 417.263834,314.549852 418.781337,322.72465 C420.298839,330.899448 416.985906,339.218188 410.255187,344.133723 C410.181743,344.38571 410.116459,344.637697 410.059336,344.881555 C408.492531,351.124318 409.528907,354.912245 410.695851,357.001295 L410.695851,357.001295 C411.014108,357.074453 422.210235,359.594318 423.687275,361.065595 C425.164315,362.536871 434.295851,364.642178 434.295851,364.642178 C437.122912,365.391692 439.311713,367.621857 440,370.454126 L440,370.454126 Z" id="Path" fill="#000000" opacity="0.1"></path>
                    <path d="M379.583877,307.276476 C380.027776,306.767054 380.697659,306.508299 381.149628,306.015049 C382.545891,304.494866 381.149628,302.012441 381.658094,300.007094 C382.206914,297.783423 384.934872,296.813094 387.21086,297.04759 C389.486849,297.282086 391.617562,298.333276 393.89355,298.592031 C397.428596,298.988248 400.85065,297.451894 404.296916,296.55434 C407.743183,295.656785 411.907758,295.608269 414.280597,298.252416 C416.653436,300.896562 416.492018,305.400507 419.445961,307.316907 C420.80994,308.198289 422.529038,308.295322 424.006009,308.934122 C425.622337,309.765162 426.96268,311.049032 427.86389,312.629459 C430.201958,316.308473 431.23146,320.670726 430.785549,325.009241 C430.535352,327.354203 429.857398,329.634477 429.582988,331.979439 C429.304457,334.414656 429.468524,336.880283 430.067241,339.256907 C430.688699,341.68273 432.036536,344.302619 434.44973,345.078882 C435.007492,345.201774 435.549163,345.389002 436.063906,345.636821 C437.460168,346.510118 437.274538,348.563981 436.919419,350.165024 L435.482802,356.803692 C436.862923,357.854882 439.009778,357.402062 440.325331,358.509855 C440.852399,358.992262 441.2423,359.606118 441.455255,360.288791 C442.783804,364.089729 441.630822,368.31778 438.557808,370.913895 C436.943632,372.199581 434.804848,373.283116 434.603076,375.304635 C434.664575,375.964125 434.58195,376.629121 434.36095,377.253379 C433.852484,378.142847 432.577285,378.061987 431.568425,377.892179 C430.719848,377.813902 429.906915,377.512662 429.211728,377.018883 C428.146371,376.113242 428.057591,374.496027 427.250503,373.35589 C426.254983,372.165153 424.764102,371.504943 423.215063,371.568867 C421.697737,371.520351 420.204624,371.859966 418.687298,371.932741 C415.187712,372.076429 411.77139,370.839709 409.171729,368.488072 C407.686687,367.121526 406.467984,365.253642 406.580976,363.232123 C406.653614,362.003039 407.210505,360.854817 407.388064,359.633819 C407.985309,356.14872 405.677037,352.841515 403.166993,350.342918 C400.656949,347.84432 397.711077,345.539788 396.484303,342.216411 C394.950836,338.100598 396.435878,333.507707 396.024263,329.141226 C395.281742,321.273474 388.590981,315.257434 381.884079,311.974487 C380.390966,311.206309 377.848638,309.257565 379.583877,307.276476 Z" id="Path" fill="#444053"></path>
                    <path d="M315.104731,327 L258.936032,327 L258.936032,271.651446 L315.145333,271.651446 L315.104731,327 Z M314.292692,243.546789 L259.74807,243.546789 C259.74807,157.535657 341.5041,162.562176 341.5041,108.147467 C341.5041,78.1751205 316.972419,54.163138 287.00008,54.163138 C257.027742,54.163138 232.504181,80.0509297 232.504181,109.000107 L178.000161,109.000107 C177.950473,80.0763201 189.418403,52.3228782 209.870634,31.870642 C230.322865,11.4184059 258.0763,-0.0495272643 287.00008,0.000160794517 C347.20461,0.000160794517 396,48.0322462 396,108.147467 C396,176.188184 314.25209,183.935033 314.25209,243.546789 L314.292692,243.546789 Z" id="Shape" fill="#B1D9DB"></path>
                    <path d="M35.1810432,310 L20.746135,310 L20.746135,295.688984 L35.1810432,295.688984 L35.1810432,310 Z M34.9625777,288.476622 L20.9646005,288.476622 C20.9646005,266.303482 41.9615662,267.594885 41.9615662,253.551896 C41.9465787,249.841119 40.4631074,246.288428 37.8377361,243.675941 C35.2123647,241.063454 31.6603237,239.605345 27.9635891,239.622615 C20.2813632,239.800722 14.1133451,246.042373 13.9979772,253.754946 L0,253.754946 C0.193257038,238.412572 12.607096,226.060076 27.8925597,226.000218 C43.1780233,225.940361 55.6874969,238.195257 56,253.535652 C55.9595434,271.079235 34.9625777,273.077254 34.9625777,288.444134 L34.9625777,288.476622 Z" id="Shape" fill="#B1D9DB" opacity="0.1"></path>
                    <path d="M144.24576,410 L129.810858,410 L129.810858,395.724073 L144.24576,395.724073 L144.24576,410 Z M144.035386,388.47642 L130.037414,388.47642 C130.037414,366.286575 151.034372,367.586603 151.034372,353.53818 C151.01939,349.826708 149.53566,346.273472 146.910054,343.661264 C144.284448,341.049056 140.732386,339.592196 137.0364,339.611636 C129.319525,339.751236 123.105918,346.016019 122.997972,353.765685 L109,353.765685 C109.193257,338.417374 121.607091,326.060099 136.892549,326.000218 C152.178007,325.940338 164.687476,338.199976 164.999979,353.546306 C165.024253,371.096677 144.035386,373.103594 144.035386,388.47642 Z" id="Shape" fill="#B1D9DB" opacity="0.1"></path>
                    <path d="M210.780364,234 L200.211626,234 L200.211626,223.709212 L210.780364,223.709212 L210.780364,234 Z M210.625061,218.446418 L200.375102,218.446418 C200.375102,202.431329 215.750041,203.362438 215.750041,193.225486 C215.737065,190.545579 214.649865,187.980544 212.727618,186.094674 C210.805371,184.208804 208.205542,183.156585 205.500082,183.1695 C199.861712,183.282435 195.328276,187.8017 195.250123,193.387418 L185.000164,193.387418 C184.970961,186.13268 188.85124,179.413592 195.179335,175.761172 C201.507431,172.108751 209.321956,172.077887 215.679254,175.680206 C222.036551,179.282524 225.970798,185.970747 226,193.225486 C225.983652,205.896677 210.625061,207.345969 210.625061,218.446418 L210.625061,218.446418 Z" id="Shape" fill="#B1D9DB" opacity="0.1"></path>
                    <path d="M390.49765,248 L384.567162,248 L384.567162,242.198023 L390.49765,242.198023 L390.49765,248 Z M390.408408,239.256743 L384.623952,239.256743 C384.623952,230.247561 393.247903,230.771351 393.247903,225.066074 C393.248002,223.558801 392.640781,222.114181 391.561685,221.054451 C390.482589,219.994721 389.021386,219.408036 387.504011,219.425262 C384.342066,219.489993 381.799385,222.029829 381.752005,225.170831 L376,225.170831 C376.139618,218.978526 381.220758,214.02412 387.456491,214.000088 C393.692223,213.976055 398.811917,218.891148 398.999909,225.08219 C399.03236,232.165437 390.408408,233.011559 390.408408,239.256743 L390.408408,239.256743 Z" id="Shape" fill="#B1D9DB" opacity="0.1"></path>
                    <path d="M480.465198,514 L474.53471,514 L474.53471,508.198023 L480.465198,508.198023 L480.465198,514 Z M480.375957,505.256743 L474.623952,505.256743 C474.623952,496.239503 483.256016,496.771351 483.256016,491.066074 C483.233686,487.931621 480.659706,485.407399 477.504011,485.425262 C474.340274,485.485831 471.795184,488.028073 471.752005,491.170831 L466,491.170831 C466.139618,484.978526 471.220758,480.02412 477.456491,480.000088 C483.692223,479.976055 488.811917,484.891148 488.999909,491.08219 C489.03236,498.19767 480.408408,499.011559 480.408408,505.256743 L480.375957,505.256743 Z" id="Shape" fill="#B1D9DB" opacity="0.1"></path>
                </g>
            </g>
        </g>
    </g>
</svg>