<?xml version="1.0" encoding="UTF-8"?>
<svg width="174px" height="51px" viewBox="0 0 174 51" version="1.1" xmlns="http://www.w3.org/2000/svg" xmlns:xlink="http://www.w3.org/1999/xlink">
    <!-- Generator: Sketch 53.2 (72643) - https://sketchapp.com -->
    <title>Group 16</title>
    <desc>Created with Sketch.</desc>
    <defs>
        <polygon id="path-1" points="0 51 174 51 174 0 0 0"></polygon>
    </defs>
    <g id="Symbols" stroke="none" stroke-width="1" fill="none" fill-rule="evenodd">
        <g id="Molecules/Footer-W" transform="translate(-741.000000, -83.000000)">
            <g id="Group-16" transform="translate(741.000000, 83.000000)">
                <polygon id="Fill-1" fill="#223554" points="0 51 174 51 174 0 0 0"></polygon>
                <g id="Group-15">
                    <path d="M26.8987832,37.8968821 C26.5015088,38.8552254 25.9848982,39.5913 25.3481814,40.1058672 L25.0656239,39.8059567 C25.6445973,39.3195537 26.125792,38.626106 26.5084381,37.7256134 C26.891854,36.8251209 27.082792,35.8667776 27.082792,34.852106 C27.082792,33.2939418 26.7686681,32.1171358 26.1396504,31.3239716 C25.5106327,30.5308075 24.6976062,30.1342254 23.6998009,30.1342254 C22.9183407,30.1342254 22.2970221,30.3412701 21.8343053,30.7561209 C21.3715885,31.1709716 21.0243584,31.6817328 20.792615,32.2891657 C20.5624115,32.8973597 20.322969,33.7156433 20.0773673,34.7440164 C19.8025088,35.8462254 19.5384292,36.7177925 19.2851283,37.3610015 C19.0325973,38.0042104 18.6414823,38.5507478 18.1140929,39.0013746 C17.5867035,39.4520015 16.8814646,39.6773149 15.999146,39.6773149 C15.3046858,39.6773149 14.6687389,39.4984343 14.0905354,39.1414343 C13.5123319,38.7836731 13.049615,38.2264791 12.702385,37.4683299 C12.3551549,36.7101806 12.1819248,35.7739119 12.1819248,34.6587627 C12.1819248,33.8579866 12.3089602,33.0716731 12.5614912,32.2998224 C12.814792,31.5279716 13.1512434,30.8634493 13.5700752,30.305494 L13.9173053,30.5414642 C13.4830752,31.1275836 13.154323,31.7822104 12.9295088,32.5038224 C12.7054646,33.2254343 12.5938274,33.9371507 12.5938274,34.6374493 C12.5938274,36.1385239 12.9156504,37.2825985 13.5592965,38.0689119 C14.2029425,38.8552254 15.0228982,39.2480015 16.0214735,39.2480015 C16.8021637,39.2480015 17.4273319,39.0409567 17.8977478,38.626106 C18.3673938,38.2120164 18.7177035,37.6966881 18.9494469,37.0824045 C19.1811903,36.4673597 19.426792,35.6384194 19.6870221,34.5940612 C19.9611106,33.5078373 20.2251903,32.6431209 20.4784912,31.9999119 C20.731792,31.3559418 21.1144381,30.8132104 21.627969,30.3694343 C22.1415,29.9271806 22.8321106,29.7049119 23.6998009,29.7049119 C24.3934912,29.7049119 25.030208,29.8906433 25.6084115,30.2628672 C26.186615,30.6343299 26.6462522,31.2029418 26.9850133,31.9679418 C27.3260841,32.7329418 27.4946947,33.6874791 27.4946947,34.8307925 C27.4946947,35.9170164 27.2975973,36.9393 26.8987832,37.8968821" id="Fill-2" fill="#FFFFFF"></path>
                    <path d="M26.1394195,15.798506 C25.5111717,14.6902075 24.6434814,13.8178791 23.5371186,13.1815209 C22.4307558,12.5459239 21.1981274,12.2277448 19.8384637,12.2277448 C18.4795699,12.2277448 17.2461717,12.5459239 16.1405788,13.1815209 C15.0342159,13.8178791 14.1665257,14.6902075 13.537508,15.798506 C12.9084903,16.9060433 12.5935965,18.1391776 12.5935965,19.4971478 C12.5935965,20.8558791 12.9084903,22.0890134 13.537508,23.1965507 C14.1665257,24.3048493 15.0342159,25.1764164 16.1405788,25.8127746 C17.2461717,26.4491328 18.4795699,26.7673119 19.8384637,26.7673119 C21.1981274,26.7673119 22.4307558,26.4491328 23.5371186,25.8127746 C24.6434814,25.1764164 25.5111717,24.3048493 26.1394195,23.1965507 C26.7684372,22.0890134 27.083331,20.8558791 27.083331,19.4971478 C27.083331,18.1391776 26.7684372,16.9060433 26.1394195,15.798506 M26.4974283,23.4218642 C25.8329947,24.5948642 24.9183398,25.5166701 23.7534637,26.1880433 C22.5901274,26.8601776 21.2843575,27.1966254 19.8384637,27.1966254 C18.3925699,27.1966254 17.0875699,26.8601776 15.9226938,26.1880433 C14.7593575,25.5166701 13.8447027,24.5948642 13.1794991,23.4218642 C12.5142956,22.2503866 12.1816938,20.941894 12.1816938,19.4971478 C12.1816938,18.0531627 12.5142956,16.7454313 13.1794991,15.5731925 C13.8447027,14.4001925 14.7593575,13.4783866 15.9226938,12.8062522 C17.0875699,12.1348791 18.3925699,11.7984313 19.8384637,11.7984313 C21.2843575,11.7984313 22.5901274,12.1348791 23.7534637,12.8062522 C24.9183398,13.4783866 25.8329947,14.4001925 26.4974283,15.5731925 C27.1634018,16.7454313 27.4952336,18.0531627 27.4952336,19.4971478 C27.4952336,20.941894 27.1634018,22.2503866 26.4974283,23.4218642" id="Fill-4" fill="#FFFFFF"></path>
                    <path d="M36.1197053,39.5404522 C33.938546,39.0304522 32.146192,38.3446164 30.745723,37.4814224 L33.7599265,30.7372433 C35.0810947,31.4953925 36.5616345,32.1028254 38.201546,32.560303 C39.8414575,33.0177806 41.4143867,33.2461388 42.9218735,33.2461388 C44.2176345,33.2461388 45.1430681,33.1220642 45.6981743,32.8731537 C46.2540504,32.6250045 46.5312186,32.2535418 46.5312186,31.7557209 C46.5312186,31.1817806 46.1678204,30.7501836 45.440254,30.461691 C44.7126876,30.1739597 43.5162451,29.861109 41.8509265,29.5208552 C39.7090327,29.0763179 37.9243779,28.5990493 36.496192,28.0890493 C35.0687761,27.5798104 33.825369,26.7432582 32.7675106,25.5793925 C31.7096522,24.4162881 31.1814929,22.8413776 31.1814929,20.8539 C31.1814929,19.1290343 31.6703867,17.5602134 32.6489442,16.1489597 C33.6275018,14.7361836 35.0880239,13.6256015 37.0320504,12.815691 C38.976077,12.0042582 41.3350858,11.599303 44.1121566,11.599303 C46.0161478,11.599303 47.8854929,11.8025418 49.7248115,12.2067358 C51.5625903,12.6132134 53.1817142,13.2069448 54.5829531,13.9917358 L51.7673867,20.697094 C49.0434398,19.3383627 46.4657761,18.6578552 44.0320858,18.6578552 C41.6253425,18.6578552 40.4235106,19.2333179 40.4235106,20.3842433 C40.4235106,20.9330642 40.7799796,21.3448701 41.4936876,21.6189 C42.2081655,21.8929299 43.3845903,22.1875119 45.0237319,22.5011239 C47.1394487,22.8939 48.9241035,23.3445269 50.3792363,23.8545269 C51.8328292,24.3645269 53.096254,25.1934672 54.166431,26.3436313 C55.2381478,27.4953179 55.7724664,29.0633776 55.7724664,31.050094 C55.7724664,32.7757209 55.2843425,34.3384522 54.305785,35.7360045 C53.3272274,37.1350791 51.8667053,38.2464224 49.9226788,39.0700343 C47.9786522,39.8936463 45.6196434,40.304691 42.8425726,40.304691 C40.542077,40.304691 38.3008646,40.0504522 36.1197053,39.5404522" id="Fill-6" fill="#FFFFFF"></path>
                    <path d="M61.8816372,36.8934 C59.5018407,34.6189522 58.3115575,31.4287881 58.3115575,27.3244299 L58.3115575,12.2269075 L67.6721416,12.2269075 L67.6721416,27.0496388 C67.6721416,29.0637582 68.0355398,30.5275343 68.7631062,31.4424896 C69.4906726,32.358206 70.5416018,32.8149224 71.9166637,32.8149224 C73.2909558,32.8149224 74.3426549,32.358206 75.0702212,31.4424896 C75.7970177,30.5275343 76.1604159,29.0637582 76.1604159,27.0496388 L76.1604159,12.2269075 L85.3631681,12.2269075 L85.3631681,27.3244299 C85.3631681,31.4287881 84.172885,34.6189522 81.7930885,36.8934 C79.413292,39.1670866 76.0949735,40.3043104 71.8373628,40.3043104 C67.5789823,40.3043104 64.2614336,39.1670866 61.8816372,36.8934" id="Fill-8" fill="#FFFFFF"></path>
                    <mask id="mask-2" fill="white">
                        <use xlink:href="#path-1"></use>
                    </mask>
                    <g id="Clip-11"></g>
                    <polygon id="Fill-10" fill="#FFFFFF" mask="url(#mask-2)" points="89.6469558 39.6772388 99.0083097 39.6772388 99.0083097 12.2262985 89.6469558 12.2262985"></polygon>
                    <polygon id="Fill-12" fill="#FFFFFF" mask="url(#mask-2)" points="109.557483 19.4037493 101.426448 19.4037493 101.426448 12.2264507 127.049873 12.2264507 127.049873 19.4037493 118.918837 19.4037493 118.918837 39.677391 109.557483 39.677391"></polygon>
                    <polygon id="Fill-13" fill="#FFFFFF" mask="url(#mask-2)" points="152.55373 32.6971657 152.55373 39.6773149 129.469473 39.6773149 129.469473 12.2263746 152.037889 12.2263746 152.037889 19.2065239 138.671456 19.2065239 138.671456 22.4225687 150.411836 22.4225687 150.411836 29.089106 138.671456 29.089106 138.671456 32.6971657"></polygon>
                    <path d="M156.799561,39.5456284 C156.222127,38.9907179 155.933411,38.2782403 155.933411,37.4104791 C155.933411,36.5427179 156.222127,35.8386134 156.799561,35.2981657 C157.376995,34.7577179 158.104561,34.4867328 158.98226,34.4867328 C159.860729,34.4867328 160.587526,34.7577179 161.164959,35.2981657 C161.742393,35.8386134 162.03111,36.5427179 162.03111,37.4104791 C162.03111,38.2782403 161.742393,38.9907179 161.164959,39.5456284 C160.587526,40.1013 159.860729,40.3791358 158.98226,40.3791358 C158.104561,40.3791358 157.376995,40.1013 156.799561,39.5456284" id="Fill-14" fill="#FFFFFF" mask="url(#mask-2)"></path>
                </g>
            </g>
        </g>
    </g>
</svg>