<?xml version="1.0" encoding="UTF-8"?>
<svg id="SVGDoc" width="150" height="30" xmlns="http://www.w3.org/2000/svg" version="1.1" xmlns:xlink="http://www.w3.org/1999/xlink" xmlns:avocode="https://avocode.com/" viewBox="0 0 150 30"><defs><clipPath id="clip-1F1113C5-8609-E3DC-62F2-5B355312FEAA"><path d="M-12,40v0h174v0v-51v0h-174v0z" ></path></clipPath></defs><desc>Generated with Avocode.</desc><g><g><title>Group 15</title><g><title>Fill 2</title><path d="M14.89686,26.89197c-0.39728,0.95834 -0.91389,1.69442 -1.5506,2.20899l-0.28256,-0.29992c0.57897,-0.4864 1.06017,-1.17985 1.44281,-2.08034c0.38342,-0.90049 0.57436,-1.85883 0.57436,-2.87351c0,-1.55816 -0.31413,-2.73497 -0.94314,-3.52813c-0.62902,-0.79316 -1.44205,-1.18975 -2.43985,-1.18975c-0.78146,0 -1.40278,0.20705 -1.8655,0.6219c-0.46272,0.41485 -0.80995,0.92561 -1.04169,1.53304c-0.2302,0.6082 -0.46965,1.42648 -0.71525,2.45485c-0.27486,1.10221 -0.53894,1.97378 -0.79224,2.61699c-0.25253,0.64321 -0.64364,1.18975 -1.17103,1.64037c-0.52739,0.45063 -1.23263,0.67594 -2.11495,0.67594c-0.69446,0 -1.33041,-0.17888 -1.90861,-0.53588c-0.5782,-0.35776 -1.04092,-0.91495 -1.38815,-1.6731c-0.34723,-0.75815 -0.52046,-1.69442 -0.52046,-2.80957c0,-0.80078 0.12704,-1.58709 0.37957,-2.35894c0.2533,-0.77185 0.58975,-1.43637 1.00858,-1.99433l0.34723,0.23597c-0.43423,0.58612 -0.76298,1.24075 -0.9878,1.96236c-0.22404,0.72161 -0.33568,1.43333 -0.33568,2.13363c0,1.50107 0.32183,2.64515 0.96547,3.43146c0.64365,0.78631 1.4636,1.17909 2.46218,1.17909c0.78069,0 1.40586,-0.20705 1.87627,-0.6219c0.46965,-0.41409 0.81996,-0.92941 1.0517,-1.5437c0.23175,-0.61504 0.47735,-1.44398 0.73758,-2.48834c0.27409,-1.08622 0.53817,-1.95094 0.79147,-2.59415c0.2533,-0.64397 0.63594,-1.1867 1.14947,-1.63048c0.51354,-0.44225 1.20415,-0.66452 2.07184,-0.66452c0.69369,0 1.3304,0.18573 1.90861,0.55796c0.5782,0.37146 1.03784,0.94007 1.3766,1.70507c0.34107,0.765 0.50968,1.71954 0.50968,2.86285c0,1.08622 -0.1971,2.10851 -0.59591,3.06609" fill="#ffffff" fill-opacity="1"></path></g><g><title>Fill 4</title><path d="M14.49573,12.42343c-0.66443,1.173 -1.57908,2.09481 -2.74396,2.76618c-1.16334,0.67214 -2.46911,1.00858 -3.915,1.00858c-1.44589,0 -2.75089,-0.33644 -3.91577,-1.00858c-1.16334,-0.67137 -2.07799,-1.59318 -2.74319,-2.76618c-0.66521,-1.17147 -0.99781,-2.47997 -0.99781,-3.92471c0,-1.44399 0.3326,-2.75172 0.99781,-3.92396c0.6652,-1.173 1.57985,-2.0948 2.74319,-2.76694c1.16488,-0.67137 2.46988,-1.00782 3.91577,-1.00782c1.44589,0 2.75166,0.33645 3.915,1.00782c1.16488,0.67214 2.07953,1.59394 2.74396,2.76694c0.66598,1.17224 0.99781,2.47997 0.99781,3.92396c0,1.44474 -0.33183,2.75324 -0.99781,3.92471M14.13772,4.80007c-0.62824,-1.1083 -1.49594,-1.98063 -2.6023,-2.61698c-1.10636,-0.6356 -2.33899,-0.95378 -3.69865,-0.95378c-1.3589,0 -2.59229,0.31818 -3.69789,0.95378c-1.10636,0.63635 -1.97405,1.50868 -2.60307,2.61698c-0.62902,1.10754 -0.94391,2.34067 -0.94391,3.69864c0,1.35873 0.31489,2.59187 0.94391,3.69941c0.62902,1.10829 1.49671,1.97986 2.60307,2.61622c1.1056,0.63636 2.33899,0.95454 3.69789,0.95454c1.35966,0 2.59229,-0.31818 3.69865,-0.95454c1.10636,-0.63636 1.97406,-1.50793 2.6023,-2.61622c0.62902,-1.10754 0.94391,-2.34068 0.94391,-3.69941c0,-1.35797 -0.31489,-2.5911 -0.94391,-3.69864" fill="#ffffff" fill-opacity="1"></path></g><g><title>Fill 6</title><path d="M24.12398,28.54115c-2.18116,-0.51 -3.97351,-1.19584 -5.37398,-2.05903l3.0142,-6.74418c1.32117,0.75815 2.80171,1.36558 4.44162,1.82306c1.63991,0.45748 3.21284,0.68584 4.72033,0.68584c1.29576,0 2.2212,-0.12408 2.7763,-0.37299c0.55588,-0.24815 0.83305,-0.61961 0.83305,-1.11743c0,-0.57394 -0.3634,-1.00554 -1.09097,-1.29403c-0.72757,-0.28773 -1.92401,-0.60058 -3.58933,-0.94084c-2.14189,-0.44454 -3.92655,-0.9218 -5.35473,-1.4318c-1.42742,-0.50924 -2.67082,-1.34579 -3.72868,-2.50966c-1.05786,-1.1631 -1.58602,-2.73802 -1.58602,-4.72549c0,-1.72487 0.48889,-3.29369 1.46745,-4.70494c0.97856,-1.41278 2.43908,-2.52336 4.38311,-3.33327c1.94402,-0.81143 4.30303,-1.21639 7.0801,-1.21639c1.90399,0 3.77334,0.20324 5.61266,0.60743c1.83778,0.40648 3.4569,1.00021 4.85814,1.785l-2.81557,6.70536c-2.72394,-1.35873 -5.30161,-2.03924 -7.7353,-2.03924c-2.40674,0 -3.60857,0.57546 -3.60857,1.72639c0,0.54882 0.35647,0.96063 1.07017,1.23466c0.71448,0.27403 1.89091,0.56861 3.53005,0.88222c2.11572,0.39278 3.90037,0.8434 5.3555,1.3534c1.4536,0.51 2.71702,1.33894 3.7872,2.48911c1.07171,1.15168 1.60603,2.71974 1.60603,4.70646c0,1.72563 -0.48812,3.28836 -1.46668,4.68591c-0.97856,1.39908 -2.43908,2.51042 -4.3831,3.33403c-1.94403,0.82361 -4.30304,1.23466 -7.08011,1.23466c-2.3005,0 -4.54171,-0.25424 -6.72287,-0.76424" fill="#ffffff" fill-opacity="1"></path></g><g><title>Fill 8</title><path d="M49.88008,25.89649c-2.3798,-2.27445 -3.57008,-5.46461 -3.57008,-9.56897v-15.09752v0h9.36058v0v14.82273c0,2.01412 0.3634,3.4779 1.09097,4.39285c0.72757,0.91572 1.77849,1.37243 3.15356,1.37243c1.37429,0 2.42599,-0.45671 3.15355,-1.37243c0.7268,-0.91495 1.0902,-2.37873 1.0902,-4.39285v-14.82273v0h9.20275v0v15.09752c0,4.10436 -1.19028,7.29452 -3.57008,9.56897c-2.3798,2.27369 -5.69811,3.41091 -9.95572,3.41091c-4.25839,0 -7.57593,-1.13722 -9.95573,-3.41091" fill="#ffffff" fill-opacity="1"></path></g><g><title>Clip 11</title></g><g clip-path="url(#clip-1F1113C5-8609-E3DC-62F2-5B355312FEAA)"><title>Fill 10</title><path d="M77.65,28.68094v0h9.36135v0v-27.45094v0h-9.36135v0z" fill="#ffffff" fill-opacity="1"></path></g><g clip-path="url(#clip-1F1113C5-8609-E3DC-62F2-5B355312FEAA)"><title>Fill 12</title><path d="M97.56104,8.4073v0h-8.13104v0v-7.1773v0h25.62342v0v7.1773v0h-8.13103v0v20.27364v0h-9.36135v0z" fill="#ffffff" fill-opacity="1"></path></g><g clip-path="url(#clip-1F1113C5-8609-E3DC-62F2-5B355312FEAA)"><title>Fill 13</title><path d="M140.55426,21.70079v0v6.98015v0h-23.08426v0v-27.45094v0h22.56842v0v6.98015v0h-13.36644v0v3.21604v0h11.74038v0v6.66654v0h-11.74038v0v3.60806v0z" fill="#ffffff" fill-opacity="1"></path></g><g clip-path="url(#clip-1F1113C5-8609-E3DC-62F2-5B355312FEAA)"><title>Fill 14</title><path d="M144.79615,28.5489c-0.57743,-0.55491 -0.86615,-1.26739 -0.86615,-2.13515c0,-0.86776 0.28872,-1.57187 0.86615,-2.11232c0.57743,-0.54044 1.305,-0.81143 2.1827,-0.81143c0.87847,0 1.60527,0.27099 2.1827,0.81143c0.57743,0.54045 0.86615,1.24456 0.86615,2.11232c0,0.86776 -0.28872,1.58024 -0.86615,2.13515c-0.57743,0.55567 -1.30423,0.8335 -2.1827,0.8335c-0.8777,0 -1.60527,-0.27783 -2.1827,-0.8335" fill="#ffffff" fill-opacity="1"></path></g></g></g></svg>