<?xml version="1.0" encoding="UTF-8"?>
<svg width="1515px" height="920px" viewBox="0 0 1515 920" version="1.1" xmlns="http://www.w3.org/2000/svg" xmlns:xlink="http://www.w3.org/1999/xlink">
    <!-- Generator: Sketch 53.2 (72643) - https://sketchapp.com -->
    <title>Group 2</title>
    <desc>Created with Sketch.</desc>
    <defs>
        <linearGradient x1="50%" y1="100%" x2="50%" y2="1.98540287%" id="linearGradient-1">
            <stop stop-color="#F3F9EF" stop-opacity="0" offset="0%"></stop>
            <stop stop-color="#F0F8F2" offset="100%"></stop>
        </linearGradient>
    </defs>
    <g id="LAST-VERSION-HERE" stroke="none" stroke-width="1" fill="none" fill-rule="evenodd">
        <g id="Guest-Policy" transform="translate(-405.000000, 0.000000)">
            <g id="Group-2" transform="translate(356.000000, -326.954409)">
                <path d="M1249.61846,1308.16214 C1503.51061,1332.76315 1792.81404,1240.08415 1792.81404,1001.48383 C1792.81404,543.951659 250.261505,140 215.161892,140 C215.161892,140 88.8140377,849.592751 88.8140377,856.487571 C88.8140377,863.382391 995.726305,1283.56113 1249.61846,1308.16214 Z" id="Oval-3-Copy-2" fill="url(#linearGradient-1)" transform="translate(940.814038, 726.000000) scale(-1, 1) rotate(-10.000000) translate(-940.814038, -726.000000) "></path>
                <g id="undraw_to_do_list_a49b" transform="translate(137.000000, 430.954409)">
                    <path d="M253,456.449481 C253,456.449481 262.337915,448.826744 272,453.53581 C272,453.53581 269.298578,460.08131 257.259242,459.999235 L253,456.449481 Z" id="Path" fill="#B1D9DB" fill-rule="nonzero"></path>
                    <path d="M252.434584,456 C252.434584,456 249.667208,467.522163 258.099212,475 C258.099212,475 262.774778,470.122747 257.459818,458.776425 L252.434584,456 Z" id="Path" fill="#B1D9DB" fill-rule="nonzero"></path>
                    <path d="M239,444.412527 C239,444.412527 239.345704,435.076615 260.997683,437.359516 C260.997683,437.359516 261.33429,443.364346 253.892559,446.491122 C246.450828,449.617897 242.88462,447.370527 239,444.412527 Z" id="Path" fill="#B1D9DB" fill-rule="nonzero"></path>
                    <path d="M239.12547,446 C239.12547,446 229.911862,449.25216 239.022993,469 C239.022993,469 245.115712,467.437156 245.888947,459.424195 C246.662182,451.411233 243.28976,448.764336 239.12547,446 Z" id="Path" fill="#B1D9DB" fill-rule="nonzero"></path>
                    <path d="M224.035889,432.287641 C224.035889,432.287641 222.247035,416.244279 243.927949,417.027792 C243.927949,417.027792 245.994075,431.53211 227.998202,436 L224.035889,432.287641 Z" id="Path" fill="#B1D9DB" fill-rule="nonzero"></path>
                    <path d="M209,413.730669 C209,413.730669 211.379402,395.110328 233.99761,399.73938 C233.99761,399.73938 234.68273,415.737539 212.851484,418 L209,413.730669 Z" id="Path" fill="#B1D9DB" fill-rule="nonzero"></path>
                    <path d="M197,395.670095 C197,395.670095 201.487586,377.105395 224,381.744164 C224,381.744164 219.344828,398.441808 198.61069,399 L197,395.670095 Z" id="Path" fill="#B1D9DB" fill-rule="nonzero"></path>
                    <path d="M188,380.852486 C188,380.852486 192.169643,361.987913 213,366.779514 C213,366.779514 206.75,384.766885 189.455357,383.974573 L188,380.852486 Z" id="Path" fill="#B1D9DB" fill-rule="nonzero"></path>
                    <path d="M182,362.813593 C182,362.813593 184.99,340.3425 205,344.517154 C205,344.517154 200.0136,365.048696 183.564,366 L182,362.813593 Z" id="Path" fill="#B1D9DB" fill-rule="nonzero"></path>
                    <path d="M173,343.00491 C173,343.00491 176.579732,321.395316 196,326.89674 C196,326.89674 189.245124,347.45006 174.451243,345.918464 L173,343.00491 Z" id="Path" fill="#B1D9DB" fill-rule="nonzero"></path>
                    <path d="M168,323.576323 C168,323.576323 174.438127,300.990844 190,301 C190,301 183.423913,324.812755 169.471572,328 L168,323.576323 Z" id="Path" fill="#B1D9DB" fill-rule="nonzero"></path>
                    <path d="M167,305.665824 C167,305.665824 173.701171,277.41271 186,279.070175 C186,279.070175 181.43466,300.636274 167.587354,310 L167,305.665824 Z" id="Path" fill="#B1D9DB" fill-rule="nonzero"></path>
                    <path d="M164,282.967465 C164,282.967465 170.58434,259.427256 183,258 C183,258 178.775737,281.073972 164.495892,289 L164,282.967465 Z" id="Path" fill="#B1D9DB" fill-rule="nonzero"></path>
                    <path d="M159,261.385469 C159,261.385469 168.119205,238.817356 177,238 C177,238 173.55298,260.023209 160.043046,265 L159,261.385469 Z" id="Path" fill="#B1D9DB" fill-rule="nonzero"></path>
                    <path d="M161,241.255591 C161,241.255591 165.807966,217.272204 174,215 C174,215 173.639403,234.47476 161.896871,243 L161,241.255591 Z" id="Path" fill="#B1D9DB" fill-rule="nonzero"></path>
                    <path d="M156,217.437 C156,217.437 160.905058,198.159 167,195 C167,195 166.589105,217.5 157.583658,222 L156,217.437 Z" id="Path" fill="#B1D9DB" fill-rule="nonzero"></path>
                    <path d="M151.799434,203.022359 L149,169 C149,169 163.862451,194.242984 153.071904,209 L151.799434,203.022359 Z" id="Path" fill="#B1D9DB" fill-rule="nonzero"></path>
                    <path d="M141.604157,167.628959 C141.604157,167.628959 131.293402,143.294118 129,142 C129,142 147.920569,157.384615 146.964985,178 L141.604157,167.628959 Z" id="Path" fill="#B1D9DB" fill-rule="nonzero"></path>
                    <path d="M225.109938,433.018868 C225.109938,433.018868 208.703199,431.618045 210.082316,452.95638 C210.082316,452.95638 224.919715,454.656751 229,436.82488 L225.109938,433.018868 Z" id="Path" fill="#B1D9DB" fill-rule="nonzero"></path>
                    <path d="M210.201635,414 C210.201635,414 191.839784,414.622214 194.211446,436.940754 C194.211446,436.940754 209.729156,439.050871 214,418.084969 L210.201635,414 Z" id="Path" fill="#B1D9DB" fill-rule="nonzero"></path>
                    <path d="M198.432292,399.159786 C198.432292,399.159786 181.734375,392.291348 172,411.983826 C172,411.983826 187.394531,417.646964 200,402.235074 L198.432292,399.159786 Z" id="Path" fill="#B1D9DB" fill-rule="nonzero"></path>
                    <path d="M188.481262,379.258496 C188.481262,379.258496 171.213675,372.540787 162,390.146378 C162,390.146378 179.902696,394.908813 190,381.935844 L188.481262,379.258496 Z" id="Path" fill="#B1D9DB" fill-rule="nonzero"></path>
                    <path d="M181.122754,361.961188 C181.122754,361.961188 164.32714,347.756255 152,363.201717 C152,363.201717 169.042339,374.768342 182,365.228497 L181.122754,361.961188 Z" id="Path" fill="#B1D9DB" fill-rule="nonzero"></path>
                    <path d="M174.282869,341.803311 C174.282869,341.803311 157.273981,327.678632 145,343.500989 C145,343.500989 163.912044,354.917872 175,344.850643 L174.282869,341.803311 Z" id="Path" fill="#B1D9DB" fill-rule="nonzero"></path>
                    <path d="M171.963411,323.238726 C171.963411,323.238726 158.63574,303.817919 144,308.82499 C144,308.82499 157.849069,329.405523 172,327.923651 L171.963411,323.238726 Z" id="Path" fill="#B1D9DB" fill-rule="nonzero"></path>
                    <path d="M166.504412,304.734897 C166.504412,304.734897 152.294388,279.742889 140,284.634663 C140,284.634663 150.273915,303.86504 167,309 L166.504412,304.734897 Z" id="Path" fill="#B1D9DB" fill-rule="nonzero"></path>
                    <path d="M163.537613,282.411426 C163.537613,282.411426 149.942828,263.450192 138,266.289841 C138,266.289841 149.25677,285.613969 165,288 L163.537613,282.411426 Z" id="Path" fill="#B1D9DB" fill-rule="nonzero"></path>
                    <path d="M163,262.310804 C163,262.310804 152.151935,240.882647 144,241.000484 C144,241.000484 149.637363,262.483027 162.464405,266 L163,262.310804 Z" id="Path" fill="#B1D9DB" fill-rule="nonzero"></path>
                    <path d="M160,241.071638 C160,241.071638 148.224799,219.734672 140,220.0025 C140,220.0025 146.315789,238.393358 159.70562,243 L160,241.071638 Z" id="Path" fill="#B1D9DB" fill-rule="nonzero"></path>
                    <path d="M157,218.045956 C157,218.045956 149.098695,199.829044 143,198 C143,198 147.391378,220.426471 156.356778,223 L157,218.045956 Z" id="Path" fill="#B1D9DB" fill-rule="nonzero"></path>
                    <path d="M152.026897,199.848953 L132,173 C132,173 137.936973,200.007718 155,205 L152.026897,199.848953 Z" id="Path" fill="#B1D9DB" fill-rule="nonzero"></path>
                    <path d="M136.802019,169.201707 C136.802019,169.201707 114.897364,155.346393 114,153 C114,153 125.665732,173.145074 146,176 L136.802019,169.201707 Z" id="Path" fill="#B1D9DB" fill-rule="nonzero"></path>
                    <path d="M136.413333,164 C136.413333,164 111.204444,140.725921 105,141.002445 C105,141.002445 125.088889,141.149924 137,162.691121 L136.413333,164 Z" id="Path" fill="#B1D9DB" fill-rule="nonzero"></path>
                    <path d="M158,221.848124 L157.108229,222 C151.151196,186.219774 143.651398,165.234068 136,162.893389 L136.258614,162 C144.355898,164.465753 151.900284,185.147707 158,221.848124 Z" id="Path" fill="#444053" fill-rule="nonzero"></path>
                    <path d="M167,310.834679 L165.688394,311 C165.286169,307.564998 164.936407,304.038151 164.665342,300.529673 C162.295707,269.991219 159.322734,241.978502 156,221.019479 L156.725755,220 C160.057234,240.995761 163.607313,269.835083 165.985692,300.419459 C166.256757,303.909568 166.597774,307.408862 167,310.834679 Z" id="Path" fill="#444053" fill-rule="nonzero"></path>
                    <path d="M279.357389,472 C279.113016,471.9001 254.711894,462.073541 228.826432,437.38908 C213.667426,422.941131 200.885976,406.173949 190.957629,387.711374 C178.548899,364.6344 170.430276,335.990254 167,308 L168.448138,308.617566 C176.14137,371.445786 206.389347,413.440248 229.993993,436.008639 C255.626031,460.475136 279.773728,470.201794 280,470.292613 L279.357389,472 Z" id="Path" fill="#444053" fill-rule="nonzero"></path>
                    <g id="Group" opacity="0.7" transform="translate(222.000000, 53.000000)" fill-rule="nonzero">
                        <path d="M68.886,343.875556 C68.886,343.875556 79.785,340.240988 87.786,347.119407 C87.786,347.119407 83.493,351.844346 72.027,348.155259 L68.886,343.875556 Z" id="Path" fill="#B1D9DB"></path>
                        <path d="M67.662,343.893728 C67.662,343.893728 61.956,353.952395 67.041,363.22963 C67.041,363.22963 72.441,359.931259 71.19,347.855407 L67.662,343.893728 Z" id="Path" fill="#B1D9DB"></path>
                        <path d="M58.905,330.364049 C58.905,330.364049 62.055,321.350321 81.81,330.009679 C81.81,330.009679 80.325,335.979457 72.342,336.815407 C64.359,337.651358 61.695,334.389333 58.905,330.364049 Z" id="Path" fill="#B1D9DB"></path>
                        <path d="M57.654,329.95516 C57.654,329.95516 48.204,330.409481 50.742,352.007901 C50.742,352.007901 56.835,352.280494 59.922,344.80237 C63.009,337.324247 60.678,333.807802 57.654,329.95516 Z" id="Path" fill="#B1D9DB"></path>
                        <path d="M49.5,313.699556 C49.5,313.699556 52.371,298.252642 72.981,305.521778 C72.981,305.521778 70.812,319.632988 52.236,318.351802 L49.5,313.699556 Z" id="Path" fill="#B1D9DB"></path>
                        <path d="M40.176,292.80079 C40.176,292.80079 47.646,276.445235 67.302,287.276247 C67.302,287.276247 63.414,302.132543 42.507,297.834667 L40.176,292.80079 Z" id="Path" fill="#B1D9DB"></path>
                        <path d="M34.74,272.401778 C34.74,272.401778 44.055,256.954864 63.54,267.685926 C63.54,267.685926 54.54,281.370074 35.307,275.863704 L34.74,272.401778 Z" id="Path" fill="#B1D9DB"></path>
                        <path d="M29.709,252.511605 C29.709,252.511605 39.069,236.446815 57.78,247.141531 C57.78,247.141531 46.665,261.78884 30.249,255.828148 L29.709,252.511605 Z" id="Path" fill="#B1D9DB"></path>
                        <path d="M27.873,234.420543 C27.873,234.420543 37.179,214.194173 54.675,224.007506 C54.675,224.007506 44.064,241.816889 28.431,237.882469 L27.873,234.420543 Z" id="Path" fill="#B1D9DB"></path>
                        <path d="M27.351,213.022025 C27.351,213.022025 37.422,192.822914 54.711,204.217284 C54.711,204.217284 41.868,222.390123 27.882,216.338568 L27.351,213.022025 Z" id="Path" fill="#B1D9DB"></path>
                        <path d="M28.674,193.604346 C28.674,193.604346 41.274,174.104889 55.818,178.684444 C55.818,178.684444 42.705,199.337877 28.746,198.229333 L28.674,193.604346 Z" id="Path" fill="#B1D9DB"></path>
                        <path d="M31.23,174.986272 C31.23,174.986272 45.63,151.297975 57.051,156.54084 C57.051,156.54084 46.575,174.795457 30.582,179.111506 L31.23,174.986272 Z" id="Path" fill="#B1D9DB"></path>
                        <path d="M35.631,153.151605 C35.631,153.151605 48.429,133.624889 60.435,135.978272 C60.435,135.978272 49.995,155.77758 34.407,158.794272 L35.631,153.151605 Z" id="Path" fill="#B1D9DB"></path>
                        <path d="M39.564,132.752593 C39.564,132.752593 54.099,113.671111 62.019,115.32484 C62.019,115.32484 52.542,135.424 39.393,136.487111 L39.564,132.752593 Z" id="Path" fill="#B1D9DB"></path>
                        <path d="M43.569,113.861926 C43.569,113.861926 55.215,92.0545185 63.513,92.1999012 C63.513,92.1999012 57.339,110.981531 43.884,115.824593 L43.569,113.861926 Z" id="Path" fill="#B1D9DB"></path>
                        <path d="M47.16,88.6834568 C47.16,88.6834568 57.825,71.6555062 64.881,70.5106173 C64.881,70.5106173 57.771,92.0817778 47.403,93.5992099 L47.16,88.6834568 Z" id="Path" fill="#B1D9DB"></path>
                        <path d="M49.014,72.0007901 L56.637,38.9080494 C56.637,38.9080494 61.776,66.8487901 48.33,77.9796543 L49.014,72.0007901 Z" id="Path" fill="#B1D9DB"></path>
                        <path d="M48.636,36.9544691 C48.636,36.9544691 46.557,10.7128889 44.883,8.7865679 C44.883,8.7865679 57.357,28.8493827 50.391,48.3851852 L48.636,36.9544691 Z" id="Path" fill="#B1D9DB"></path>
                        <path d="M48.951,313.454222 C48.951,313.454222 34.551,307.42084 29.322,328.828444 C29.322,328.828444 42.201,334.716444 51.309,318.315457 L48.951,313.454222 Z" id="Path" fill="#B1D9DB"></path>
                        <path d="M39.618,292.073877 C39.618,292.073877 22.401,287.321679 17.973,309.483457 C17.973,309.483457 31.743,316.043852 41.931,297.11684 L39.618,292.073877 Z" id="Path" fill="#B1D9DB"></path>
                        <path d="M34.2,273.764741 C34.2,273.764741 20.538,262.088691 5.4,278.480593 C5.4,278.480593 18.198,288.593778 34.749,277.226667 L34.2,273.764741 Z" id="Path" fill="#B1D9DB"></path>
                        <path d="M29.322,252.57521 C29.322,252.57521 15.408,240.326716 1.008,256.436938 C1.008,256.436938 16.146,266.795457 29.853,255.891753 L29.322,252.57521 Z" id="Path" fill="#B1D9DB"></path>
                        <path d="M27.963,234.938469 C27.963,234.938469 16.515,215.856988 0.189,227.542123 C0.189,227.542123 12.672,244.079407 27.783,238.445827 L27.963,234.938469 Z" id="Path" fill="#B1D9DB"></path>
                        <path d="M28.359,212.749432 C28.359,212.749432 16.911,193.31358 0.459,205.889185 C0.459,205.889185 14.535,223.153383 28.062,216.093235 L28.359,212.749432 Z" id="Path" fill="#B1D9DB"></path>
                        <path d="M30.411,193.422617 C30.411,193.422617 23.544,171.188148 8.343,171.61521 C8.343,171.61521 15.363,195.112691 29.088,197.893136 L30.411,193.422617 Z" id="Path" fill="#B1D9DB"></path>
                        <path d="M31.572,174.968099 C31.572,174.968099 25.92,147.754272 13.437,148.808296 C13.437,148.808296 17.199,169.561679 30.807,179.07516 L31.572,174.968099 Z" id="Path" fill="#B1D9DB"></path>
                        <path d="M36.792,152.152099 C36.792,152.152099 29.448,129.944889 17.235,129.081679 C17.235,129.081679 22.248,150.934519 36.531,157.931062 L36.792,152.152099 Z" id="Path" fill="#B1D9DB"></path>
                        <path d="M40.986,132.688988 C40.986,132.688988 37.044,108.955259 29.286,106.638222 C29.286,106.638222 28.287,128.872691 39.384,136.069136 L40.986,132.688988 Z" id="Path" fill="#B1D9DB"></path>
                        <path d="M44.073,113.507556 C44.073,113.507556 39.132,89.2013827 31.131,86.9752099 C31.131,86.9752099 31.698,106.756346 43.218,115.288494 L44.073,113.507556 Z" id="Path" fill="#B1D9DB"></path>
                        <path d="M48.519,90.4643951 C48.519,90.4643951 45.279,70.5833086 39.213,66.7760988 C39.213,66.7760988 37.413,89.4376296 46.413,94.944 L48.519,90.4643951 Z" id="Path" fill="#B1D9DB"></path>
                        <path d="M48.231,71.0921481 L37.737,38.8171852 C37.737,38.8171852 35.037,67.1122963 49.437,77.0255802 L48.231,71.0921481 Z" id="Path" fill="#B1D9DB"></path>
                        <path d="M43.956,38.0448395 C43.956,38.0448395 27.099,17.9547654 26.973,15.4196543 C26.973,15.4196543 32.13,38.5264198 50.706,47.4220247 L43.956,38.0448395 Z" id="Path" fill="#B1D9DB"></path>
                        <path d="M44.451,31.2209383 C44.451,31.2209383 26.838,1.64464198 20.763,0.00908641975 C20.763,0.00908641975 40.131,6.26962963 45.351,30.1396543 L44.451,31.2209383 Z" id="Path" fill="#B1D9DB"></path>
                        <path d="M47.367,93.8081975 L46.467,93.6809877 C51.444,57.1444938 50.517,34.482963 43.839,29.894321 L44.352,29.1401481 C51.435,34.0195556 52.47,56.3812346 47.367,93.8081975 Z" id="Path" fill="#444053"></path>
                        <path d="M31.347,180.129185 L30.006,179.883852 C30.618,176.51279 31.302,173.078123 32.058,169.670716 C38.637,140.09442 43.884,112.726123 46.719,91.9000494 L47.736,91.154963 C44.892,112.053728 39.969,140.357926 33.39,169.979654 C32.634,173.31437 31.95,176.730864 31.347,180.129185 Z" id="Path" fill="#444053"></path>
                        <path d="M88.83,367.354864 C88.632,367.191309 68.364,350.517728 51.03,319.19684 C40.8997869,300.869205 33.7125244,281.035588 29.736,260.434963 C24.759,234.684049 25.488,204.898765 30.492,177.139753 L31.68,178.157432 C20.475,240.472099 36.81,289.62963 52.596,318.242765 C69.696,349.263802 89.748,365.764741 89.955,365.928296 L88.83,367.354864 Z" id="Path" fill="#444053"></path>
                    </g>
                    <path d="M670,684.996899 L578.595668,720.361272 L444.992806,772 C439.953768,762.64179 432.518224,749.839177 423.314917,734.640059 C391.677409,682.19946 339.318792,600.636331 292.719076,528.959918 C240.19644,448.198661 195,380.003101 195,380.003101 L227.721858,370.517321 L495.00048,293 L670,684.996899 Z" id="Path" fill="#000000" fill-rule="nonzero" opacity="0.1"></path>
                    <path d="M671,679.996899 L579.595668,715.361272 L445.992806,767 C440.953768,757.64179 433.518224,744.839177 424.314917,729.640059 C392.677409,677.19946 340.318792,595.636331 293.719076,523.959918 C241.19644,443.198661 196,375.003101 196,375.003101 L228.721858,365.517321 L496.00048,288 L671,679.996899 Z" id="Path" fill="#FFFFFF" fill-rule="nonzero"></path>
                    <path d="M671,680.169089 L579.859818,715.548996 C528.956228,726.187533 477.011441,730.980046 425.027814,729.834055 C393.481736,677.37042 341.27443,595.771464 294.809383,524.063566 L230,365.551371 L496.506212,288 L671,680.169089 Z" id="Path" fill="#000000" fill-rule="nonzero" opacity="0.1"></path>
                    <path d="M738,657.14783 C738,657.14783 596.277909,741.174224 384.695122,722.214048 L216,310.021652 L296.837247,296.10233 L576.280035,248 L734.835261,649.18091 L738,657.14783 Z" id="Path" fill="#B1D9DB" fill-rule="nonzero"></path>
                    <path d="M736,649.054264 C702.621815,650.69044 664.023173,650.535912 625.169875,645.909169 C583.133371,640.982459 540.896779,630.783625 504.608235,612.113032 C474.304118,596.505726 448.392824,579.553118 425.792064,559.2009 C367.030088,506.370576 330.65969,430.797398 298,296.967243 L577.467265,249 L736,649.054264 Z" id="Path" fill="#000000" fill-rule="nonzero" opacity="0.1"></path>
                    <path d="M840,628.004609 C840,628.004609 735.654317,648.525475 629.547142,635.886736 C587.580057,630.92054 545.367815,620.723893 509.184597,602.007259 C478.930523,586.361466 453.062019,569.367054 430.498581,548.964647 C357.859749,483.356194 319.533685,382.920587 280,179.999109 C280,179.999109 453.425213,221.997631 624.771139,130 C624.771139,130 682.56441,492.003753 840,628.004609 Z" id="Path" fill="#FFFFFF" fill-rule="nonzero"></path>
                    <path d="M630,634 C587.621476,629.029316 544.995393,618.823453 508.45744,600.089902 C477.90676,584.429967 451.784646,567.420195 429,546.999349 C491.430846,541.9557 500.407171,508 500.407171,508 C546.691634,581.073616 630,634 630,634 Z" id="Path" fill="#000000" fill-rule="nonzero" opacity="0.1"></path>
                    <path d="M368,251.869734 C368,251.869734 461.495444,262.365701 549.003898,214 L555,232.939349 C555,232.939349 471.282394,274 368,274 L368,251.869734 Z" id="Path" fill="#B1D9DB" fill-rule="nonzero" opacity="0.3"></path>
                    <path d="M368,348.135934 C368,348.135934 461.450021,340.684995 565.481882,291 L569,298.948875 C569,298.948875 530.712977,346.560644 368,359 L368,348.135934 Z" id="Path" fill="#000000" fill-rule="nonzero" opacity="0.3"></path>
                    <path d="M378,385.081282 C378,385.081282 471.450021,377.636291 575.481882,328 L579,335.94253 C579,335.94253 540.722139,383.561527 378,396 L378,385.081282 Z" id="Path" fill="#000000" fill-rule="nonzero" opacity="0.3"></path>
                    <path d="M387,424.081282 C387,424.081282 480.450021,416.636291 584.481882,367 L588,374.94253 C588,374.94253 549.667168,422.534389 387,435 L387,424.081282 Z" id="Path" fill="#000000" fill-rule="nonzero" opacity="0.3"></path>
                    <path d="M400,459.07369 C400,459.07369 493.450021,451.629689 597.481882,402 L601,409.941474 C601,409.941474 562.722139,457.536047 400,470 L400,459.07369 Z" id="Path" fill="#000000" fill-rule="nonzero" opacity="0.3"></path>
                    <path d="M411,495.081282 C411,495.081282 504.450021,487.636291 608.481882,438 L612,445.94253 C612,445.94253 573.712977,493.543435 411,506 L411,495.081282 Z" id="Path" fill="#000000" fill-rule="nonzero" opacity="0.1"></path>
                    <polygon id="Rectangle" fill="#B1D9DB" fill-rule="nonzero" opacity="0.3" transform="translate(596.583934, 283.142213) rotate(-18.800000) translate(-596.583934, -283.142213) " points="582.887534 269.423538 610.297488 269.406384 610.280333 296.860888 582.87038 296.878042"></polygon>
                    <polygon id="Rectangle" fill="#B1D9DB" fill-rule="nonzero" opacity="0.3" transform="translate(611.342149, 321.815424) rotate(-18.800000) translate(-611.342149, -321.815424) " points="597.64575 308.096749 625.055703 308.079595 625.038549 335.5341 597.628595 335.551254"></polygon>
                    <polygon id="Rectangle" fill="#B1D9DB" fill-rule="nonzero" opacity="0.3" transform="translate(635.001356, 396.226533) rotate(-18.800000) translate(-635.001356, -396.226533) " points="621.304956 382.507858 648.71491 382.490703 648.697756 409.945208 621.287802 409.962362"></polygon>
                    <polygon id="Rectangle" fill="#B1D9DB" fill-rule="nonzero" opacity="0.3" transform="translate(648.576003, 436.163932) rotate(-18.800000) translate(-648.576003, -436.163932) " points="634.879604 422.445257 662.289557 422.428102 662.272403 449.882607 634.862449 449.899761"></polygon>
                    <polygon id="Rectangle" fill="#B1D9DB" fill-rule="nonzero" opacity="0.3" transform="translate(623.375215, 361.990319) rotate(-18.800000) translate(-623.375215, -361.990319) " points="609.678815 348.271644 637.088769 348.25449 637.071614 375.708994 609.661661 375.726149"></polygon>
                    <path d="M869.014185,532.169528 C865.43579,538.494217 861.419503,544.566544 856.994068,550.34305 C855.255774,552.172292 853.859591,564.528824 854.099993,570.464715 C854.340395,576.400606 851.797678,603.766071 842.079876,617.942699 C832.362073,632.119327 837.355045,656.622028 837.355045,656.622028 L821.849094,662 L803.217912,662 L790.384125,658.204322 L787,648.966649 C787,648.966649 791.512167,648.280683 802.718615,645.646574 C809.10646,644.360028 813.848654,639.026243 814.322651,632.59493 L822.191205,578.238995 C822.191205,578.238995 824.512012,564.519678 820.684067,555.02591 C818.499019,549.611285 818.963071,543.502112 821.941556,538.471267 L822.191205,538.087126 C822.191205,538.087126 834.331523,528.602505 846.702998,522.666614 C857.659797,517.434981 868.773782,514.947211 871.926752,524.230616 C872.333586,525.42877 871.002127,528.511043 869.014185,532.169528 Z" id="Path" fill="#A5636D" fill-rule="nonzero"></path>
                    <path d="M869.014185,532.172228 C865.43579,538.498123 861.419503,544.571607 856.994068,550.349214 C855.255774,552.178805 853.859591,564.537691 854.099993,570.474714 C854.340395,576.411737 851.797678,603.782417 842.079876,617.961746 C835.237655,627.960461 835.690721,643.072882 836.532129,651.13223 C836.892733,654.507825 837.336553,656.621003 837.336553,656.621003 L821.830601,662 L803.217912,662 L790.384125,658.231043 L787,648.991609 C787,648.991609 788.128042,648.817797 790.698498,648.323808 C793.268953,647.829818 797.170868,646.988206 802.774092,645.670901 C809.140083,644.362561 813.855069,639.032888 814.322651,632.61677 L822.191205,578.250475 C822.191205,578.250475 824.512012,564.528544 820.684067,555.032967 C818.499019,549.617309 818.963071,543.506972 821.941556,538.475169 L822.191205,538.090955 C822.191205,538.090955 834.331523,528.604526 846.702998,522.667503 C857.659797,517.434873 868.773782,514.946629 871.926752,524.231803 C872.333586,525.430185 871.002127,528.513046 869.014185,532.172228 Z" id="Path" fill="#000000" fill-rule="nonzero" opacity="0.05"></path>
                    <path d="M805.145784,659.373864 L797.940735,659.140419 C797.940735,659.140419 791.219675,657.791626 792.863412,650.572124 C792.863412,650.572124 779.89615,647.788076 776.58128,649.629698 C773.266409,651.471319 774.864488,661.630499 784.233791,664.120579 C793.365665,666.550136 827.573668,670.12098 837.408696,668.659787 L838.038796,668.556034 C846.951505,666.826812 838.038796,654.722257 838.038796,654.722257 L838.038796,654.722257 C827.463317,658.149355 816.31738,659.725572 805.145784,659.373864 L805.145784,659.373864 Z" id="Path" fill="#B1D9DB" fill-rule="nonzero"></path>
                    <path d="M848.917296,535.568029 C848.437097,536.540392 847.920657,537.549448 847.331734,538.60437 C842.846859,546.860279 835.652937,557.253553 834.393548,558.602018 C832.472753,560.675169 830.941553,574.655176 831.186182,581.406676 C831.430812,588.158176 828.640223,619.090319 817.894642,635.143477 C812.395007,643.399387 811.153739,654.636598 811.244342,663.681406 C811.271417,666.746259 811.449827,669.807826 811.778903,672.854639 C812.177559,676.588145 812.684939,678.918146 812.684939,678.918146 L795.542748,685 L774.912321,685 L760.714745,680.725273 L757,670.231094 C757,670.231094 758.241269,670.029283 761.031858,669.469716 C763.822447,668.910149 768.171417,667.974479 774.38682,666.488415 C781.433133,665.012718 786.658381,658.984792 787.189101,651.71951 L795.877981,590.194634 C795.877981,590.194634 798.442061,574.646003 794.219936,563.91332 C792.626173,559.929635 792.272127,555.548147 793.205176,551.355164 C793.710358,548.999912 794.631144,546.756277 795.923283,544.732089 C795.923283,544.732089 799.239373,542.090198 804.240688,538.595196 C806.451415,537.054093 809.015495,535.347872 811.769843,533.623304 C823.874476,526.03704 839.793519,518.294831 847.422338,523.936369 C849.105051,525.221593 850.33702,527.01863 850.937755,529.064207 C851.245807,530.128302 850.385073,532.540862 848.917296,535.568029 Z" id="Path" fill="#A5636D" fill-rule="nonzero"></path>
                    <path d="M774.758709,679.926839 L768.274413,679.715438 C766.398688,679.684265 764.591438,679.024709 763.157615,677.848063 C761.509372,676.421106 760.087536,673.954761 761.011277,669.806015 C761.011277,669.806015 746.521229,666.608575 742.780986,668.722585 C739.040742,670.836595 740.870111,682.52531 751.348226,685.388033 C761.608991,688.180288 799.862716,692.284991 810.875152,690.6114 L811.572486,690.488082 C821.534393,688.497389 811.572486,674.562538 811.572486,674.562538 L811.572486,674.562538 C799.739354,678.515693 787.263409,680.333619 774.758709,679.926839 L774.758709,679.926839 Z" id="Path" fill="#B1D9DB" fill-rule="nonzero"></path>
                    <path d="M870.004063,531.909199 C863.70263,534.057756 854.448262,536.907516 849.370319,537.024383 C848.844827,537.044131 848.31857,537.020071 847.79726,536.952465 L847.79726,536.952465 C844.24638,536.476007 833.271767,537.240138 823.207872,538.121136 C819.169435,538.471738 815.287385,538.840319 812.076873,539.163951 C807.293304,539.649399 804,540 804,540 L804,536.952465 C806.244598,535.442182 808.847964,533.770083 811.644512,532.080005 C823.934607,524.645458 840.097553,517.058084 847.843256,522.586798 C858.744276,517.444645 869.801681,514.999425 872.938599,524.12405 C873.306566,525.283732 871.981885,528.313287 870.004063,531.909199 Z" id="Path" fill="#000000" fill-rule="nonzero" opacity="0.1"></path>
                    <path d="M897.993143,461.869556 C897.818943,466.498478 896.076947,478.51359 883.589587,490.656522 C867.673246,506.131913 874.421188,528.354392 874.421188,528.354392 C874.421188,528.354392 855.442601,535.777101 847.25522,535.977962 C846.731486,535.998018 846.206989,535.973583 845.687424,535.904922 C840.773161,535.22017 821.262807,537.018785 810.049855,538.150908 C805.282287,538.643929 802,539 802,539 L802,473.263826 L889.952456,452 L897.919795,459.897471 C897.988856,460.552435 898.013361,461.211299 897.993143,461.869556 Z" id="Path" fill="#B1D9DB" fill-rule="nonzero"></path>
                    <g id="Group"></g>
                    <g id="Group" opacity="0.1" transform="translate(804.000000, 534.000000)" fill="#000000" fill-rule="nonzero">
                        <path d="M2.0040566,3.31175258 L0.558207547,3.46773196 L0.558207547,4.16505155 C0.558207547,4.16505155 3.83424528,3.80721649 8.59273585,3.31175258 C16.6272642,2.49515464 28.8986792,1.34824742 37.015566,1.00876289 C31.3968868,0.494948454 12.8387736,2.21072165 2.0040566,3.31175258 Z" id="Path"></path>
                    </g>
                    <path d="M725,415.061619 C725,415.061619 698.997783,396.001727 697.087964,413.166998 C695.178146,430.332269 725,427.878734 725,427.878734 L725,415.061619 Z" id="Path" fill="#A5636D" fill-rule="nonzero"></path>
                    <path d="M769.592157,402 C769.592157,402 755.235294,411.373143 747.29281,410.795223 C747.29281,410.795223 725.588235,413.666764 723.062745,412.230993 C720.537255,410.795223 719,433 719,433 L754.686275,430.516749 L777.562092,427.067288 C777.562092,427.067288 789,420.186426 789,414.253714 C789,408.321002 769.592157,402 769.592157,402 Z" id="Path" fill="#D5484C" fill-rule="nonzero"></path>
                    <path d="M769.592157,402 C769.592157,402 755.235294,411.373143 747.29281,410.795223 C747.29281,410.795223 725.588235,413.666764 723.062745,412.230993 C720.537255,410.795223 719,433 719,433 L754.686275,430.516749 L777.562092,427.067288 C777.562092,427.067288 789,420.186426 789,414.253714 C789,408.321002 769.592157,402 769.592157,402 Z" id="Path" fill="#D5484C" fill-rule="nonzero" opacity="0.05"></path>
                    <path d="M747.507603,451.030781 C747.507603,451.030781 715.966716,449.674895 723.031445,464.961111 C730.096175,480.247327 754,461.692127 754,461.692127 L747.507603,451.030781 Z" id="Path" fill="#A5636D" fill-rule="nonzero"></path>
                    <path d="M781,418 C781,418 754.643709,398.70527 758.358849,375.207014 C762.073989,351.708757 781,393.193779 781,393.193779 L781,418 Z" id="Path" fill="#B1D9DB" fill-rule="nonzero"></path>
                    <path d="M773.999994,310.992194 C773.990765,319.551102 770.66192,327.77254 764.714306,333.925585 C763.266633,335.437589 761.669807,336.79927 759.948201,337.989846 C756.661193,340.282609 752.995362,341.976934 749.119463,342.994823 C747.579194,343.379635 746.014143,343.657338 744.435532,343.825942 C743.303354,343.93554 742.162045,343.999472 741.002475,343.999472 C737.299635,344.020686 733.620891,343.402746 730.128085,342.172838 C714.266472,336.634692 705.096784,320.059806 708.829941,303.674875 C712.563098,287.289944 728.007167,276.326395 744.701391,278.210187 C761.395616,280.09398 774.009816,294.223651 773.999994,311.028727 L773.999994,310.992194 Z" id="Path" fill="#A5636D" fill-rule="nonzero"></path>
                    <path d="M897.962199,461.893455 C895.022585,462.442583 891.393432,463.431014 891.393432,464.968572 C891.393432,467.558625 850.402147,481.515628 850.402147,481.515628 C850.402147,481.515628 851.935464,485.121568 847.843594,491.326714 C843.751724,497.53186 810.436098,533.188568 810.436098,533.188568 L810.544973,534.250216 L810.971398,538.359523 L813.003724,558 C813.003724,558 800.192813,553.350717 796.09187,553.863236 C794.767229,554.037127 793.370005,553.176826 792,551.941288 C792.50588,549.591454 793.42794,547.35298 794.721865,545.333448 C794.721865,545.333448 798.04254,542.697634 803.050771,539.210672 L803.050771,473.315317 L890.086937,452 L897.971272,459.916595 C898.012396,460.575002 898.009365,461.23546 897.962199,461.893455 Z" id="Path" fill="#000000" fill-rule="nonzero" opacity="0.1"></path>
                    <path d="M903,456.404051 C903,456.404051 892.754777,457.417948 892.754777,459.979847 C892.754777,462.541746 851.792017,476.347032 851.792017,476.347032 C851.792017,476.347032 853.324267,479.913775 849.235244,486.051469 C845.146221,492.189164 811.853779,527.467328 811.853779,527.467328 L814.419618,552 C814.419618,552 801.617622,547.401256 797.519533,547.908204 C795.706219,548.13452 793.666241,546.450728 791.988925,544.486303 C790.602771,542.847639 789.36772,541.087288 788.298832,539.226716 C788.298832,539.226716 792.913715,519.790683 786.766581,515.191939 C780.619447,510.593194 793.421443,476.85398 793.421443,476.85398 C793.421443,476.85398 799.205915,452.864467 797.5014,442.571607 C797.395775,441.883098 797.231993,441.204748 797.011805,440.543814 C797.011805,440.471393 796.966472,440.389919 796.939272,440.317498 C793.312645,430.486324 754,347.980502 754,347.980502 C754.024705,345.640332 754.188189,343.303677 754.489595,340.982807 C754.571194,340.340069 754.679993,339.670173 754.797858,338.991224 C754.997155,337.770519 755.263509,336.561676 755.595716,335.370166 C755.803882,334.606331 756.052043,333.853927 756.339175,333.116057 C757.554095,330.001946 759.412742,327.602995 762.187112,327.548679 C762.187112,327.548679 765.260679,324.153936 772.468602,323.230566 C777.745345,322.542565 785.279664,323.230566 795.479555,327.548679 C819.533163,337.760064 825.172569,338.285118 825.172569,338.285118 L837.258306,354.127249 L839.742546,357.37715 C848.848889,369.235893 857.093338,381.730302 864.412681,394.76458 C868.438238,402.006698 874.14111,410.416606 880.977303,415.477036 C894.803821,425.733685 903,456.404051 903,456.404051 Z" id="Path" fill="#D5484C" fill-rule="nonzero"></path>
                    <path d="M807.841998,415.659755 C807.190537,417.594936 806.185426,428.80438 806.185426,428.80438 C805.589804,437.01977 800.191984,440.671055 795.687595,442.231979 C793.657236,442.9438 791.53122,443.359008 789.377729,443.464288 L783.039943,448.868189 L753.770726,470 C753.770726,470 742.863406,450.219165 745.822901,450.109626 C748.782396,450.000088 765.850677,435.942641 765.850677,435.942641 C771.071672,433.204178 776.301974,424.075966 778.730993,419.384065 C778.591165,418.824796 778.485502,418.257839 778.414569,417.686218 C777.362925,408.932262 755.2877,375.413468 755.2877,375.413468 C755.2877,375.413468 746.75356,365.564128 743.431108,347.316832 C743.338042,346.896934 743.272896,346.467908 743.189137,346.029754 C743.094911,345.461952 743.03895,344.888674 743.021618,344.31365 C742.621435,337.294056 747.833124,334.738156 754.012698,334.135694 L754.012698,334.135694 C757.240135,333.884396 760.485969,333.982353 763.691548,334.427797 C766.885493,334.82237 770.047917,335.432362 773.156348,336.253439 C775.799418,335.906567 782.31403,346.686986 786.585753,354.327299 L786.585753,354.327299 C788.88448,358.471507 790.541053,361.702894 790.541053,361.702894 C790.541053,361.702894 799.419537,381.611524 800.396729,384.313475 C801.37392,387.015426 800.396729,391.479121 800.787605,393.021789 C801.178482,394.564457 805.32922,395.915432 805.915535,398.051434 C806.50185,400.187435 806.12028,404.441182 806.511156,405.198824 C806.902033,405.956465 808.502766,413.724574 807.841998,415.659755 Z" id="Path" fill="#D5484C" fill-rule="nonzero"></path>
                    <path d="M842,370.374129 C836.578596,375.962972 827.823027,375.981206 820.793273,373.109288 C813.763518,370.237371 807.809009,365.09527 801.294288,361.09282 C797.065593,358.485301 792.583898,356.351876 788.418453,353.662303 L788.418453,353.662303 C787.804027,353.261146 787.207672,352.859989 786.611318,352.440598 C781.804339,349.012531 777.638893,344.608924 772.660237,341.499959 C769.330221,339.265107 765.452572,338.002967 761.456001,337.853079 C759.615947,337.836378 757.794145,338.222066 756.115918,338.983612 C755.80481,339.111168 755.50289,339.260444 755.21235,339.430355 C753.573164,340.378772 752.055824,341.527044 750.694513,342.849304 C749.284948,344.125712 747.938633,345.484175 746.456782,346.678528 C746.366425,346.259137 746.303176,345.830629 746.221855,345.393003 C746.130372,344.825885 746.07604,344.253299 746.059212,343.67897 C744.938789,343.788376 743.80933,343.852196 742.661799,343.852196 C738.997403,343.873374 735.356853,343.256514 731.900311,342.028757 C731.900311,341.891999 731.900311,341.755241 731.81899,341.618483 C730.599174,335.127037 728.39447,328.252669 723.217028,324.605789 C720.217184,322.490599 715.428277,321.624465 711.271867,320.047189 C707.31498,306.148823 712.801343,291.271406 724.799741,283.363545 C736.798139,275.455683 752.504312,276.365598 763.526871,285.607147 C774.549431,294.848695 778.31219,310.261947 772.804808,323.612014 C778.06357,322.919107 785.572215,323.612014 795.737349,327.960918 C819.708992,338.245119 825.329181,338.773916 825.329181,338.773916 L837.373735,354.729015 C836.072598,356.734799 834.599783,358.713231 834.464248,361.056351 C834.238356,365.350552 838.38573,368.350111 842,370.374129 Z" id="Path" fill="#000000" fill-rule="nonzero" opacity="0.1"></path>
                    <path d="M721.932459,322.489533 C727.080674,326.143427 729.272933,333.021882 730.494849,339.516677 C730.872205,341.544588 731.231591,343.682116 732.453506,345.289829 C735.148907,348.888915 740.683464,347.874959 744.250377,345.289829 C747.817291,342.7047 750.629493,338.785899 754.609701,336.958952 C759.892687,334.529113 766.110078,336.301251 771.060631,339.452734 C776.011184,342.604218 780.153117,347.016294 784.932961,350.414415 C789.560066,353.730324 794.717266,356.09622 799.533049,359.083278 C806.010995,363.093426 811.931893,368.27282 818.921965,371.122857 C825.912038,373.972894 834.645137,373.96376 840,368.382437 C836.406132,366.354526 832.282169,363.358333 832.560694,359.0102 C832.839218,354.662067 837.816725,351.419236 837.484293,346.961486 C837.15186,342.503736 831.99466,340.759001 828.292976,338.566665 C820.56616,333.999298 817.268786,323.951091 815.615607,314.679336 C814.330799,307.426357 813.270608,299.323848 807.942699,294.665133 C804.501571,291.668941 799.856497,290.691524 796.388414,287.722735 C793.10901,284.900103 791.285122,280.634182 789.200679,276.697111 C785.75955,270.147507 781.240262,264.05464 775.265456,260.135839 C769.290651,256.217038 761.689621,254.654998 755.130812,257.34061 C752.615105,258.354566 750.324014,259.92574 747.844245,260.994504 C741.662793,263.734924 734.591858,263.34213 728.473298,266.201302 C720.93516,269.727309 716.038515,277.510103 711.555165,284.900103 C707.763635,291.230473 700.243466,302.393118 702.372833,310.614379 C704.493215,318.972661 716.343994,318.525059 721.932459,322.489533 Z" id="Path" fill="#4C3E42" fill-rule="nonzero"></path>
                    <g id="Group" opacity="0.1" transform="translate(834.000000, 345.000000)" fill="#000000" fill-rule="nonzero">
                        <path d="M4.33636364,1.94469136 C4.30844348,1.60524174 4.2506416,1.26894671 4.16363636,0.939753086 C2.78181818,3.12320988 1.06363636,5.24271605 0.9,7.80074074 C0.864653341,8.39243971 0.913633338,8.98617856 1.04545455,9.56395062 C2.58181818,7.10641975 4.55454545,4.79506173 4.33636364,1.94469136 Z" id="Path"></path>
                    </g>
                    <path d="M661.767554,426.217679 L734.644402,399.433965 C736.365706,398.798642 738.273131,398.863059 739.946116,399.613014 C741.619102,400.362968 742.920261,401.736873 743.562706,403.431802 L743.562706,403.431802 C744.205374,405.126843 744.137408,407.003671 743.37376,408.649402 C742.610112,410.295133 741.213337,411.574956 739.490713,412.207323 L666.613865,439 L651,437.458233 L661.767554,426.217679 Z" id="Path" fill="#B1D9DB" fill-rule="nonzero"></path>
                    <path d="M741.367291,400.228841 L741.367291,400.228841 C742.706153,403.763307 740.883671,407.697515 737.295298,409.019089 L664.41845,435.820377 L652.685277,434.663293 L651,436.457222 L666.613865,438 L739.490713,411.189742 C741.213337,410.556961 742.610112,409.276298 743.37376,407.629487 C744.137408,405.982676 744.205374,404.104617 743.562706,402.408464 L743.562706,402.408464 C743.028608,400.994255 742.031924,399.795153 740.729619,399 C740.980448,399.38924 741.193926,399.800629 741.367291,400.228841 Z" id="Path" fill="#FFFFFF" fill-rule="nonzero" opacity="0.1"></path>
                    <polygon id="Path" fill="#EFC8C4" fill-rule="nonzero" points="659.64898 426 664 439 652.514286 437.714586 650 437.431978 653.436735 433.366059"></polygon>
                    <path d="M652.21339,434 C652.467881,434.202801 652.682278,434.459487 652.843768,434.754717 C653.052077,435.110034 653.052077,435.565018 652.843768,435.920335 C652.666682,436.106607 652.464455,436.262153 652.24414,436.381551 C651.738652,436.744548 651.415203,437.341875 651.367761,438 L649,437.740042 L652.21339,434 Z" id="Path" fill="#B1D9DB" fill-rule="nonzero"></path>
                    <path d="M596.698067,286.843829 L583.870298,280.624455 C583.500799,280.44525 583.218067,280.127467 583.084315,279.741032 C582.950563,279.354597 582.976751,278.931173 583.157116,278.563933 L584.516916,275.785064 C584.695252,275.41598 585.014872,275.133264 585.404386,275.000063 C585.7939,274.866861 586.220858,274.89427 586.589899,275.076168 L595.233666,279.263376 L604.257797,260.869909 C604.633487,260.105692 605.558538,259.785136 606.33078,260.151561 L609.126454,261.51264 C609.49777,261.689904 609.782195,262.007602 609.916202,262.394775 C610.050209,262.781948 610.022634,263.20634 609.839636,263.573162 L598.77105,286.134934 C598.590761,286.502211 598.271057,286.783244 597.882285,286.916192 C597.493513,287.04914 597.067528,287.023109 596.698067,286.843829 L596.698067,286.843829 Z" id="Path" fill="#3ACC6C" fill-rule="nonzero"></path>
                    <path d="M624.705463,362.864979 L611.870768,356.645085 C611.501069,356.465866 611.218185,356.148056 611.084361,355.761589 C610.950537,355.375121 610.976738,354.951662 611.1572,354.584391 L612.517735,351.805289 C612.897242,351.03919 613.82882,350.722218 614.601352,351.096335 L623.240272,355.283892 L632.259762,336.869981 C632.635654,336.105701 633.561205,335.785118 634.333864,336.151574 L637.121533,337.512767 C637.492909,337.690286 637.777893,338.00737 637.913561,338.394006 C638.049228,338.780642 638.02442,339.205029 637.844615,339.573461 L626.770051,362.137119 C626.38686,362.899046 625.459303,363.214649 624.686435,362.846074 L624.705463,362.864979 Z" id="Path" fill="#3ACC6C" fill-rule="nonzero"></path>
                    <path d="M610.703267,325.843965 L597.87519,319.630002 C597.106334,319.256896 596.783831,318.338205 597.152482,317.571273 L598.521824,314.794822 C598.700165,314.426059 599.019792,314.14359 599.409315,314.010504 C599.798838,313.877418 600.225807,313.904804 600.594857,314.086544 L609.238832,318.270108 L618.263179,299.864314 C618.443472,299.497356 618.763184,299.216568 619.151965,299.083735 C619.540747,298.950903 619.966741,298.976911 620.336212,299.156035 L623.131953,300.506486 C623.898442,300.886837 624.215935,301.807519 623.845152,302.574659 L612.76679,325.135686 C612.586498,325.502644 612.266786,325.783432 611.878004,325.916265 C611.489223,326.049097 611.063228,326.023089 610.693758,325.843965 L610.703267,325.843965 Z" id="Path" fill="#3ACC6C" fill-rule="nonzero"></path>
                    <path d="M635.698067,397.846077 L622.870298,391.626309 C622.500799,391.447093 622.218067,391.12929 622.084315,390.74283 C621.950563,390.35637 621.976751,389.93292 622.157116,389.565656 L623.516916,386.786611 C623.697204,386.419309 624.016909,386.138259 624.405681,386.005303 C624.794453,385.872347 625.220437,385.898378 625.589899,386.07767 L634.233666,390.265143 L643.257797,371.87051 C643.637334,371.105017 644.565312,370.784895 645.340289,371.152117 L648.126454,372.513282 C648.49777,372.690558 648.782195,373.008276 648.916202,373.395473 C649.050209,373.78267 649.022634,374.20709 648.839636,374.573935 L637.780559,397.137137 C637.397575,397.899048 636.470518,398.214645 635.698067,397.846077 L635.698067,397.846077 Z" id="Path" fill="#3ACC6C" fill-rule="nonzero"></path>
                </g>
            </g>
        </g>
    </g>
</svg>