<?xml version="1.0" encoding="UTF-8"?>
<svg id="SVGDoc" width="195" height="38" xmlns="http://www.w3.org/2000/svg" version="1.1" xmlns:xlink="http://www.w3.org/1999/xlink" xmlns:avocode="https://avocode.com/" viewBox="0 0 195 38"><defs><clipPath id="clip-339E75F0-70DA-43F1-2A05-D2255A3B1286"><path d="M0,0.26v0h19.8897v0v20.229v0h-19.8897v0z" ></path></clipPath><clipPath id="clip-F94E5634-D903-6AA9-50F8-9DAADFA0A173"><path d="M0,37.809v0h194.632v0v-37.809v0h-194.632v0z" ></path></clipPath></defs><desc>Generated with Avocode.</desc><g><g><title>Group 15</title><g><title>Fill 1</title><path d="M19.115,34.552c-0.516,1.259 -1.187,2.226 -2.014,2.902l-0.367,-0.394c0.752,-0.639 1.377,-1.55 1.874,-2.733c0.498,-1.183 0.746,-2.442 0.746,-3.775c0,-2.047 -0.408,-3.593 -1.225,-4.635c-0.817,-1.042 -1.873,-1.563 -3.169,-1.563c-1.015,0 -1.822,0.272 -2.423,0.817c-0.601,0.545 -1.052,1.216 -1.353,2.014c-0.299,0.799 -0.61,1.874 -0.929,3.225c-0.357,1.448 -0.7,2.593 -1.029,3.438c-0.328,0.845 -0.836,1.563 -1.521,2.155c-0.685,0.592 -1.601,0.888 -2.747,0.888c-0.902,0 -1.728,-0.235 -2.479,-0.704c-0.751,-0.47 -1.352,-1.202 -1.803,-2.198c-0.451,-0.996 -0.676,-2.226 -0.676,-3.691c0,-1.052 0.165,-2.085 0.493,-3.099c0.329,-1.014 0.766,-1.887 1.31,-2.62l0.451,0.31c-0.564,0.77 -0.991,1.63 -1.283,2.578c-0.291,0.948 -0.436,1.883 -0.436,2.803c0,1.972 0.418,3.475 1.254,4.508c0.836,1.033 1.901,1.549 3.198,1.549c1.014,0 1.826,-0.272 2.437,-0.817c0.61,-0.544 1.065,-1.221 1.366,-2.028c0.301,-0.808 0.62,-1.897 0.958,-3.269c0.356,-1.427 0.699,-2.563 1.028,-3.408c0.329,-0.846 0.826,-1.559 1.493,-2.142c0.667,-0.581 1.564,-0.873 2.691,-0.873c0.901,0 1.728,0.244 2.479,0.733c0.751,0.488 1.348,1.235 1.788,2.24c0.443,1.005 0.662,2.259 0.662,3.761c0,1.427 -0.256,2.77 -0.774,4.028" fill="#242e4e" fill-opacity="1"></path></g><g><title>Group 5</title><g><title>Clip 4</title></g><g clip-path="url(#clip-339E75F0-70DA-43F1-2A05-D2255A3B1286)"><title>Fill 3</title><path d="M18.594,15.53c-0.863,1.541 -2.051,2.752 -3.564,3.634c-1.511,0.883 -3.207,1.325 -5.085,1.325c-1.878,0 -3.573,-0.442 -5.086,-1.325c-1.511,-0.882 -2.699,-2.093 -3.563,-3.634c-0.864,-1.539 -1.296,-3.258 -1.296,-5.156c0,-1.897 0.432,-3.615 1.296,-5.155c0.864,-1.541 2.052,-2.752 3.563,-3.635c1.513,-0.882 3.208,-1.324 5.086,-1.324c1.878,0 3.574,0.442 5.085,1.324c1.513,0.883 2.701,2.094 3.564,3.635c0.865,1.54 1.296,3.258 1.296,5.155c0,1.898 -0.431,3.617 -1.296,5.156M18.11965,5.51746c-0.81557,-1.45676 -1.94197,-2.60336 -3.3782,-3.4398c-1.43624,-0.83544 -3.03639,-1.25366 -4.80145,-1.25366c-1.76406,0 -3.36521,0.41822 -4.80045,1.25366c-1.43624,0.83644 -2.56264,1.98304 -3.3792,3.4398c-0.81657,1.45576 -1.22535,3.07661 -1.22535,4.86154c0,1.78593 0.40878,3.40678 1.22535,4.86254c0.81657,1.45676 1.94297,2.60236 3.3792,3.4388c1.43524,0.83644 3.03639,1.25466 4.80045,1.25466c1.76506,0 3.36521,-0.41822 4.80145,-1.25466c1.43624,-0.83644 2.56264,-1.98204 3.3782,-3.4388c0.81657,-1.45576 1.22535,-3.07661 1.22535,-4.86254c0,-1.78493 -0.40878,-3.40578 -1.22535,-4.86154" fill="#242e4e" fill-opacity="1"></path></g></g><g><title>Fill 6</title><path d="M31.09,36.707c-2.833,-0.67 -5.161,-1.571 -6.98,-2.705l3.915,-8.86c1.716,0.996 3.639,1.794 5.769,2.395c2.13,0.601 4.173,0.901 6.131,0.901c1.683,0 2.885,-0.163 3.606,-0.49c0.722,-0.326 1.082,-0.814 1.082,-1.468c0,-0.754 -0.472,-1.321 -1.417,-1.7c-0.945,-0.378 -2.499,-0.789 -4.662,-1.236c-2.782,-0.584 -5.1,-1.211 -6.955,-1.881c-1.854,-0.669 -3.469,-1.768 -4.843,-3.297c-1.374,-1.528 -2.06,-3.597 -2.06,-6.208c0,-2.266 0.635,-4.327 1.906,-6.181c1.271,-1.856 3.168,-3.315 5.693,-4.379c2.525,-1.066 5.589,-1.598 9.196,-1.598c2.473,0 4.901,0.267 7.29,0.798c2.387,0.534 4.49,1.314 6.31,2.345l-3.657,8.809c-3.538,-1.785 -6.886,-2.679 -10.047,-2.679c-3.126,0 -4.687,0.756 -4.687,2.268c0,0.721 0.463,1.262 1.39,1.622c0.928,0.36 2.456,0.747 4.585,1.159c2.748,0.516 5.066,1.108 6.956,1.778c1.888,0.67 3.529,1.759 4.919,3.27c1.392,1.513 2.086,3.573 2.086,6.183c0,2.267 -0.634,4.32 -1.905,6.156c-1.271,1.838 -3.168,3.298 -5.693,4.38c-2.525,1.082 -5.589,1.622 -9.196,1.622c-2.988,0 -5.899,-0.334 -8.732,-1.004" fill="#242e4e" fill-opacity="1"></path></g><g><title>Fill 8</title><path d="M64.557,33.225c-3.091,-2.988 -4.637,-7.179 -4.637,-12.571v-19.834v0h12.158v0v19.473c0,2.646 0.472,4.569 1.417,5.771c0.945,1.203 2.31,1.803 4.096,1.803c1.785,0 3.151,-0.6 4.096,-1.803c0.944,-1.202 1.416,-3.125 1.416,-5.771v-19.473v0h11.953v0v19.834c0,5.392 -1.546,9.583 -4.637,12.571c-3.091,2.987 -7.401,4.481 -12.931,4.481c-5.531,0 -9.84,-1.494 -12.931,-4.481" fill="#242e4e" fill-opacity="1"></path></g><g><title>Clip 11</title></g><g clip-path="url(#clip-F94E5634-D903-6AA9-50F8-9DAADFA0A173)"><title>Fill 10</title><path d="M100.62,36.883v0h12.159v0v-36.063v0h-12.159v0z" fill="#242e4e" fill-opacity="1"></path></g><g clip-path="url(#clip-F94E5634-D903-6AA9-50F8-9DAADFA0A173)"><title>Fill 12</title><path d="M126.481,10.249v0h-10.561v0v-9.429v0h33.281v0v9.429v0h-10.561v0v26.634v0h-12.159v0z" fill="#242e4e" fill-opacity="1"></path></g><g clip-path="url(#clip-F94E5634-D903-6AA9-50F8-9DAADFA0A173)"><title>Fill 13</title><path d="M182.323,27.713v0v9.17v0h-29.983v0v-36.063v0h29.313v0v9.17v0h-17.361v0v4.225v0h15.249v0v8.758v0h-15.249v0v4.74v0z" fill="#242e4e" fill-opacity="1"></path></g><g clip-path="url(#clip-F94E5634-D903-6AA9-50F8-9DAADFA0A173)"><title>Fill 14</title><path d="M187.835,36.716c-0.75,-0.729 -1.125,-1.665 -1.125,-2.805c0,-1.14 0.375,-2.065 1.125,-2.775c0.75,-0.71 1.695,-1.066 2.835,-1.066c1.141,0 2.085,0.356 2.835,1.066c0.75,0.71 1.125,1.635 1.125,2.775c0,1.14 -0.375,2.076 -1.125,2.805c-0.75,0.73 -1.694,1.095 -2.835,1.095c-1.14,0 -2.085,-0.365 -2.835,-1.095" fill="#242e4e" fill-opacity="1"></path></g></g></g></svg>