<?xml version="1.0" encoding="UTF-8"?>
<svg id="SVGDoc" width="32" height="32" xmlns="http://www.w3.org/2000/svg" version="1.1" xmlns:xlink="http://www.w3.org/1999/xlink" xmlns:avocode="https://avocode.com/" viewBox="0 0 32 32"><defs><clipPath id="clip-0DA60867-5CA7-4263-057D-4EB7A204BB4C"><path d="M0,0.17v0h31.84146v0v31.83072v0h-31.84146v0z" ></path></clipPath></defs><desc>Generated with Avocode.</desc><g><g><title>Group 8</title><g><title>Group 3</title><g><title>Clip 2</title></g><g clip-path="url(#clip-0DA60867-5CA7-4263-057D-4EB7A204BB4C)"><title>Fill 1</title><path d="M23.69937,32.00072h-15.53835c-0.10071,-0.01859 -0.20047,-0.04376 -0.30188,-0.05482c-0.86989,-0.09553 -1.72141,-0.28824 -2.51036,-0.66141c-3.41835,-1.61624 -5.26117,-4.32212 -5.31411,-8.10753c-0.06589,-4.72259 -0.01836,-9.44706 -0.01436,-14.17059c0.00142,-1.53012 0.33812,-2.98847 1.11624,-4.30777c1.75412,-2.97411 4.38235,-4.496 7.83482,-4.51458c4.64071,-0.02471 9.28141,-0.01177 13.92212,0.00094c0.59765,0.00141 1.20918,0.03317 1.79012,0.16141c3.60376,0.79506 5.90753,2.98753 6.89694,6.54376c0.12941,0.46471 0.176,0.95271 0.26094,1.42989v15.53858c-0.05153,0.32518 -0.08565,0.65436 -0.15765,0.97506c-0.81106,3.60541 -2.99341,5.91741 -6.55694,6.90659c-0.464,0.12894 -0.95106,0.17553 -1.42753,0.26047M15.95874,2.99907c-2.31029,0 -4.62082,-0.00188 -6.93112,0.00118c-0.72805,0.00094 -1.44643,0.0755 -2.13823,0.3227c-2.51979,0.90107 -4.04272,3.06871 -4.04719,5.8039c-0.00776,4.63799 -0.01554,9.27599 0.01224,13.91398c0.004,0.69221 0.10286,1.41593 0.32364,2.06957c0.85516,2.53126 3.05317,4.05139 5.78645,4.0568c4.64177,0.00871 9.2833,0.01528 13.9246,-0.01177c0.69321,-0.00423 1.41772,-0.10066 2.07185,-0.32035c2.52543,-0.84909 4.05567,-3.02801 4.06485,-5.74674c0.01601,-4.66881 0.01153,-9.33807 0.00141,-14.00712c-0.00471,-2.08532 -0.8462,-3.76562 -2.54474,-4.99291c-1.07829,-0.77923 -2.30393,-1.09229 -3.62373,-1.09017c-2.29994,0.00377 -4.60011,0.00094 -6.90004,0.00094" fill="#ffffff" fill-opacity="1"></path></g></g><g><title>Fill 4</title><path d="M25,16.00613c-0.0039,4.69028 -3.84929,8.5447 -8.51068,8.5305c-4.67894,-0.01396 -8.51287,-3.87645 -8.48921,-8.55229c0.0239,-4.69101 3.83173,-8.50772 8.49482,-8.51433c4.66505,-0.0071 8.50897,3.85099 8.50507,8.53612M16.48493,10.41389c-3.08377,0.02154 -5.57347,2.53476 -5.5525,5.60448c0.02146,3.09568 2.52482,5.59543 5.58249,5.57437c3.08329,-0.02105 5.57396,-2.53525 5.55275,-5.60448c-0.02147,-3.09543 -2.52531,-5.59568 -5.58274,-5.57437" fill="#ffffff" fill-opacity="1"></path></g><g><title>Fill 6</title><path d="M24.51091,9.59997c-0.82447,0.00584 -1.51142,-0.72235 -1.51091,-1.6015c0.00068,-0.87277 0.66905,-1.59 1.48943,-1.5984c0.82533,-0.0084 1.51074,0.71742 1.51057,1.59949c-0.00017,0.87003 -0.67434,1.59456 -1.48909,1.60041" fill="#ffffff" fill-opacity="1"></path></g></g></g></svg>