<?xml version="1.0" encoding="UTF-8"?>
<svg width="1766px" height="1005px" viewBox="0 0 1766 1005" version="1.1" xmlns="http://www.w3.org/2000/svg" xmlns:xlink="http://www.w3.org/1999/xlink">
    <!-- Generator: Sketch 54.1 (76490) - https://sketchapp.com -->
    <title>Oval 2 Copy 2</title>
    <desc>Created with Sketch.</desc>
    <defs>
        <linearGradient x1="50%" y1="100%" x2="50%" y2="3.061617e-15%" id="linearGradient-1">
            <stop stop-color="#F3F9EF" stop-opacity="0.4" offset="0%"></stop>
            <stop stop-color="#32788E" stop-opacity="0.5" offset="100%"></stop>
        </linearGradient>
        <path d="M1291.63414,1351.03443 C1554.01916,1376.45407 1853,1280.69105 1853,1034.15096 C1853,561.393737 258.847999,144 222.574279,144 C222.574279,144 92,877.205479 92,884.329734 C92,891.453989 1029.24912,1325.61479 1291.63414,1351.03443 Z" id="path-2"></path>
        <linearGradient x1="5.55111512e-14%" y1="79.7137252%" x2="99.5645059%" y2="14.4362454%" id="linearGradient-4">
            <stop stop-color="#F3F9EF" offset="0%"></stop>
            <stop stop-color="#B1D9DB" offset="50%"></stop>
            <stop stop-color="#507A9A" offset="100%"></stop>
        </linearGradient>
        <linearGradient x1="50%" y1="100%" x2="50%" y2="3.061617e-15%" id="linearGradient-5">
            <stop stop-color="#223554" offset="0%"></stop>
            <stop stop-color="#507A9A" offset="47.9861698%"></stop>
            <stop stop-color="#B1D9DB" offset="100%"></stop>
        </linearGradient>
        <linearGradient x1="50%" y1="100%" x2="50%" y2="3.061617e-15%" id="linearGradient-6">
            <stop stop-color="#507A9A" offset="0%"></stop>
            <stop stop-color="#223554" offset="100%"></stop>
        </linearGradient>
        <linearGradient x1="50%" y1="0%" x2="50%" y2="100%" id="linearGradient-7">
            <stop stop-color="#347A8F" offset="0%"></stop>
            <stop stop-color="#B1D9DB" offset="100%"></stop>
        </linearGradient>
        <linearGradient x1="50%" y1="0%" x2="50%" y2="100%" id="linearGradient-8">
            <stop stop-color="#347A8F" offset="0%"></stop>
            <stop stop-color="#B1D9DB" offset="100%"></stop>
        </linearGradient>
        <linearGradient x1="50%" y1="100%" x2="50%" y2="3.061617e-15%" id="linearGradient-9">
            <stop stop-color="#507A9A" offset="0%"></stop>
            <stop stop-color="#223554" offset="100%"></stop>
        </linearGradient>
        <linearGradient x1="50%" y1="0%" x2="50%" y2="100%" id="linearGradient-10">
            <stop stop-color="#32788E" offset="0%"></stop>
            <stop stop-color="#B1D9DB" offset="100%"></stop>
        </linearGradient>
        <linearGradient x1="50%" y1="0%" x2="50%" y2="100%" id="linearGradient-11">
            <stop stop-color="#32788E" offset="0%"></stop>
            <stop stop-color="#B1D9DB" offset="100%"></stop>
        </linearGradient>
        <linearGradient x1="50%" y1="100%" x2="50%" y2="3.061617e-15%" id="linearGradient-12">
            <stop stop-color="#507A9A" offset="0%"></stop>
            <stop stop-color="#223554" offset="100%"></stop>
        </linearGradient>
        <linearGradient x1="50%" y1="0%" x2="50%" y2="100%" id="linearGradient-13">
            <stop stop-color="#32788E" offset="0%"></stop>
            <stop stop-color="#B1D9DB" offset="100%"></stop>
        </linearGradient>
        <linearGradient x1="50%" y1="0%" x2="50%" y2="100%" id="linearGradient-14">
            <stop stop-color="#32788E" offset="0%"></stop>
            <stop stop-color="#B1D9DB" offset="100%"></stop>
        </linearGradient>
    </defs>
    <g id="MOBILE-HERE" stroke="none" stroke-width="1" fill="none" fill-rule="evenodd">
        <g id="ONE-PAGE" transform="translate(-39.000000, -51.000000)">
            <g id="Oval-2-Copy-2" transform="translate(-12.000000, -232.000000)">
                <mask id="mask-3" fill="white">
                    <use xlink:href="#path-2"></use>
                </mask>
                <use id="Mask" fill="url(#linearGradient-1)" transform="translate(972.500000, 749.500000) scale(-1, 1) rotate(-10.000000) translate(-972.500000, -749.500000) " xlink:href="#path-2"></use>
                <ellipse id="Oval-2-Copy" fill="url(#linearGradient-4)" mask="url(#mask-3)" cx="1254.5" cy="1083.5" rx="532.5" ry="410.5"></ellipse>
                <path d="M1377.83956,1214.10616 C1377.83956,1247.69023 854.471973,1378.3144 780.244641,1268.95803 C754.517542,1231.05525 746.695405,1209.5 733.121099,1158 C876.351293,1066.03305 1053.01803,929.928281 1153.78661,902.338195 C1200.96371,889.42127 1287.58875,894.110448 1347.14737,883.025135 C1406.706,871.939822 1487.47171,857.369074 1524,849.077844 C1560.52829,840.786614 1574.77907,839.4199 1608.85644,833 C1628.35088,829.327405 1653.66917,827.313071 1663,820.313071 C1670.96157,827.548825 1675.49229,831.5 1682.52841,839.291577 C1654.7281,850 1643.38279,857.502729 1614.1256,883.025135 C1590.03513,904.04037 1564.62251,931.024876 1543.5,943.997527 C1475.3047,985.88052 1429.63387,994.651939 1399.35451,1028.7266 C1369.07515,1062.80126 1377.83956,1145.13095 1377.83956,1214.10616 Z" id="Path-25-Copy" fill="url(#linearGradient-5)" mask="url(#mask-3)"></path>
                <g id="Group-22-Copy" mask="url(#mask-3)">
                    <g transform="translate(1095.000000, 704.000000)">
                        <path d="M119.907289,352.646261 C120.740617,355.034497 115.863486,359.143669 109.010935,361.82341 C102.158384,364.503152 95.9266785,364.741976 95.0933498,362.353739 C94.2567011,359.965503 99.137152,355.856331 105.989703,353.17659 C112.842255,350.496848 119.07396,350.258024 119.907289,352.646261" id="Fill-4" fill="#000000"></path>
                        <path d="M52.9072886,353.644982 C53.7406173,356.03663 48.8634865,360.145628 42.010935,362.821745 C35.1583835,365.504886 28.9266785,365.740188 28.0933498,363.355564 C27.2567011,360.967428 32.137152,356.858429 38.9897035,354.175288 C45.842255,351.499171 52.07396,351.256846 52.9072886,353.644982" id="Fill-6" fill="#000000"></path>
                        <path d="M22,184.797893 C22,184.797893 31.8128079,285.21825 30.1773399,300.455708 C28.5418719,315.686367 28.6432709,361.466735 28.6432709,361.466735 C28.6432709,361.466735 31.7768276,363 32.9020296,363 C35.3552315,363 39.1724138,360.7324 39.1724138,360.7324 L57.5877833,232.886658 C57.5877833,232.886658 79.2413793,266.258119 87.4187192,281.621367 C92.639133,291.429503 92.3676453,315.339597 93.5517241,335.659608 C94.2255369,347.181193 95.1675665,361.391942 95.1675665,361.391942 C95.1675665,361.391942 98.5922365,361.74891 99.5473498,361.582325 C102.000552,361.157362 103.155192,359.882475 103.155192,359.882475 L105,266.81567 C105,266.81567 103.609852,216.330116 101.722522,200.694893 C100.126305,187.44966 100.891704,177.532733 101.941675,180.541468 L91.258798,180.541468 C91.258798,180.541468 71.4729064,204.771134 22,184.797893" id="Fill-8" fill="#242E4E"></path>
                        <path d="M0,116 C0,116 6.73826309,140.260101 8.38818059,156.076701 C9.23623819,164.212419 22,186 22,186 L20.8978551,116 L0,116 Z" id="Fill-10" fill="#E8B98F"></path>
                        <path d="M102.552623,121.183243 C102.552623,121.183243 99.9301389,153.664623 101.473166,159.501708 C106.439991,178.286943 102.552623,201 102.552623,201 C102.552623,201 88.5395531,171.777005 82.8177704,163.682276 C76.7019529,155.037653 74,118 74,118 L102.552623,121.183243 Z" id="Fill-12" fill="#F1C49C"></path>
                        <path d="M35.8496711,75.3613741 C35.8496711,75.3613741 38.4562306,73.5760932 38.2839767,62.7179054 C38.1117228,51.8665317 25.9141943,9.56150595 49.6592364,9.04363819 C49.6592364,9.04363819 58.2394322,8.29068573 63.2315462,13.0400782 C68.2236602,17.7894706 80.8111975,33.1790012 81.0712034,34.3680528 C81.3312094,35.5502904 80.3821877,36.9573916 78.6531482,37.9079515 C76.9273588,38.8619184 82.2477303,43.7816621 81.9909744,46.6128996 C81.7342186,49.4509512 79.8329252,55.3212548 73.9307904,57.1712692 C68.0286557,59.0212836 63.3452988,73.1127378 63.0105412,81" id="Fill-14" fill="#F7D6B8"></path>
                        <path d="M35.8524041,75 C35.8524041,75 38.4673477,73.2244409 38.2945397,62.4253819 C38.1217317,51.6330999 25.8849696,9.55844824 49.7063883,9.04340056 C49.7063883,9.04340056 58.3141826,8.29454834 63.3223538,13.0180777 C68.3305251,17.7416071 43.6744112,2.50365039 51.5648893,28.4424004 C53.4429535,34.6094187 44.8188566,34.8838849 48.7608351,37.2795343 C53.2473218,40.0038654 57.9424824,49.5153052 57.7207665,51.0909445 C56.0155102,63.2826653 46.9153762,64.5770614 48.2945796,72.0893029" id="Fill-16" fill="#F4C5A5"></path>
                        <path d="M51.9978395,31.8327656 C51.9034571,30.5199965 52.2940047,29.237757 52.3525869,28.1454789 C52.5283333,24.7193892 45.7132776,21.7105362 44.6880901,16.7376179 C43.6629027,11.7613074 50.1622657,8.92884706 50.1622657,8.92884706 C50.1622657,8.92884706 47.1680674,2.32429592 46.015952,1.11329194 C44.8638366,-0.0943198789 40.7142682,-1.40030457 38.9600586,3.5251234 C37.2058489,8.4471592 33.43381,11.3983454 30.2280651,13.6134311 C27.0223201,15.8285168 25.0956186,20.3502768 25.0956186,20.3502768 C18.3131085,32.4942383 23.7579931,43.0879791 31.0351968,50.4829053 C38.3091459,57.8778316 37.0138297,63.437595 37.9478894,62.972868 C50.8001601,56.5650626 43.7117211,46.0391652 42.728843,43.79355 C41.9119476,41.9176811 42.0193482,39.4787123 45.0493467,38.6272781 C49.2151878,37.4501958 52.7496436,47.043247 54.4517803,43.410235 C56.5379554,38.9563184 51.9978395,31.8327656 51.9978395,31.8327656" id="Fill-18" fill="#242E4E"></path>
                        <path d="M37.5888057,71 C37.5888057,71 7.11992182,91.29277 2.19074518,104.881314 C-2.73843147,118.466461 2.19074518,123.563439 2.19074518,123.563439 L20.8131745,132.058403 L21.9074518,184.72718 C21.9074518,184.72718 54.5517456,208.023769 95.6282177,187.635856 C95.6282177,187.635856 91.3004006,176.089501 88.0931496,171.539598 C82.4147381,163.48977 81.6655033,162.344649 81.0575715,156.269051 C79.7069771,142.772252 75.8983666,128.663816 76.5358735,121.035338 L102,121.205237 C102,121.205237 97.4027212,96.1247055 90.0943953,89.5835832 C84.69859,84.7550457 64.2195041,75.247482 64.2195041,75.247482 C64.2195041,75.247482 56.9966172,76.2464898 47.3748644,75.247482 C43.7535626,74.8737036 41.6307306,73.8814918 37.5888057,71" id="Fill-20" fill="#FFFFFF"></path>
                    </g>
                </g>
                <g id="Group-5" mask="url(#mask-3)">
                    <g transform="translate(1348.000000, 634.000000)">
                        <path d="M248,135.718563 L248,96.5269461 L281.5,78 L315,89.8383234 L315,191.299401 C315,191.299401 309.184028,192.249501 297.552083,194.149701 C285.920139,196.0499 280.569444,197 281.5,197" id="Path-12-Copy-3" fill="url(#linearGradient-6)"></path>
                        <polygon id="Path-10-Copy-3" fill="url(#linearGradient-7)" points="205 196.821429 261 201 261 123 205 147.375"></polygon>
                        <polygon id="Path-11-Copy-3" fill="url(#linearGradient-8)" points="261 123 283 129.327551 283 196.821429 261 201"></polygon>
                        <path d="M162,127.08982 L162,74.0658683 L208,49 L254,64.6047904 L254,202.287425 C254,202.287425 246.013889,203.572854 230.041667,206.143713 C214.069444,208.714571 206.722222,210 208,210" id="Path-12-Copy-4" fill="url(#linearGradient-9)"></path>
                        <polygon id="Path-10-Copy-4" fill="url(#linearGradient-10)" points="104 210.321429 181 216 181 110 104 143.125"></polygon>
                        <polygon id="Path-11-Copy-4" fill="url(#linearGradient-11)" points="180 110 211 118.59898 211 210.321429 180 216"></polygon>
                        <path d="M46,110.586826 L46,35.497006 L111,0 L176,25.0179641 L176,217.077844 C176,217.077844 164.715278,218.898204 142.145833,222.538922 C119.576389,226.179641 109.194444,228 111,228" id="Path-12-Copy-5" fill="url(#linearGradient-12)"></path>
                        <polygon id="Path-10-Copy-5" fill="url(#linearGradient-13)" points="0 229.991071 67 236 67 83 0 114"></polygon>
                        <polygon id="Path-11-Copy-5" fill="url(#linearGradient-14)" points="66 83 111 95.4117347 111 227.803571 66 236"></polygon>
                        <polygon id="Path-30" fill="#F3F9EF" points="163 52.6844065 163 32 169 34.3008891 169 54"></polygon>
                        <g id="Group-4" stroke-width="1" fill="none" transform="translate(217.000000, 62.000000)">
                            <polygon id="Path-30-Copy-39" fill="#F3F9EF" points="28 24.983405 28 9 33 10.7779598 33 26"></polygon>
                            <polygon id="Path-30-Copy-40" fill="#F3F9EF" points="28 51.9704051 28 35 33 36.0180871 33 53"></polygon>
                            <polygon id="Path-30-Copy-41" fill="#F3F9EF" points="28 77.7561323 28 61 33 62.0052325 33 78"></polygon>
                            <polygon id="Path-30-Copy-42" fill="#F3F9EF" points="28 103 28 88 33 88.2292849 33 102.478465"></polygon>
                            <polygon id="Path-30-Copy-43" fill="#F3F9EF" points="14 21.9917871 14 5 19 6.8143638 19 23"></polygon>
                            <polygon id="Path-30-Copy-44" fill="#F3F9EF" points="14 48.9245729 14 31 19 32.1353214 19 50"></polygon>
                            <polygon id="Path-30-Copy-45" fill="#F3F9EF" points="14 76.7417871 14 59 19 60.0643638 19 77"></polygon>
                            <polygon id="Path-30-Copy-46" fill="#F3F9EF" points="14 104 14 87 19 87.3145157 19 103.507975"></polygon>
                            <polygon id="Path-30-Copy-47" fill="#F3F9EF" points="0 18.943866 0 0 5 1.95185722 5 20"></polygon>
                            <polygon id="Path-30-Copy-48" fill="#FFFFFF" points="0 45.943866 0 27 5 28.1826264 5 47"></polygon>
                            <polygon id="Path-30-Copy-49" fill="#F3F9EF" points="0 76.7130968 0 57 5 58.1826264 5 77"></polygon>
                            <polygon id="Path-30-Copy-50" fill="#F3F9EF" points="0 106 0 86 5 86.4194122 5 105.510653"></polygon>
                        </g>
                        <g id="Group-4-Copy" stroke-width="1" fill="none" transform="translate(270.000000, 53.000000)">
                            <polygon id="Path-30-Copy-39" fill="#F3F9EF" points="37 54.2226038 37 42 41 43.3596163 41 55"></polygon>
                            <polygon id="Path-30-Copy-40" fill="#F3F9EF" points="37 74.2564037 37 62 41 62.7352851 41 75"></polygon>
                            <polygon id="Path-30-Copy-41" fill="#F3F9EF" points="37 93.8135129 37 81 41 81.7687072 41 94"></polygon>
                            <polygon id="Path-30-Copy-42" fill="#F3F9EF" points="37 112 37 101 41 101.168142 41 111.617541"></polygon>
                            <polygon id="Path-30-Copy-43" fill="#F3F9EF" points="28 52.2718463 28 39 32 40.3103739 32 53"></polygon>
                            <polygon id="Path-30-Copy-44" fill="#F3F9EF" points="28 72.2075801 28 59 32 59.8365526 32 73"></polygon>
                            <polygon id="Path-30-Copy-45" fill="#F3F9EF" points="28 92.8135129 28 80 32 80.7687072 32 93"></polygon>
                            <polygon id="Path-30-Copy-46" fill="#F3F9EF" points="28 113 28 100 32 100.240512 32 112.623746"></polygon>
                            <polygon id="Path-30-Copy-47" fill="#F3F9EF" points="19 50.2078995 19 36 23 37.4638929 23 51"></polygon>
                            <polygon id="Path-30-Copy-48" fill="#FFFFFF" points="19 70.2078995 19 56 23 56.8869698 23 71"></polygon>
                            <polygon id="Path-30-Copy-49" fill="#F3F9EF" points="19 92.7848226 19 78 23 78.8869698 23 93"></polygon>
                            <polygon id="Path-30-Copy-50" fill="#F3F9EF" points="19 114 19 99 23 99.3145592 23 113.632989"></polygon>
                        </g>
                        <polygon id="Path-30-Copy-4" fill="#F3F9EF" points="163 87.6844065 163 66 169 67.3008891 169 89"></polygon>
                        <polygon id="Path-30-Copy-7" fill="#F3F9EF" points="163 121.684406 163 100 169 101.300889 169 122"></polygon>
                        <polygon id="Path-30-Copy-10" fill="#F3F9EF" points="163 154.684406 163 135 169 135.300889 169 154"></polygon>
                        <polygon id="Path-30-Copy-2" fill="#F3F9EF" points="145 48.6557162 145 26 151 28.4191517 151 50"></polygon>
                        <polygon id="Path-30-Copy-5" fill="#F3F9EF" points="145 84.6557162 145 61 151 62.4191517 151 86"></polygon>
                        <polygon id="Path-30-Copy-8" fill="#F3F9EF" points="145 120.655716 145 97 151 98.4191517 151 121"></polygon>
                        <polygon id="Path-30-Copy-36" fill="#F3F9EF" points="82 233 82 193 98 193 98 230.235616"></polygon>
                        <polygon id="Path-30-Copy-37" fill="#F3F9EF" points="190 214 190 184.361794 202 183 202 211.857602"></polygon>
                        <polygon id="Path-30-Copy-38" fill="#F3F9EF" points="269 199 269 176.054292 279 175 279 197.341369"></polygon>
                        <polygon id="Path-30-Copy-11" fill="#F3F9EF" points="145 156.655716 145 134 151 134.419152 151 156"></polygon>
                        <polygon id="Path-30-Copy-3" fill="#F3F9EF" points="126 44.6270258 126 20 132 22.5374144 132 46"></polygon>
                        <polygon id="Path-30-Copy-6" fill="#FFFFFF" points="126 80.6270258 126 56 132 57.5374144 132 82"></polygon>
                        <polygon id="Path-30-Copy-9" fill="#F3F9EF" points="126 119.627026 126 94 132 95.5374144 132 120"></polygon>
                        <polygon id="Path-30-Copy-12" fill="#F3F9EF" points="126 158.627026 126 133 132 133.537414 132 158"></polygon>
                    </g>
                </g>
            </g>
        </g>
    </g>
</svg>