<?xml version="1.0" encoding="UTF-8"?>
<svg id="SVGDoc" width="969" height="551" xmlns="http://www.w3.org/2000/svg" version="1.1" xmlns:xlink="http://www.w3.org/1999/xlink" xmlns:avocode="https://avocode.com/" viewBox="0 0 969 551"><defs><linearGradient id="LinearGradient1682" gradientUnits="userSpaceOnUse" x1="505.525" y1="587.3199999999999" x2="505.52499999999986" y2="-75.67999999999998"><stop stop-opacity="0.4" stop-color="#f3f9ef" offset="0"></stop><stop stop-opacity="0.5" stop-color="#32788e" offset="1"></stop></linearGradient><linearGradient id="LinearGradient1690" gradientUnits="userSpaceOnUse" x1="407.00000000000017" y1="606" x2="709.6760979729727" y2="348.96507467119466"><stop stop-opacity="1" stop-color="#f3f9ef" offset="0"></stop><stop stop-opacity="1" stop-color="#b1d9db" offset="0.5"></stop><stop stop-opacity="1" stop-color="#507a9a" offset="1"></stop></linearGradient><linearGradient id="LinearGradient1699" gradientUnits="userSpaceOnUse" x1="545.5" y1="554" x2="545.5" y2="414"><stop stop-opacity="1" stop-color="#223554" offset="0"></stop><stop stop-opacity="1" stop-color="#507a9a" offset="0.48"></stop><stop stop-opacity="1" stop-color="#b1d9db" offset="1"></stop></linearGradient><linearGradient id="LinearGradient1757" gradientUnits="userSpaceOnUse" x1="665.4300000000001" y1="416.92999999999995" x2="665.4300000000001" y2="383.14"><stop stop-opacity="1" stop-color="#507a9a" offset="0"></stop><stop stop-opacity="1" stop-color="#223554" offset="1"></stop></linearGradient><linearGradient id="LinearGradient1765" gradientUnits="userSpaceOnUse" x1="651.5699999999999" y1="395.91999999999996" x2="651.5699999999999" y2="418.06"><stop stop-opacity="1" stop-color="#347a8f" offset="0"></stop><stop stop-opacity="1" stop-color="#b1d9db" offset="1"></stop></linearGradient><linearGradient id="LinearGradient1773" gradientUnits="userSpaceOnUse" x1="662.7149999999999" y1="395.91999999999996" x2="662.7149999999999" y2="418.06"><stop stop-opacity="1" stop-color="#347a8f" offset="0"></stop><stop stop-opacity="1" stop-color="#b1d9db" offset="1"></stop></linearGradient><linearGradient id="LinearGradient1781" gradientUnits="userSpaceOnUse" x1="644.4300000000001" y1="420.62" x2="644.4300000000001" y2="374.90999999999997"><stop stop-opacity="1" stop-color="#507a9a" offset="0"></stop><stop stop-opacity="1" stop-color="#223554" offset="1"></stop></linearGradient><linearGradient id="LinearGradient1789" gradientUnits="userSpaceOnUse" x1="625.71" y1="392.23" x2="625.71" y2="422.32"><stop stop-opacity="1" stop-color="#32788e" offset="0"></stop><stop stop-opacity="1" stop-color="#b1d9db" offset="1"></stop></linearGradient><linearGradient id="LinearGradient1797" gradientUnits="userSpaceOnUse" x1="640.86" y1="392.23" x2="640.86" y2="422.32"><stop stop-opacity="1" stop-color="#32788e" offset="0"></stop><stop stop-opacity="1" stop-color="#b1d9db" offset="1"></stop></linearGradient><linearGradient id="LinearGradient1805" gradientUnits="userSpaceOnUse" x1="616.7149999999999" y1="425.73" x2="616.7149999999999" y2="361"><stop stop-opacity="1" stop-color="#507a9a" offset="0"></stop><stop stop-opacity="1" stop-color="#223554" offset="1"></stop></linearGradient><linearGradient id="LinearGradient1813" gradientUnits="userSpaceOnUse" x1="594.5699999999999" y1="384.56" x2="594.5699999999999" y2="428"><stop stop-opacity="1" stop-color="#32788e" offset="0"></stop><stop stop-opacity="1" stop-color="#b1d9db" offset="1"></stop></linearGradient><linearGradient id="LinearGradient1821" gradientUnits="userSpaceOnUse" x1="610.2850000000001" y1="384.56" x2="610.2850000000001" y2="428"><stop stop-opacity="1" stop-color="#32788e" offset="0"></stop><stop stop-opacity="1" stop-color="#b1d9db" offset="1"></stop></linearGradient><clipPath id="clip-35BB3C3F-F132-44D8-9CF4-27F5AF92C14B"><path d="M330.60455,585.14022c-143.78565,13.94314 -307.61183,-38.44218 -307.58455,-173.39236c0.05231,-258.77606 873.66859,-487.42385 893.54601,-487.42786c0,0 71.47152,401.32479 71.47073,405.22444c-0.00079,3.89965 -513.64653,241.65264 -657.43219,255.59578z" ></path></clipPath></defs><desc>Generated with Avocode.</desc><g><g><title>Oval 2 Copy 3</title><g transform="rotate(10 825.5 421.5)"><title>Mask</title><path d="M330.60455,585.14022c-143.78565,13.94314 -307.61183,-38.44218 -307.58455,-173.39236c0.05231,-258.77606 873.66859,-487.42385 893.54601,-487.42786c0,0 71.47152,401.32479 71.47073,405.22444c-0.00079,3.89965 -513.64653,241.65264 -657.43219,255.59578z" fill="url(#LinearGradient1682)"></path></g><g clip-path="url(#clip-35BB3C3F-F132-44D8-9CF4-27F5AF92C14B)"><title>Oval 2 Copy</title><path d="M559,606c-83.94728,0 -152,-52.38268 -152,-117c0,-64.61732 68.05272,-117 152,-117c83.94728,0 152,52.38268 152,117c0,64.61732 -68.05272,117 -152,117z" fill="url(#LinearGradient1690)"></path></g><g clip-path="url(#clip-35BB3C3F-F132-44D8-9CF4-27F5AF92C14B)"><title>Path 25 Copy</title><path d="M594.02924,526.17598c0,9.56676 -149.3907,46.77639 -170.57824,15.62511c-7.34357,-10.79699 -9.57633,-16.93722 -13.451,-31.60752c40.8838,-26.19773 91.31178,-64.96856 120.07528,-72.82788c13.46629,-3.67951 38.19265,-2.34375 55.19314,-5.50152c17.00049,-3.15776 40.05435,-7.30839 50.48103,-9.67023c10.42668,-2.36184 14.49444,-2.75117 24.22153,-4.57994c5.56452,-1.04618 12.7914,-1.61998 15.45481,-3.614c2.27255,2.06118 3.56581,3.18671 5.57421,5.40622c-7.93536,3.0504 -11.17377,5.18763 -19.52498,12.45795c-6.87642,5.98641 -14.13023,13.67322 -20.15946,17.36861c-19.46575,11.9308 -32.50209,14.42942 -41.14507,24.13594c-8.64298,9.70651 -6.14125,33.15897 -6.14125,52.80726z" fill="url(#LinearGradient1699)"></path></g><g clip-path="url(#clip-35BB3C3F-F132-44D8-9CF4-27F5AF92C14B)"><title>Group 22 Copy</title><g><title>Fill 4</title><path d="M546.97707,481.47907c0.2361,0.68049 -1.14575,1.85131 -3.08731,2.61484c-1.94155,0.76353 -3.7072,0.83158 -3.94331,0.15111c-0.23705,-0.68049 1.14574,-1.85131 3.0873,-2.61484c1.94156,-0.76353 3.70721,-0.83158 3.94332,-0.15111" fill="#000000" fill-opacity="1"></path></g><g><title>Fill 6</title><path d="M527.98706,481.76871c0.2361,0.68145 -1.14575,1.85224 -3.0873,2.61475c-1.94155,0.76451 -3.70719,0.83155 -3.9433,0.1521c-0.23705,-0.68046 1.14574,-1.85124 3.08729,-2.61575c1.94156,-0.76251 3.7072,-0.83156 3.94331,-0.1511" fill="#000000" fill-opacity="1"></path></g><g><title>Fill 8</title><path d="M519.23,433.65707v0c0,0 2.7803,28.61292 2.31691,32.95456c-0.46338,4.33969 -0.43465,17.38396 -0.43465,17.38396v0c0,0 0.88784,0.43688 1.20665,0.43688c0.69507,0 1.77661,-0.64612 1.77661,-0.64612v0l5.21769,-36.42727v0c0,0 6.13518,9.50858 8.45209,13.88605c1.47912,2.79465 1.4022,9.60739 1.73769,15.3972c0.19091,3.28286 0.45782,7.33195 0.45782,7.33195v0c0,0 0.97032,0.10171 1.24094,0.05425c0.69507,-0.12109 1.02222,-0.48435 1.02222,-0.48435v0l0.5227,-26.51766v0c0,0 -0.39388,-14.38493 -0.92862,-18.83989c-0.45226,-3.77399 -0.2354,-6.59963 0.06209,-5.74235h-3.02681v0c0,0 -5.60601,6.9038 -19.62333,1.21279" fill="#242e4e" fill-opacity="1"></path></g><g><title>Fill 10</title><path d="M513,414.05v0c0,0 1.90917,6.91247 2.37665,11.41911c0.24028,2.31813 3.85668,8.5261 3.85668,8.5261v0l-0.31227,-19.94521v0z" fill="#e8b98f" fill-opacity="1"></path></g><g><title>Fill 12</title><path d="M542.05991,415.52701v0c0,0 -0.74304,9.25496 -0.30585,10.91813c1.40727,5.35251 0.30585,11.82418 0.30585,11.82418v0c0,0 -3.97037,-8.32656 -5.59154,-10.633c-1.73282,-2.46313 -2.49837,-13.01632 -2.49837,-13.01632v0z" fill="#f1c49c" fill-opacity="1"></path></g><g><title>Fill 14</title><path d="M523.16074,402.46845v0c0,0 0.73853,-0.50869 0.68972,-3.60253c-0.04881,-3.09189 -3.50477,-15.14593 3.22299,-15.29349c0,0 2.43106,-0.21454 3.84549,1.13872c1.41443,1.35325 4.9809,5.73821 5.05457,6.07701c0.07367,0.33685 -0.19522,0.73778 -0.68512,1.00863c-0.48897,0.27181 1.01847,1.6736 0.94572,2.48031c-0.07275,0.80865 -0.61145,2.48128 -2.28372,3.00841c-1.67227,0.52713 -2.99922,4.54223 -3.09407,6.78956" fill="#f7d6b8" fill-opacity="1"></path></g><g><title>Fill 16</title><path d="M523.16151,402.36548v0c0,0 0.74091,-0.50591 0.69194,-3.58291c-0.04896,-3.07506 -3.51603,-15.06345 3.23336,-15.2102c0,0 2.43888,-0.21338 3.85785,1.13251c1.41898,1.34588 -5.56691,-2.99589 -3.33128,4.39487c0.53211,1.75718 -1.91138,1.83538 -0.79449,2.51798c1.27117,0.77625 2.60147,3.48636 2.53865,3.93531c-0.48316,3.4738 -3.06153,3.84262 -2.67075,5.98309" fill="#f4c5a5" fill-opacity="1"></path></g><g><title>Fill 18</title><path d="M527.72939,390.07016c-0.02674,-0.37405 0.08391,-0.7394 0.10051,-1.05063c0.04979,-0.9762 -1.88114,-1.83351 -2.17161,-3.25046c-0.29047,-1.4179 1.55102,-2.22496 1.55102,-2.22496v0c0,0 -0.84836,-1.88184 -1.17479,-2.2269c-0.32643,-0.34408 -1.50214,-0.7162 -1.99917,0.68721c-0.49703,1.40244 -1.56577,2.24333 -2.47406,2.87448c-0.9083,0.63114 -1.4542,1.91954 -1.4542,1.91954c-1.92171,3.46019 -0.37899,6.47868 1.68288,8.58573c2.06095,2.10705 1.69395,3.6912 1.9586,3.55878c3.64148,-1.82578 1.63308,-4.82494 1.3546,-5.46479c-0.23145,-0.53449 -0.20102,-1.22943 0.65748,-1.47203c1.18032,-0.33539 2.18175,2.39797 2.66402,1.36281c0.59108,-1.26906 -0.69528,-3.29878 -0.69528,-3.29878v0" fill="#242e4e" fill-opacity="1"></path></g><g><title>Fill 20</title><path d="M523.65016,401.23v0c0,0 -8.63285,5.78205 -10.02945,9.65385c-1.3966,3.87084 0,5.32313 0,5.32313v0l5.27636,2.42048v0l0.31004,15.007v0c0,0 9.24922,6.63793 20.88755,0.82877c0,0 -1.22621,-3.28992 -2.13493,-4.58633c-1.60889,-2.29365 -1.82117,-2.61993 -1.99342,-4.35106c-0.38267,-3.84566 -1.46177,-7.8656 -1.28115,-10.0392l7.21484,0.04841v0c0,0 -1.30256,-7.14623 -3.37325,-9.01c-1.52882,-1.3758 -7.33122,-4.08481 -7.33122,-4.08481v0c0,0 -2.04649,0.28465 -4.77265,0c-1.02604,-0.1065 -1.62751,-0.38921 -2.77272,-1.21024" fill="#ffffff" fill-opacity="1"></path></g></g><g clip-path="url(#clip-35BB3C3F-F132-44D8-9CF4-27F5AF92C14B)"><title>Group 5</title><g><title>Path 12 Copy 3</title><path d="M655.86,399.5262v0v-11.12643v0l9.57143,-5.25977v0l9.57143,3.36088v0v28.80463v0c0,0 0,0 -4.98512,0.80919c-4.98512,0.8092 -4.58631,0.8092 -4.58631,0.8092v0" fill="url(#LinearGradient1757)"></path></g><g><title>Path 10 Copy 3</title><path d="M643.57,416.87778v0l16,1.18629v0v-22.14407v0l-16,6.92002v0z" fill="url(#LinearGradient1765)"></path></g><g><title>Path 11 Copy 3</title><path d="M659.57,395.92v0l6.28571,1.79638v0v19.1614v0l-6.28571,1.18629v0z" fill="url(#LinearGradient1773)"></path></g><g><title>Path 12 Copy 4</title><path d="M631.29,397.07957v0v-15.05341v0l13.14286,-7.11616v0l13.14285,4.43017v0v39.08787v0c0,0 0,0 -6.84523,1.09479c-6.84524,1.0948 -6.29762,1.0948 -6.29762,1.0948v0" fill="url(#LinearGradient1781)"></path></g><g><title>Path 10 Copy 4</title><path d="M614.71,420.71108v0l22,1.61214v0v-30.09322v0l-22,9.40413v0z" fill="url(#LinearGradient1789)"></path></g><g><title>Path 11 Copy 4</title><path d="M636.43,392.23v0l8.85714,2.44124v0v26.03984v0l-8.85714,1.61214v0z" fill="url(#LinearGradient1797)"></path></g><g><title>Path 12 Copy 5</title><path d="M598.14,392.39541v0v-21.31787v0l18.57143,-10.07754v0l18.57143,7.10256v0v54.52547v0c0,0 0,0 -9.67262,1.55039c-9.67262,1.55039 -8.89881,1.55039 -8.89881,1.55039v0" fill="url(#LinearGradient1805)"></path></g><g><title>Path 10 Copy 5</title><path d="M585,426.29052v0l19.14286,1.70592v0v-43.43644v0l-19.14286,8.80085v0z" fill="url(#LinearGradient1813)"></path></g><g><title>Path 11 Copy 5</title><path d="M603.86,384.56v0l12.85713,3.52367v0v37.58582v0l-12.85713,2.32695v0z" fill="url(#LinearGradient1821)"></path></g><g><title>Path 30</title><path d="M631.57,375.95227v0v-5.87227v0l1.71423,0.65322v0v5.59254v0z" fill="#f3f9ef" fill-opacity="1"></path></g><g><title>Group 4</title><g><title>Path 30 Copy 39</title><path d="M655,385.69764v0v-4.53764v0l1.42857,0.50476v0v4.32149v0z" fill="#f3f9ef" fill-opacity="1"></path></g><g><title>Path 30 Copy 40</title><path d="M655,393.35787v0v-4.81787v0l1.42857,0.28903v0v4.82114v0z" fill="#f3f9ef" fill-opacity="1"></path></g><g><title>Path 30 Copy 41</title><path d="M655,400.67704v0v-4.75704v0l1.42857,0.28538v0v4.54089v0z" fill="#f3f9ef" fill-opacity="1"></path></g><g><title>Path 30 Copy 42</title><path d="M655,407.83847v0v-4.25847v0l1.42857,0.06509v0v4.04532v0z" fill="#f3f9ef" fill-opacity="1"></path></g><g><title>Path 30 Copy 43</title><path d="M651,384.84394v0v-4.82394v0l1.42857,0.51509v0v4.59508v0z" fill="#f3f9ef" fill-opacity="1"></path></g><g><title>Path 30 Copy 44</title><path d="M651,392.48874v0v-5.08874v0l1.42857,0.32232v0v5.07173v0z" fill="#f3f9ef" fill-opacity="1"></path></g><g><title>Path 30 Copy 45</title><path d="M651,400.38686v0v-5.03686v0l1.42857,0.30217v0v4.808v0z" fill="#f3f9ef" fill-opacity="1"></path></g><g><title>Path 30 Copy 46</title><path d="M651,408.12627v0v-4.82627v0l1.42857,0.08929v0v4.5973v0z" fill="#f3f9ef" fill-opacity="1"></path></g><g><title>Path 30 Copy 47</title><path d="M647,383.97813v0v-5.37813v0l1.42857,0.55413v0v5.12384v0z" fill="#f3f9ef" fill-opacity="1"></path></g><g><title>Path 30 Copy 48</title><path d="M647,391.64811v0v-5.37811v0l1.42857,0.33575v0v5.3422v0z" fill="#ffffff" fill-opacity="1"></path></g><g><title>Path 30 Copy 49</title><path d="M647,400.37651v0v-5.59651v0l1.42857,0.33575v0v5.34222v0z" fill="#f3f9ef" fill-opacity="1"></path></g><g><title>Path 30 Copy 50</title><path d="M647,408.69795v0v-5.67795v0l1.42857,0.11907v0v5.41995v0z" fill="#f3f9ef" fill-opacity="1"></path></g></g><g><title>Group 4 Copy</title><g><title>Path 30 Copy 39</title><path d="M672.71,391.43998v0v-3.46998v0l1.14277,0.38599v0v3.30469v0z" fill="#f3f9ef" fill-opacity="1"></path></g><g><title>Path 30 Copy 40</title><path d="M672.71,397.12957v0v-3.47957v0l1.14277,0.20875v0v3.48193v0z" fill="#f3f9ef" fill-opacity="1"></path></g><g><title>Path 30 Copy 41</title><path d="M672.71,402.67773v0v-3.63773v0l1.14277,0.21823v0v3.47245v0z" fill="#f3f9ef" fill-opacity="1"></path></g><g><title>Path 30 Copy 42</title><path d="M672.71,407.84288v0v-3.12288v0l1.14277,0.04774v0v2.96656v0z" fill="#f3f9ef" fill-opacity="1"></path></g><g><title>Path 30 Copy 43</title><path d="M670.14,390.88785v0v-3.76785v0l1.14277,0.37201v0v3.60257v0z" fill="#f3f9ef" fill-opacity="1"></path></g><g><title>Path 30 Copy 44</title><path d="M670.14,396.54961v0v-3.74961v0l1.14277,0.2375v0v3.73708v0z" fill="#f3f9ef" fill-opacity="1"></path></g><g><title>Path 30 Copy 45</title><path d="M670.14,402.39773v0v-3.63773v0l1.14277,0.21823v0v3.47245v0z" fill="#f3f9ef" fill-opacity="1"></path></g><g><title>Path 30 Copy 46</title><path d="M670.14,408.13068v0v-3.69068v0l1.14277,0.06828v0v3.51558v0z" fill="#f3f9ef" fill-opacity="1"></path></g><g><title>Path 30 Copy 47</title><path d="M667.57,390.3036v0v-4.0336v0l1.14286,0.4156v0v3.84287v0z" fill="#f3f9ef" fill-opacity="1"></path></g><g><title>Path 30 Copy 48</title><path d="M667.57,395.9736v0v-4.0336v0l1.14286,0.25181v0v4.00666v0z" fill="#ffffff" fill-opacity="1"></path></g><g><title>Path 30 Copy 49</title><path d="M667.57,402.38739v0v-4.19739v0l1.14286,0.25181v0v4.00666v0z" fill="#f3f9ef" fill-opacity="1"></path></g><g><title>Path 30 Copy 50</title><path d="M667.57,408.40847v0v-4.25847v0l1.14286,0.0893v0v4.06498v0z" fill="#f3f9ef" fill-opacity="1"></path></g></g><g><title>Path 30 Copy 4</title><path d="M631.57,385.89617v0v-6.15617v0l1.71423,0.36932v0v6.16034v0z" fill="#f3f9ef" fill-opacity="1"></path></g><g><title>Path 30 Copy 7</title><path d="M631.57,395.54617v0v-6.15617v0l1.71423,0.36932v0v5.87644v0z" fill="#f3f9ef" fill-opacity="1"></path></g><g><title>Path 30 Copy 10</title><path d="M631.57,404.91835v0v-5.58835v0l1.71423,0.08542v0v5.30863v0z" fill="#f3f9ef" fill-opacity="1"></path></g><g><title>Path 30 Copy 2</title><path d="M626.43,374.81192v0v-6.43192v0l1.71429,0.68679v0v6.12677v0z" fill="#f3f9ef" fill-opacity="1"></path></g><g><title>Path 30 Copy 5</title><path d="M626.43,385.03582v0v-6.71582v0l1.71429,0.40289v0v6.69457v0z" fill="#f3f9ef" fill-opacity="1"></path></g><g><title>Path 30 Copy 8</title><path d="M626.43,395.25582v0v-6.71582v0l1.71429,0.40289v0v6.41067v0z" fill="#f3f9ef" fill-opacity="1"></path></g><g><title>Path 30 Copy 36</title><path d="M608.43,427.14593v0v-11.35593v0h4.57143v0v10.57113v0z" fill="#f3f9ef" fill-opacity="1"></path></g><g><title>Path 30 Copy 37</title><path d="M639.29,421.75085v0v-8.41424v0l3.42854,-0.38661v0v8.19262v0z" fill="#f3f9ef" fill-opacity="1"></path></g><g><title>Path 30 Copy 38</title><path d="M661.86,417.49355v0v-6.51424v0l2.85711,-0.29931v0v6.34267v0z" fill="#f3f9ef" fill-opacity="1"></path></g><g><title>Path 30 Copy 11</title><path d="M626.43,405.47192v0v-6.43192v0l1.71429,0.119v0v6.12676v0z" fill="#f3f9ef" fill-opacity="1"></path></g><g><title>Path 30 Copy 3</title><path d="M621,373.67157v0v-6.99157v0l1.71429,0.72037v0v6.66099v0z" fill="#f3f9ef" fill-opacity="1"></path></g><g><title>Path 30 Copy 6</title><path d="M621,383.89157v0v-6.99157v0l1.71429,0.43647v0v6.94489v0z" fill="#ffffff" fill-opacity="1"></path></g><g><title>Path 30 Copy 9</title><path d="M621,394.96547v0v-7.27547v0l1.71429,0.43647v0v6.94489v0z" fill="#f3f9ef" fill-opacity="1"></path></g><g><title>Path 30 Copy 12</title><path d="M621,406.03546v0v-7.27546v0l1.71429,0.15257v0v6.94488v0z" fill="#f3f9ef" fill-opacity="1"></path></g></g></g></g></svg>