<?xml version="1.0" encoding="UTF-8"?>
<svg width="1515px" height="920px" viewBox="0 0 1515 920" version="1.1" xmlns="http://www.w3.org/2000/svg" xmlns:xlink="http://www.w3.org/1999/xlink">
    <!-- Generator: Sketch 53.2 (72643) - https://sketchapp.com -->
    <title>Group 2</title>
    <desc>Created with Sketch.</desc>
    <defs>
        <linearGradient x1="50%" y1="100%" x2="50%" y2="1.01087416%" id="linearGradient-1">
            <stop stop-color="#F3F9EF" stop-opacity="0" offset="0%"></stop>
            <stop stop-color="#507A9A" offset="100%"></stop>
        </linearGradient>
        <linearGradient x1="50%" y1="100%" x2="50%" y2="0%" id="linearGradient-2">
            <stop stop-color="#808080" stop-opacity="0.25" offset="0%"></stop>
            <stop stop-color="#808080" stop-opacity="0.12" offset="54%"></stop>
            <stop stop-color="#808080" stop-opacity="0.1" offset="100%"></stop>
        </linearGradient>
        <linearGradient x1="0%" y1="50.0037512%" x2="100%" y2="50.0037512%" id="linearGradient-3">
            <stop stop-color="#808080" stop-opacity="0.25" offset="0%"></stop>
            <stop stop-color="#808080" stop-opacity="0.12" offset="54%"></stop>
            <stop stop-color="#808080" stop-opacity="0.1" offset="100%"></stop>
        </linearGradient>
    </defs>
    <g id="LAST-VERSION-HERE" stroke="none" stroke-width="1" fill="none" fill-rule="evenodd">
        <g id="Privacy-Policy-Page" transform="translate(-405.000000, 0.000000)">
            <g id="Group-2" transform="translate(355.814038, -326.954409)">
                <path d="M1249.80442,1308.16214 C1503.69657,1332.76315 1793,1240.08415 1793,1001.48383 C1793,543.951659 250.447468,140 215.347854,140 C215.347854,140 89,849.592751 89,856.487571 C89,863.382391 995.912267,1283.56113 1249.80442,1308.16214 Z" id="Oval-3-Copy-2" fill="url(#linearGradient-1)" transform="translate(941.000000, 726.000000) scale(-1, 1) rotate(-10.000000) translate(-941.000000, -726.000000) "></path>
                <g id="undraw_Security_on_s9ym" transform="translate(411.185962, 509.954409)" fill-rule="nonzero">
                    <rect id="Rectangle" fill="#B0BEC5" x="0" y="356" width="49" height="6"></rect>
                    <rect id="Rectangle" fill="#B0BEC5" x="18" y="415" width="49" height="6"></rect>
                    <rect id="Rectangle" fill="#B0BEC5" x="58" y="445" width="24" height="6"></rect>
                    <rect id="Rectangle" fill="#B0BEC5" x="71" y="475" width="24" height="4"></rect>
                    <g id="Group" opacity="0.5" transform="translate(6.000000, 0.000000)" fill="url(#linearGradient-2)">
                        <path d="M188.932136,0.0339609484 L0.271454219,116.234742 C0.271454219,116.234742 0.271454219,355.897155 188.932136,486.619637 C377.592819,355.897155 377.592819,116.234742 377.592819,116.234742 L188.932136,0.0339609484 Z" id="Path"></path>
                    </g>
                    <path d="M195,9 L12,121.721182 C12,121.721182 12,354.206498 195,481 C378,354.186123 378,121.721182 378,121.721182 L195,9 Z" id="Path" fill="#FFFFFF"></path>
                    <path d="M196.125993,9 L193,10.9219845 L193,478.799565 C194.037477,479.533044 195.074954,480.273313 196.125993,481 C379,354.196564 379,121.717938 379,121.717938 L196.125993,9 Z" id="Path" fill="#B1D9DB" opacity="0.04"></path>
                    <g id="Group" opacity="0.7" transform="translate(136.000000, 206.000000)" fill="url(#linearGradient-3)">
                        <polygon id="Path" points="15.012963 30.7143704 49.5339506 62.4714074 92.3320988 0.511111111 109.592593 14.9517037 49.5339506 91.3457778 0.624691358 36.4865185"></polygon>
                    </g>
                    <polygon id="Path" fill="#3AD29F" points="158.753419 237.20276 186.950684 263.284729 226.901367 204 241 215.861086 186.950684 287 147 241.943054"></polygon>
                    <path d="M56.6207661,348 C56.6207661,348 25.3177334,351.639166 34.7830133,370.579064 C40.7896414,382.898147 45.605047,395.763684 49.1634777,409 L65.7209566,405.536704 C65.7209566,405.536704 59.1696308,374.5835 53.3484836,370.944334 L69,368.028942 L56.6207661,348 Z" id="Path" fill="#FDA57D"></path>
                    <path d="M53.278438,370.944334 L69,368.028942 L56.565365,348 C56.565365,348 56.1986418,348.040585 55.5602716,348.142049 L67.9066214,368.028942 L52.1850594,370.944334 C58.0390492,374.5835 64.6196944,405.536704 64.6196944,405.536704 L49,408.783544 L49.0611205,409 L65.6926995,405.536704 C65.6926995,405.536704 59.1256367,374.5835 53.278438,370.944334 Z" id="Path" fill="#000000" opacity="0.05"></path>
                    <path d="M59.2919902,402.350108 C59.2919902,402.350108 49.5248232,409.530692 34.7033179,408.956805 C34.7033179,408.956805 26.8212824,412.631081 37.9749774,415.556504 C49.1286723,418.481927 67.1262144,416.417334 68.5400631,414.15678 C69.9539117,411.896226 67.952667,404.260732 64.660517,401.132349 C61.368367,398.003966 59.2919902,402.350108 59.2919902,402.350108 Z" id="Path" fill="#B1D9DB"></path>
                    <path d="M85.0362034,393.777125 C85.0362034,393.777125 84.3060989,408.1085 89.4033096,418.392968 L93.0403114,468 L104.688181,468 C104.688181,468 104.688181,443.745853 110.150444,430.888563 C115.612707,418.031272 107.236787,403.699896 107.236787,403.699896 L106.506682,389 L85.0362034,393.777125 Z" id="Path" fill="#FDA57D"></path>
                    <circle id="Oval" fill="#FDA57D" cx="93" cy="239" r="15"></circle>
                    <rect id="Rectangle" fill="#FDA57D" x="82" y="248" width="19" height="17"></rect>
                    <path d="M100.318932,462.678404 C100.318932,462.678404 89.4125189,467.591948 75.230805,463.815539 C75.230805,463.815539 66.8703469,465.703743 77.047415,470.996332 C87.2244831,476.288921 105.04617,478.177126 106.86278,476.281902 C108.67939,474.386678 108.321471,466.454814 105.775516,462.678404 C103.22956,458.901995 100.318932,462.678404 100.318932,462.678404 Z" id="Path" fill="#B1D9DB"></path>
                    <path d="M53.8736594,294 L32.4000277,349.490882 C32.4000277,349.490882 16.0021047,353.871562 24.3871755,361.907331 C24.3871755,361.907331 22.9253714,354.237749 34.5859663,356.428089 C34.5859663,356.428089 37.8682579,361.907331 37.8682579,363.731484 C37.8682579,365.555638 41.6107472,357.628369 40.1015698,353.7495 C43.9943679,342.315845 50.1674989,331.795084 58.2455366,322.827048 C58.2455366,322.827048 67.3547418,306.762292 66.9892908,295.810591 L53.8736594,294 Z" id="Path" fill="#FDA57D"></path>
                    <path d="M127.449383,273.849707 C127.449383,273.849707 139.010898,279.358123 144.788301,277.524257 C148.881466,276.222143 153.336977,267.925433 155.591573,263.20783 C156.62939,261.018051 158.692599,259.515273 161.067021,259.219682 C165.36149,258.694746 171.380456,258.749285 169.716349,263.589601 C167.186639,270.931883 158.879526,273.133886 158.879526,273.133886 L146.955665,290 L126,290 L127.449383,273.849707 Z" id="Path" fill="#FDA57D"></path>
                    <circle id="Oval" fill="#3D213C" cx="89.5" cy="238.5" r="15.5"></circle>
                    <ellipse id="Oval" fill="#3D213C" cx="98.5" cy="224.5" rx="11.5" ry="6.5"></ellipse>
                    <polygon id="Path" fill="#000000" opacity="0.05" points="54.2916667 348 53 348.306523 59.2202381 370 60 369.832806"></polygon>
                    <polygon id="Path" fill="#000000" opacity="0.05" points="132 276 133.512367 276.449605 134 290 132 290"></polygon>
                    <polygon id="Path" fill="#000000" opacity="0.05" points="52.4694812 296 52 297.205648 64.6429298 305 65 303.637944"></polygon>
                    <path d="M67.1555461,341 L65,341.827572 C65,341.827572 101.100297,358.727116 113,343.922774 L112.60561,342.609168 C112.60561,342.609168 101.664683,356.769843 67.1555461,341 Z" id="Path" fill="#000000" opacity="0.05"></path>
                    <polygon id="Path" fill="#47E6B1" opacity="0.5" points="441.878492 84.2027674 446.375698 88.2847259 452.751397 79 455 80.8610963 446.375698 92 440 84.9430548"></polygon>
                    <path d="M50,343.052215 L60.2965873,372.01988 C65.2297966,370.434652 70.2224974,369.030077 75.2746895,367.806155 C77.8012356,367.121795 80.4211036,366.833749 83.0383163,366.952571 C80.9789989,367.325167 81.3016253,368.659739 80.7318808,370.678533 C80.1621363,372.697327 80.3337461,374.831288 80.4573051,376.924601 C80.8847607,383.960186 80.5996193,391.020311 79.6061206,398 C90.5043108,395.680777 101.612952,394.459625 112.761132,394.355331 C111.203314,388.442207 110.174285,382.405575 109.685884,376.314898 C109.50054,374.719088 109.50054,373.107604 109.685884,371.511794 C110.015375,369.35751 110.948932,367.338716 111.745202,365.299598 C113.547984,360.604187 114.617307,355.665674 114.916551,350.653178 C115.135522,348.722913 114.92228,346.768739 114.291891,344.928745 C113.317147,342.523806 111.141135,340.748893 108.738598,339.705623 C106.297218,338.756671 103.727533,338.167747 101.112259,337.957808 C91.2343998,336.751951 81.5556078,336.989058 71.6434264,337.0839 C67.8405535,337.0839 65.9803034,338.282983 62.5549721,339.908857 C61.4360763,340.430492 50.4942362,344.454532 50,343.052215 Z" id="Path" fill="#B1D9DB"></path>
                    <path d="M69.7469201,265.340255 C63.8054287,268.532414 59.088987,273.519741 54.4814387,278.426083 L43,290.634572 C48.5990123,293.232351 54.0516987,296.129577 59.333997,299.313466 C61.280465,300.487748 63.3086029,301.817252 64.2410019,303.88237 C65.1734009,305.947487 64.8331093,308.289304 64.4111477,310.482648 C62.7433514,319.184152 59.9741601,327.641998 56.1692851,335.655487 C65.411605,337.680113 74.8104591,339.704738 83.0523218,344.293888 C85.1349064,345.454673 87.2311027,346.804423 89.6131439,346.993388 C91.0441038,347.036808 92.4734935,346.866174 93.8531773,346.487232 L114.760693,341.830594 C115.423655,341.741043 116.05199,341.482983 116.584656,341.081483 C116.95831,340.693973 117.247851,340.234592 117.435385,339.731733 C121.117341,331.741212 124.887772,323.366013 124.493033,314.585888 C124.30247,310.448904 123.193119,306.251181 124.145936,302.222177 C125.098752,298.193173 129.297951,294.434119 133.190887,295.945839 L134.905956,276.529684 C135.103325,274.343089 135.14416,271.805558 133.422285,270.401818 C132.224459,269.443496 130.55703,269.396254 129.093776,268.917093 C126.779793,268.161233 125.010277,266.325573 122.968527,265.002818 C117.39455,261.378739 110.19398,261.810659 103.551488,262.377554 C97.9026474,262.856715 92.3014476,263.727304 86.6866361,262.917454 C80.6090281,262.080609 75.2936732,262.364056 69.7469201,265.340255 Z" id="Path" fill="#B1D9DB"></path>
                </g>
            </g>
        </g>
    </g>
</svg>