<svg width="392" height="480" viewBox="0 0 392 480" fill="none" xmlns="http://www.w3.org/2000/svg">
<path fill-rule="evenodd" clip-rule="evenodd" d="M47 279.5C62.464 279.5 75 272.784 75 264.5C75 256.216 62.464 249.5 47 249.5C31.536 249.5 19 256.216 19 264.5C19 272.784 31.536 279.5 47 279.5Z" fill="#F2F2F2"/>
<path fill-rule="evenodd" clip-rule="evenodd" d="M80 274.833C80 256.424 65.2254 241.5 47 241.5C28.7746 241.5 14 256.424 14 274.833" fill="#DDE3E9"/>
<rect x="43" y="4" width="5" height="239" fill="#DDE3E9"/>
<g opacity="0.7">
<path fill-rule="evenodd" clip-rule="evenodd" d="M107 226.784C119.703 226.784 130 220.851 130 213.533C130 206.215 119.703 200.283 107 200.283C94.2975 200.283 84 206.215 84 213.533C84 220.851 94.2975 226.784 107 226.784Z" fill="#F2F2F2"/>
<path fill-rule="evenodd" clip-rule="evenodd" d="M134 222.661C134 206.399 121.912 193.216 107 193.216C92.0883 193.216 80 206.399 80 222.661" fill="#DDE3E9"/>
<rect x="105" width="5" height="202" fill="#DDE3E9"/>
</g>
<path fill-rule="evenodd" clip-rule="evenodd" d="M252.724 270.156C250.19 271.937 247.646 272.889 246.404 272.66C243.289 272.085 242.225 260.904 244.283 256.322C246.341 251.741 258.375 248.966 259.6 257.672C260.025 260.693 258.941 263.492 257.213 265.835L261.689 281.342L251.886 282.028L252.724 270.156Z" fill="#B28B67"/>
<path fill-rule="evenodd" clip-rule="evenodd" d="M263.67 254.461C263.965 254.124 264.106 253.664 264.226 253.228C264.35 252.775 264.469 252.318 264.54 251.85C264.682 250.916 264.61 249.859 263.904 249.191C263.339 248.655 262.532 248.453 261.8 248.448C261.313 248.445 260.82 248.548 260.365 248.733C259.915 248.917 259.538 249.248 259.104 249.466C259.018 248.477 258.776 247.452 258.214 246.641C257.674 245.861 256.872 245.458 255.986 245.398C255.076 245.337 254.201 245.61 253.426 246.103C253.231 246.226 253.039 246.355 252.857 246.498C252.704 246.618 252.547 246.76 252.362 246.817C252.156 246.881 252.043 246.767 251.896 246.624C251.724 246.456 251.533 246.31 251.333 246.183C250.447 245.623 249.325 245.445 248.375 245.885C247.937 246.087 247.521 246.408 247.244 246.83C246.997 247.206 246.842 247.786 246.485 248.061C246.333 248.177 246.211 248.045 246.058 247.952C245.83 247.812 245.61 247.655 245.379 247.519C245.055 247.329 244.708 247.194 244.344 247.136C243.81 247.051 243.086 247.13 242.984 247.829C242.945 248.092 243.008 248.365 243.044 248.625C243.094 248.981 243.145 249.337 243.202 249.692C243.244 249.962 243.292 250.222 243.362 250.485C243.399 250.625 243.503 250.884 243.452 251.03C243.389 251.214 243.031 251.137 242.881 251.154C242.586 251.187 242.292 251.259 242.027 251.405C241.821 251.518 241.608 251.678 241.536 251.928C241.491 252.082 241.516 252.234 241.553 252.386C241.597 252.569 241.569 252.669 241.558 252.857C241.147 252.689 239.738 252.35 239.614 253.075C239.573 253.317 239.723 253.576 239.838 253.77C240.038 254.109 240.291 254.414 240.549 254.704C241.085 255.309 241.711 255.819 242.376 256.246C241.659 256.627 241.533 257.612 242.215 258.147C242.516 258.382 242.9 258.413 243.256 258.371C243.387 258.356 243.572 258.293 243.676 258.308C243.732 258.317 243.795 258.36 243.872 258.36C244.378 258.359 244.938 258.198 245.423 258.051C246.287 257.79 247.089 257.316 247.723 256.635C247.886 256.46 248.023 256.356 248.257 256.342C248.463 256.33 248.668 256.372 248.874 256.363C249.417 256.339 249.888 256.039 250.38 255.827C250.458 256.507 250.705 257.244 251.026 257.837C251.288 258.321 251.767 258.361 252.236 258.372C253.737 258.408 255.221 258.147 256.713 258.045C255.292 258.472 253.809 258.711 252.404 259.196C251.769 259.415 252.294 259.817 252.591 260.1C253.082 260.567 253.464 261.161 253.744 261.795C254.386 260.823 255.593 260.129 256.719 260.334C257.964 260.562 258.94 262.156 258.242 263.401C257.836 264.123 257.035 264.447 256.374 264.791C256.945 265.308 257.13 266.116 257.499 266.783C257.681 267.111 257.929 267.48 258.291 267.574C258.424 267.608 258.578 267.601 258.688 267.701C258.825 267.824 258.866 267.969 259.037 268.071C259.72 268.479 260.734 268.373 261.269 267.741C261.753 267.171 261.559 266.334 261.085 265.823C261.758 265.485 262.996 265.025 262.644 263.963C264.14 263.758 267.618 261.063 265.477 259.422C266.54 258.719 267.449 257.117 266.644 255.818C266.024 254.818 264.718 254.443 263.67 254.461" fill="#191847"/>
<path fill-rule="evenodd" clip-rule="evenodd" d="M269.7 317L239.234 368.458L216.394 411.961H211.474L249.744 317L269.7 317Z" fill="#997659"/>
<path fill-rule="evenodd" clip-rule="evenodd" d="M217.057 409.966C218.173 409.594 219.465 410.047 219.793 411.177C219.96 411.753 220.09 412.33 220.09 412.73C220.09 413.85 219.72 416 219.72 416C218.434 416 196.596 416 196.596 416C196.596 416 195.694 412.989 197.636 412.749C199.578 412.509 200.863 412.316 200.863 412.316L211.051 407.727C211.568 407.494 212.174 407.737 212.388 408.261L212.848 409.388C212.848 409.388 214.646 410.236 215.77 410.236C216.127 410.236 216.591 410.122 217.057 409.966Z" fill="#E4E4E4"/>
<path fill-rule="evenodd" clip-rule="evenodd" d="M222.738 404.995L213.25 402.096C213.25 402.096 219.485 383.264 228.534 360.649C237.583 338.033 247.97 317 247.97 317H274.766C274.766 317 263.218 343.606 250.28 365.351C237.343 387.095 222.738 404.995 222.738 404.995Z" fill="#D5484C"/>
<path fill-rule="evenodd" clip-rule="evenodd" d="M271.702 317C274.577 335.083 280.123 358.185 280.647 358.898C280.996 359.374 293.557 363.626 318.33 371.656L317.267 376.039C287.725 371.732 272.159 368.391 270.569 366.016C268.183 362.452 256.273 334.299 251.66 317H271.702Z" fill="#B28B67"/>
<path fill-rule="evenodd" clip-rule="evenodd" d="M309.622 367.867L307.75 374.926C285.654 376.884 272.116 375.469 267.135 370.682C262.153 365.895 256.476 348.001 250.103 317H275.654C279.692 342.385 281.95 355.611 282.427 356.677C282.904 357.742 291.969 361.472 309.622 367.867Z" fill="#D5484C"/>
<path fill-rule="evenodd" clip-rule="evenodd" d="M316.715 372.118C316.544 370.964 317.205 369.786 318.362 369.655C318.957 369.588 319.549 369.557 319.943 369.628C321.035 369.822 323.066 370.563 323.066 370.563C322.843 371.843 319.05 393.571 319.05 393.571C319.05 393.571 315.959 393.945 316.062 391.971C316.166 389.997 316.2 388.686 316.2 388.686L313.491 377.731C313.356 377.186 313.695 376.638 314.242 376.516L315.428 376.253C315.428 376.253 316.566 374.611 316.761 373.493C316.825 373.126 316.791 372.625 316.715 372.118Z" fill="#E4E4E4"/>
<path fill-rule="evenodd" clip-rule="evenodd" d="M306.296 322.197C304.335 320.318 290.729 298.799 290.729 298.799L283.854 301.337C283.854 301.337 300.549 323.711 301.678 324.967C303.145 326.599 302.847 329.855 302.644 332.062C302.613 332.403 302.584 332.72 302.564 333.001C303.997 333.105 304.346 332.222 304.714 331.292C305.13 330.241 305.57 329.129 307.624 329.307C308.417 329.376 309.195 329.516 309.955 329.652C312.579 330.124 314.991 330.557 317.09 327.9C317.422 327.478 317.53 326.309 316.109 325.943C312.571 325.031 307.254 323.116 306.296 322.197ZM222.022 324.72L233.218 313L237.302 319.533L225.497 327.064C222.641 331.934 220.938 334.055 220.388 333.426C219.923 332.896 220.106 332.29 220.275 331.733C220.406 331.299 220.529 330.893 220.33 330.575C219.875 329.848 217.47 330.357 215.208 330.938C212.946 331.518 213.434 330.379 213.898 329.778C215.992 327.963 218.7 326.277 222.022 324.72Z" fill="#B28B67"/>
<path fill-rule="evenodd" clip-rule="evenodd" d="M250.542 275.368L255.167 276.378C255.32 277.513 255.607 279.116 255.936 280.952C256.969 286.716 258.414 294.78 257.431 297.906C254.023 308.735 244.345 315.77 233.566 323.605C232.121 324.655 230.657 325.719 229.185 326.809L224.771 320.751C225.099 320.418 225.425 320.085 225.746 319.75C225.205 319.661 224.709 319.332 224.425 318.813C223.938 317.919 224.267 316.799 225.16 316.311C226.975 315.32 228.727 314.728 230.403 314.555C240.691 302.232 246.723 288.865 250.542 275.368Z" fill="#242E4E"/>
<path fill-rule="evenodd" clip-rule="evenodd" d="M277.964 317.085C277.964 317.085 259.317 322.528 248.03 322.363C247.097 322.349 246.451 318.451 246.682 317.315C250.277 299.617 252.425 286.747 250.398 275.252C252.356 275.873 256.722 274.427 256.722 274.427C266.841 284.856 272.928 297.797 277.964 317.085Z" fill="#F3F9EF"/>
<path fill-rule="evenodd" clip-rule="evenodd" d="M302.116 313.032C285.258 282.953 259.787 272.888 259.787 272.888L257.609 273.272L255.201 273.697C256.933 280.481 256.256 290.916 255.472 303.021C254.216 322.382 252.684 346.014 260.284 365.814C265.376 366.045 271 364.282 277.089 362.374C285.877 359.62 295.632 356.563 306.15 358.759C304.323 350.613 297.929 342.366 291.564 334.157C287.529 328.953 283.506 323.765 280.665 318.626C281.024 318.145 281.141 317.498 280.921 316.892L280.499 315.734C280.215 314.951 279.456 314.479 278.665 314.524C278.423 313.942 278.2 313.361 277.999 312.781C276.968 309.818 276.751 306.747 276.536 303.712C276.419 302.045 276.301 300.389 276.051 298.767C282.3 302.63 290.318 309.873 298.4 323.452L305.62 319.866C305.138 318.835 304.645 317.824 304.143 316.832C304.938 316.191 305.571 313.698 304.76 313.444C303.904 313.176 303.022 313.04 302.116 313.032Z" fill="#242E4E"/>
<path fill-rule="evenodd" clip-rule="evenodd" d="M258.193 273.585L261.402 279.622L258.059 285.16L262.511 288.265L256.119 305.577L264.558 287.936L260.168 284.788L263.139 279.891L258.193 273.585Z" fill="black" fill-opacity="0.1"/>
<path fill-rule="evenodd" clip-rule="evenodd" d="M259.872 311.157C258.982 311.314 258.132 310.719 257.975 309.827C257.818 308.936 258.412 308.086 259.303 307.929C260.194 307.772 261.043 308.367 261.201 309.259C261.358 310.15 260.763 311 259.872 311.157ZM259.493 320.795C258.602 320.952 257.753 320.357 257.595 319.465C257.438 318.574 258.033 317.724 258.924 317.567C259.814 317.409 260.664 318.005 260.821 318.896C260.978 319.788 260.384 320.638 259.493 320.795ZM258.829 328.819C258.986 329.71 259.836 330.306 260.727 330.149C261.617 329.992 262.212 329.142 262.055 328.25C261.898 327.358 261.048 326.763 260.157 326.92C259.266 327.077 258.672 327.927 258.829 328.819Z" fill="black" fill-opacity="0.4"/>
<path fill-rule="evenodd" clip-rule="evenodd" d="M112.736 277.321C115.175 278.841 117.571 279.576 118.696 279.276C121.517 278.524 121.777 267.848 119.594 263.639C117.411 259.43 106.19 257.596 105.625 265.935C105.428 268.829 106.603 271.412 108.339 273.52L105.227 288.526H114.267L112.736 277.321Z" fill="#B28B67"/>
<path fill-rule="evenodd" clip-rule="evenodd" d="M113.188 266.855C113.97 265.651 114.72 264.732 115.697 264.199C119.671 264.264 120.136 263.527 120.136 261.043C119.495 260.567 117.23 259.767 114.693 259.542C113.399 259.159 111.866 259.231 110.39 259.87C108.567 260.405 107.024 261.558 106.342 263.715C103.875 268.118 105.747 272.702 108.27 274.268C108.942 273.445 109.528 272.647 110.051 271.884C109.631 271.459 109.37 270.867 109.37 270.211C109.37 268.92 110.382 267.873 111.63 267.873C111.722 267.873 111.813 267.879 111.902 267.89C111.958 269.504 112.189 274.966 112.796 276.864C113.512 279.1 117.689 279.649 119.145 279.649C120.404 279.649 120.361 278.417 120.33 277.534C120.326 277.406 120.321 277.286 120.321 277.178C120.321 276.953 120.038 276.953 119.717 276.954C119.301 276.955 118.822 276.956 118.822 276.462C118.822 275.923 119.542 275.51 120.186 275.14C120.587 274.91 120.96 274.696 121.109 274.479C121.581 273.795 121.74 272.873 121.028 272.873C120.639 272.873 120.104 273.105 119.462 273.385C118.491 273.807 117.274 274.336 115.934 274.336C113.717 274.336 113.193 266.923 113.188 266.855Z" fill="#191847"/>
<path fill-rule="evenodd" clip-rule="evenodd" d="M102.213 320.869L115.869 370.445L125.833 406.986H133.1L122.512 320.869H102.213Z" fill="#37566E"/>
<path fill-rule="evenodd" clip-rule="evenodd" d="M98.5614 320.869C98.2456 346.421 97.1685 360.358 96.8369 362.679C96.5052 365.001 91.4906 379.77 81.793 406.986H89.3212C101.667 380.877 108.559 366.108 109.996 362.679C111.434 359.251 115.871 345.314 122.553 320.869H98.5614Z" fill="#507A9A"/>
<path fill-rule="evenodd" clip-rule="evenodd" d="M81.12 414L81.4967 405.817L89.4067 405.817C95.0327 409.908 104.097 412.441 104.097 412.441V414H89.7833L84.8867 413.221V414H81.12Z" fill="#191847"/>
<path fill-rule="evenodd" clip-rule="evenodd" d="M124.813 414L125.19 405.817L133.1 405.817C138.726 409.908 147.79 412.441 147.79 412.441V414H133.477L128.58 413.221V414H124.813Z" fill="#191847"/>
<path fill-rule="evenodd" clip-rule="evenodd" d="M72.9703 335.007C74.3751 332.872 82.501 310.167 82.501 310.167L89.1725 311.169C89.1725 311.169 78.4307 335.28 77.6549 336.671C76.6471 338.479 77.5385 341.448 78.1429 343.461C78.2365 343.772 78.3231 344.061 78.3948 344.319C77.1251 344.698 76.642 343.946 76.1328 343.154C75.5576 342.258 74.9489 341.311 73.1356 341.883C72.435 342.104 71.7619 342.387 71.1043 342.664C68.8327 343.622 66.746 344.502 64.3492 342.445C63.9692 342.119 63.6491 341.052 64.8569 340.431C67.8658 338.883 72.2836 336.051 72.9703 335.007ZM145.359 324.454L133.988 314.482L130.881 321.066L142.406 327.016C145.487 331.338 147.249 333.175 147.692 332.525C148.066 331.978 147.84 331.423 147.632 330.913C147.47 330.515 147.319 330.144 147.47 329.823C147.816 329.091 150.066 329.333 152.191 329.658C154.316 329.982 153.76 328.954 153.277 328.431C151.188 326.922 148.548 325.597 145.359 324.454Z" fill="#B28B67"/>
<path fill-rule="evenodd" clip-rule="evenodd" d="M110.385 282.031L114.519 280.617C120.126 295.108 128.49 309.13 142.463 320.974L139.007 327.141C126.727 319.657 115.102 313.844 110.385 302.614C108.802 298.845 110.256 286.537 110.385 282.031Z" fill="#8EB0B1"/>
<path fill-rule="evenodd" clip-rule="evenodd" d="M96.1867 322.817C96.1867 322.817 113.949 324.765 124.149 322.817C124.991 322.656 125.124 321.197 124.734 320.206C118.65 304.785 114.478 291.328 114.478 280.617C112.803 281.49 108.617 280.878 108.617 280.878C101.116 291.917 97.6679 304.583 96.1867 322.817Z" fill="#223554"/>
<path fill-rule="evenodd" clip-rule="evenodd" d="M106.467 279.953C106.661 279.818 106.763 279.751 106.763 279.751L106.752 279.953H109.878C109.95 280.393 110.06 281.112 110.207 282.07C111.536 290.75 115.865 319.024 122.248 336.692H89.1749C89.7062 325.206 91.3399 316.721 93.6055 309.472C89.2119 314.506 84.3365 322.375 80.3147 334.613L73.1319 332.706C80.4513 300.077 101.895 283.249 106.058 280.244C106.099 280.147 106.139 280.05 106.18 279.953H106.467Z" fill="#B1D9DB"/>
<path fill-rule="evenodd" clip-rule="evenodd" d="M56.1577 318.907C61.1979 317.556 61.3875 310.932 63.3492 306.799C64.7527 303.842 68.4417 303.623 68.5733 299.974C68.9044 290.799 60.3397 286.699 51.2523 289.134C42.1649 291.569 37.4398 298.443 38.2247 306.665C39.0095 314.886 47.0703 321.342 56.1577 318.907Z" fill="#191847"/>
<path fill-rule="evenodd" clip-rule="evenodd" d="M61.5665 316.275C64.8911 317.259 67.9236 317.352 69.1483 316.654C72.2192 314.904 69.2321 302.541 65.3793 298.385C61.5264 294.228 47.8233 295.638 49.7315 305.408C50.3938 308.799 52.5653 311.402 55.2471 313.282L56.2288 331.52L66.8129 328.684L61.5665 316.275Z" fill="#B28B67"/>
<path fill-rule="evenodd" clip-rule="evenodd" d="M48.615 298.488C42.6698 308.729 53.1058 315.124 55.3356 314.527C55.1676 313.324 55.3032 312.074 55.6577 310.824C55.1955 310.466 54.843 309.961 54.6806 309.354C54.2826 307.869 55.1755 306.339 56.675 305.937C57.1434 305.812 57.6155 305.811 58.0555 305.915C60.5508 302.227 64.101 299.17 66.0217 298.242C69.3621 296.626 54.5601 288.247 48.615 298.488Z" fill="#191847"/>
<path fill-rule="evenodd" clip-rule="evenodd" d="M61.1933 369L83.6073 426.695L98.6404 475.472H104.577L81.5943 369L61.1933 369Z" fill="#997659"/>
<path fill-rule="evenodd" clip-rule="evenodd" d="M56.68 369C56.4413 389.274 52.9605 416.571 52.4044 417.835C51.8483 419.098 14.0087 449.978 14.0087 449.978L18.0973 454.428C18.0973 454.428 62.7445 427.952 64.8106 424.421C66.8767 420.89 73.603 388.396 79.0034 369H56.68Z" fill="#B28B67"/>
<path fill-rule="evenodd" clip-rule="evenodd" d="M15.0263 450.263C14.6245 449.159 13.4616 448.471 12.3918 448.929C11.7014 449.224 11.0073 449.57 10.6241 449.897C9.67781 450.704 8.12697 452.574 8.12697 452.574C9.04807 453.69 24.6831 472.641 24.6831 472.641C24.6831 472.641 27.8711 471.253 26.6834 469.395C25.4957 467.536 24.7394 466.282 24.7394 466.282L21.2832 454.002C21.1299 453.457 20.5644 453.149 20.0321 453.321L18.631 453.773C18.631 453.773 16.6281 452.823 15.8233 451.848C15.5229 451.484 15.2502 450.879 15.0263 450.263Z" fill="#E4E4E4"/>
<path fill-rule="evenodd" clip-rule="evenodd" d="M98.5941 473.156C97.4827 472.756 96.1883 473.219 95.8457 474.35C95.6266 475.073 95.4433 475.828 95.4433 476.334C95.4433 477.59 95.8549 480 95.8549 480C97.2879 480 121.612 480 121.612 480C121.612 480 122.616 476.624 120.453 476.355C118.289 476.086 116.859 475.869 116.859 475.869L105.407 470.677C104.889 470.442 104.28 470.685 104.067 471.212L103.51 472.587C103.51 472.587 101.507 473.537 100.255 473.537C99.7992 473.537 99.1875 473.369 98.5941 473.156Z" fill="#E4E4E4"/>
<path fill-rule="evenodd" clip-rule="evenodd" d="M76.2631 470.448L104.487 467.333L83.5697 369H58.2905L76.2631 470.448Z" fill="#B1D9DB"/>
<path fill-rule="evenodd" clip-rule="evenodd" d="M19.8467 442.799L38.36 465.085C38.36 465.085 67.6095 432.596 72.465 422.687C77.3206 412.778 81.1948 369 81.1948 369H52.735C52.735 369 50.6187 407.514 49.8819 409.306C49.1452 411.098 19.8467 442.799 19.8467 442.799Z" fill="#B1D9DB"/>
<path fill-rule="evenodd" clip-rule="evenodd" d="M112.381 366.479L96.1515 358.303L94.3857 366.828L109.644 370.31C114.506 374.398 117.105 376.001 117.44 375.12C117.722 374.377 117.298 373.803 116.907 373.274C116.602 372.862 116.318 372.478 116.404 372.062C116.601 371.114 119.315 370.731 121.907 370.48C124.499 370.229 123.55 369.204 122.833 368.742C119.943 367.614 116.459 366.86 112.381 366.479ZM40.4936 398.604C41.3322 395.654 41.1499 368.382 41.1499 368.382L50.5525 366.763C50.5525 366.763 46.8851 396.852 46.4996 398.721C45.9987 401.15 48.1107 404.178 49.5428 406.231C49.7643 406.548 49.9696 406.843 50.1464 407.108C48.8219 408.017 47.9906 407.347 47.1141 406.641C46.1242 405.843 45.0768 405 43.1961 406.332C42.4695 406.846 41.7976 407.422 41.1411 407.984C38.8734 409.926 36.7902 411.71 33.2769 410.284C32.7199 410.058 31.9615 408.97 33.1262 407.81C36.0279 404.921 40.0837 400.045 40.4936 398.604Z" fill="#B28B67"/>
<path fill-rule="evenodd" clip-rule="evenodd" d="M60.7855 323.599L64.554 322.235C81.2129 332.358 91.4287 355.647 111.384 365.42L108.073 371.533C76.7174 373.081 63.8806 344.74 60.7855 323.599Z" fill="#D5484C"/>
<path fill-rule="evenodd" clip-rule="evenodd" d="M52.5939 376.25C52.5939 376.25 75.9779 372.127 86.9955 370.185C88.5675 369.907 87.8644 367.652 87.4319 366.528C82.4401 353.554 69.6485 340.875 66.276 321.749L56.0741 321.917C50.2323 336.781 50.3068 353.801 52.5939 376.25Z" fill="#F3F9EF"/>
<path fill-rule="evenodd" clip-rule="evenodd" d="M47.0233 336.949C45.1947 337.136 43.4296 336.655 42.0663 334.948C37.2665 328.935 37.9306 325.042 41.5943 323.155C43.6089 322.117 45.6931 322.215 48.188 322.333C50.2302 322.429 52.5476 322.539 55.3273 322.049C55.5966 322.001 55.845 321.976 56.0737 321.972L59.3993 321.583C59.3993 321.583 80.8889 365.279 77.6093 381.735L50.4183 386.53C49.5377 390.577 48.6023 394.137 47.6197 396.919L40.2418 398.22C34.8482 372.273 41.0255 350.486 47.0233 336.949Z" fill="#D5484C"/>
<path fill-rule="evenodd" clip-rule="evenodd" d="M50.4183 386.53C51.5736 381.22 52.6346 375.073 53.5838 368.751C55.4881 375.193 57.8933 381.577 60.581 384.738L50.4183 386.53Z" fill="black" fill-opacity="0.1"/>
<path fill-rule="evenodd" clip-rule="evenodd" d="M325.172 307.662C330.432 307.662 334.697 311.926 334.697 317.187V325.78C334.697 330.552 331.188 334.504 326.61 335.197C326.608 335.236 326.606 335.275 326.604 335.315H314.327C312.325 333.319 314.413 320.256 315.885 315.061C316.851 310.824 320.642 307.662 325.172 307.662Z" fill="#191847"/>
<path fill-rule="evenodd" clip-rule="evenodd" d="M324.987 328.5C322.246 330.186 319.553 331 318.288 330.668C315.118 329.834 314.826 318 317.279 313.335C319.732 308.67 332.344 306.636 332.979 315.88C333.2 319.088 331.88 321.951 329.929 324.287L333.427 340.92H323.267L324.987 328.5Z" fill="#B28B67"/>
<path fill-rule="evenodd" clip-rule="evenodd" d="M334.324 315.934C334.029 315.636 333.743 315.348 333.46 315.09L333.474 314.754C333.474 314.754 330.285 308.094 325.383 308.094C320.485 308.094 318.936 310.417 317.619 312.392L317.616 312.397C318.304 314.808 320.38 315.784 322.727 316.887C323.738 317.362 324.799 317.86 325.821 318.507C326.222 318.175 326.732 317.977 327.288 317.977C328.574 317.977 329.617 319.04 329.617 320.352C329.617 321.664 328.574 322.728 327.288 322.728C327.253 322.728 327.218 322.727 327.183 322.725C326.714 327.856 326.902 333.714 328.297 335.105H340.574C340.926 328.858 339.342 327.076 337.724 325.255C336.201 323.541 334.647 321.793 334.647 316.258C334.538 316.15 334.43 316.041 334.324 315.934L334.324 315.934Z" fill="#191847"/>
<path fill-rule="evenodd" clip-rule="evenodd" d="M349.764 419.137C349.764 419.137 334.531 423.484 323.479 423.484C312.426 423.484 302.947 416.789 302.947 416.789C302.947 416.789 317.854 412.327 327.5 412.327C337.146 412.327 349.764 419.137 349.764 419.137Z" fill="#242E4E"/>
<path fill-rule="evenodd" clip-rule="evenodd" d="M314.687 427.661C314.785 427.511 314.868 427.348 314.933 427.171C316.291 423.508 338.034 383.994 340.2 376.77H315.72C314.073 382.263 306.661 416.732 305.617 423.609C302.326 434.456 295.549 469.589 294.684 472.022C293.774 474.583 298.894 477.25 300.259 474.102C302.43 469.094 307.604 455.236 309.907 446.774C312.067 438.841 313.826 431.704 314.687 427.661Z" fill="#997659"/>
<path fill-rule="evenodd" clip-rule="evenodd" d="M334.715 432.486C344.655 435.049 381.016 439.683 383.511 440.41C386.078 441.158 388.329 435.76 385.156 434.59C380.108 432.73 366.197 428.431 357.763 426.676C350.979 425.265 344.789 424.114 340.633 423.44C340.985 411.528 342.595 382.944 341.54 376.77H319.88C320.892 382.69 329.443 425.887 331.032 430.211C331.537 431.755 333.042 432.437 334.715 432.486V432.486Z" fill="#B28B67"/>
<path fill-rule="evenodd" clip-rule="evenodd" d="M384.495 435.436C384.315 434.288 384.974 433.119 386.123 432.981C386.767 432.904 387.417 432.865 387.843 432.942C388.971 433.145 391.068 433.917 391.068 433.917C390.838 435.252 386.922 457.909 386.922 457.909C386.922 457.909 383.73 458.299 383.837 456.24C383.943 454.182 383.979 452.814 383.979 452.814L381.17 441.344C381.037 440.801 381.373 440.256 381.916 440.134L383.182 439.85C383.182 439.85 384.357 438.138 384.559 436.972C384.629 436.565 384.584 436 384.495 435.436Z" fill="#E4E4E4"/>
<path fill-rule="evenodd" clip-rule="evenodd" d="M299.447 473.69C300.566 473.306 301.864 473.764 302.196 474.899C302.378 475.523 302.523 476.156 302.523 476.59C302.523 477.759 302.142 480 302.142 480C300.813 480 278.265 480 278.265 480C278.265 480 277.334 476.861 279.34 476.61C281.345 476.36 282.671 476.158 282.671 476.158L293.216 471.362C293.734 471.126 294.344 471.37 294.558 471.897L295.046 473.106C295.046 473.106 296.902 473.99 298.063 473.99C298.446 473.99 298.947 473.862 299.447 473.69Z" fill="#E4E4E4"/>
<path fill-rule="evenodd" clip-rule="evenodd" d="M341.47 376.77C341.47 376.77 327.153 372.591 314.377 376.77C311.413 390.565 304.213 396.04 302.947 417.189C317.34 424.486 335.12 411.985 349.937 419.101C354.17 409.148 348.243 385.177 341.47 376.77Z" fill="#223554"/>
<path fill-rule="evenodd" clip-rule="evenodd" d="M283.692 357.301L300.407 359.627L297.408 367.268L283.846 361.782C278 362.37 275.173 362.228 275.365 361.357C275.528 360.622 276.149 360.4 276.721 360.195C277.167 360.036 277.583 359.887 277.729 359.515C278.063 358.665 276.163 356.903 274.29 355.31C272.417 353.717 273.674 353.424 274.464 353.447C277.273 354.119 280.349 355.404 283.692 357.301ZM365.008 399.19C363.768 396.623 352.913 363.575 352.913 363.575L343.643 363.61C343.643 363.61 358.89 398.618 359.543 400.269C360.391 402.414 358.95 405.531 357.973 407.644C357.822 407.971 357.682 408.274 357.563 408.545C358.919 409.164 359.57 408.416 360.257 407.627C361.032 406.737 361.853 405.794 363.785 406.711C364.531 407.065 365.237 407.484 365.927 407.893C368.311 409.307 370.5 410.605 373.479 408.73C373.951 408.433 374.468 407.313 373.218 406.439C370.103 404.26 365.615 400.446 365.008 399.19Z" fill="#997659"/>
<path fill-rule="evenodd" clip-rule="evenodd" d="M327.521 333.577L320.263 334.071C318.476 350.571 308.739 360.993 286.94 357.465L284.044 378.713C304.419 381.4 322.287 373.077 325.95 350.543C326.898 344.709 327.646 338.639 327.521 333.577Z" fill="#B1D9DB"/>
<path fill-rule="evenodd" clip-rule="evenodd" d="M363.736 394.911C358.697 367.554 348.061 346.39 331.828 331.418H331.132H331.108L331.102 331.425L320.105 333.994C320.105 347.472 317.167 357.543 314.341 367.225C313.121 371.406 311.922 375.514 310.99 379.793H340.689C341.108 384.696 341.365 389.735 341.499 394.911H363.736Z" fill="#B1D9DB"/>
<path fill-rule="evenodd" clip-rule="evenodd" d="M340.689 379.793C339.838 369.812 338.317 360.396 335.802 351.545C336.354 361.011 336.506 372.752 334.653 379.793H340.689Z" fill="black" fill-opacity="0.1"/>
<path fill-rule="evenodd" clip-rule="evenodd" d="M303 245C314.046 245 323 236.046 323 225C323 213.954 314.046 205 303 205C291.954 205 283 213.954 283 225C283 236.046 291.954 245 303 245Z" fill="#F2F2F2"/>
<path fill-rule="evenodd" clip-rule="evenodd" d="M303 210C303.552 210 304 209.552 304 209C304 208.448 303.552 208 303 208C302.448 208 302 208.448 302 209C302 209.552 302.448 210 303 210Z" fill="black" fill-opacity="0.1"/>
<path fill-rule="evenodd" clip-rule="evenodd" d="M287 226C287.552 226 288 225.552 288 225C288 224.448 287.552 224 287 224C286.448 224 286 224.448 286 225C286 225.552 286.448 226 287 226Z" fill="black" fill-opacity="0.1"/>
<path fill-rule="evenodd" clip-rule="evenodd" d="M319 226C319.552 226 320 225.552 320 225C320 224.448 319.552 224 319 224C318.448 224 318 224.448 318 225C318 225.552 318.448 226 319 226Z" fill="black" fill-opacity="0.1"/>
<path fill-rule="evenodd" clip-rule="evenodd" d="M303 242C303.552 242 304 241.552 304 241C304 240.448 303.552 240 303 240C302.448 240 302 240.448 302 241C302 241.552 302.448 242 303 242Z" fill="black" fill-opacity="0.1"/>
<path fill-rule="evenodd" clip-rule="evenodd" d="M303.5 211L304 224H303L303.5 211Z" fill="#AFB9C5"/>
<path fill-rule="evenodd" clip-rule="evenodd" d="M309.679 231.679L302.741 225.808L303.808 224.741L309.679 231.679Z" fill="#AFB9C5"/>
<path fill-rule="evenodd" clip-rule="evenodd" d="M303.5 226C304.328 226 305 225.328 305 224.5C305 223.672 304.328 223 303.5 223C302.672 223 302 223.672 302 224.5C302 225.328 302.672 226 303.5 226Z" fill="#C5CFD6"/>
</svg>
