<svg width="320" height="479" viewBox="0 0 320 479" fill="none" xmlns="http://www.w3.org/2000/svg">
<g opacity="0.345889">
<path fill-rule="evenodd" clip-rule="evenodd" d="M162.921 389.81C160.283 346.54 18.7221 263.024 -7.55814 304.009C-33.8384 344.994 -8.57318 421.911 46.5005 441.607C101.574 461.304 165.559 433.08 162.921 389.81Z" fill="#F2F2F2"/>
<path fill-rule="evenodd" clip-rule="evenodd" d="M186.047 422.821C188.068 386.25 296.489 315.666 316.617 350.304C336.745 384.943 331.65 457.802 289.47 474.449C247.289 491.096 184.026 459.391 186.047 422.821Z" fill="#DDE3E9"/>
</g>
<path fill-rule="evenodd" clip-rule="evenodd" d="M22 241.5C37.464 241.5 50 234.784 50 226.5C50 218.216 37.464 211.5 22 211.5C6.53603 211.5 -6 218.216 -6 226.5C-6 234.784 6.53603 241.5 22 241.5Z" fill="#F2F2F2"/>
<path fill-rule="evenodd" clip-rule="evenodd" d="M55 236.833C55 218.424 40.2254 203.5 22 203.5C3.7746 203.5 -11 218.424 -11 236.833" fill="#DDE3E9"/>
<rect x="18" y="-34" width="5" height="239" fill="#DDE3E9"/>
<g opacity="0.7">
<path fill-rule="evenodd" clip-rule="evenodd" d="M82 188.784C94.7025 188.784 105 182.852 105 175.534C105 168.216 94.7025 162.283 82 162.283C69.2975 162.283 59 168.216 59 175.534C59 182.852 69.2975 188.784 82 188.784Z" fill="#F2F2F2"/>
<path fill-rule="evenodd" clip-rule="evenodd" d="M109 184.662C109 168.399 96.9117 155.216 82 155.216C67.0883 155.216 55 168.399 55 184.662" fill="#DDE3E9"/>
<rect x="80" y="-38" width="5" height="202" fill="#DDE3E9"/>
</g>
<path fill-rule="evenodd" clip-rule="evenodd" d="M227.724 232.156C225.19 233.937 222.646 234.889 221.404 234.66C218.289 234.085 217.225 222.904 219.283 218.323C221.341 213.741 233.375 210.966 234.6 219.672C235.025 222.693 233.941 225.492 232.213 227.835L236.689 243.342L226.886 244.028L227.724 232.156Z" fill="#B28B67"/>
<path fill-rule="evenodd" clip-rule="evenodd" d="M238.67 216.461C238.965 216.124 239.106 215.664 239.226 215.228C239.35 214.775 239.469 214.318 239.54 213.85C239.682 212.916 239.61 211.859 238.904 211.191C238.339 210.655 237.532 210.453 236.8 210.448C236.313 210.445 235.819 210.548 235.365 210.733C234.915 210.917 234.538 211.247 234.104 211.466C234.018 210.477 233.776 209.452 233.214 208.641C232.674 207.86 231.872 207.458 230.986 207.398C230.076 207.337 229.201 207.61 228.426 208.103C228.231 208.226 228.039 208.355 227.857 208.498C227.704 208.618 227.547 208.76 227.362 208.817C227.156 208.881 227.043 208.767 226.896 208.624C226.724 208.455 226.533 208.31 226.333 208.183C225.447 207.622 224.325 207.445 223.375 207.885C222.937 208.087 222.521 208.408 222.244 208.83C221.997 209.206 221.842 209.786 221.485 210.061C221.333 210.177 221.21 210.045 221.058 209.952C220.83 209.812 220.61 209.655 220.379 209.519C220.055 209.329 219.708 209.193 219.344 209.135C218.81 209.05 218.086 209.13 217.984 209.829C217.945 210.092 218.008 210.365 218.044 210.625C218.094 210.981 218.145 211.337 218.201 211.692C218.244 211.962 218.292 212.222 218.362 212.485C218.399 212.625 218.503 212.884 218.452 213.03C218.389 213.213 218.03 213.137 217.881 213.154C217.586 213.187 217.292 213.259 217.027 213.405C216.821 213.518 216.608 213.678 216.536 213.928C216.491 214.081 216.516 214.234 216.553 214.386C216.597 214.569 216.568 214.669 216.558 214.857C216.147 214.689 214.738 214.35 214.614 215.075C214.573 215.317 214.723 215.576 214.837 215.77C215.038 216.109 215.291 216.414 215.549 216.704C216.085 217.308 216.711 217.819 217.376 218.246C216.659 218.627 216.533 219.612 217.215 220.147C217.516 220.382 217.9 220.413 218.256 220.371C218.387 220.356 218.571 220.293 218.676 220.308C218.732 220.317 218.795 220.36 218.872 220.359C219.378 220.359 219.938 220.197 220.423 220.051C221.287 219.79 222.089 219.316 222.723 218.635C222.885 218.46 223.023 218.356 223.257 218.342C223.463 218.33 223.668 218.372 223.874 218.363C224.417 218.339 224.888 218.039 225.38 217.827C225.458 218.507 225.704 219.243 226.026 219.837C226.288 220.321 226.767 220.361 227.236 220.372C228.736 220.408 230.221 220.147 231.713 220.044C230.292 220.472 228.809 220.711 227.404 221.196C226.769 221.415 227.293 221.817 227.591 222.1C228.082 222.567 228.464 223.16 228.744 223.794C229.386 222.823 230.593 222.128 231.719 222.334C232.964 222.562 233.94 224.156 233.242 225.401C232.836 226.123 232.035 226.447 231.374 226.791C231.945 227.308 232.13 228.116 232.499 228.783C232.68 229.111 232.929 229.48 233.291 229.574C233.424 229.608 233.578 229.601 233.688 229.701C233.825 229.824 233.866 229.969 234.037 230.071C234.719 230.479 235.734 230.373 236.269 229.741C236.753 229.17 236.558 228.334 236.085 227.823C236.758 227.485 237.996 227.025 237.644 225.963C239.14 225.758 242.618 223.063 240.476 221.422C241.54 220.718 242.449 219.117 241.644 217.818C241.024 216.818 239.718 216.443 238.67 216.461" fill="#191847"/>
<path fill-rule="evenodd" clip-rule="evenodd" d="M244.7 279L214.234 330.458L191.394 373.961H186.474L224.744 279L244.7 279Z" fill="#997659"/>
<path fill-rule="evenodd" clip-rule="evenodd" d="M192.057 371.966C193.173 371.594 194.465 372.047 194.793 373.177C194.96 373.753 195.09 374.33 195.09 374.73C195.09 375.85 194.72 378 194.72 378C193.434 378 171.596 378 171.596 378C171.596 378 170.694 374.989 172.636 374.749C174.578 374.509 175.863 374.316 175.863 374.316L186.051 369.727C186.568 369.494 187.174 369.737 187.388 370.261L187.848 371.388C187.848 371.388 189.646 372.236 190.77 372.236C191.127 372.236 191.591 372.122 192.057 371.966Z" fill="#E4E4E4"/>
<path fill-rule="evenodd" clip-rule="evenodd" d="M197.738 366.995L188.25 364.096C188.25 364.096 194.485 345.264 203.534 322.649C212.583 300.033 222.97 279 222.97 279H249.766C249.766 279 238.218 305.606 225.28 327.351C212.343 349.095 197.738 366.995 197.738 366.995Z" fill="#D5484C"/>
<path fill-rule="evenodd" clip-rule="evenodd" d="M246.702 279C249.577 297.083 255.123 320.185 255.647 320.898C255.995 321.374 268.557 325.626 293.33 333.656L292.267 338.039C262.725 333.732 247.159 330.391 245.569 328.016C243.183 324.452 231.273 296.299 226.66 279H246.702Z" fill="#B28B67"/>
<path fill-rule="evenodd" clip-rule="evenodd" d="M284.622 329.867L282.75 336.926C260.654 338.884 247.116 337.469 242.134 332.682C237.153 327.895 231.476 310.001 225.103 279H250.654C254.692 304.385 256.95 317.611 257.427 318.677C257.904 319.742 266.969 323.472 284.622 329.867Z" fill="#D5484C"/>
<path fill-rule="evenodd" clip-rule="evenodd" d="M291.715 334.118C291.544 332.964 292.205 331.786 293.362 331.655C293.957 331.588 294.549 331.557 294.943 331.627C296.035 331.822 298.066 332.563 298.066 332.563C297.843 333.843 294.05 355.571 294.05 355.571C294.05 355.571 290.959 355.945 291.062 353.971C291.166 351.997 291.2 350.686 291.2 350.686L288.491 339.731C288.356 339.186 288.695 338.638 289.242 338.516L290.428 338.253C290.428 338.253 291.566 336.611 291.761 335.493C291.825 335.126 291.791 334.625 291.715 334.118Z" fill="#E4E4E4"/>
<path fill-rule="evenodd" clip-rule="evenodd" d="M281.296 284.197C279.335 282.318 265.729 260.799 265.729 260.799L258.854 263.337C258.854 263.337 275.549 285.711 276.678 286.967C278.145 288.599 277.847 291.855 277.644 294.062C277.613 294.403 277.584 294.72 277.564 295.001C278.997 295.105 279.346 294.222 279.714 293.292C280.13 292.241 280.57 291.129 282.624 291.307C283.417 291.376 284.195 291.516 284.955 291.652C287.579 292.124 289.991 292.557 292.09 289.9C292.422 289.478 292.53 288.309 291.109 287.943C287.571 287.031 282.254 285.116 281.296 284.197ZM197.022 286.72L208.218 275L212.302 281.533L200.497 289.064C197.641 293.934 195.938 296.055 195.388 295.426C194.923 294.896 195.106 294.29 195.275 293.733C195.406 293.299 195.529 292.893 195.33 292.575C194.875 291.848 192.47 292.357 190.208 292.938C187.946 293.518 188.434 292.379 188.898 291.778C190.992 289.963 193.7 288.277 197.022 286.72Z" fill="#B28B67"/>
<path fill-rule="evenodd" clip-rule="evenodd" d="M225.542 237.368L230.166 238.378C230.32 239.513 230.607 241.116 230.936 242.952C231.969 248.716 233.414 256.78 232.431 259.906C229.023 270.735 219.345 277.77 208.566 285.605C207.121 286.655 205.657 287.719 204.185 288.809L199.771 282.751C200.099 282.418 200.425 282.085 200.746 281.75C200.205 281.661 199.708 281.332 199.425 280.813C198.938 279.919 199.266 278.799 200.16 278.311C201.975 277.32 203.727 276.728 205.403 276.555C215.691 264.232 221.723 250.865 225.542 237.368Z" fill="#242E4E"/>
<path fill-rule="evenodd" clip-rule="evenodd" d="M252.964 279.085C252.964 279.085 234.317 284.528 223.03 284.363C222.097 284.349 221.451 280.451 221.682 279.315C225.277 261.617 227.425 248.747 225.398 237.252C227.356 237.873 231.722 236.427 231.722 236.427C241.841 246.857 247.928 259.797 252.964 279.085Z" fill="#F3F9EF"/>
<path fill-rule="evenodd" clip-rule="evenodd" d="M277.115 275.032C260.258 244.953 234.787 234.888 234.787 234.888L232.609 235.272L230.201 235.697C231.933 242.481 231.256 252.916 230.471 265.021C229.216 284.382 227.684 308.014 235.284 327.814C240.375 328.045 246 326.282 252.089 324.374C260.877 321.62 270.632 318.563 281.15 320.759C279.323 312.613 272.929 304.366 266.563 296.157C262.529 290.953 258.506 285.765 255.665 280.626C256.024 280.145 256.141 279.498 255.921 278.892L255.499 277.734C255.215 276.951 254.455 276.479 253.665 276.524C253.423 275.942 253.2 275.361 252.999 274.781C251.968 271.818 251.751 268.747 251.536 265.712C251.418 264.045 251.301 262.389 251.051 260.767C257.3 264.63 265.318 271.873 273.4 285.452L280.62 281.866C280.138 280.835 279.645 279.824 279.143 278.832C279.938 278.191 280.571 275.698 279.76 275.444C278.904 275.176 278.022 275.04 277.115 275.032Z" fill="#242E4E"/>
<path fill-rule="evenodd" clip-rule="evenodd" d="M233.193 235.585L236.402 241.622L233.059 247.16L237.51 250.265L231.119 267.577L239.558 249.936L235.168 246.789L238.139 241.891L233.193 235.585Z" fill="black" fill-opacity="0.1"/>
<path fill-rule="evenodd" clip-rule="evenodd" d="M234.872 273.157C233.982 273.314 233.132 272.719 232.975 271.827C232.818 270.936 233.412 270.086 234.303 269.929C235.194 269.772 236.043 270.367 236.201 271.259C236.358 272.15 235.763 273 234.872 273.157ZM234.493 282.795C233.602 282.952 232.753 282.357 232.595 281.465C232.438 280.574 233.033 279.724 233.924 279.567C234.814 279.41 235.664 280.005 235.821 280.897C235.978 281.788 235.384 282.638 234.493 282.795ZM233.829 290.819C233.986 291.711 234.836 292.306 235.726 292.149C236.617 291.992 237.212 291.142 237.055 290.25C236.898 289.359 236.048 288.763 235.157 288.92C234.266 289.077 233.672 289.927 233.829 290.819Z" fill="black" fill-opacity="0.4"/>
<path fill-rule="evenodd" clip-rule="evenodd" d="M87.7357 239.321C90.1748 240.842 92.5714 241.576 93.6964 241.276C96.5174 240.524 96.7767 229.848 94.594 225.639C92.4113 221.43 81.1903 219.596 80.6247 227.935C80.4284 230.829 81.6032 233.412 83.3388 235.52L80.2267 250.526H89.2667L87.7357 239.321Z" fill="#B28B67"/>
<path fill-rule="evenodd" clip-rule="evenodd" d="M88.188 228.855C88.9698 227.651 89.7205 226.732 90.6969 226.199C94.6712 226.264 95.1364 225.527 95.1364 223.043C94.4946 222.567 92.2296 221.767 89.6932 221.542C88.3993 221.159 86.8665 221.231 85.3899 221.87C83.5671 222.405 82.0237 223.557 81.3419 225.715C78.8754 230.118 80.7475 234.702 83.2704 236.268C83.942 235.445 84.528 234.647 85.051 233.884C84.6309 233.459 84.3701 232.867 84.3701 232.211C84.3701 230.92 85.382 229.873 86.6301 229.873C86.722 229.873 86.8126 229.879 86.9016 229.89C86.9577 231.504 87.1888 236.966 87.796 238.863C88.5118 241.1 92.6886 241.649 94.1454 241.649C95.4036 241.649 95.3607 240.417 95.33 239.533C95.3256 239.406 95.3214 239.286 95.3214 239.178C95.3214 238.953 95.0377 238.953 94.7171 238.954C94.3008 238.955 93.8225 238.956 93.8225 238.462C93.8225 237.923 94.5419 237.51 95.1857 237.14C95.5873 236.909 95.9595 236.696 96.1092 236.479C96.5814 235.795 96.7405 234.873 96.0281 234.873C95.6387 234.873 95.1045 235.105 94.4617 235.385C93.4914 235.806 92.2739 236.336 90.9341 236.336C88.7172 236.336 88.1928 228.923 88.188 228.855Z" fill="#191847"/>
<path fill-rule="evenodd" clip-rule="evenodd" d="M77.2134 282.869L90.8694 332.445L100.833 368.986H108.1L97.5123 282.869H77.2134Z" fill="#37566E"/>
<path fill-rule="evenodd" clip-rule="evenodd" d="M73.5614 282.869C73.2455 308.421 72.1685 322.358 71.8368 324.68C71.5052 327.001 66.4906 341.77 56.793 368.986H64.3211C76.6669 342.877 83.5586 328.108 84.9963 324.68C86.434 321.251 90.8708 307.314 97.5534 282.869H73.5614Z" fill="#507A9A"/>
<path fill-rule="evenodd" clip-rule="evenodd" d="M56.12 376L56.4967 367.817L64.4067 367.817C70.0327 371.909 79.0967 374.442 79.0967 374.442V376H64.7833L59.8867 375.221V376H56.12Z" fill="#191847"/>
<path fill-rule="evenodd" clip-rule="evenodd" d="M99.8134 376L100.19 367.817L108.1 367.817C113.726 371.909 122.79 374.442 122.79 374.442V376H108.477L103.58 375.221V376H99.8134Z" fill="#191847"/>
<path fill-rule="evenodd" clip-rule="evenodd" d="M47.9703 297.007C49.375 294.872 57.501 272.167 57.501 272.167L64.1724 273.169C64.1724 273.169 53.4306 297.28 52.6548 298.671C51.647 300.479 52.5384 303.448 53.1429 305.461C53.2364 305.772 53.3231 306.061 53.3947 306.319C52.125 306.698 51.642 305.946 51.1327 305.154C50.5575 304.258 49.9489 303.311 48.1355 303.883C47.4349 304.104 46.7618 304.387 46.1042 304.665C43.8327 305.622 41.7459 306.502 39.3492 304.445C38.9692 304.119 38.6491 303.053 39.8568 302.431C42.8658 300.884 47.2836 298.051 47.9703 297.007ZM120.359 286.454L108.988 276.482L105.881 283.066L117.406 289.016C120.487 293.339 122.249 295.175 122.692 294.525C123.066 293.978 122.84 293.424 122.632 292.913C122.47 292.515 122.319 292.144 122.47 291.823C122.816 291.091 125.066 291.333 127.191 291.658C129.316 291.982 128.76 290.954 128.277 290.431C126.188 288.922 123.548 287.597 120.359 286.454Z" fill="#B28B67"/>
<path fill-rule="evenodd" clip-rule="evenodd" d="M85.3849 244.031L89.5188 242.617C95.1265 257.109 103.49 271.13 117.463 282.974L114.007 289.141C101.727 281.657 90.1021 275.844 85.3849 264.614C83.8017 260.845 85.2558 248.537 85.3849 244.031Z" fill="#8EB0B1"/>
<path fill-rule="evenodd" clip-rule="evenodd" d="M71.1866 284.817C71.1866 284.817 88.9493 286.765 99.149 284.817C99.9914 284.656 100.124 283.197 99.7336 282.207C93.6497 266.785 89.4777 253.328 89.4777 242.617C87.8032 243.49 83.6166 242.878 83.6166 242.878C76.1158 253.917 72.6679 266.583 71.1866 284.817Z" fill="#223554"/>
<path fill-rule="evenodd" clip-rule="evenodd" d="M81.4672 241.953C81.6608 241.818 81.763 241.751 81.763 241.751L81.752 241.953H84.8777C84.95 242.393 85.0601 243.112 85.2068 244.07C86.5359 252.75 90.8654 281.024 97.2482 298.692H64.1749C64.7062 287.206 66.3399 278.721 68.6055 271.472C64.2119 276.506 59.3365 284.375 55.3147 296.613L48.132 294.706C55.4513 262.077 76.8945 245.249 81.0581 242.244C81.0987 242.147 81.1394 242.05 81.18 241.953H81.4672Z" fill="#B1D9DB"/>
<path fill-rule="evenodd" clip-rule="evenodd" d="M31.1577 280.907C36.1979 279.556 36.3875 272.932 38.3491 268.799C39.7527 265.842 43.4417 265.623 43.5733 261.974C43.9043 252.799 35.3397 248.699 26.2523 251.134C17.1649 253.569 12.4398 260.444 13.2246 268.665C14.0095 276.886 22.0703 283.342 31.1577 280.907Z" fill="#191847"/>
<path fill-rule="evenodd" clip-rule="evenodd" d="M36.5666 278.275C39.8912 279.259 42.9236 279.353 44.1483 278.655C47.2192 276.904 44.2322 264.542 40.3793 260.385C36.5264 256.228 22.8234 257.638 24.7316 267.408C25.3938 270.799 27.5654 273.402 30.2471 275.282L31.2288 293.52L41.8129 290.684L36.5666 278.275Z" fill="#B28B67"/>
<path fill-rule="evenodd" clip-rule="evenodd" d="M23.6149 260.488C17.6698 270.729 28.1058 277.125 30.3356 276.527C30.1676 275.324 30.3032 274.074 30.6577 272.824C30.1955 272.466 29.843 271.961 29.6806 271.355C29.2825 269.869 30.1755 268.339 31.675 267.937C32.1434 267.812 32.6155 267.811 33.0555 267.915C35.5508 264.227 39.101 261.17 41.0216 260.242C44.3621 258.627 29.56 250.248 23.6149 260.488Z" fill="#191847"/>
<path fill-rule="evenodd" clip-rule="evenodd" d="M36.1934 331L58.6073 388.695L73.6404 437.472H79.5767L56.5943 331L36.1934 331Z" fill="#997659"/>
<path fill-rule="evenodd" clip-rule="evenodd" d="M31.68 331C31.4413 351.275 27.9605 378.571 27.4044 379.835C26.8483 381.099 -10.9913 411.978 -10.9913 411.978L-6.9027 416.428C-6.9027 416.428 37.7445 389.952 39.8106 386.421C41.8766 382.89 48.603 350.396 54.0034 331H31.68Z" fill="#B28B67"/>
<path fill-rule="evenodd" clip-rule="evenodd" d="M-9.97374 412.263C-10.3755 411.159 -11.5384 410.471 -12.6082 410.929C-13.2986 411.224 -13.9928 411.57 -14.376 411.897C-15.3222 412.704 -16.8731 414.574 -16.8731 414.574C-15.952 415.69 -0.316905 434.64 -0.316905 434.64C-0.316905 434.64 2.87107 433.253 1.68339 431.395C0.495698 429.536 -0.260602 428.282 -0.260602 428.282L-3.71685 416.002C-3.87019 415.457 -4.43569 415.149 -4.96794 415.321L-6.36908 415.773C-6.36908 415.773 -8.37197 414.823 -9.17672 413.848C-9.47715 413.484 -9.74989 412.879 -9.97374 412.263Z" fill="#E4E4E4"/>
<path fill-rule="evenodd" clip-rule="evenodd" d="M73.5941 435.156C72.4828 434.756 71.1884 435.219 70.8458 436.35C70.6266 437.073 70.4434 437.828 70.4434 438.334C70.4434 439.59 70.8549 442 70.8549 442C72.2879 442 96.6118 442 96.6118 442C96.6118 442 97.6157 438.624 95.4526 438.355C93.2895 438.086 91.8587 437.869 91.8587 437.869L80.4066 432.677C79.8891 432.442 79.2804 432.685 79.0669 433.212L78.5096 434.587C78.5096 434.587 76.5071 435.537 75.2551 435.537C74.7992 435.537 74.1876 435.369 73.5941 435.156Z" fill="#E4E4E4"/>
<path fill-rule="evenodd" clip-rule="evenodd" d="M51.2631 432.448L79.4871 429.333L58.5697 331H33.2905L51.2631 432.448Z" fill="#B1D9DB"/>
<path fill-rule="evenodd" clip-rule="evenodd" d="M-5.15332 404.799L13.36 427.085C13.36 427.085 42.6094 394.596 47.465 384.687C52.3206 374.778 56.1948 331 56.1948 331H27.735C27.735 331 25.6187 369.514 24.8819 371.306C24.1451 373.098 -5.15332 404.799 -5.15332 404.799Z" fill="#B1D9DB"/>
<path fill-rule="evenodd" clip-rule="evenodd" d="M87.3815 328.479L71.1516 320.303L69.3858 328.828L84.644 332.31C89.5064 336.398 92.105 338.001 92.4398 337.12C92.7221 336.377 92.2978 335.803 91.907 335.274C91.6025 334.862 91.3184 334.477 91.4044 334.062C91.6009 333.113 94.3155 332.731 96.9076 332.48C99.4996 332.229 98.5506 331.204 97.8334 330.742C94.9435 329.614 91.4596 328.86 87.3815 328.479ZM15.4937 360.603C16.3323 357.654 16.15 330.382 16.15 330.382L25.5526 328.763C25.5526 328.763 21.8852 358.852 21.4997 360.721C20.9988 363.15 23.1108 366.178 24.5429 368.231C24.7644 368.548 24.9697 368.843 25.1465 369.108C23.822 370.017 22.9907 369.347 22.1142 368.641C21.1243 367.843 20.0769 367 18.1962 368.332C17.4696 368.846 16.7977 369.422 16.1412 369.984C13.8735 371.926 11.7903 373.71 8.27702 372.284C7.72004 372.057 6.96162 370.97 8.12631 369.81C11.028 366.921 15.0838 362.045 15.4937 360.603Z" fill="#B28B67"/>
<path fill-rule="evenodd" clip-rule="evenodd" d="M35.7855 285.599L39.554 284.235C56.2129 294.358 66.4287 317.647 86.3837 327.42L83.0733 333.532C51.7174 335.081 38.8806 306.74 35.7855 285.599Z" fill="#D5484C"/>
<path fill-rule="evenodd" clip-rule="evenodd" d="M27.594 338.25C27.594 338.25 50.978 334.127 61.9955 332.184C63.5675 331.907 62.8645 329.652 62.4319 328.528C57.4401 315.554 44.6486 302.875 41.276 283.749L31.0741 283.917C25.2323 298.781 25.3068 315.801 27.594 338.25Z" fill="#F3F9EF"/>
<path fill-rule="evenodd" clip-rule="evenodd" d="M22.0234 298.949C20.1947 299.136 18.4296 298.655 17.0663 296.948C12.2665 290.935 12.9306 287.042 16.5943 285.155C18.6089 284.117 20.6931 284.215 23.188 284.333C25.2303 284.429 27.5476 284.539 30.3273 284.049C30.5966 284.001 30.845 283.976 31.0737 283.972L34.3994 283.583C34.3994 283.583 55.8889 327.279 52.6094 343.735L25.4183 348.53C24.5377 352.577 23.6023 356.137 22.6198 358.919L15.2419 360.22C9.8482 334.273 16.0255 312.486 22.0234 298.949Z" fill="#D5484C"/>
<path fill-rule="evenodd" clip-rule="evenodd" d="M25.4183 348.53C26.5736 343.22 27.6346 337.073 28.5838 330.751C30.4882 337.193 32.8933 343.577 35.581 346.738L25.4183 348.53Z" fill="black" fill-opacity="0.1"/>
<path fill-rule="evenodd" clip-rule="evenodd" d="M300.172 269.662C305.432 269.662 309.697 273.926 309.697 279.187V287.78C309.697 292.552 306.188 296.504 301.61 297.197C301.608 297.236 301.606 297.275 301.604 297.315H289.327C287.325 295.319 289.413 282.256 290.885 277.061C291.851 272.824 295.642 269.662 300.172 269.662Z" fill="#191847"/>
<path fill-rule="evenodd" clip-rule="evenodd" d="M299.987 290.5C297.246 292.186 294.552 293 293.288 292.668C290.118 291.834 289.826 280 292.279 275.335C294.732 270.67 307.344 268.636 307.979 277.88C308.2 281.088 306.88 283.951 304.929 286.287L308.427 302.92H298.267L299.987 290.5Z" fill="#B28B67"/>
<path fill-rule="evenodd" clip-rule="evenodd" d="M309.324 277.934C309.029 277.636 308.743 277.348 308.46 277.09L308.474 276.755C308.474 276.755 305.285 270.094 300.383 270.094C295.485 270.094 293.936 272.417 292.619 274.392L292.616 274.397C293.304 276.808 295.38 277.784 297.727 278.887C298.738 279.362 299.799 279.861 300.821 280.508C301.222 280.176 301.732 279.977 302.288 279.977C303.574 279.977 304.617 281.04 304.617 282.352C304.617 283.664 303.574 284.728 302.288 284.728C302.253 284.728 302.218 284.727 302.182 284.725C301.714 289.856 301.902 295.715 303.297 297.105H315.574C315.926 290.858 314.342 289.076 312.724 287.255C311.201 285.541 309.647 283.793 309.647 278.259C309.538 278.15 309.43 278.041 309.324 277.934L309.324 277.934Z" fill="#191847"/>
<path fill-rule="evenodd" clip-rule="evenodd" d="M324.764 381.137C324.764 381.137 309.531 385.484 298.479 385.484C287.426 385.484 277.947 378.789 277.947 378.789C277.947 378.789 292.854 374.327 302.5 374.327C312.146 374.327 324.764 381.137 324.764 381.137Z" fill="#242E4E"/>
<path fill-rule="evenodd" clip-rule="evenodd" d="M289.687 389.661C289.785 389.511 289.868 389.348 289.933 389.171C291.291 385.508 313.034 345.994 315.2 338.77H290.72C289.073 344.263 281.661 378.732 280.617 385.609C277.326 396.456 270.549 431.589 269.684 434.022C268.774 436.583 273.894 439.25 275.259 436.102C277.43 431.094 282.604 417.236 284.907 408.774C287.067 400.841 288.826 393.704 289.687 389.661Z" fill="#997659"/>
<path fill-rule="evenodd" clip-rule="evenodd" d="M309.715 394.486C319.655 397.049 356.016 401.683 358.511 402.41C361.078 403.158 363.329 397.76 360.156 396.59C355.108 394.73 341.197 390.431 332.763 388.676C325.979 387.265 319.789 386.114 315.633 385.44C315.985 373.529 317.595 344.944 316.54 338.77H294.88C295.891 344.69 304.443 387.888 306.032 392.211C306.537 393.755 308.042 394.437 309.715 394.486V394.486Z" fill="#B28B67"/>
<path fill-rule="evenodd" clip-rule="evenodd" d="M274.447 435.69C275.566 435.306 276.864 435.764 277.196 436.899C277.378 437.523 277.523 438.156 277.523 438.59C277.523 439.759 277.142 442 277.142 442C275.813 442 253.265 442 253.265 442C253.265 442 252.334 438.861 254.34 438.61C256.345 438.36 257.671 438.158 257.671 438.158L268.216 433.362C268.734 433.126 269.344 433.37 269.558 433.898L270.046 435.106C270.046 435.106 271.902 435.99 273.063 435.99C273.446 435.99 273.947 435.862 274.447 435.69Z" fill="#E4E4E4"/>
<path fill-rule="evenodd" clip-rule="evenodd" d="M316.47 338.77C316.47 338.77 302.153 334.591 289.377 338.77C286.413 352.565 279.213 358.04 277.947 379.189C292.34 386.486 310.12 373.985 324.937 381.101C329.17 371.148 323.243 347.177 316.47 338.77Z" fill="#223554"/>
<path fill-rule="evenodd" clip-rule="evenodd" d="M258.692 319.301L275.407 321.627L272.408 329.267L258.846 323.781C253 324.37 250.173 324.228 250.365 323.356C250.528 322.621 251.149 322.4 251.721 322.195C252.167 322.036 252.583 321.887 252.729 321.515C253.063 320.665 251.163 318.903 249.29 317.31C247.417 315.717 248.674 315.424 249.464 315.447C252.273 316.119 255.349 317.403 258.692 319.301ZM340.008 361.19C338.768 358.622 327.913 325.574 327.913 325.574L318.643 325.61C318.643 325.61 333.89 360.618 334.543 362.269C335.391 364.414 333.95 367.53 332.973 369.644C332.822 369.971 332.682 370.274 332.563 370.545C333.919 371.164 334.57 370.416 335.257 369.627C336.032 368.736 336.853 367.794 338.785 368.711C339.531 369.065 340.237 369.484 340.927 369.893C343.311 371.306 345.5 372.605 348.479 370.73C348.951 370.432 349.468 369.313 348.218 368.439C345.103 366.259 340.615 362.446 340.008 361.19Z" fill="#997659"/>
<path fill-rule="evenodd" clip-rule="evenodd" d="M302.521 295.577L295.263 296.071C293.476 312.571 283.739 322.993 261.94 319.465L259.044 340.713C279.419 343.4 297.287 335.077 300.949 312.543C301.897 306.709 302.646 300.639 302.521 295.577Z" fill="#B1D9DB"/>
<path fill-rule="evenodd" clip-rule="evenodd" d="M338.736 356.911C333.697 329.554 323.061 308.39 306.828 293.418H306.132H306.108L306.102 293.425L295.105 295.994C295.105 309.472 292.167 319.542 289.341 329.224C288.121 333.405 286.922 337.514 285.99 341.793H315.689C316.108 346.696 316.365 351.735 316.498 356.911H338.736Z" fill="#B1D9DB"/>
<path fill-rule="evenodd" clip-rule="evenodd" d="M315.689 341.793C314.838 331.812 313.317 322.396 310.802 313.545C311.353 323.011 311.506 334.752 309.653 341.793H315.689Z" fill="black" fill-opacity="0.1"/>
<path fill-rule="evenodd" clip-rule="evenodd" d="M278 207C289.046 207 298 198.046 298 187C298 175.954 289.046 167 278 167C266.954 167 258 175.954 258 187C258 198.046 266.954 207 278 207Z" fill="#F2F2F2"/>
<path fill-rule="evenodd" clip-rule="evenodd" d="M278 172C278.552 172 279 171.552 279 171C279 170.448 278.552 170 278 170C277.448 170 277 170.448 277 171C277 171.552 277.448 172 278 172Z" fill="black" fill-opacity="0.1"/>
<path fill-rule="evenodd" clip-rule="evenodd" d="M262 188C262.552 188 263 187.552 263 187C263 186.448 262.552 186 262 186C261.448 186 261 186.448 261 187C261 187.552 261.448 188 262 188Z" fill="black" fill-opacity="0.1"/>
<path fill-rule="evenodd" clip-rule="evenodd" d="M294 188C294.552 188 295 187.552 295 187C295 186.448 294.552 186 294 186C293.448 186 293 186.448 293 187C293 187.552 293.448 188 294 188Z" fill="black" fill-opacity="0.1"/>
<path fill-rule="evenodd" clip-rule="evenodd" d="M278 204C278.552 204 279 203.552 279 203C279 202.448 278.552 202 278 202C277.448 202 277 202.448 277 203C277 203.552 277.448 204 278 204Z" fill="black" fill-opacity="0.1"/>
<path fill-rule="evenodd" clip-rule="evenodd" d="M278.5 173L279 186H278L278.5 173Z" fill="#AFB9C5"/>
<path fill-rule="evenodd" clip-rule="evenodd" d="M284.679 193.679L277.741 187.808L278.808 186.741L284.679 193.679Z" fill="#AFB9C5"/>
<path fill-rule="evenodd" clip-rule="evenodd" d="M278.5 188C279.328 188 280 187.328 280 186.5C280 185.672 279.328 185 278.5 185C277.672 185 277 185.672 277 186.5C277 187.328 277.672 188 278.5 188Z" fill="#C5CFD6"/>
</svg>
