<?xml version="1.0" encoding="UTF-8"?>
<svg width="1370px" height="1079px" viewBox="0 0 1370 1079" version="1.1" xmlns="http://www.w3.org/2000/svg" xmlns:xlink="http://www.w3.org/1999/xlink">
    <!-- Generator: Sketch 53.2 (72643) - https://sketchapp.com -->
    <title>Group 7</title>
    <desc>Created with Sketch.</desc>
    <g id="LAST-VERSION-HERE" stroke="none" stroke-width="1" fill="none" fill-rule="evenodd">
        <g id="ONE-PAGE" transform="translate(-277.000000, -5081.000000)">
            <g id="Group-7" transform="translate(277.000000, 5081.000000)">
                <g id="Clock-Copy" transform="translate(1024.000000, 296.000000)">
                    <circle id="Clock-Frame" fill="#F2F2F2" cx="53" cy="53" r="53"></circle>
                    <circle id="Time" fill-opacity="0.1" fill="#000000" cx="53" cy="11" r="3"></circle>
                    <circle id="Time" fill-opacity="0.1" fill="#000000" cx="11" cy="53" r="3"></circle>
                    <circle id="Time" fill-opacity="0.1" fill="#000000" cx="95" cy="53" r="3"></circle>
                    <circle id="Time" fill-opacity="0.1" fill="#000000" cx="53" cy="95" r="3"></circle>
                    <polygon id="Hand" fill="#AFB9C5" points="53 17 55 52 51 52"></polygon>
                    <polygon id="Hand" fill="#AFB9C5" transform="translate(62.213203, 62.213203) rotate(135.000000) translate(-62.213203, -62.213203) " points="62.2132034 50.2132034 64.2132034 74.2132034 60.2132034 74.2132034"></polygon>
                    <circle id="Time" fill="#C5CFD6" cx="53" cy="53" r="4"></circle>
                </g>
                <g id="Background-Shape-2-Copy" opacity="0.345889137" transform="translate(339.000000, 747.000000)">
                    <path d="M0.206340551,172.384858 C7.10112455,95.3361561 377.035639,-53.3759549 445.712692,19.6030524 C514.389745,92.5820598 448.365277,229.544566 304.44354,264.617178 C160.521804,299.68979 -6.68844344,249.433559 0.206340551,172.384858 Z" id="Background-Shape" fill="#F2F2F2" transform="translate(236.500000, 138.000000) scale(-1, 1) translate(-236.500000, -138.000000) "></path>
                    <path d="M244.144372,231.447681 C250.320429,165.991794 581.692198,39.6550381 643.210212,101.65356 C704.728225,163.652082 689.156816,294.058789 560.237782,323.854345 C431.318748,353.649901 237.968315,296.903567 244.144372,231.447681 Z" id="Background-Shape" fill="#DDE3E9"></path>
                </g>
                <g id="Hanging-Lamp-Copy" transform="translate(152.000000, 0.000000)">
                    <g id="Light" transform="translate(42.000000, 329.000000)">
                        <ellipse id="Hanging-Lamp-Light" fill="#F2F2F2" cx="49.5" cy="34.5" rx="42.5" ry="22.5"></ellipse>
                        <path d="M99,50 C99,22.3857625 76.8380951,0 49.5,0 C22.1619049,0 -7.10542736e-15,22.3857625 -7.10542736e-15,50" id="Hanging-Lamp" fill="#DDE3E9"></path>
                    </g>
                    <rect id="Wire" fill="#DDE3E9" x="89" y="0" width="5" height="336"></rect>
                </g>
                <g id="Hanging-Lamp-Copy-2" opacity="0.7" transform="translate(309.000000, 0.000000)">
                    <g id="Light" transform="translate(31.000000, 246.000000)">
                        <ellipse id="Hanging-Lamp-Light" fill="#F2F2F2" cx="37" cy="27.8421053" rx="31.7676768" ry="18.1578947"></ellipse>
                        <path d="M74,40.3508772 C74,18.0657031 57.4345357,0 37,0 C16.5654643,0 -7.10542736e-15,18.0657031 -7.10542736e-15,40.3508772" id="Hanging-Lamp" fill="#DDE3E9"></path>
                    </g>
                    <rect id="Wire" fill="#DDE3E9" x="66" y="0" width="5" height="269"></rect>
                </g>
                <g id="Lamp-Copy" transform="translate(1197.000000, 490.000000)">
                    <path d="M60,36.23565 L78.567634,17.6556884 C81.6911838,14.5308497 86.7565036,14.529805 89.8813422,17.6533549 C89.8821202,17.6541326 89.882898,17.6549104 89.8836757,17.6556884 L139.316042,67.1131165 C142.315196,70.1135086 144,74.182171 144,78.4244913 L144,406" id="Body" stroke="#CBCBCB" stroke-width="8"></path>
                    <rect id="Lamp-Base" fill="#AFB9C5" x="114" y="405" width="59" height="7" rx="3"></rect>
                    <g id="Lamp-Top" transform="translate(48.083261, 49.083261) rotate(45.000000) translate(-48.083261, -49.083261) translate(14.583261, 14.583261)">
                        <path d="M33.0303119,1.38390164 L33.0303119,1.38390164 C51.2557087,1.38390164 66.0303119,16.1585049 66.0303119,34.3839016 L66.0303119,62.3839016 L0.03031192,62.3839016 L0.03031192,34.3839016 C0.03031192,16.1585049 14.8049152,1.38390164 33.0303119,1.38390164 Z" id="Lamp" fill="#C5CFD6"></path>
                        <ellipse id="Lamp" fill="#F2F2F2" cx="33.2089288" cy="61.4454002" rx="33" ry="6.5"></ellipse>
                    </g>
                </g>
                <g id="Big-Leaf-Plant-Copy" transform="translate(0.000000, 661.000000)">
                    <g id="Big-Ass-Leaf" transform="translate(22.000000, 0.000000)">
                        <path d="M25.2579539,1.17309307 C28.1225306,0.823121436 31.1799041,0.946659994 33.8438766,2.07736611 C39.5085416,4.48200834 41.1187317,11.1741436 41.0410516,16.6135182 C40.9573065,22.4680411 39.714051,28.8626602 44.1651162,33.5797909 C46.2111822,35.7484553 48.7563294,37.4081152 50.7654292,39.6166003 C52.9121851,41.9766643 54.5966293,44.6770468 55.8438343,47.5768289 C58.1338507,52.9031791 59.2578307,59.1668975 57.163736,64.7542738 C55.3199224,69.6736307 50.6810935,74.1137719 51.6834319,79.7075568 C52.728959,85.5429164 58.61221,90.0040977 62.290444,94.3505245 C66.4531656,99.2693182 70.2859018,105.555987 70.9155339,112.006469 C71.5192882,118.188324 68.8284074,124.440381 64.698769,129.113358 C56.447741,138.450738 44.0451661,143.028231 31.539564,142.999869 C26.2300259,142.987569 20.2185507,142.747768 15.6365623,139.894514 C14.2204324,139.012594 13.4733329,138.02316 12.6314834,136.647706 C11.8766749,135.414323 10.8795787,134.61206 9.72545995,133.739319 C7.18986484,131.822394 5.35871537,129.238844 4.19012177,126.346829 C-0.347779789,115.114023 3.27916675,101.217665 9.6312018,91.2428455 C11.1363537,88.8796069 12.3686453,86.6054629 11.6374364,83.7886216 C10.8743978,80.8481806 8.99901449,78.1960629 7.34025921,75.6685039 C5.70114537,73.1704875 3.82987864,70.7874137 2.54875756,68.0865102 C1.20699289,65.2571214 0.829162714,62.2942757 1.0662375,59.1977452 C1.51180331,53.3811147 4.02273241,48.0134805 7.57766153,43.3356252 C11.0017161,38.8298272 15.0221277,34.5184764 15.0311362,28.6145236 C15.0410288,22.3571379 10.8577315,16.7908073 12.6398779,10.4289791 C13.3778032,7.79466143 14.8599543,5.09183557 17.2485499,3.51252303 C19.5392578,1.99784616 22.5638536,1.50223723 25.2579539,1.17309307 Z" id="leaf" fill="#DDE3E9"></path>
                        <path d="M23.3861597,11.1764309 C23.4398778,10.3360403 24.436749,9.83200515 25.2215077,10.0513011 C26.2544664,10.3400972 26.2346007,11.3052716 26.2073293,12.1651664 C26.1237304,14.8082784 26.5062963,17.3769517 27.1416559,19.9415199 C28.4621824,25.2735426 30.9026929,30.1861254 32.8361895,35.3079558 C34.7680009,40.4254986 35.6748339,45.7092068 34.5415523,51.1242976 C33.4732058,56.2299732 31.7948008,61.2033156 30.7014513,66.3154357 C29.7377524,70.8211129 28.7123306,75.5726024 30.1799208,80.0668063 C31.5921035,84.3928044 34.714245,87.9158566 36.9624576,91.8252937 C41.6165172,99.9180775 43.681267,108.896054 43.9574365,118.135184 C44.0854233,122.425481 43.970168,126.755229 42.9748682,130.963076 C42.4020068,133.385966 41.6321776,136.660394 39.5559237,138.333163 C38.5985099,139.104565 36.9610282,139.371304 36.1552196,138.228946 C35.3986826,137.157504 36.0623713,135.498805 36.3025457,134.356816 C37.3426754,129.413332 37.551926,124.361287 37.302904,119.341696 C37.061891,114.479563 36.4874289,109.625549 34.9571817,104.98201 C33.536907,100.672738 31.379247,96.8021749 28.8398113,93.0324782 C26.2521442,89.1908938 23.562037,85.3411131 22.4928221,80.7892312 C21.4064684,76.1661343 22.2890218,71.4619848 23.4691168,66.9271792 C24.717096,62.1306341 26.3517536,57.4716876 28.0416981,52.8051023 C29.688607,48.2578629 30.2723555,43.9553657 29.3631928,39.1961513 C27.5671855,29.7935298 22.7598022,20.9681166 23.3861597,11.1764309 Z" id="middle-thing" fill="#C5CFD6"></path>
                    </g>
                    <g id="Big-Ass-Leaf" transform="translate(32.000000, 11.000000)">
                        <path d="M90.8923323,1.58227349 C94.4371815,2.65860484 97.957883,4.39521888 100.484813,7.11827966 C105.857908,12.908958 104.209295,21.6609092 101.243138,28.053245 C98.0504357,34.9333908 93.2122671,41.8490652 95.9396345,49.7432112 C97.193196,53.3723397 99.3011711,56.6591395 100.490327,60.3161304 C101.760821,64.2239944 102.30919,68.2938229 102.239325,72.3720051 C102.109984,79.8624039 100.11754,87.8547607 94.7080978,93.373143 C89.9453006,98.2317101 82.1575199,101.069515 80.3765031,108.20631 C78.5184553,115.651265 83.0609213,123.987774 85.0777737,131.041472 C87.360351,139.024107 88.5328812,148.452761 85.8618992,156.408818 C83.3025511,164.033728 76.8418128,170.027718 69.5281945,173.405772 C54.9151643,180.156033 37.9486721,179.117398 23.2958182,172.578162 C17.0747521,169.801475 10.1506305,166.390577 6.28452896,160.632591 C5.08969654,158.852907 4.73639937,157.294118 4.47600508,155.229521 C4.2426077,153.378223 3.49715739,151.910733 2.60478713,150.278208 C0.643995898,146.69213 -0.138196518,142.68415 0.0197662548,138.65605 C0.634485801,123.011122 12.2336238,108.463743 24.9562471,99.9717321 C27.9707605,97.9599181 30.6181436,95.9115216 31.2493822,92.1998602 C31.9086177,88.325468 31.1107853,84.2133878 30.5011993,80.3613088 C29.8990358,76.5543855 28.9638254,72.7626253 28.8887906,68.9019982 C28.8105393,64.857873 29.9334288,61.1573785 31.8482022,57.6186721 C35.4452563,50.9715661 41.2274568,45.9299031 47.869576,42.2471027 C54.2672493,38.6996981 61.2616135,35.6924899 64.392784,28.7150074 C67.7118026,21.3200057 65.7473551,12.5608727 71.200258,5.96432077 C73.4581719,3.232793 76.6252004,0.8074086 80.2615533,0.182273212 C83.7489295,-0.417345716 87.5584437,0.569996664 90.8923323,1.58227349 Z" id="leaf" fill="#DDE3E9"></path>
                        <path d="M83.6512541,13.8108813 C84.1542014,12.8438162 85.5838278,12.76941 86.3866021,13.4404234 C87.4431996,14.3238303 86.9144837,15.4564117 86.4322458,16.4604357 C84.9502268,19.5466855 84.0522837,22.7891134 83.4520845,26.1591764 C82.2036693,33.1656731 82.4845328,40.2624713 82.0629519,47.3413268 C81.6416462,54.4142215 79.9347993,61.1466733 75.7736201,66.9654284 C71.8504189,72.4517974 67.2831774,77.4617029 63.3273648,82.942599 C59.8407636,87.7732777 56.1532511,92.8627051 55.5155862,98.9541078 C54.9012266,104.817274 56.7068601,110.625805 57.2882412,116.433853 C58.4918732,128.456945 56.2042044,140.171178 51.6883608,151.25723 C49.5910773,156.405033 47.1887071,161.472065 43.8211358,165.93348 C41.8823541,168.502498 39.2672836,171.9767 35.9634293,172.869426 C34.4399139,173.281139 32.3854941,172.738768 32.0415379,170.963598 C31.7180544,169.298235 33.362815,167.681804 34.2417421,166.455303 C38.0470052,161.146218 40.9375702,155.273083 43.2752764,149.198186 C45.5398829,143.313954 47.4103318,137.264567 48.0529422,130.963476 C48.6490797,125.115876 48.1532232,119.401324 47.1581268,113.606123 C46.1442823,107.70051 45.0149464,101.731498 46.1486425,95.7805914 C47.2995951,89.7363667 50.7952573,84.6281193 54.5501475,79.8763654 C58.5214952,74.8502305 62.8729252,70.1897143 67.2930034,65.5491295 C71.6002552,61.0273221 74.5361665,56.238113 75.9655983,50.1255641 C78.7899076,38.049307 77.7906897,25.0782485 83.6512541,13.8108813 Z" id="middle-thing" fill="#C5CFD6"></path>
                    </g>
                    <g id="Big-Ass-Leaf" transform="translate(0.000000, 57.000000)">
                        <path d="M13.3059765,-1.56319402e-13 C19.200266,-1.56319402e-13 24.3823319,3.12436119 27.9530894,7.55793367 C32.133,12.74806 32.977213,19.0862362 34.674537,25.2719426 C35.5191207,28.3503093 36.9717453,31.4062221 39.5173606,33.4977007 C41.832736,35.3997692 44.7720948,35.7804002 47.5435009,36.7097048 C53.0822347,38.5668654 57.5546724,43.0406377 59.3209572,48.4994874 C61.4757949,55.1581758 59.1934169,61.8733613 59.5864189,68.6215035 C59.9471652,74.818799 66.0576058,78.6852277 70.9738392,81.6560327 C75.8214826,84.5855514 80.1886254,87.3278329 81.6486651,93.0347628 C83.196945,99.0875562 83.7163751,105.843666 81.5719185,111.822941 C78.0015318,121.778741 67.5524967,126.162697 57.4560511,126.842473 C48.2931709,127.459233 36.7719075,126.490815 29.8906637,119.839732 C25.7730402,115.859585 24.2818569,110.293173 24.4668644,104.75501 C24.581799,101.311223 25.2639913,97.8993066 26.1460214,94.571411 C26.7711171,92.2126578 27.6157008,89.864045 27.8563219,87.4267028 C28.4958771,80.9422138 22.5025956,79.6967428 17.4009839,77.9163603 C10.9183036,75.6535796 6.37987122,71.3797201 3.22399048,65.4254344 C0.285002382,59.8814769 -0.948134291,53.6581058 0.813701389,47.5542477 C1.71352782,44.4374919 3.34559866,41.6097404 5.55901596,39.2046306 C6.53336448,38.1460346 7.90664718,37.2630865 8.78608199,36.1508907 C9.60693725,35.1122136 9.42823254,33.766424 9.1453452,32.5499259 C7.83731568,26.930639 3.7619584,22.2775971 2.30451394,16.6684507 C0.988698535,11.6054427 1.76654602,5.30420703 6.395443,2.0378788 C8.39530446,0.626538178 10.8615778,0.0155729143 13.3059765,-1.56319402e-13 Z" id="leaf" fill="#C5CFD6"></path>
                        <path d="M21.3376913,14.6413767 C27.5850069,21.2960229 29.2831027,30.3249745 29.7814609,39.0761511 C30.0606151,43.9833868 29.7700594,49.1593434 31.2118042,53.919181 C32.4453787,57.993092 35.3373275,61.1072854 38.3182819,64.0505403 C44.3188091,69.9754389 51.0107852,75.9988444 52.7658888,84.5736503 C53.7957065,89.6058303 53.1005796,94.8035164 54.523567,99.7802864 C55.8174594,104.303997 58.0955633,108.748395 60.8665085,112.568434 C63.097535,115.644601 66.0041955,117.999712 68.4430245,120.867276 C69.1870678,121.742611 70.2529291,123.031168 69.9458228,124.266849 C69.5864899,125.714031 67.7431162,126.172161 66.4352477,125.944726 C63.385884,125.414889 60.8190633,122.503142 58.8252627,120.38633 C55.9097752,117.290969 53.432328,113.961654 51.4186666,110.227085 C49.1832266,106.079656 47.3832523,101.678717 46.6141992,97.0257156 C45.8160904,92.1985167 46.2133058,87.1677853 44.3908963,82.535065 C41.3242463,74.7399845 33.8860201,70.1398585 28.5081649,64.0643023 C21.8077295,56.4937595 22.8070205,47.0715048 23.4933204,37.7589838 C23.8703073,32.6413346 24.2450873,26.8620233 21.6591415,22.1894658 C20.6719877,20.4058395 18.4711201,18.7428117 18.0466881,16.7154534 C17.6579319,14.857947 19.7797242,12.9808841 21.3376913,14.6413767 Z" id="middle-thing" fill="#AFB9C5"></path>
                    </g>
                    <path d="M28,181 C28.0003799,219.05849 34.211229,239 67.0000931,239 C99.7889571,239 105.999806,219.05849 106,181 L28,181 Z" id="Base" fill="#D5484C"></path>
                </g>
                <g id="Table-Copy" transform="translate(153.000000, 643.000000)">
                    <g id="Lamp" transform="translate(23.000000, 0.000000)">
                        <rect id="Lamp-Base" fill="#AFB9C5" x="21" y="144" width="38" height="9" rx="2"></rect>
                        <path d="M31,115 C35.2931455,101.08547 37.6987626,86.4188034 38.2168511,71 L41,71 L42.7831489,71 C43.3012374,86.4188034 45.7068545,101.08547 50,115 L56.5,115 C65.0604136,115 72,121.939586 72,130.5 C72,139.060414 65.0604136,146 56.5,146 L23.5,146 C14.9395864,146 8,139.060414 8,130.5 C8,121.939586 14.9395864,115 23.5,115 L31,115 Z" id="Lamp-Body" fill="#DDE3E9"></path>
                        <path d="M4.62222222,1.67861504 C16.0814815,0.559538347 27.5407407,1.45972368e-15 39,0 C50.4592593,0 61.9185185,0.559538347 73.3777778,1.67861504 L78,81.1330604 C65,82.3776868 52,83 39,83 C26,83 13,82.3776868 0,81.1330604 L4.62222222,1.67861504 Z" id="Shade" fill="#C5CFD6"></path>
                    </g>
                    <path d="M21,153 L104,153 L125,153 L125,257 L104,257 L104,175 L21,175 L21,257 L0,257 L0,153 L21,153 Z" id="Table" fill="#F2F2F2"></path>
                </g>
                <g id="Plant-Copy" transform="translate(1174.000000, 620.000000)">
                    <g id="Succulents" transform="translate(13.000000, 0.000000)">
                        <path d="M3.38092413,0.208187006 C12.213925,21.197225 27.2292006,35.7805339 35.1818951,57.6048833 C39.8977667,70.5473636 41.863552,84.6195065 41.9827844,99.0319481 C42.0475621,106.860255 41.9112966,114.693588 41.8746494,122.521895 C41.8390346,130.156002 41.6315393,137.74129 40.9835037,145.326577 C40.3323712,152.952069 39.603299,160.486743 39.2817329,168.159259 C39.0313966,174.137461 38.9170678,181.09097 36.890634,186.544007 C35.2791907,190.880662 31.1834821,191.51603 30.0967128,186.256476 C29.4928087,183.332706 29.5689419,180.068279 29.6355262,177.063384 C29.7209502,173.208101 29.9452206,169.358561 30.0595494,165.503996 C30.5191876,150.036197 29.9232839,134.565527 30.2347849,119.091626 C30.5390596,103.9731 32.4823921,88.871087 30.3320805,73.8534305 C28.5564992,61.4519104 24.045542,50.802498 18.8615156,40.5931767 C13.873887,30.7708195 8.44546012,21.187174 5.07495258,10.0143908 C4.10715753,6.80560332 3.35898744,3.48051124 3,0.0301404047 C3.15691184,-0.0427294746 3.28388655,0.0164997376 3.38092413,0.208187006 Z" id="Thi-Succs!" fill="#B1D9DB"></path>
                        <path d="M0.973588404,41.6169557 C2.7226644,42.8799919 3.70001184,44.7275773 4.88222633,46.55055 C6.35238241,48.8169596 8.08078375,50.8630865 9.55056393,53.131137 C12.6152999,57.8596264 15.3078921,62.8785444 18.1016022,67.7986018 C23.4055915,77.1374401 27.4326388,87.0907728 29.4271794,97.8948808 C31.4946451,109.09156 32.052109,120.648403 32.9193169,132.012037 C33.8391512,144.05621 34.7653759,156.188167 34.8871684,168.278693 C34.9416743,173.695515 35.2345026,179.445837 34.5841907,184.824509 C34.1793433,188.173053 32.6682138,191.026883 29.2614062,190.999809 C22.0249003,190.94238 18.6274903,182.927289 17.2080811,176.353675 C15.118813,166.674363 14.7019367,156.392862 15.0327312,146.494087 C15.432316,134.55821 17.5039166,122.801595 18.4004449,110.911661 C19.3499755,98.3247808 18.8135622,85.9602344 14.4861685,74.1088605 C12.2999174,68.1197961 9.76257314,62.2743052 7.48422591,56.3250312 C6.51402064,53.7919851 5.71936199,51.1900238 4.40896463,48.831317 C2.95121334,46.2076145 1.14161698,43.8259359 -3.0475622e-14,41 C0.324404167,41.2059254 0.649184237,41.4114405 0.973588404,41.6169557 Z" id="Thi-Succs!" fill="#507A9A"></path>
                        <path d="M84.3341427,16.5176702 C84.5560133,16.345237 84.7781571,16.1728402 85,16 C84.3609397,18.6926575 83.2065589,20.8798938 82.3241537,23.3413066 C81.5309592,25.5541267 81.1289139,28.058225 80.5946654,30.4769505 C79.3401416,36.1577567 77.8904265,41.7105156 76.7055048,47.4397171 C74.3598951,58.7767524 74.8035283,70.9901843 76.3418843,83.5681524 C77.7947507,95.4496261 80.092478,107.312713 81.1873452,119.191609 C82.0949201,129.04307 82.4850091,139.201741 81.6192928,148.601 C81.0309846,154.984369 79.1025548,162.605994 73.8481376,161.961759 C71.3744617,161.658503 70.0840672,158.681129 69.5641892,155.320205 C68.7291114,149.921644 68.5543005,144.245802 68.2287956,138.877693 C67.5023548,126.895908 67.3576487,114.950973 67.2142162,103.092499 C67.078414,91.904007 66.7045185,80.493842 67.4521172,69.5872699 C68.1731866,59.0630547 70.4284885,49.5797393 73.6530782,40.8297246 C75.3514544,36.2198206 76.9696914,31.5020505 78.8779164,27.1084404 C79.7930343,25.0009936 80.9110333,23.1387509 81.826535,21.0329683 C82.5626976,19.3391662 83.148338,17.6010976 84.3341427,16.5176702 Z" id="Thi-Succs!" fill="#B1D9DB"></path>
                        <path d="M3.20880772,76.3018223 C4.16572159,74.6953252 6.27206517,79.9934093 6.59263271,80.6597751 C6.45704992,80.3283084 6.32092787,79.9973172 6.18360206,79.666614 C8.08298767,82.8249267 9.82062484,86.1127294 10.9009829,89.7341519 C11.9700503,93.3191128 12.888301,96.9765376 13.89141,100.586979 C15.7735895,107.360999 18.2016657,113.942756 19.9069626,120.7778 C21.5685818,127.438224 21.9875459,133.985891 21.5852981,140.875198 C21.1672391,148.035491 20.9114736,155.305643 21.3991881,162.462075 C21.632116,165.880018 22.7427231,169.063767 23.5039187,172.354313 C24.2660416,175.648102 24.8662939,178.985809 25.7672782,182.238759 C25.974095,181.814996 26.0004407,183.231705 25.9999945,183.339248 C25.99434,184.151918 25.8808641,184.833382 25.6194022,185.603962 C24.9475372,187.585538 23.69062,189.268993 21.7779741,189.815552 C18.3215161,190.803119 15.1122443,187.659032 13.9975999,184.339008 C12.398575,179.575285 11.5174472,174.310953 10.7554023,169.304056 C10.0567643,164.712777 9.89144111,160.094092 10.0990013,155.439587 C10.5078659,146.260651 12.1689639,137.201885 12.618303,128.025744 C13.1073521,118.035719 11.1280407,108.649277 9.47082403,98.9248264 C8.67258323,94.2391921 7.90974363,89.5977685 6.35630439,85.1336672 C5.7273694,83.3259909 4.90736765,81.7307159 4.04759418,80.0614309 C3.55838288,79.1117083 2.56905129,77.4176151 3.20880772,76.3018223 Z" id="Thi-Succs!" fill="#B1D9DB"></path>
                        <path d="M31.2520927,60.6970481 C30.8556379,72.1418193 30.1720216,83.4997745 28.6461885,94.8239462 C27.0889362,106.380282 25.300327,117.896941 23.8019539,129.46349 C22.3433779,140.722452 20.8145443,152.168401 21.0183676,163.584496 C21.1684795,171.99346 19.7741408,186.218697 29.1133695,190.368969 C38.572085,194.57188 40.6010206,176.62338 41.2221153,170.699078 C42.4123367,159.332874 42.027006,147.846855 41.4493767,136.418583 C40.8563654,124.689401 39.8664321,113.01993 38.6395466,101.333567 C37.2768349,88.3528226 36.2076085,75.3135458 35.3494633,62.2958749 C34.92489,55.8569635 34.820295,49.4286586 34.9374389,42.9881759 C35.048171,36.9106701 34.8172608,30.7703111 32.6564941,25 C32.5432773,25.0821019 32.4308129,25.1642038 32.3175887,25.2459129" id="Thi-Succs!" fill="#223554"></path>
                        <path d="M80.0827466,96.9552251 C78.3816844,99.4332953 76.6669438,101.887253 75.0605101,104.512188 C72.1861393,109.208575 69.5869207,114.431593 68.8049844,121.146824 C67.1686355,135.200365 68.4814231,150.378956 68.7982735,164.862679 C68.863082,167.822444 68.4887518,170.692884 69.6553203,173.509621 C70.713019,176.063863 72.6905254,178.01037 74.5755064,177.999958 C78.6108036,177.976942 77.9951288,168.09535 78.0017787,163.745849 C78.0139471,156.122577 77.1591232,148.422037 77.232697,140.805889 C77.3061571,133.260434 77.7650203,125.694154 78.8589994,118.527917 C79.96657,111.274547 81.5885624,104.309427 83.7291347,97.809562 C84.0261843,96.9075488 86.1579416,89.9374968 84.1438969,91.1387197" id="Thi-Succs!" fill="#507A9A"></path>
                        <path d="M62.262195,22 C59.6091513,22 59.625416,35.2259973 59.5456053,36.9248132 C59.257379,43.055394 59.3250857,49.1876151 59.1427693,55.3194261 C58.7437159,68.7008304 58.2535042,82.1995075 56.243485,95.4263249 C55.1613125,102.546754 53.9066581,109.63561 52.557063,116.701913 C51.2036854,123.788718 49.3869518,130.866913 48.4965519,138.043518 C47.6417075,144.942523 48.1247324,151.977253 48.2419898,158.910292 C48.3592472,165.885155 48.5699324,172.87396 49.4837837,179.787726 C49.7092206,181.494333 49.9736172,183.194789 50.256548,184.891145 C50.4921976,186.304569 50.3548929,188.057511 50.7535682,189.400818 C51.3928102,191.552324 54.1328514,192.256371 55.9779537,191.920134 C60.9704721,191.008604 64.1594958,184.739838 65.8650239,180.159637 C68.0429859,174.311167 69.1985389,167.967363 70.3389619,161.803978 C71.6310631,154.821324 72.3883191,147.732059 72.7434956,140.623111 C73.4655743,126.17518 72.5388625,111.711667 71.5039711,97.310071 C70.928275,89.3006645 70.263312,81.3265219 69.2458201,73.3667309 C68.2324891,65.4409736 66.9324447,57.5504802 66.0859217,49.6013503 C65.4708876,43.8246382 64.8649315,38.0401352 64.4666346,32.2412807 C64.3713156,30.8586094 64.2911267,22 62.262195,22" id="Thi-Succs!" fill="#223554"></path>
                        <path d="M58.9407927,118.138703 C58.5083549,104.252695 52.9265288,43.2589078 51.6565806,26.4671323 C51.3390091,22.2641696 48.2815387,4.76463908 47.8849122,-1.2490009e-14 C46.809561,1.346742 46.901454,22.3094454 46.9132785,27.1261944 C46.9257786,31.8908335 46.3348929,36.5764535 46.0308351,41.3154647 C45.7210339,46.1510074 38.5722965,108.600882 37.6445823,113.247206 C35.7989512,122.490734 34.5638007,131.976445 33.6110862,141.427558 C32.6830341,150.639478 31.2401108,160.357975 32.4820181,169.618161 C32.7674946,171.749969 33.2191894,173.847606 33.9546715,175.805999 C34.749276,177.922003 35.2938774,179.878687 35.9317231,182.09293 C36.9580872,185.659469 38.8148671,188.78948 41.667943,190.261798 C47.51734,193.280756 50.6582574,186.44667 52.2505069,180.496744 C54.7934439,170.994802 56.4255588,161.337812 57.190771,151.358766 C58.0374031,140.318301 59.2870808,129.255197 58.9407927,118.138703" id="Thi-Succs!" fill="#507A9A"></path>
                    </g>
                    <g id="Planter" transform="translate(0.000000, 159.000000)">
                        <rect id="Vase" fill="#FFFFFF" x="10" y="0" width="91" height="91" rx="2"></rect>
                        <rect id="Leg" fill="#C5CFD6" x="0" y="10" width="10" height="113" rx="2"></rect>
                        <rect id="Leg" fill="#C5CFD6" x="50" y="10" width="10" height="113" rx="2"></rect>
                        <rect id="Leg" fill="#C5CFD6" x="101" y="10" width="10" height="113" rx="2"></rect>
                    </g>
                </g>
                <g id="humaaan-9-copy-2" transform="translate(871.500000, 685.500000) scale(-1, 1) translate(-871.500000, -685.500000) translate(730.000000, 479.000000)">
                    <g id="Head/Front/Rad" transform="translate(157.642975, 54.487910) rotate(4.000000) translate(-157.642975, -54.487910) translate(93.581661, 5.043588)">
                        <g id="Head" stroke-width="1" transform="translate(50.764042, 29.635615)" fill="#915B3C">
                            <path d="M7.76715595,32.972133 C3.43537605,27.8014343 0.503536803,21.4646717 0.993448862,14.3641474 C2.40502192,-6.09444052 30.4100404,-1.59381185 35.8575962,8.73192646 C41.3051521,19.0576648 40.6578409,45.2497563 33.6173603,47.0952538 C30.8096263,47.8312356 24.8283182,46.0283748 18.740742,42.2970072 L22.5617966,69.7870936 L0,69.7870936 L7.76715595,32.972133 Z"></path>
                        </g>
                        <path d="M89.689363,37.1895432 C90.4180883,36.4551691 90.8155905,35.4069737 91.1594464,34.4116684 C91.5165408,33.377742 91.8635116,32.3331614 92.1005939,31.2569989 C92.5743258,29.1067666 92.5788252,26.6339615 91.0704107,24.9643068 C89.8606853,23.6254058 88.0455347,23.0248742 86.3702973,22.8943611 C85.2541935,22.8073206 84.1078919,22.9662765 83.0379931,23.3239509 C81.9764874,23.6787716 81.0614708,24.3859396 80.0324125,24.8248518 C79.9931295,22.5076731 79.602809,20.083097 78.4468164,18.1045675 C77.3344332,16.2009024 75.5609018,15.1326354 73.5411164,14.8500155 C71.4680306,14.5599757 69.4209028,15.0533001 67.5649984,16.0739089 C67.1003517,16.329513 66.6400313,16.5972932 66.1995254,16.9003652 C65.8306634,17.1541619 65.4471785,17.4598023 65.0143735,17.5630142 C64.5319024,17.678212 64.2927434,17.3948311 63.9791718,17.0368713 C63.6115212,16.6171746 63.1973194,16.2475142 62.7589767,15.9198045 C60.8207856,14.4710328 58.2777751,13.8753526 56.0323288,14.7437595 C54.9977328,15.1438603 53.9916905,15.8233466 53.2897884,16.7596736 C52.6641161,17.5943107 52.217813,18.9182769 51.3542796,19.4997833 C50.9878404,19.7466357 50.72904,19.4195919 50.3953942,19.1778763 C49.8942334,18.8146845 49.4162616,18.4139179 48.9090439,18.0606192 C48.1965856,17.5642508 47.4252029,17.1929733 46.5991355,16.9986305 C45.3898427,16.7141081 43.718672,16.7807916 43.3729126,18.3914681 C43.243123,18.9964706 43.3426284,19.6435189 43.3845937,20.2530875 C43.4421337,21.0901028 43.502183,21.9268327 43.5736538,22.7626113 C43.6279059,23.3971981 43.6965213,24.0100961 43.8142837,24.6332677 C43.8771019,24.9654483 44.0736898,25.5847197 43.9336036,25.917376 C43.7585607,26.3331725 42.9506638,26.096784 42.6055101,26.1112432 C41.9237687,26.1398761 41.2391719,26.2614474 40.6088271,26.5576703 C40.1202992,26.7873049 39.6066785,27.1250029 39.4004861,27.6944282 C39.273725,28.0442072 39.3071242,28.4034988 39.3670004,28.7633611 C39.4388173,29.195234 39.3567038,29.4242978 39.3030574,29.8600709 C38.3874352,29.4015627 35.2145126,28.3828564 34.8152798,30.0515599 C34.6823753,30.6071919 34.9850446,31.2350247 35.2159835,31.7036163 C35.6210135,32.5255065 36.152026,33.276718 36.6948925,33.9931132 C37.8272634,35.4876407 39.1791516,36.7766956 40.6336602,37.8791129 C38.929523,38.6495398 38.4846909,40.9220092 39.9601388,42.2759402 C40.611596,42.8737131 41.4875026,43.0067946 42.3092437,42.9685539 C42.6100094,42.9545703 43.0435932,42.8369944 43.2802428,42.890265 C43.4076097,42.918898 43.5439753,43.0286736 43.7204026,43.0409449 C44.8801157,43.121707 46.18926,42.8375651 47.3229287,42.575873 C49.3429738,42.1095645 51.25538,41.1363285 52.8170947,39.6540723 C53.2177119,39.273853 53.5486754,39.0549676 54.0879078,39.0605801 C54.5604284,39.0654315 55.0240368,39.1971813 55.4961248,39.2093574 C56.7452197,39.2417955 57.8714472,38.6208117 59.0313334,38.2074885 C59.1023715,39.8009471 59.5485881,41.5559301 60.1895756,42.9894816 C60.7122815,44.1584873 61.8038119,44.3283827 62.876393,44.4309287 C66.306299,44.759114 69.7483187,44.3928782 73.182551,44.3977296 C69.8581207,45.1618783 66.42285,45.4768411 63.1279252,46.3760689 C61.6385465,46.7824479 62.7758493,47.803247 63.4126835,48.5108906 C64.4612968,49.6761864 65.2409861,51.1200116 65.781776,52.6410792 C67.4080395,50.4853297 70.2825326,49.0649055 72.8291772,49.727174 C75.6430154,50.4587895 77.6243831,54.3284274 75.8250669,57.1103926 C74.7804338,58.7253498 72.8939855,59.3488068 71.3243103,60.0426572 C72.5488318,61.3373245 72.8450116,63.2494559 73.5820433,64.8601324 C73.9455407,65.654436 74.4557868,66.5525223 75.2687022,66.8293395 C75.5694679,66.9317904 75.9221495,66.940542 76.1594049,67.1898677 C76.453335,67.4985522 76.5233348,67.84367 76.8986863,68.1089769 C78.3964581,69.1679216 80.7360451,69.0863033 82.0636194,67.7044053 C83.2641731,66.4546375 82.9518128,64.4769642 81.949145,63.2098834 C83.5452108,62.533346 86.4530166,61.6632268 85.8186916,59.1345826 C89.2771513,58.9010479 97.6741911,53.1970917 93.0323965,49.0290429 C95.5798199,47.5649559 97.9201856,43.9868797 96.2838851,40.8327808 C95.0238879,38.4040192 92.0935852,37.318344 89.689363,37.1895432" id="hair" fill="#191847" transform="translate(65.805240, 41.585460) scale(-1, 1) translate(-65.805240, -41.585460) "></path>
                    </g>
                    <g id="Bottom/Standing/Jogging" transform="translate(0.000000, 186.000000)">
                        <polygon id="Leg" fill="#784931" points="122.581876 0 192.64818 118.109003 245.177749 217.960209 256.492152 217.960209 168.478122 4.83968885e-13"></polygon>
                        <g id="Accessories/Shoe/Flat-Sneaker" transform="translate(235.734377, 189.199681)" fill="#E4E4E4">
                            <path d="M2.4549122,24.173017 C1.44838679,26.8887159 0.945124089,28.9290493 0.945124089,30.2940172 C0.945124089,31.9955479 1.22905279,34.4785043 1.79691019,37.7428864 C3.77405171,37.7428864 21.5429555,37.7428864 55.1036215,37.7428864 C56.488874,33.1708144 55.6892259,30.7024998 52.7046774,30.3379427 C49.7201288,29.9733856 47.2408136,29.6442197 45.2667318,29.350445 L20.5812507,18.363605 C20.0550407,18.1294031 19.438605,18.3661225 19.2044031,18.8923326 C19.2005648,18.9009565 19.1968438,18.9096322 19.1932411,18.9183572 L17.6390523,22.6822434 C14.8761409,23.9692354 12.6309886,24.6127314 10.9035952,24.6127314 C9.53428908,24.6127314 7.65596408,24.0740589 5.26862027,22.996714 L5.26861106,22.9967344 C4.21863477,22.5229079 2.98334858,22.9899697 2.50952214,24.039946 C2.48979429,24.0836619 2.47158015,24.1280453 2.4549122,24.173017 Z" id="shoe"></path>
                        </g>
                        <path d="M230.58882,201.971029 L252.408447,195.315764 C242.848674,166.500354 231.131814,134.790051 217.257869,100.184856 C203.383923,65.5796613 188.483821,32.1847092 172.557564,2.84217094e-14 L110.931009,2.84217094e-14 C128.637583,40.7121793 147.408925,77.7044203 167.245037,110.976723 C187.081148,144.249025 208.195743,174.580461 230.58882,201.971029 Z" id="Pant" fill="#D5484C"></path>
                        <path d="M117.977161,2.84217094e-14 C111.364218,41.5043145 98.6096615,94.5308809 97.4059752,96.1672965 C96.6035178,97.2582402 67.7148424,107.018754 10.7399491,125.448839 L13.1839968,135.508746 C81.1264233,125.624572 116.926288,117.956024 120.58359,112.5031 C126.069544,104.323715 153.461651,39.7063929 164.071126,2.84217094e-14 L117.977161,2.84217094e-14 Z" id="Leg" fill="#915B3C"></path>
                        <path d="M30.7675867,116.752819 L35.0725105,132.955026 C85.8894869,137.448929 117.026171,134.201802 128.482562,123.213646 C139.938953,112.225489 152.995858,71.1542739 167.653275,-1.13686838e-13 L108.888675,-1.13686838e-13 C99.6020803,58.265776 94.4102696,88.6216304 93.3132426,91.0675632 C92.2162157,93.513496 71.3676637,102.075248 30.7675867,116.752819 Z" id="Pant" fill="#D5484C"></path>
                        <g id="Accessories/Shoe/Flat-Sneaker" transform="translate(23.101969, 146.415833) rotate(80.000000) translate(-23.101969, -146.415833) translate(-5.657625, 127.400790)" fill="#E4E4E4">
                            <path d="M2.4549122,24.173017 C1.44838679,26.8887159 0.945124089,28.9290493 0.945124089,30.2940172 C0.945124089,31.9955479 1.22905279,34.4785043 1.79691019,37.7428864 C3.77405171,37.7428864 21.5429555,37.7428864 55.1036215,37.7428864 C56.488874,33.1708144 55.6892259,30.7024998 52.7046774,30.3379427 C49.7201288,29.9733856 47.2408136,29.6442197 45.2667318,29.350445 L20.5812507,18.363605 C20.0550407,18.1294031 19.438605,18.3661225 19.2044031,18.8923326 C19.2005648,18.9009565 19.1968438,18.9096322 19.1932411,18.9183572 L17.6390523,22.6822434 C14.8761409,23.9692354 12.6309886,24.6127314 10.9035952,24.6127314 C9.53428908,24.6127314 7.65596408,24.0740589 5.26862027,22.996714 L5.26861106,22.9967344 C4.21863477,22.5229079 2.98334858,22.9899697 2.50952214,24.039946 C2.48979429,24.0836619 2.47158015,24.1280453 2.4549122,24.173017 Z" id="shoe"></path>
                        </g>
                    </g>
                    <g id="Body/Trench-Coat" transform="translate(142.215876, 172.971224) rotate(10.000000) translate(-142.215876, -172.971224) translate(21.629873, 84.066531)">
                        <path d="M186.09634,85.9103898 L214.512219,110.273039 C222.483062,113.064507 229.079794,116.302761 234.302413,119.9878 C235.507937,121.26536 236.897935,123.778279 231.586799,122.985385 C226.275664,122.19249 220.653886,121.600045 219.78973,123.38986 C218.925573,125.179676 222.004652,127.610924 220.343425,129.990831 C219.23594,131.577436 214.832232,127.091287 207.132301,116.532385 L178.330117,101.995572 L186.09634,85.9103898 Z M51.1851908,67.0593497 L67.5135661,71.2570989 C45.6560015,108.418697 33.9673444,128.058179 32.447595,130.175545 C29.0281586,134.939618 31.5117118,144.134541 32.3554893,148.952055 C25.431225,150.200285 28.6687619,139.928055 19.8991823,141.643842 C11.8947166,143.209934 4.93113126,147.948753 -2.08077631,140.688319 C-2.94284914,139.795691 -3.4691563,137.120509 -0.310508685,135.930135 C7.55883442,132.964482 19.2541913,127.250244 21.2246046,124.895526 C23.911615,121.684447 33.8984771,102.405722 51.1851908,67.0593497 Z" id="Skin" fill="#915B3C" transform="translate(116.336703, 108.058463) rotate(-4.000000) translate(-116.336703, -108.058463) "></path>
                        <path d="M191.393712,83.4672988 C195.257058,83.1868088 199.459431,83.8340466 203.964953,85.3692797 C206.181984,86.1247216 207.373678,88.5546944 206.626677,90.7967758 C206.192824,92.0989583 205.200432,93.0513672 204.010293,93.4730425 C204.872398,94.1090908 205.742139,94.741628 206.619611,95.370591 L199.044481,111.009615 C167.167942,94.9363546 137.207046,82.8179912 123.554528,56.2823306 C118.972391,47.3762769 120.523314,17.1243998 120.085951,6.11889398 L130.153611,1.94340686 C144.187537,31.280282 163.180399,59.425453 191.393712,83.4672988 Z" id="Back-Arm" fill="#242E4E"></path>
                        <path d="M84.7206157,108.439394 C114.314775,111.72721 137.608625,111.72721 154.602165,108.439394 C156.707551,108.032056 156.615093,98.853616 155.638723,96.3468975 C140.434101,57.3107664 130.432379,28.734488 130.432379,1.62087064 C127.642522,3.09461834 122.76001,3.31547786 115.784841,2.28344918 C97.0391831,30.2249037 88.4224715,62.2845258 84.7206157,108.439394 Z" id="Shirt" fill="#F3F9EF"></path>
                        <path d="M79.2192617,113.062262 C78.2128913,112.114411 77.6875644,110.695131 77.9426709,109.232003 L78.4485078,106.330846 C78.7768058,104.447937 80.3055484,103.075502 82.111303,102.862768 C82.4271043,101.435009 82.6993953,100.016817 82.9242912,98.6090061 C84.8246637,86.71299 81.5777771,75.0485601 81.7302626,63.5940311 C66.5934146,76.6546166 53.0144716,99.2066009 40.9934337,131.249984 L23.2145428,125.959314 C23.892908,123.410635 24.5955751,120.893259 25.322544,118.407187 C23.270499,117.228247 20.8726778,111.824844 22.5983808,110.920641 C24.3806505,109.986799 26.2687548,109.32953 28.2571322,108.942675 C44.5587031,59.2882612 71.2167325,22.9740365 108.231221,-4.54747351e-13 L113.315977,-4.4941828e-13 L118.936848,-1.0658141e-14 C115.784841,42.1542219 159.321487,134.185745 144.20446,212.783978 C116.262907,219.094322 76.3727268,199.460738 37.5432941,215.146677 C38.9880277,183.496748 67.9256376,146.315706 79.2192617,113.062262 Z" id="Coat-Front" fill="#242E4E"></path>
                        <polygon id="Shade-Lapel" fill-opacity="0.1" fill="#000000" points="112.119036 0.951976447 107.262516 16.0555065 117.042469 27.3779321 108.203856 36.2755447 129.587007 73.3021864 103.437835 36.3495184 112.119036 27.3779321 103.437835 17.3721025"></polygon>
                        <path d="M123.315563,87.5818331 C121.236012,87.5818331 119.550202,85.8769756 119.550202,83.7739273 C119.550202,81.670879 121.236012,79.9660216 123.315563,79.9660216 C125.395114,79.9660216 127.080924,81.670879 127.080924,83.7739273 C127.080924,85.8769756 125.395114,87.5818331 123.315563,87.5818331 Z M128.022264,109.477291 C125.942712,109.477291 124.256903,107.772434 124.256903,105.669386 C124.256903,103.566337 125.942712,101.86148 128.022264,101.86148 C130.101815,101.86148 131.787624,103.566337 131.787624,105.669386 C131.787624,107.772434 130.101815,109.477291 128.022264,109.477291 Z M128.963604,131.37275 C126.884053,131.37275 125.198243,129.667892 125.198243,127.564844 C125.198243,125.461796 126.884053,123.756938 128.963604,123.756938 C131.043155,123.756938 132.728965,125.461796 132.728965,127.564844 C132.728965,129.667892 131.043155,131.37275 128.963604,131.37275 Z" id="Buttons" fill-opacity="0.4" fill="#000000"></path>
                    </g>
                </g>
                <g id="A-Human/Standing" transform="translate(385.000000, 505.000000)">
                    <g id="Head/Front/Short-Beard" transform="translate(74.073333, 0.000000)">
                        <g id="Head" stroke-width="1" transform="translate(48.838235, 28.019231)" fill="#D4A181">
                            <path d="M7.4724977,31.1737684 C3.30505011,26.2850897 0.484434409,20.2939466 0.955760949,13.5806987 C2.31378395,-5.76203783 29.2563917,-1.50688224 34.4972867,8.25567014 C39.7381817,18.0182225 39.1154271,42.7817462 32.3420373,44.5265866 C29.6408188,45.2224266 23.8864202,43.5178974 18.029785,39.9900458 L21.7058824,65.9807692 L0,65.9807692 L7.4724977,31.1737684 Z"></path>
                        </g>
                        <path d="M67.9532541,43.7361474 C68.7841227,55.3028261 70.9819898,61.0861654 74.5468555,61.0861654 C79.8944672,61.0861654 84.4315358,57.6934439 86.7779394,57.6934439 C88.4883879,57.6934439 88.1064973,59.8325732 86.9727225,61.4185855 C86.0373218,62.7270967 81.4819988,63.9883451 81.4819988,66.0169768 C81.4819988,68.0456086 85.0810818,66.476168 85.0810818,67.6793099 C85.0810818,69.6694533 85.7136153,73.4112789 82.2573571,73.4112789 C78.7595086,73.4112789 68.7305572,72.137393 67.0118666,66.9492152 C65.902674,63.600917 65.1855012,56.6626168 64.8603484,46.1343146 C64.6481576,46.1091161 64.4322111,46.0961538 64.2132353,46.0961538 C61.2162783,46.0961538 58.7867647,48.5241481 58.7867647,51.5192308 C58.7867647,53.0396973 59.4128816,54.4140178 60.4215025,55.3987318 C59.1658908,57.1699108 57.7587103,59.0201444 56.1462317,60.929345 C50.088499,57.2972247 45.5933168,46.6646471 51.5157338,36.4505593 C53.1527085,31.4468364 56.8585901,28.77416 61.2353255,27.5331505 C64.7807068,26.0510338 68.461148,25.8839238 71.5679646,26.7724394 C77.6581854,27.2944941 83.0964605,29.1504062 84.6377114,30.2525866 C84.6377114,36.0148086 83.5205002,37.7244429 73.9779933,37.573745 C71.6332447,38.8112769 69.8307202,40.9423053 67.9532541,43.7361474 Z" id="Hair" fill="#191847"></path>
                    </g>
                    <g id="Bottom/Standing/Skinny-Jeans" transform="translate(0.000000, 169.880282)">
                        <polygon id="Leg" fill="#37566E" points="115.626667 9.9475983e-14 148.376983 115.515646 172.271951 200.656904 189.7 200.656904 164.30818 9.9475983e-14"></polygon>
                        <path d="M106.868256,0 C106.110744,59.5381033 103.527643,92.0118027 102.732287,97.4210983 C101.936931,102.830394 89.9107286,137.242329 66.6536797,200.656904 L84.7079576,200.656904 C114.31596,139.821455 130.843905,105.40952 134.291791,97.4210983 C137.739678,89.432677 148.380192,56.9589776 164.406667,0 L106.868256,0 Z" id="Leg" fill="#507A9A"></path>
                        <g id="Accessories/Shoe/Flat-Pointy" transform="translate(65.040000, 180.682008)" fill="#191847">
                            <path d="M0,36 L0.901639344,17.1 L19.8360656,17.1 C28.8142325,23.4 40.5355439,28.5 55,32.4 L55,36 L20.7377049,36 L9.01639344,34.2 L9.01639344,36 L0,36 Z" id="Shoe"></path>
                        </g>
                        <g id="Accessories/Shoe/Flat-Pointy" transform="translate(169.826667, 180.682008)" fill="#191847">
                            <path d="M0,36 L0.901639344,17.1 L19.8360656,17.1 C28.8142325,23.4 40.5355439,28.5 55,32.4 L55,36 L20.7377049,36 L9.01639344,34.2 L9.01639344,36 L0,36 Z" id="Shoe"></path>
                        </g>
                    </g>
                    <g id="Body/Lab-Coat" transform="translate(19.873333, 74.492958)">
                        <path d="M171.769139,80.5545651 L199.007847,103.819702 C206.648487,106.485418 212.971939,109.577792 217.978203,113.096824 C219.133787,114.316831 220.466201,116.716546 215.375088,115.95937 C210.283974,115.202195 204.895086,114.636438 204.066729,116.345625 C203.238372,118.054811 206.189895,120.376534 204.597487,122.649229 C203.535881,124.164359 199.314603,119.880306 191.933653,109.797072 L164.324644,95.9151268 L171.769139,80.5545651 Z M48.4262088,70.4871992 L64.4083214,72.8255768 C47.2529402,110.325145 38.0557371,130.157088 36.8167118,132.321407 C34.028905,137.191124 37.307553,145.673016 38.589258,150.163127 C32.1118752,152.047583 34.180532,141.965022 25.9902939,144.479806 C18.5146243,146.775184 12.345599,151.97869 4.94163635,145.791147 C4.03136265,145.030424 3.26456863,142.54288 6.15783731,141.093502 C13.3660247,137.482572 23.9493103,130.875031 25.5944468,128.439801 C27.8378844,125.11893 35.4484717,105.801396 48.4262088,70.4871992 Z" id="Skin" fill="#D4A181"></path>
                        <path d="M110.93662,8.34817822 L120.514535,4.19816812 C136.843771,36.707992 159.65336,67.5496 195.408076,92.1577968 L188.415878,107.212305 C157.587341,92.3835572 128.662752,81.2997032 115.121891,56.1860476 C110.577228,47.7572556 111.54466,18.8487237 110.93662,8.34817822 Z" id="Coat-Back" fill="#8EB0B1" transform="translate(153.172348, 55.705237) rotate(5.000000) translate(-153.172348, -55.705237) "></path>
                        <path d="M81.2109375,100 C109.579115,103.030303 131.907982,103.030303 148.197539,100 C150.215706,99.6245658 150.534098,96.220353 149.598176,93.9099689 C135.023428,57.9312752 125.029022,26.5378423 125.029022,1.54785212 C122.35474,2.90617109 117.674493,3.10973216 110.988281,2.15853535 C93.0191898,27.9115238 84.7594384,57.4601315 81.2109375,100 Z" id="Shirt" fill="#223554"></path>
                        <path d="M106.521135,5.4678484e-14 L114.009711,5.00710584e-14 C115.75335,10.3317009 126.666966,86.6023528 143.644637,132.36906 L64.4140959,132.36906 C65.7769736,103.678065 70.1674177,83.0136917 76.2019723,65.3206335 C63.7028388,78.6036483 52.6981311,99.3369786 43.187849,127.520625 L25.9808418,123.070589 C38.7747248,67.528652 65.0788658,26.7050162 104.893265,0.599681522 C104.979376,0.400206364 105.06547,0.200314647 105.151545,5.55111512e-14 L105.814246,5.51225732e-14 C106.058164,-0.157721305 106.302584,-0.314895915 106.547506,-0.47152383 L106.521135,5.42343948e-14 Z" id="Coat-Front" fill="#B1D9DB"></path>
                    </g>
                </g>
                <g id="A-Human/Standing" transform="translate(1024.000000, 831.000000) scale(-1, 1) translate(-1024.000000, -831.000000) translate(874.000000, 618.000000)">
                    <g id="Head/Front/Long" transform="translate(82.000000, 0.000000)">
                        <path d="M95.7620125,45.2901669 C99.2090333,57.9923169 103.701116,86.5437798 99.1172687,91.0224659 L70.1172687,91.0224659 C70.1143073,90.9710129 70.1114038,90.9196907 70.108558,90.8684989 C59.3599056,89.678999 51,80.5657798 51,69.5 L51,48.5 C51,36.6258779 60.6258779,27 72.5,27 L74.5,27 C85.2832975,27 94.2124503,34.9385375 95.7620125,45.2901669 Z" id="Hair-Back" fill="#191847"></path>
                        <g id="Head" stroke-width="1" transform="translate(54.000000, 31.000000)" fill="#D4A181">
                            <path d="M8.26227388,34.4901268 C3.65436435,29.0813759 0.535634794,22.4528771 1.05677633,15.0254539 C2.55833022,-6.37502057 32.3485306,-1.66718886 38.1433414,9.13393292 C43.9381521,19.9350547 43.249578,47.3329958 35.7603014,49.2634576 C32.7735882,50.033323 26.4110012,48.1474609 19.935372,44.244306 L24,73 L0,73 L8.26227388,34.4901268 Z"></path>
                        </g>
                        <path d="M68.7499646,61.874834 C69.855742,73.75284 69.4127345,87.3172649 66.1172687,90.5371269 L37.1172687,90.5371269 C35.5014749,62.4634848 51.1172687,73.3348557 51.1172687,46.9027926 C52.0908529,45.9515442 53.0108111,45.0100255 53.9211179,44.1980592 L53.888877,43.4207004 C58.9105508,33.1402335 65.2813979,28 73.0014183,28 C84.581449,28 88.2365853,33.3883223 91.3486809,37.9630857 C89.0215226,45.9481754 79.9904303,47.1321867 71.9657406,52.1095118 C71.0198539,51.3410043 69.8137154,50.8804131 68.5,50.8804131 C65.4624339,50.8804131 63,53.3428469 63,56.3804131 C63,59.4179792 65.4624339,61.8804131 68.5,61.8804131 C68.5837722,61.8804131 68.6671069,61.8785402 68.7499646,61.874834 Z" id="Hair-Front" fill="#191847"></path>
                    </g>
                    <g id="Bottom/Standing/Skirt" transform="translate(0.000000, 187.000000)">
                        <path d="M97.4078252,98.0880741 C121.397173,104.797924 142.094458,108.152849 159.499678,108.152849 C176.904899,108.152849 193.071673,102.986324 208,92.6532736 C184.524241,85.7662231 165.190908,82.3226979 150,82.3226979 C134.809092,82.3226979 117.278368,87.5778233 97.4078252,98.0880741 Z" id="Skirt-Shadow" fill="#242E4E"></path>
                        <path d="M180.266835,117.824327 C180.035521,117.476585 179.840175,117.098311 179.685231,116.688552 C176.478637,108.208488 125.116885,16.7255336 120,0 L177.826087,0 C181.716527,12.7166594 199.227018,92.5197596 201.69132,108.441654 C209.466648,133.556719 225.475271,214.895245 227.518903,220.530129 C229.66877,226.457932 217.572184,232.63317 214.348729,225.345671 C209.219667,213.750031 196.998649,181.665102 191.557135,162.074268 C186.455728,143.707903 182.301821,127.184501 180.266835,117.824327 Z" id="Leg" fill="#D4A181"></path>
                        <path d="M132.957062,128.993595 C109.475313,134.928474 23.5840287,145.657684 17.6897926,147.340533 C11.6264626,149.07166 6.31008232,136.573779 13.8046857,133.866526 C25.7298651,129.558829 58.589132,119.605712 78.5118243,115.544042 C94.5364316,112.27708 109.159082,109.611243 118.976345,108.050159 C118.144649,80.4734403 114.342756,14.2935455 116.834687,1.42108547e-14 L168,1.42108547e-14 C165.610405,13.7065491 145.410112,113.717714 141.6556,123.728549 C140.464101,127.302484 136.908919,128.8819 132.957062,128.993595 L132.957062,128.993595 Z" id="Leg" fill="#D4A181"></path>
                        <g id="Accessories/Shoe/Flat-Sneaker" transform="translate(24.500000, 157.000000) rotate(80.000000) translate(-24.500000, -157.000000) translate(-6.000000, 137.000000)" fill="#E4E4E4">
                            <path d="M2.67813181,25.4019242 C1.55937727,28.3884109 1,30.6229931 1,32.1056708 C1,33.908957 1.3004142,36.5404001 1.90124261,40 C3.99318117,40 22.7937852,40 58.3030548,40 C59.768738,35.1545073 58.9226607,32.5385816 55.7648228,32.1522232 C52.606985,31.7658647 49.9837155,31.4170139 47.8950143,31.1056708 L21.6799926,19.4188835 C21.1755635,19.1940064 20.584344,19.4206282 20.359467,19.9250573 C20.35562,19.9336867 20.3518954,19.9423702 20.3482945,19.9511052 L18.6632131,24.038695 C15.7398812,25.4026522 13.3643706,26.0846307 11.5366811,26.0846307 C10.0517269,26.0846307 8.00099246,25.4849054 5.38447792,24.2854549 L5.38448339,24.285443 C4.38038273,23.8251478 3.19325534,24.2659892 2.73296014,25.2700899 C2.71312074,25.3133681 2.69483298,25.3573409 2.67813181,25.4019242 Z" id="shoe"></path>
                        </g>
                        <g id="Accessories/Shoe/Flat-Sneaker" transform="translate(208.000000, 199.000000)" fill="#E4E4E4">
                            <path d="M2.67813181,25.4019242 C1.55937727,28.3884109 1,30.6229931 1,32.1056708 C1,33.908957 1.3004142,36.5404001 1.90124261,40 C3.99318117,40 22.7937852,40 58.3030548,40 C59.768738,35.1545073 58.9226607,32.5385816 55.7648228,32.1522232 C52.606985,31.7658647 49.9837155,31.4170139 47.8950143,31.1056708 L21.6799926,19.4188835 C21.1755635,19.1940064 20.584344,19.4206282 20.359467,19.9250573 C20.35562,19.9336867 20.3518954,19.9423702 20.3482945,19.9511052 L18.6632131,24.038695 C15.7398812,25.4026522 13.3643706,26.0846307 11.5366811,26.0846307 C10.0517269,26.0846307 8.00099246,25.4849054 5.38447792,24.2854549 L5.38448339,24.285443 C4.38038273,23.8251478 3.19325534,24.2659892 2.73296014,25.2700899 C2.71312074,25.3133681 2.69483298,25.3573409 2.67813181,25.4019242 Z" id="shoe"></path>
                        </g>
                        <path d="M117,3.55271368e-15 C139.546839,-6.45073907 160.880173,-6.45073907 181,3.55271368e-15 C188,31.9374682 205.00894,44.6134741 208,93.5789257 C174,110.472724 132,81.5304571 97,98.005311 C87,74.9611073 101,19.4645181 117,3.55271368e-15 Z" id="Skirt" fill="#223554"></path>
                    </g>
                    <g id="Body/Long-Sleeve" transform="translate(22.000000, 82.000000)">
                        <path d="M192,65.3107899 L231.482876,59.9251648 C239.381053,55.5320264 246.646993,52.5579486 253.280695,51.0029313 C255.147488,50.9484265 258.117196,51.6270536 253.693154,55.3151968 C249.269111,59.00334 244.780296,63.0831966 245.568527,65.0514942 C246.356757,67.0197919 250.471061,66.2874533 251.152638,69.3148625 C251.607023,71.3331352 244.929759,71.6610844 231.120845,70.2987101 L199.083874,83 L192,65.3107899 Z M67.9697919,74.4496834 L89.8671837,74.5318631 C65.8560993,128.56567 53.3363474,156.856914 52.3079281,159.405597 C49.9939846,165.140133 54.8906002,173.873732 56.9845874,178.567103 C50.1645409,181.61887 50.8912241,170.316929 42.2879189,174.319492 C34.4352209,177.972846 28.4616931,184.59248 19.3890352,178.994371 C18.2736052,178.306117 17.0512757,175.714714 20.0045784,173.68967 C27.3623323,168.644547 37.9653015,159.814672 39.3979297,156.908251 C41.3515741,152.944826 50.8755281,125.458637 67.9697919,74.4496834 Z" id="Skin" fill="#D4A181"></path>
                        <path d="M123.473568,9.66927317 L140.652814,9.31280705 C148.188654,47.0006412 173.203746,69.0336905 223.790464,56.4079457 L234.893349,104.819132 C187.489073,115.210412 143.760505,99.6935282 130.595778,48.4746485 C127.187846,35.2156986 124.201379,21.3681777 123.473568,9.66927317 Z" id="Clothes-Back" fill="#B1D9DB" transform="translate(179.183459, 58.591470) rotate(5.000000) translate(-179.183459, -58.591470) "></path>
                        <path d="M119.490817,0.0159395536 L145.467604,5.96527657 C145.467604,50.6444246 159.700025,79.150459 167,112 L96.8436541,112 C95.8553795,123.350899 95.2484887,135.017565 94.9322404,147 L42.4016357,147 C54.3053653,83.6639633 79.4301113,34.6639633 117.775873,0 L119.477154,0 L119.490817,0.0159395536 Z" id="Clothes" fill="#B1D9DB"></path>
                        <path d="M107.912453,48.2592493 C106.104463,76.1005287 107.167794,97.3474456 111.102445,112 L96.8436541,112 C98.8014235,89.5139021 102.255877,68.2669888 107.91245,48.25926 Z" id="Shade" fill-opacity="0.1" fill="#000000"></path>
                    </g>
                </g>
                <g id="humaaan-3-copy-2" transform="translate(215.000000, 567.000000)">
                    <g id="Head/Front/Afro" transform="translate(133.219486, 73.532869) rotate(-15.000000) translate(-133.219486, -73.532869) translate(59.569689, 17.301852)">
                        <path d="M66.0766571,83.4290236 C78.4567556,83.4290236 82.9592402,68.7386787 89.9927442,60.6770161 C95.0250722,54.9090619 103.613701,56.6289677 106.155941,48.5539572 C112.548633,28.2486179 95.4386414,13.9572919 73.1176124,13.9572919 C50.7965833,13.9572919 35.7463883,26.4912109 32.4967166,45.3330437 C29.2470449,64.1748764 43.755628,83.4290236 66.0766571,83.4290236 Z" id="Hair-Back" fill="#191847"></path>
                        <g id="Head" stroke-width="1" transform="translate(58.494090, 33.282773)" fill="#D4A181">
                            <path d="M8.94989243,37.029905 C3.95849475,31.2228654 0.580212404,24.1062584 1.14472537,16.1318958 C2.77124441,-6.84446329 35.0407011,-1.78995704 41.3177785,9.80653596 C47.5948559,21.403029 46.8489759,50.8184952 38.7364127,52.8911119 C35.5011336,53.7176686 28.6090274,51.6929357 21.5944711,47.5023609 L25.9973733,78.3755619 L0,78.3755619 L8.94989243,37.029905 Z"></path>
                        </g>
                        <path d="M78.4034947,55.5321642 C77.4589286,55.0368551 76.3766215,54.7555296 75.2262901,54.7555296 C71.5431019,54.7555296 68.557288,57.6396338 68.557288,61.1973566 C68.557288,62.64944 69.0546833,63.9893079 69.8938781,65.0666647 C68.3137203,67.6481843 67.2352552,70.3605135 66.8817511,73.1488488 C61.4047504,73.1488488 41.4155274,52.6082539 61.3286595,33.2827729 C81.2417915,13.9572919 110.018732,41.5454465 101.371515,43.1543647 C96.3998077,44.0794103 86.3869402,48.7838575 78.4034975,55.5321622 Z" id="Hair" fill="#191847"></path>
                    </g>
                    <g id="Bottom/Standing/Baggy-Pants" transform="translate(0.000000, 218.435876)">
                        <polygon id="Leg" fill="#BA8B72" points="145.152001 0 198.318405 134.045997 233.977332 247.370589 248.05827 247.370589 193.543607 5.49273047e-13"></polygon>
                        <path d="M134.446096,0 C133.87995,47.1046838 125.623459,110.523495 124.304351,113.459761 C123.424945,115.417272 93.0664339,140.310433 33.2288184,188.139245 L42.9271567,198.47754 C113.529999,157.470335 150.464997,134.232057 153.732149,128.762706 C158.632877,120.55868 174.58796,45.0641603 187.397732,0 L134.446096,0 Z" id="Leg" fill="#D4A181"></path>
                        <g id="Accessories/Shoe/Flat-Sneaker" transform="translate(55.786030, 203.938854) rotate(50.000000) translate(-55.786030, -203.938854) translate(22.747702, 182.358023)" fill="#E4E4E4">
                            <path d="M2.90101634,27.5159711 C1.68915471,30.7510048 1.08322389,33.1715576 1.08322389,34.7776295 C1.08322389,36.7309922 1.40863973,39.5814342 2.05947141,43.3289555 C4.32550923,43.3289555 24.6907726,43.3289555 63.1552616,43.3289555 C64.7429247,38.080202 63.8264335,35.2465689 60.4057881,34.8280561 C56.9851428,34.4095434 54.1435546,34.0316599 51.8810236,33.6944057 L23.4842859,21.0349984 C22.9378762,20.7914062 22.2974531,21.0368884 22.053861,21.5832981 C22.0496938,21.5926456 22.0456593,21.6020518 22.0417587,21.6115137 L20.2164382,26.0392887 C17.0498153,27.5167596 14.4766054,28.2554951 12.4968086,28.2554951 C10.8882707,28.2554951 8.66686616,27.6058583 5.8325951,26.3065849 L5.83260102,26.3065719 C4.74493521,25.8079692 3.45901046,26.2854991 2.96040771,27.373165 C2.9389172,27.420045 2.91910746,27.4676773 2.90101634,27.5159711 Z" id="shoe"></path>
                        </g>
                        <g id="Accessories/Shoe/Flat-Sneaker" transform="translate(225.310568, 214.729269)" fill="#E4E4E4">
                            <path d="M2.90101634,27.5159711 C1.68915471,30.7510048 1.08322389,33.1715576 1.08322389,34.7776295 C1.08322389,36.7309922 1.40863973,39.5814342 2.05947141,43.3289555 C4.32550923,43.3289555 24.6907726,43.3289555 63.1552616,43.3289555 C64.7429247,38.080202 63.8264335,35.2465689 60.4057881,34.8280561 C56.9851428,34.4095434 54.1435546,34.0316599 51.8810236,33.6944057 L23.4842859,21.0349984 C22.9378762,20.7914062 22.2974531,21.0368884 22.053861,21.5832981 C22.0496938,21.5926456 22.0456593,21.6020518 22.0417587,21.6115137 L20.2164382,26.0392887 C17.0498153,27.5167596 14.4766054,28.2554951 12.4968086,28.2554951 C10.8882707,28.2554951 8.66686616,27.6058583 5.8325951,26.3065849 L5.83260102,26.3065719 C4.74493521,25.8079692 3.45901046,26.2854991 2.96040771,27.373165 C2.9389172,27.420045 2.91910746,27.4676773 2.90101634,27.5159711 Z" id="shoe"></path>
                        </g>
                        <polygon id="Pant" fill="#B1D9DB" points="180.898389 235.698164 247.846461 228.460426 198.229971 2.84217094e-14 138.267109 2.84217094e-14"></polygon>
                        <path d="M47.0768647,171.46022 L90.9908065,223.238549 C137.244415,172.916367 164.21039,140.081135 171.888731,124.732851 C179.567071,109.384568 186.469509,67.8069508 192.596043,0 L125.088686,0 C121.742062,59.6535976 119.486205,90.8683833 118.321114,93.6443571 C117.156023,96.4203309 93.4079397,122.358952 47.0768647,171.46022 Z" id="Pant" fill="#B1D9DB"></path>
                    </g>
                    <g id="Body/Hoodie" transform="translate(161.379703, 207.081536) rotate(-10.000000) translate(-161.379703, -207.081536) translate(22.744790, 105.973841)">
                        <path d="M206.658758,99.3936359 L241.211727,124.641647 C250.583204,127.157953 258.41277,130.288662 264.700425,134.033775 C266.185678,135.380493 267.980746,138.107822 261.821041,137.636471 C255.661337,137.165121 249.160948,136.944991 248.311029,139.035621 C247.461109,141.126251 251.188629,143.626416 249.470571,146.447224 C248.3252,148.327762 242.914004,143.612382 233.236983,132.301082 L199.02048,118.182257 L206.658758,99.3936359 Z M73.9927793,100.265007 L96.6293333,100.353587 C82.6523057,145.251568 75.1067877,169.074156 73.9927793,171.821349 C71.4862604,178.002536 76.7903914,187.416376 79.0586484,192.475303 C71.6710111,195.764766 72.4581718,183.582541 63.1388661,187.896855 C54.632636,191.834761 48.161968,198.969984 38.3342483,192.935851 C37.1259879,192.19399 35.8019313,189.400748 39.0010193,187.217978 C46.9711142,181.779901 58.4565037,172.262287 60.0083607,169.129491 C62.124595,164.857363 66.7860678,141.902535 73.9927793,100.265007 Z" id="Skin" fill="#D4A181"></path>
                        <path d="M132.97336,10.3481797 L142.165152,7.93920655 C179.390049,34.6706661 198.612235,90.5999133 243.699051,117.174215 L234.587047,130.66642 C160.172962,128.036954 135.824211,59.8956426 132.97336,10.3481797 Z" id="Coat-Back" fill="#D5484C" transform="translate(188.336205, 69.302813) rotate(5.000000) translate(-188.336205, -69.302813) "></path>
                        <path d="M97.4901498,122.87921 C135.047424,122.87921 162.673768,122.87921 180.369181,122.87921 C184.15633,122.87921 183.442714,117.437641 182.895259,114.691796 C176.576962,83.0014209 151.912731,48.8407301 151.912731,3.730279 L128.006517,0 C108.233006,31.6450688 101.394984,70.6065558 97.4901498,122.87921 Z" id="Shirt" fill="#F3F9EF"></path>
                        <path d="M98.1561606,31.1056416 C94.684083,30.112508 91.934557,27.7962104 89.9075826,24.1567487 C81.1698189,8.46796831 84.3254343,-0.169867342 93.6633326,-3.0091727 C103.001231,-5.84847805 111.328681,-2.17603713e-14 126.206449,-7.10542736e-15 C127.015676,-6.66133815e-15 127.756836,0.0504802177 128.42993,0.151440653 L135.91382,0.576389666 C157.385916,72.9893825 163.307792,121.302204 153.679448,145.514854 L88.4471954,145.514854 C84.5822537,154.482742 80.8838308,162.027956 77.3519265,168.150498 L59.5773138,168.150498 C57.9044729,114.328424 70.7640886,68.6468053 98.1561606,31.1056416 Z" id="Coat-Front" fill="#D5484C"></path>
                        <path d="M102.651959,108.325175 C104.703501,125.405805 108.037943,137.802365 112.655284,145.514854 L88.4471954,145.514854 C92.9555418,135.054064 97.6904629,122.657504 102.651959,108.325174 Z" id="Shade" fill-opacity="0.1" fill="#000000"></path>
                    </g>
                </g>
            </g>
        </g>
    </g>
</svg>