<?xml version="1.0" encoding="UTF-8"?>
<svg width="1515px" height="924px" viewBox="0 0 1515 924" version="1.1" xmlns="http://www.w3.org/2000/svg" xmlns:xlink="http://www.w3.org/1999/xlink">
    <!-- Generator: Sketch 53.2 (72643) - https://sketchapp.com -->
    <title>Group</title>
    <desc>Created with Sketch.</desc>
    <defs>
        <linearGradient x1="50%" y1="100%" x2="50%" y2="1.01087416%" id="linearGradient-1">
            <stop stop-color="#F3F9EF" stop-opacity="0" offset="0%"></stop>
            <stop stop-color="#B1D9DB" offset="100%"></stop>
        </linearGradient>
        <path d="M1249.80442,1308.16214 C1503.69657,1332.76315 1793,1240.08415 1793,1001.48383 C1793,543.951659 250.447468,140 215.347854,140 C215.347854,140 89,849.592751 89,856.487571 C89,863.382391 995.912267,1283.56113 1249.80442,1308.16214 Z" id="path-2"></path>
        <linearGradient x1="49.8439713%" y1="100.100223%" x2="49.8439713%" y2="0.0405105954%" id="linearGradient-4">
            <stop stop-color="#808080" stop-opacity="0.25" offset="0%"></stop>
            <stop stop-color="#808080" stop-opacity="0.12" offset="54%"></stop>
            <stop stop-color="#808080" stop-opacity="0.1" offset="100%"></stop>
        </linearGradient>
        <linearGradient x1="50.0198325%" y1="99.8921746%" x2="50.0198325%" y2="-0.0832806081%" id="linearGradient-5">
            <stop stop-color="#808080" stop-opacity="0.25" offset="0%"></stop>
            <stop stop-color="#808080" stop-opacity="0.12" offset="54%"></stop>
            <stop stop-color="#808080" stop-opacity="0.1" offset="100%"></stop>
        </linearGradient>
        <linearGradient x1="50.0518784%" y1="100.024815%" x2="50.0518784%" y2="0.0216196479%" id="linearGradient-6">
            <stop stop-color="#808080" stop-opacity="0.25" offset="0%"></stop>
            <stop stop-color="#808080" stop-opacity="0.12" offset="54%"></stop>
            <stop stop-color="#808080" stop-opacity="0.1" offset="100%"></stop>
        </linearGradient>
        <linearGradient x1="50.1989814%" y1="100.083472%" x2="50.1989814%" y2="0.0834724541%" id="linearGradient-7">
            <stop stop-color="#808080" stop-opacity="0.25" offset="0%"></stop>
            <stop stop-color="#808080" stop-opacity="0.12" offset="54%"></stop>
            <stop stop-color="#808080" stop-opacity="0.1" offset="100%"></stop>
        </linearGradient>
        <linearGradient x1="49.9904077%" y1="99.9952117%" x2="49.9904077%" y2="-2.40615977e-05%" id="linearGradient-8">
            <stop stop-color="#808080" stop-opacity="0.25" offset="0%"></stop>
            <stop stop-color="#808080" stop-opacity="0.12" offset="54%"></stop>
            <stop stop-color="#808080" stop-opacity="0.1" offset="100%"></stop>
        </linearGradient>
        <linearGradient x1="49.9892833%" y1="100.146511%" x2="49.9892833%" y2="0.0251034293%" id="linearGradient-9">
            <stop stop-color="#808080" stop-opacity="0.25" offset="0%"></stop>
            <stop stop-color="#808080" stop-opacity="0.12" offset="54%"></stop>
            <stop stop-color="#808080" stop-opacity="0.1" offset="100%"></stop>
        </linearGradient>
        <linearGradient x1="49.9892833%" y1="100.189415%" x2="49.9892833%" y2="0.0680071493%" id="linearGradient-10">
            <stop stop-color="#808080" stop-opacity="0.25" offset="0%"></stop>
            <stop stop-color="#808080" stop-opacity="0.12" offset="54%"></stop>
            <stop stop-color="#808080" stop-opacity="0.1" offset="100%"></stop>
        </linearGradient>
        <linearGradient x1="50.0356718%" y1="99.6250391%" x2="50.0356718%" y2="-0.06228482%" id="linearGradient-11">
            <stop stop-color="#808080" stop-opacity="0.25" offset="0%"></stop>
            <stop stop-color="#808080" stop-opacity="0.12" offset="54%"></stop>
            <stop stop-color="#808080" stop-opacity="0.1" offset="100%"></stop>
        </linearGradient>
    </defs>
    <g id="LAST-VERSION-HERE" stroke="none" stroke-width="1" fill="none" fill-rule="evenodd">
        <g id="Term-of-Us" transform="translate(-405.000000, 0.000000)">
            <g id="Group" transform="translate(356.000000, -327.000000)">
                <path d="M1249.61846,1312.20773 C1503.51061,1336.80874 1792.81404,1244.12974 1792.81404,1005.52943 C1792.81404,547.99725 250.261505,144.045591 215.161892,144.045591 C215.161892,144.045591 88.8140377,853.638342 88.8140377,860.533162 C88.8140377,867.427982 995.726305,1287.60672 1249.61846,1312.20773 Z" id="Oval-3-Copy-2" fill="url(#linearGradient-1)" transform="translate(940.814038, 730.045591) scale(-1, 1) rotate(-10.000000) translate(-940.814038, -730.045591) "></path>
                <g id="undraw_accept_terms_4in8-2">
                    <mask id="mask-3" fill="white">
                        <use xlink:href="#path-2"></use>
                    </mask>
                    <use id="Mask" fill-opacity="0" fill="#D5484C" transform="translate(941.000000, 726.000000) scale(-1, 1) rotate(-10.000000) translate(-941.000000, -726.000000) " xlink:href="#path-2"></use>
                    <g mask="url(#mask-3)" fill-rule="nonzero">
                        <g transform="translate(804.000000, 589.000000)">
                            <path d="M36.9,135.2 C36.9,135.2 -21.1,125 36.9,203.5 L36.9,135.2 Z" id="Path" fill="#FFBEC7"></path>
                            <path d="M35,134.8 C35,134.8 -24.3,124.4 35,204.2 L35,134.8 Z" id="Path" fill="url(#linearGradient-4)"></path>
                            <path d="M21.4,209.1 C21.4,209.1 -0.3,209.1 0.2,235.9 C0.3,245.1 6.2,253.3 15,256.2 C19.6,257.7 24.6,257.4 29,255.2 C41.1,249.3 46.2,234.7 40.3,222.6 C39.3,220.4 37.9,218.4 36.3,216.7 C32.3,212.5 27.1,209.8 21.4,209.1 Z" id="Path" fill="url(#linearGradient-5)"></path>
                            <path d="M31.9,263.5 C30,262.6 27.9,262 25.8,262 C25.8,262 4.8,267.2 8.3,292.4 C8.3,292.4 10.1,310.6 28.4,308 C41,306.2 42.4,289.7 42.2,279.6 C42,272.7 38.1,266.5 31.9,263.5 Z" id="Path" fill="url(#linearGradient-6)"></path>
                            <path d="M32.8,330.3 C31.2,329.4 29.4,328.9 27.5,328.8 C25.2,330.2 23.1,331.8 21,333.6 C17.6,336.5 14.6,339.7 12,343.4 C4.1,354.8 1.5,371.6 31,388.7 L31,366.1 C34.7,362.7 37.7,358.7 40.1,354.3 C44.8,345.7 41.5,335 32.8,330.3 Z" id="Path" fill="url(#linearGradient-7)"></path>
                            <path d="M235.4,602.5 C235.4,602.5 289.2,512.9 371.9,485.6 L367.6,534.3 L299,602.5 L235.4,602.5 Z" id="Path" fill="#DFE5EE"></path>
                            <path d="M235.4,602.5 C235.4,602.5 289.2,512.9 371.9,485.6 L367.6,534.3 L299,602.5 L235.4,602.5 Z" id="Path" fill="#000000" opacity="0.05"></path>
                            <path d="M263.5,626.4 C263.5,626.4 225.1,665.7 263.5,681 C301.9,696.3 386.4,626.4 386.4,626.4 C386.4,626.4 459.8,577.7 428.2,526.5 C428.2,526.6 392.4,485.6 263.5,626.4 Z" id="Path" fill="#B1D9DB"></path>
                            <path d="M380.4,512.9 C380.4,512.9 268.6,642.6 270.3,623.8 C270.8,618.3 264.5,607.5 255.3,594.8 C233,563.9 193.5,522.3 193.5,522.3 C150.9,518 62.9,402 62.9,402 C62.9,402 140.1,284.3 238.2,289.3 C251.1,290 239.9,267 239.2,254.1 C237.6,223.8 215,155.7 243.6,145.9 C245.9,145.1 248.3,144.9 250.7,145.1 C251.7,145.2 252.8,145.4 253.8,145.6 C267.2,149 274.3,165.9 277.8,185.6 C277.8,185.7 277.8,185.8 277.9,185.9 C283.6,217.3 284.5,248.2 288.2,265.4 C296,301.8 317.3,348.2 315.6,402 C314.5,438 343.9,475.5 363.5,496.4 C373.2,506.7 380.4,512.9 380.4,512.9 Z" id="Path" fill="#FFBEC7"></path>
                            <path d="M226,443.8 C226,443.8 227.7,362.7 213.2,342.2 C198.7,321.7 81.7,407.1 81.7,407.1 C81.7,407.1 202.9,421.6 226,443.8 Z" id="Path" fill="#000000" opacity="0.05"></path>
                            <path d="M263.5,472.8 C263.5,472.8 316.2,441.6 315.5,391.5" id="Path" fill="#000000" opacity="0.05"></path>
                            <path d="M235.4,502.7 C235.4,502.7 220.9,523.2 193.6,522.3" id="Path" fill="#000000" opacity="0.05"></path>
                            <path d="M380.4,512.9 C380.4,512.9 268.6,642.6 270.3,623.8 C270.8,618.3 264.5,607.5 255.3,594.8 C317.2,573.6 350.8,520.6 363.4,496.3 C373.2,506.7 380.4,512.9 380.4,512.9 Z" id="Path" fill="#000000" opacity="0.05"></path>
                            <path d="M410.8,536.5 C410.8,536.7 410.8,537 410.7,537.2 C409,545.8 407.7,554.5 406.3,563.3 C405.9,566.1 405.2,568.8 404.3,571.5 C401.8,578.6 398.2,585.2 393.5,591 C359.5,634.1 272.9,656.3 272.9,656.3 L272.6,655.8 L235.4,602.5 C333.6,583.7 372,485.6 372,485.6 C372.7,502 402.1,527.5 409.5,533.7 C410.3,534.4 410.8,535.4 410.8,536.5 L410.8,536.5 Z" id="Path" fill="#DFE5EE"></path>
                            <path d="M277.9,185.6 C253.1,182.4 251.1,161.2 253.1,145.9 C253.4,145.8 253.6,145.7 253.9,145.7 C267.2,149 274.3,165.9 277.9,185.6 Z" id="Path" fill="#EFF4F8" opacity="0.5"></path>
                            <path d="M410.8,536.5 C410.8,536.7 410.8,537 410.7,537.2 C409,545.8 407.7,554.5 406.3,563.3 C405.9,566.1 405.2,568.8 404.3,571.5 L402.2,577.3 L397.1,585.8 L393.5,590.9 C359.5,634 272.9,656.2 272.9,656.2 L272.6,655.7 C275.3,654.6 333.7,630.5 357,608.8 C379.1,588.3 406.4,541.3 410.3,534.5 C410.6,535.2 410.8,535.9 410.8,536.5 Z" id="Path" fill="#000000" opacity="0.05"></path>
                            <path d="M222.4,0.4 L48.3,0.4 C38.8,0.4 31.1,8.1 31.1,17.6 C31.1,17.6 31.1,17.6 31.1,17.6 L31.1,398.8 C31.1,408.3 38.8,416 48.3,416 C48.3,416 48.3,416 48.3,416 L222.4,416 C231.9,416 239.6,408.3 239.6,398.8 C239.6,398.8 239.6,398.8 239.6,398.8 L239.6,17.6 C239.6,8.1 231.9,0.4 222.4,0.4 Z" id="Path" fill="url(#linearGradient-8)"></path>
                            <path d="M43.6,3.6 L227,3.6 C233.1,3.6 238,8.5 238,14.6 L238,403.4 C238,409.5 233.1,414.4 227,414.4 L43.6,414.4 C37.5,414.4 32.6,409.5 32.6,403.4 L32.6,14.6 C32.6,8.5 37.6,3.6 43.6,3.6 Z" id="Path" fill="#535461"></path>
                            <rect id="Rectangle" fill="#F1F1F4" x="47.8" y="41.8" width="175.1" height="334.4"></rect>
                            <circle id="Oval" fill="#FFFFFF" cx="114.6" cy="22.7" r="1.6"></circle>
                            <path d="M123.6,21.1 L156.6,21.1 C157.2,21.1 157.6,21.5 157.6,22.1 L157.6,23.3 C157.6,23.9 157.2,24.3 156.6,24.3 L123.6,24.3 C123,24.3 122.6,23.9 122.6,23.3 L122.6,22.1 C122.6,21.5 123,21.1 123.6,21.1 Z" id="Path" fill="#FFFFFF"></path>
                            <circle id="Oval" fill="#FFFFFF" cx="134.5" cy="392.1" r="11.1"></circle>
                            <path d="M23.7,208.2 C23.7,208.2 2.5,208.2 2.9,234.6 C3,243.6 8.8,251.6 17.4,254.5 C21.9,256 26.8,255.6 31.1,253.5 C43,247.6 47.9,233.2 42,221.4 C38.4,214.2 31.6,209.3 23.7,208.2 Z" id="Path" fill="#FFBEC7"></path>
                            <path d="M23.7,221.8 C23.7,221.8 4.1,235.5 21.1,247.4 C21.1,247.5 19.4,223.6 23.7,221.8 Z" id="Path" fill="#EFF4F8" opacity="0.5"></path>
                            <path d="M28,260.3 C28,260.3 7.5,265.4 10.9,290.2 C10.9,290.2 12.6,308.1 30.5,305.6 C42.8,303.8 44.2,287.6 44,277.6 C43.9,270.9 40,264.8 34,261.8 C32.1,260.8 30,260.3 28,260.3 Z" id="Path" fill="#FFBEC7"></path>
                            <path d="M27.1,271.4 C27.1,271.4 7.5,279.1 27.1,300.4 C27.1,300.4 17.7,279.9 27.1,271.4 Z" id="Path" fill="#EFF4F8" opacity="0.5"></path>
                            <path d="M33.1,362.7 L33.1,384.9 C4.3,368.1 6.8,351.6 14.5,340.3 C17,336.7 20,333.5 23.3,330.7 C25.3,329 27.4,327.4 29.6,326 C31.4,326.1 33.2,326.6 34.8,327.5 C43.3,332.1 46.5,342.6 42,351.2 C39.7,355.5 36.7,359.4 33.1,362.7 Z" id="Path" fill="#FFBEC7"></path>
                            <path d="M18.6,351.6 C18.6,351.6 16.4,346.3 14.5,340.3 C17,336.7 20,333.5 23.3,330.7 C29,340 18.6,351.6 18.6,351.6 Z" id="Path" fill="#EFF4F8" opacity="0.5"></path>
                            <path d="M277.6,255.6 C277.6,255.6 255.4,280.4 248.6,282.9" id="Path" fill="#000000" opacity="0.05"></path>
                            <path d="M192.2,157.2 L108.2,157.2 L108.2,158.1 C104.2,145.9 91,139.2 78.8,143.2 C66.6,147.2 59.9,160.4 63.9,172.6 C67.9,184.8 81.1,191.5 93.3,187.5 C100.4,185.2 105.9,179.6 108.2,172.6 L108.2,173.5 L192.2,173.5 L202.7,165.4 L192.2,157.2 Z M86,184.2 C75.6,184.2 67.2,175.8 67.2,165.4 C67.2,155 75.6,146.6 86,146.6 C96.4,146.6 104.8,155 104.8,165.4 C104.9,175.8 96.4,184.2 86,184.2 L86,184.2 L86,184.2 Z" id="Shape" fill="url(#linearGradient-9)"></path>
                            <path d="M86.8,142.4 C74.1,142.4 63.8,152.7 63.8,165.4 C63.8,178.1 74.1,188.4 86.8,188.4 C99.5,188.4 109.8,178.1 109.8,165.4 L109.8,165.4 C109.8,152.7 99.5,142.4 86.8,142.4 Z M86.8,146.9 C97,146.9 105.3,155.2 105.3,165.4 C105.3,175.6 97,183.9 86.8,183.9 C76.6,183.9 68.3,175.6 68.3,165.4 C68.3,155.2 76.5,146.9 86.8,146.9 C86.8,146.8 86.8,146.8 86.8,146.9 L86.8,146.9 Z" id="Shape" fill="#00DD90"></path>
                            <polygon id="Path" fill="#00DD90" points="191.2 173.4 108.6 173.4 108.6 157.4 191.2 157.4 201.5 165.4"></polygon>
                            <path d="M192.2,218 L108.2,218 L108.2,218.9 C104.2,206.7 91,200 78.8,204 C66.6,208 59.9,221.2 63.9,233.4 C67.9,245.6 81.1,252.3 93.3,248.3 C100.4,246 105.9,240.4 108.2,233.4 L108.2,234.3 L192.2,234.3 L202.7,226.2 L192.2,218 Z M86,245 C75.6,245 67.2,236.6 67.2,226.2 C67.2,215.8 75.6,207.4 86,207.4 C96.4,207.4 104.8,215.8 104.8,226.2 C104.9,236.6 96.4,245 86,245 C86,245 86,245 86,245 L86,245 Z" id="Shape" fill="url(#linearGradient-10)"></path>
                            <path d="M112.2,149.2 L108.9,145.9 C108.2,145.2 107.1,145.2 106.4,145.9 C106.4,145.9 106.4,145.9 106.4,145.9 L85.7,166.4 L77,157.6 C76.3,156.9 75.2,156.9 74.5,157.6 C74.5,157.6 74.5,157.6 74.5,157.6 L71.2,160.9 C70.5,161.6 70.5,162.7 71.2,163.4 C71.2,163.4 71.2,163.4 71.2,163.4 L84.5,176.8 C85.2,177.5 86.3,177.5 87,176.8 C87,176.8 87,176.8 87,176.8 L112.2,151.8 C112.9,151 112.9,149.9 112.2,149.2 C112.2,149.2 112.2,149.2 112.2,149.2 L112.2,149.2 Z" id="Path" fill="url(#linearGradient-11)"></path>
                            <path d="M111.2,148.8 L108.1,145.6 C107.4,144.9 106.4,144.9 105.7,145.6 L86,165.1 L77.7,156.7 C77,156 76,156 75.3,156.7 L72.2,159.8 C71.5,160.5 71.5,161.5 72.2,162.2 L84.8,174.9 C85.5,175.6 86.5,175.6 87.2,174.9 L111.2,151.1 C111.9,150.4 111.9,149.4 111.2,148.8 L111.2,148.8 Z" id="Path" fill="#00DD90"></path>
                        </g>
                    </g>
                </g>
            </g>
        </g>
    </g>
</svg>