<?xml version="1.0" encoding="UTF-8"?>
<svg id="SVGDoc" width="32" height="27" xmlns="http://www.w3.org/2000/svg" version="1.1" xmlns:xlink="http://www.w3.org/1999/xlink" xmlns:avocode="https://avocode.com/" viewBox="0 0 32 27"><defs><clipPath id="clip-1A5BFD1D-941B-E9B6-0D37-092F647BF448"><path d="M0,0v0h32v0v27v0h-32v0z" ></path></clipPath></defs><desc>Generated with Avocode.</desc><g><g><title>Group 3</title><g><title>Clip 2</title></g><g clip-path="url(#clip-1A5BFD1D-941B-E9B6-0D37-092F647BF448)"><title>Fill 1</title><path d="M0,23.97655c3.52894,0.30679 6.71561,-0.5947 9.62811,-2.86075c-1.45727,-0.06975 -2.71317,-0.50435 -3.81505,-1.35921c-1.09993,-0.85332 -1.87431,-1.9535 -2.32897,-3.35894c0.98503,0.13251 1.92614,0.14679 2.87975,-0.13349c-3.75583,-0.94423 -5.30452,-4.39059 -5.17556,-6.73937c0.9031,0.4501 1.82671,0.77466 2.92687,0.8015c-1.66665,-1.25524 -2.62945,-2.8601 -2.85108,-4.88335c-0.17129,-1.56406 0.16477,-3.03649 0.8515,-4.1614c3.55612,4.31719 8.05979,6.69549 13.56702,7.09571c-0.04123,-0.40168 -0.09919,-0.77019 -0.11396,-1.14057c-0.10995,-2.7511 0.98887,-4.85545 3.24448,-6.296c2.40828,-1.53803 5.75423,-1.152 7.7937,0.87976c0.25666,0.2557 0.47067,0.31109 0.8182,0.22334c1.27931,-0.32309 2.48541,-0.82177 3.63309,-1.49902c0.00259,0.83815 -1.11909,2.37294 -2.62812,3.69639c0.3861,-0.07267 0.77541,-0.1309 1.15742,-0.22181c0.40682,-0.09675 0.81074,-0.21158 1.20869,-0.34223c0.38484,-0.12627 0.76049,-0.28271 1.14014,-0.42585c0.02128,0.02311 0.04249,0.04622 0.06377,0.06926c-0.52534,0.635 -1.02468,1.29587 -1.58419,1.89689c-0.44774,0.48091 -0.96185,0.8976 -1.46127,1.3245c-0.15464,0.13227 -0.2093,0.26154 -0.20577,0.46486c0.08294,4.72269 -1.28409,8.96341 -4.06512,12.69832c-2.81754,3.78406 -6.5316,6.10072 -11.08011,6.95476c-3.44907,0.64758 -6.83578,0.37865 -10.13476,-0.87667c-1.21851,-0.46364 -2.37915,-1.05201 -3.46878,-1.80663" fill="#ffffff" fill-opacity="1"></path></g></g></g></svg>