<svg id="Layer_1" data-name="Layer 1" xmlns="http://www.w3.org/2000/svg" viewBox="0 0 26.33 26.33"><defs><style>.cls-1{fill:#fff;}</style></defs><title>l1</title><path class="cls-1" d="M54.2,34.75a3.9,3.9,0,0,0-2.79-.24,10.21,10.21,0,0,0-1.61.7,10.93,10.93,0,0,1-2.24,1c-0.41.1-.83,0.17-1.27,0.25,0,0.06,0,.12,0,0.19a16.3,16.3,0,0,0,1.22,5.77,11.41,11.41,0,0,0,4.69,5.51,0.43,0.43,0,0,0,.5,0,11,11,0,0,0,4-4.05,14.28,14.28,0,0,0,1.78-5.41c0.09-.66.13-1.33,0.19-2a8.29,8.29,0,0,1-3.55-1.19C54.8,35,54.5,34.88,54.2,34.75Zm-0.7,6.18a0.3,0.3,0,0,0-.17.36c0.16,1.06.31,2.12,0.46,3.19a1.39,1.39,0,0,1,0,.17H51.09c0-.17,0-0.34.06-0.5,0.14-1,.27-1.93.42-2.9a0.26,0.26,0,0,0-.15-0.31,2.06,2.06,0,1,1,3.09-1.83A2,2,0,0,1,53.51,40.93Z" transform="translate(-39.28 -27.09)"/><path class="cls-1" d="M52.45,27.09A13.16,13.16,0,1,0,65.61,40.25,13.16,13.16,0,0,0,52.45,27.09ZM60,36.46a17.4,17.4,0,0,1-1.53,6.93,12.33,12.33,0,0,1-5.08,5.69c-1,.59-0.82.58-1.84,0a12.19,12.19,0,0,1-4.82-5.17,17,17,0,0,1-1.79-7.4c0-.44,0-0.89,0-1.33a0.65,0.65,0,0,1,0-.1h0.3a6.79,6.79,0,0,0,3.64-.91,8.55,8.55,0,0,1,2.28-1,5.68,5.68,0,0,1,3.93.48l1.38,0.71a6.27,6.27,0,0,0,3.06.71h0.41l0.07,0C60,35.54,60,36,60,36.46Z" transform="translate(-39.28 -27.09)"/></svg>