<svg xmlns="http://www.w3.org/2000/svg" width="138" height="138" viewBox="0 0 138 138"><g><g><path fill="#387f8a" d="M138 68.625c0 37.942-30.759 68.702-68.702 68.702S.596 106.567.596 68.625C.596 30.682 31.355-.077 69.298-.077S138 30.682 138 68.625z"/></g><g><path fill="#fff" d="M38.197 30.688c1.304 1.293 2.79 1.683 4.255.519.68-.543 1.13-1.234 1.338-2.188.6.05.899.081 1.487.155-.32 1.46-.985 2.384-1.971 3.168-2.434 1.939-5.018 1.298-6.934-.618-1.87-1.87-2.772-4.694.333-7.197 3.158-2.547 5.388-.715 6.693 1.286.167.256.27.435.33.582-2.313 1.516-3.428 2.374-5.531 4.293zm3.288-4.319c-1.025-1.4-2.223-2.092-3.921-.72-1.62 1.307-1.278 2.766-.227 4.078 1.597-1.456 2.43-2.128 4.148-3.358z"/></g><g><path fill="#fff" d="M45.603 27.123c.395-.526.599-.786 1.018-1.301 1.011 1.118 2.449 1.232 3.445.752.848-.409 1.349-1.152.973-2.024-.446-1.032-1.712-.894-3.16-.731-1.524.172-3.161.47-4.024-.988-.984-1.664.575-3.452 2.251-4.265 1.506-.729 3.432-.964 4.621.482-.539.377-.804.569-1.326.963-.774-.83-1.789-.859-2.681-.428-.903.435-1.668 1.255-1.176 2.173.515.961 1.846.685 3.252.529 1.8-.201 3.331-.057 3.951 1.572.596 1.569-.311 3.035-1.938 3.809-1.835.873-3.679.749-5.206-.543z"/></g><g><path fill="#fff" d="M53.546 23.327c.484-.428.731-.638 1.237-1.05.751 1.307 2.114 1.724 3.171 1.464.901-.22 1.534-.842 1.345-1.773-.223-1.1-1.476-1.23-2.904-1.376-1.504-.155-3.139-.216-3.68-1.82-.617-1.833 1.238-3.242 3.02-3.682 1.598-.395 3.51-.226 4.37 1.435-.598.257-.893.39-1.477.666-.582-.972-1.558-1.212-2.505-.98-.959.234-1.859.873-1.568 1.873.304 1.047 1.642 1.06 3.032 1.202 1.778.182 3.233.64 3.505 2.36.262 1.658-.914 2.904-2.64 3.318-1.946.467-3.694-.05-4.906-1.637z"/></g><g><path fill="#fff" d="M64.193 19.43c.23 1.82 1.106 3.05 2.882 3.026.826-.01 1.568-.286 2.284-.916.427.405.636.61 1.042 1.025-1.101.968-2.147 1.296-3.342 1.312-2.952.042-4.477-2.08-4.806-4.768-.32-2.624.589-5.377 4.368-5.452 3.844-.076 4.499 2.715 4.319 5.095a3.883 3.883 0 0 1-.088.665c-2.66-.197-4-.194-6.659.013zm4.965-1.395c.04-1.735-.472-3.008-2.54-2.965-1.973.04-2.547 1.395-2.515 3.074 2.018-.156 3.033-.18 5.055-.11z"/></g><g><path fill="#fff" d="M73.85 14.232c.817.104 1.225.164 2.04.303l-.216 1.506c.038.005.056.01.094.015.771-.915 1.912-1.398 3.322-1.062 2.114.504 3.044 2.144 2.425 4.097l-2.035 6.42c-.646-.204-.97-.3-1.624-.475l1.716-6.349c.404-1.5-.162-2.192-1.337-2.459-1.457-.329-2.695.594-2.98 2.255-.397 2.306-.595 3.458-.99 5.765A31.219 31.219 0 0 0 72.598 24l1.251-9.768z"/></g><g><path fill="#fff" d="M83.012 21.546c.965-2.595 3.146-4.431 6.332-2.866 2.224 1.092 2.851 2.662 2.482 4.459a36.633 36.633 0 0 0-1.732-.476c.32-1.155.016-2.142-1.28-2.78-2.028-.998-3.317.7-4.02 2.368-.7 1.66-1.044 3.612.662 4.452 1.133.558 1.995.182 2.751-.617.451.43.672.649 1.105 1.094-1.376 1.272-2.748 1.558-4.487.705-2.523-1.238-2.755-3.807-1.813-6.34z"/></g><g><path fill="#fff" d="M93.075 27.483c-.996 1.543-1.093 3.061.353 4.26.673.557 1.45.861 2.44.881.084.607.12.91.182 1.513-1.522-.039-2.582-.517-3.556-1.323-2.405-1.99-2.238-4.6-.758-6.87 1.443-2.216 3.936-3.74 7.028-1.215 3.147 2.57 1.883 5.195.195 6.883-.217.217-.37.355-.504.444-2.035-2.03-3.12-2.946-5.38-4.573zm4.902 2.331c1.155-1.294 1.563-2.63-.131-4.01-1.614-1.318-2.948-.664-4.01.638 1.716 1.235 2.547 1.91 4.14 3.372z"/></g><g><path fill="none" stroke="#fff" stroke-miterlimit="50" d="M16.5 81.5h106"/></g></g></svg>