<?xml version="1.0" ?><svg data-name="Слой 1" height="130" id="Слой_1" viewBox="0 0 130 130" width="130" xmlns="http://www.w3.org/2000/svg"><title/><rect height="130" style="fill:none" width="130"/><polygon points="9 9 9 121 41 121 41 109 21 109 21 21 109 21 109 42 121 42 121 9 9 9" style="fill:#031b37"/><path d="M89,115v6h12v-6a14.01573,14.01573,0,0,1,14-14h6V89h-6A26.02885,26.02885,0,0,0,89,115Z" style="fill:#031b37"/><path d="M69,115v6H81v-6a34.038,34.038,0,0,1,34-34h6V69h-6A46.05239,46.05239,0,0,0,69,115Z" style="fill:#031b37"/><path d="M49,115v6H61v-6a54.06156,54.06156,0,0,1,54-54h6V49h-6A66.07468,66.07468,0,0,0,49,115Z" style="fill:#031b37"/></svg>