<svg xmlns="http://www.w3.org/2000/svg" width="20" height="19" viewBox="0 0 20 19"><g><g><path fill="none" stroke="#4a4a4a" stroke-miterlimit="50" stroke-width=".75" d="M13.747 9.278c0 2.102-1.72 3.82-3.82 3.818A3.827 3.827 0 0 1 6.111 9.27a3.825 3.825 0 0 1 3.826-3.81 3.827 3.827 0 0 1 3.81 3.817z"/></g><g><path fill="none" stroke="#4a4a4a" stroke-miterlimit="50" stroke-width=".75" d="M9.719.55c1.9.021 3.463.468 4.898 1.372.52.328.633 1.04.164 1.481-.246.23-.48.474-.72.71-.348.343-.743.39-1.177.162a8.737 8.737 0 0 0-.923-.438 5.606 5.606 0 0 0-2.626-.339 5.884 5.884 0 0 0-2.34.762c-.45.26-.855.198-1.223-.169l-.7-.699c-.452-.455-.378-1.112.163-1.462A8.426 8.426 0 0 1 8.575.665C9.023.596 9.477.572 9.719.55z"/></g><g><path fill="none" stroke="#4a4a4a" stroke-miterlimit="50" stroke-width=".75" d="M1.206 9.465c.014-1.882.46-3.446 1.372-4.875.355-.558 1.006-.627 1.475-.159.27.27.547.533.801.817.261.291.274.632.116.978-.159.346-.35.678-.486 1.033a5.61 5.61 0 0 0-.335 2.615c.09.84.347 1.62.768 2.35.254.441.193.848-.165 1.205-.239.238-.476.478-.717.714-.374.364-.895.385-1.272.051a.967.967 0 0 1-.167-.204 8.43 8.43 0 0 1-1.308-3.574c-.047-.378-.066-.759-.082-.95z"/></g><g><path fill="none" stroke="#4a4a4a" stroke-miterlimit="50" stroke-width=".75" d="M18.677 9.163c-.017 1.748-.471 3.358-1.411 4.83-.332.52-.978.588-1.44.15a24.644 24.644 0 0 1-.792-.793.882.882 0 0 1-.142-1.028c.244-.444.464-.898.61-1.386.217-.72.275-1.456.212-2.203a5.64 5.64 0 0 0-.771-2.398c-.25-.424-.182-.883.178-1.223.237-.223.46-.46.692-.689.465-.46 1.126-.378 1.477.175a8.572 8.572 0 0 1 1.22 3.131c.084.474.113.956.167 1.434z"/></g><g><path fill="none" stroke="#4a4a4a" stroke-miterlimit="50" stroke-width=".75" d="M9.77 18c-1.542-.012-3.117-.468-4.557-1.384-.486-.31-.589-.951-.204-1.378.277-.307.574-.597.879-.875.282-.257.619-.292.965-.139.187.083.361.193.545.283.984.483 2.024.654 3.112.553a5.534 5.534 0 0 0 2.276-.726c.251-.144.508-.252.8-.167.129.038.268.088.364.176.312.289.619.585.904.901.378.418.282 1.051-.195 1.359a8.56 8.56 0 0 1-1.992.957c-.889.289-1.8.438-2.897.44z"/></g></g></svg>