<svg xmlns="http://www.w3.org/2000/svg" width="20" height="22" viewBox="0 0 20 22"><g><g><path fill="#4a4a4a" d="M.789 21.907V19.23c0-.396.118-.756.324-1.09.266-.43.626-.773 1.016-1.088.483-.389 1.012-.708 1.555-1.006.87-.478 1.782-.868 2.708-1.225.269-.104.542-.199.815-.295.049-.018.067-.039.067-.094-.003-.55-.002-1.103-.002-1.655 0-.028.004-.056.006-.089-.075-.05-.156-.104-.236-.16a5.042 5.042 0 0 1-1.367-1.436 4.851 4.851 0 0 1-.72-1.908 5.77 5.77 0 0 1-.068-.809c-.009-.86-.01-1.722 0-2.583a4.972 4.972 0 0 1 .865-2.762 5.065 5.065 0 0 1 1.82-1.65 5.019 5.019 0 0 1 1.767-.57 5.073 5.073 0 0 1 2.316.233c.798.273 1.484.72 2.064 1.333a5.073 5.073 0 0 1 1.109 1.82c.136.385.23.781.256 1.19.016.242.027.484.028.726.003.78.007 1.558-.003 2.336a4.967 4.967 0 0 1-.785 2.638 4.992 4.992 0 0 1-1.57 1.575c-.013.01-.026.017-.036.024.002.034.005.067.005.1.001.546.002 1.094-.001 1.641 0 .06.019.083.074.103a24.73 24.73 0 0 1 2.937 1.215c.701.347 1.38.731 2.004 1.205.444.34.852.714 1.149 1.196.204.331.321.687.321 1.078v2.617l-.003.068zM5.566 7.12v1.208a4.422 4.422 0 0 0 1.254 3.12 4.438 4.438 0 0 0 2.439 1.281c.033.006.064.027.093.046.098.064.187.148.293.192.371.152.704.076.999-.19a.183.183 0 0 1 .084-.047c.6-.11 1.16-.318 1.673-.65a4.397 4.397 0 0 0 1.501-1.623 4.38 4.38 0 0 0 .528-2.12v-2.43c0-.67-.135-1.31-.425-1.917a4.4 4.4 0 0 0-1.829-1.966c-.867-.495-1.801-.658-2.786-.533a4.16 4.16 0 0 0-1.303.393c-.824.4-1.467.995-1.927 1.786a4.163 4.163 0 0 0-.584 1.996c-.014.484-.002.97-.002 1.454zm12.96 14.106v-.085c0-.625-.002-1.25.001-1.875a1.471 1.471 0 0 0-.305-.892c-.306-.419-.699-.745-1.118-1.042a12.662 12.662 0 0 0-1.759-1.018 25.108 25.108 0 0 0-2.577-1.076c-.034-.012-.057-.025-.088.02-.122.18-.242.363-.385.526-.359.411-.804.7-1.324.863a3.235 3.235 0 0 1-1.608.085c-.724-.14-1.311-.51-1.777-1.077-.11-.134-.203-.285-.308-.433l-.067.022a26.3 26.3 0 0 0-1.974.793c-.77.35-1.523.732-2.223 1.211-.467.32-.905.67-1.243 1.13-.191.261-.303.55-.302.88.002.63.001 1.26.001 1.888v.08zM7.954 13.078c0 .63-.001 1.26.001 1.888 0 .027.01.058.026.08.08.103.158.21.247.306.237.256.518.452.841.586.268.11.549.16.838.171.292.011.579-.02.855-.11.52-.172.932-.492 1.243-.94a.217.217 0 0 0 .036-.117c.002-.607.002-1.215.002-1.822v-.07c-.014.001-.019 0-.023.002a4.9 4.9 0 0 1-.983.31.157.157 0 0 0-.067.025c-.324.25-.69.358-1.097.328a1.56 1.56 0 0 1-.814-.3.413.413 0 0 0-.124-.059c-.201-.057-.404-.106-.603-.167-.127-.038-.249-.092-.375-.14l-.003.03z"/></g><g><path fill="#4a4a4a" d="M3.52 20.206a.336.336 0 0 1 .335-.34.34.34 0 0 1 .347.337.346.346 0 0 1-.344.343.341.341 0 0 1-.338-.34z"/></g><g><path fill="#4a4a4a" d="M16.14 19.865c.189.001.336.15.336.34 0 .19-.155.344-.343.342a.347.347 0 0 1-.338-.343c0-.188.155-.34.345-.339z"/></g><g><path fill="#4a4a4a" d="M5.225 19.865a.341.341 0 1 1-.002.682.341.341 0 0 1 .002-.682z"/></g><g><path fill="#4a4a4a" d="M8.291 20.205c0 .187-.15.34-.337.342a.347.347 0 0 1-.345-.342.342.342 0 0 1 .682 0z"/></g><g><path fill="#4a4a4a" d="M9.318 19.865c.19 0 .337.15.338.339 0 .19-.155.345-.343.343a.34.34 0 1 1 .005-.682z"/></g><g><path fill="#4a4a4a" d="M10.68 19.865c.187 0 .34.149.342.336a.347.347 0 0 1-.342.346.342.342 0 0 1-.34-.345.337.337 0 0 1 .34-.337z"/></g><g><path fill="#4a4a4a" d="M11.705 20.207a.335.335 0 0 1 .34-.342.342.342 0 0 1 .342.338.347.347 0 0 1-.344.344.341.341 0 0 1-.338-.34z"/></g><g><path fill="#4a4a4a" d="M15.112 20.207a.34.34 0 1 1-.34-.343c.191 0 .341.151.34.343z"/></g><g><path fill="#4a4a4a" d="M6.928 20.203c0 .19-.153.345-.342.344a.34.34 0 1 1 .003-.682.338.338 0 0 1 .34.338z"/></g><g><path fill="#4a4a4a" d="M13.068 20.202a.34.34 0 0 1 .34-.337.34.34 0 1 1 0 .682.342.342 0 0 1-.34-.345z"/></g><g><path fill="#4a4a4a" d="M2.493 19.865a.34.34 0 0 1 .344.34.344.344 0 0 1-.338.342.344.344 0 0 1-.344-.343c0-.187.15-.338.338-.34z"/></g><g><path fill="#4a4a4a" d="M17.498 19.865a.34.34 0 1 1-.338.338.34.34 0 0 1 .339-.338z"/></g></g></svg>