<svg xmlns="http://www.w3.org/2000/svg" width="21" height="21" viewBox="0 0 21 21"><g><g><path fill="#4a4a4a" d="M13.206 20.183c-.364-.27-.403-.671-.403-.671l-.137-.873H8.312l-.138.872s-.037.403-.402.672c-.364.268-.65.497-.364.536.277.037 2.888.003 3.081 0 .193.003 2.804.037 3.081 0 .287-.04 0-.268-.364-.536z"/></g><g><path fill="#4a4a4a" d="M5.583 13.204c1.164-.009 1.31-.289 1.687-1.456.7-1.844 3.85.482 1.898 1.29-1.951.807-4.747.176-3.584.166z"/></g><g><path fill="#4a4a4a" d="M17.512 1.056c.564.455.544 1.417-.044 2.15l-7.017 7.633c-.59.732-.454.7-1.019.245-.563-.455-.566-.316.023-1.047l5.968-8.479c.59-.73 1.524-.956 2.09-.502zm-1.535 1.016s.103-.436.915-.916c0 0-.856-.13-1.293.582.291.232.378.334.378.334z"/></g><g><path fill="#4a4a4a" d="M20.16 3.923h-2.626l-1.158 1.262h3.362v10.09H1.24V5.185h10.761l.888-1.262H.82a.842.842 0 0 0-.84.84v12.193c0 .465.376.842.84.842h19.34a.842.842 0 0 0 .841-.842V4.764a.842.842 0 0 0-.84-.841z"/></g></g></svg>