<svg xmlns="http://www.w3.org/2000/svg" width="26" height="17" viewBox="0 0 26 17"><g><g><path fill="#4a4a4a" d="M17.368 5.185a4.625 4.625 0 1 1 0 0zm-8.043.02a3.409 3.409 0 0 0 3.416 3.415 3.41 3.41 0 0 0 3.42-3.415 3.415 3.415 0 0 0-3.417-3.42 3.413 3.413 0 0 0-3.419 3.42z"/></g><g><path fill="#4a4a4a" d="M12.748 11.518a9.167 9.167 0 0 1 4.146.997 9.308 9.308 0 0 1 3.849 3.644.61.61 0 0 1-.185.809.607.607 0 0 1-.833-.168c-.08-.115-.145-.24-.22-.356a7.904 7.904 0 0 0-1.822-2.011 7.993 7.993 0 0 0-3.267-1.533 7.86 7.86 0 0 0-2.3-.147 7.883 7.883 0 0 0-3.308 1.024A7.871 7.871 0 0 0 6.82 15.38a7.68 7.68 0 0 0-.992 1.386.604.604 0 0 1-.624.293.608.608 0 0 1-.428-.925 9.135 9.135 0 0 1 2.05-2.447 9.17 9.17 0 0 1 5.92-2.17z"/></g><g><path fill="#4a4a4a" d="M22.501 6.64c-.027 1.306-.489 2.35-1.427 3.169a4.066 4.066 0 0 1-2.214.989 3.995 3.995 0 0 1-2.587-.54.609.609 0 0 1-.209-.833c.144-.26.515-.363.791-.213.283.154.574.282.891.347.768.158 1.494.048 2.16-.37.76-.476 1.221-1.163 1.349-2.052.14-.963-.147-1.801-.831-2.49a2.773 2.773 0 0 0-1.827-.825.606.606 0 0 1-.505-.91.6.6 0 0 1 .598-.3c.623.05 1.205.228 1.746.54.521.302.953.703 1.302 1.192.384.538.62 1.136.718 1.788.027.189.034.38.045.509z"/></g><g><path fill="#4a4a4a" d="M2.99 6.723C3 5.67 3.345 4.747 4.043 3.96a3.968 3.968 0 0 1 2.372-1.31c.179-.03.36-.06.545-.032.292.045.494.292.496.607a.595.595 0 0 1-.501.584c-.187.028-.377.042-.56.087a2.827 2.827 0 0 0-1.76 1.255 2.842 2.842 0 0 0-.45 1.747A2.918 2.918 0 0 0 6.122 9.46a2.976 2.976 0 0 0 2.495-.255c.294-.17.687-.03.829.297a.594.594 0 0 1-.238.747 3.908 3.908 0 0 1-2.25.579c-1.344-.067-2.417-.654-3.207-1.741-.511-.703-.75-1.5-.761-2.365z"/></g><g><path fill="#4a4a4a" d="M25.482 16.458a.585.585 0 0 1-.421.586.611.611 0 0 1-.666-.235c-.19-.28-.367-.567-.568-.837a6.453 6.453 0 0 0-1.138-1.162 6.948 6.948 0 0 0-2.483-1.288.593.593 0 0 1-.42-.615.586.586 0 0 1 .496-.553.685.685 0 0 1 .305.022c.737.215 1.43.525 2.079.936.63.4 1.2.874 1.705 1.426.384.421.718.877 1.008 1.367a.602.602 0 0 1 .103.353z"/></g><g><path fill="#4a4a4a" d="M0 16.466c0-.117.03-.225.089-.326a8.166 8.166 0 0 1 1.386-1.771 8.382 8.382 0 0 1 2.139-1.497 7.974 7.974 0 0 1 1.296-.5.62.62 0 0 1 .716.269.62.62 0 0 1-.128.763.53.53 0 0 1-.194.11 7.045 7.045 0 0 0-2.13 1.002 7.109 7.109 0 0 0-1.219 1.086 6.724 6.724 0 0 0-.841 1.177.603.603 0 0 1-.611.282.59.59 0 0 1-.484-.443c-.012-.05-.013-.101-.019-.152z"/></g></g></svg>