<svg id="icons" enable-background="new 0 0 64 64" height="512" viewBox="0 0 64 64" width="512" xmlns="http://www.w3.org/2000/svg"><path d="m8.994 12h.003v46.98c-.552.001-.999.447-.999 1v3.02c0 .553.447 1 1 1h46c.553 0 1-.447 1-1v-3.02c0-.553-.447-1-1-1v-43.966c0-.005.003-.009.003-.015s-.003-.009-.003-.015v-2.984h.008c.553 0 1-.448 1-1v-3c0-2.76-2.245-5.005-5.005-5.005-.009 0-.016.004-.024.005h-11.979c0-1.654-1.346-3-3-3h-8c-1.654 0-3 1.346-3 3h-12.004c-2.757 0-5 2.243-5 5v3c0 .552.447 1 1 1zm45.012-2h-44.012v-1h44.012zm-41.009 48.98h-2v-42.98h2zm41.001 3.02h-44v-1.02h3.912c.03.003.056.018.087.018s.057-.015.087-.018h3.826c.03.003.056.018.087.018s.057-.015.087-.018h3.826c.03.003.056.018.087.018s.057-.015.087-.018h3.826c.03.003.056.018.087.018s.057-.015.087-.018h3.826c.03.003.056.018.087.018s.057-.015.087-.018h3.826c.03.003.056.018.087.018s.057-.015.087-.018h3.826c.03.003.056.018.087.018s.057-.015.087-.018h3.826c.03.003.056.018.087.018s.057-.015.087-.018h3.826c.03.003.056.018.087.018s.057-.015.087-.018h3.826c.03.003.056.018.087.018s.057-.015.087-.018h3.914v1.02zm-35.001-46h2v42.98h-2zm8 0h2v42.98h-2zm8 0h2v42.98h-2zm8 0h2v42.98h-2zm8 42.98v-42.98h2.001v42.98zm2.001-44.98h-2.997c-.001 0-.001 0-.002 0s-.001 0-.002 0c-.553 0-1 .448-1 1v43.98h-2v-43.966c0-.005.003-.009.003-.014 0-.552-.447-1-1-1h-4c-.001 0-.001 0-.002 0 0 0 0 0-.001 0-.553 0-1 .448-1 1v43.98h-2v-43.971c0-.003.002-.006.002-.01 0-.552-.447-1-1-1h-4-.001-.001c-.553 0-1 .448-1 1v43.981h-2v-43.976c0-.002.001-.003.001-.005 0-.552-.447-1-1-1h-4c-.001 0-.001 0-.001 0-.553 0-1 .448-1 1v43.981h-2v-43.98c0-.552-.447-1-1-1h-4c-.553 0-1 .448-1 1v43.98h-2v-43.98c0-.552-.447-1-1-1h-3v-2h42.001zm-25-12h8c.552 0 1 .449 1 1h-10c0-.552.448-1 1-1zm-15.004 3h38.007c.006 0 .011-.003.017-.003 1.296.006 2.391.843 2.804 2.003h-43.643c.414-1.162 1.513-2 2.815-2z"/></svg>