<svg id="Layer_1" data-name="Layer 1" xmlns="http://www.w3.org/2000/svg" viewBox="0 0 26.33 26.33"><defs><style>.cls-1{fill:#fff;}</style></defs><title>l2</title><path class="cls-1" d="M108.24,35H99.86v2.59h8.38V35Z" transform="translate(-91.47 -27.09)"/><path class="cls-1" d="M108.24,39.68v-1H99.86v3.12h4.19v-1h0.45a4.27,4.27,0,0,0,1.83-.35A4.72,4.72,0,0,1,108.24,39.68Z" transform="translate(-91.47 -27.09)"/><path class="cls-1" d="M104,42.85H99.86v2.59h4.57A5.28,5.28,0,0,1,104,42.85Z" transform="translate(-91.47 -27.09)"/><path class="cls-1" d="M111.41,42c0-.07,0-0.14,0-0.2a4.73,4.73,0,0,1-.75-0.15c-0.59-.22-1.17-0.47-1.75-0.72a1.33,1.33,0,0,0-1.22,0,6.36,6.36,0,0,1-2.57.87c0,0.75,0,1.47,0,2.19a2.45,2.45,0,0,0,.43,1.34,6.75,6.75,0,0,0,2.63,2.17,0.27,0.27,0,0,0,.22,0,7.92,7.92,0,0,0,2.07-1.5,3.05,3.05,0,0,0,1-2.32C111.39,43.07,111.41,42.52,111.41,42Z" transform="translate(-91.47 -27.09)"/><path class="cls-1" d="M104.63,27.09a13.16,13.16,0,1,0,13.16,13.16A13.16,13.16,0,0,0,104.63,27.09Zm7,19.12a8.23,8.23,0,0,1-3.13,2.34,0.63,0.63,0,0,1-.47,0,8.54,8.54,0,0,1-2.66-1.84,0.58,0.58,0,0,0-.47-0.19H98.82V33.92H109.3v0.26c0,1.85,0,3.69,0,5.54a0.27,0.27,0,0,0,.19.31,4,4,0,0,1,.44.22,4.34,4.34,0,0,0,2.12.48h0.37a1,1,0,0,1,0,.12c0,1,0,2,0,3.06A3.63,3.63,0,0,1,111.6,46.21Z" transform="translate(-91.47 -27.09)"/></svg>