<svg id="Layer_1" data-name="Layer 1" xmlns="http://www.w3.org/2000/svg" viewBox="0 0 26.33 26.33"><defs><style>.cls-1{fill:#fff;}</style></defs><title>r2</title><path class="cls-1" d="M1214.71,27.09a13.16,13.16,0,1,0,13.16,13.16A13.16,13.16,0,0,0,1214.71,27.09Zm6.49,11.09c0,0.14,0,.27,0,0.41a8.95,8.95,0,0,1-13.78,7.54,6.37,6.37,0,0,0,4.66-1.3,3.15,3.15,0,0,1-2.94-2.18,3.14,3.14,0,0,0,1.42-.05,3.15,3.15,0,0,1-2.52-3.08v0a3.13,3.13,0,0,0,1.43.39,3.15,3.15,0,0,1-1-4.2,8.93,8.93,0,0,0,6.48,3.29,3.15,3.15,0,0,1,5.36-2.87,6.32,6.32,0,0,0,2-.76A3.16,3.16,0,0,1,1221,37a6.29,6.29,0,0,0,1.81-.5A6.39,6.39,0,0,1,1221.2,38.18Z" transform="translate(-1201.55 -27.09)"/></svg>