<svg xmlns="http://www.w3.org/2000/svg" xmlns:xlink="http://www.w3.org/1999/xlink" viewBox="0 0 228.37 65.33"><defs><style>.cls-1{fill:#d9dadb;}.cls-2{fill:#626366;}.cls-3{fill:url(#linear-gradient);}.cls-4{fill:url(#linear-gradient-2);}.cls-5{fill:url(#linear-gradient-3);}.cls-6{fill:#0057a0;}.cls-7{fill:#299bd2;}.cls-8{fill:#6d6e70;}.cls-9{fill:url(#radial-gradient);}.cls-10{fill:#b9bbbd;}.cls-11{fill:none;stroke:#b9bbbd;}.cls-12{fill:url(#linear-gradient-4);}.cls-13{fill:url(#linear-gradient-5);}.cls-14{fill:#fff;}.cls-15{fill:url(#linear-gradient-6);}.cls-16{fill:url(#linear-gradient-7);}.cls-17{fill:url(#linear-gradient-8);}</style><linearGradient id="linear-gradient" x1="9.47" y1="52.04" x2="8.9" y2="49.88" gradientTransform="matrix(1, -0.06, 0.06, 1, 13.53, -23.73)" gradientUnits="userSpaceOnUse"><stop offset="0" stop-color="#616161"/><stop offset="0.39" stop-color="#fff"/><stop offset="1" stop-color="#b7b9bb"/></linearGradient><linearGradient id="linear-gradient-2" x1="19.63" y1="32.25" x2="23.35" y2="27.2" gradientTransform="matrix(1, 0, 0, 1, 0, 0)" xlink:href="#linear-gradient"/><linearGradient id="linear-gradient-3" x1="9.92" y1="54.7" x2="29.98" y2="8.61" gradientTransform="matrix(1, 0, 0, 1, 0, 0)" xlink:href="#linear-gradient"/><radialGradient id="radial-gradient" cx="46.33" cy="25.01" r="18.47" gradientUnits="userSpaceOnUse"><stop offset="0" stop-color="#fff"/><stop offset="0.81" stop-color="#00ace9"/><stop offset="1" stop-color="#0094d4"/></radialGradient><linearGradient id="linear-gradient-4" x1="14.02" y1="55.56" x2="36.42" y2="9.78" gradientTransform="matrix(1, 0, 0, 1, 0, 0)" xlink:href="#linear-gradient"/><linearGradient id="linear-gradient-5" x1="15.27" y1="57.03" x2="35.33" y2="10.94" gradientTransform="matrix(1, 0, 0, 1, 0, 0)" xlink:href="#linear-gradient"/><linearGradient id="linear-gradient-6" x1="5.73" y1="32.27" x2="5.17" y2="30.19" gradientTransform="matrix(1, 0, 0, 1, 0, 0)" xlink:href="#linear-gradient"/><linearGradient id="linear-gradient-7" x1="9.72" y1="34.14" x2="8.48" y2="30.14" gradientTransform="matrix(1, 0, 0, 1, 0, 0)" xlink:href="#linear-gradient"/><linearGradient id="linear-gradient-8" x1="2.21" y1="51.34" x2="22.27" y2="5.25" gradientTransform="matrix(1, 0, 0, 1, 0, 0)" xlink:href="#linear-gradient"/></defs><title>Layer 3 (2)</title><g id="Слой_2" data-name="Слой 2"><g id="Layer_1" data-name="Layer 1"><g id="Layer_3" data-name="Layer 3"><path class="cls-1" d="M199,46.17c-13,16.28-77.63-2.37-104.65-6C55,35,6.77,16.45,0,59.3c42.15-47.06,168,43.09,199-13.13"/><path class="cls-2" d="M15.2,35.78c.5-.29,1.43-.83,1.72-1l.49-.17.45-.4c.17-.21.44-.5.78-.85.79-.82,3.65-1.94,4.71-3-4.29-.51-5.51.42-7.39,1.32l-5.31,6.07S13.85,36.56,15.2,35.78Z"/><path class="cls-2" d="M28.72,26.05a9.79,9.79,0,0,0,.16-1.37c0-.22-.94-.47-.94-.47l-6.39,1.9L17.83,32.7l2.66-.76a28.56,28.56,0,0,0,2.37-4.34C22.77,28,27,26.9,28.72,26.05Z"/><path class="cls-3" d="M22.17,26.79c.65.05,1.45.92,2,1.26l4.51-1.66a4.08,4.08,0,0,0,.2-1.73l0,0Z"/><path class="cls-4" d="M24.14,28.08l.07,0c-.59-.34-1.39-1.21-2-1.26a.31.31,0,0,0-.08.13L19,32.36c.85-.24,1.71-.5,2.56-.76C23.05,29.61,24.14,28.08,24.14,28.08Z"/><path class="cls-5" d="M23.35,30.45c-2,.44-4.5.83-6.36,1.38l-4,9.62S22.29,31.47,23.35,30.45Z"/><path class="cls-2" d="M9,37.77a6.88,6.88,0,0,1,.81-.94l.33-.16.06-.4a6.44,6.44,0,0,1,0-.84c0-.82,1.68-2.51,1.76-3.52-2,.19-5,1-6.07,1.89l1.87,8S8.42,38.54,9,37.77Z"/><path class="cls-2" d="M7.55,41.26c.37.51,2,.14,2.33-.41-.2-2.41.76-10.55.49-11.13S3.75,31.78,1,32.89a11.48,11.48,0,0,1-.85-.8c-.28.86,1,1.67,1.29,1.83s5.79-1.48,5.84-1.43Z"/><path class="cls-6" d="M59,35.2a7.45,7.45,0,0,1,2.08-2.52,8.39,8.39,0,0,1,3-1.47,12.27,12.27,0,0,1,3.41-.48,13,13,0,0,1,3.57.45,6.67,6.67,0,0,1,2.27,1,9.71,9.71,0,0,0-.46,1c-.13.36-.24.73-.34,1.12H72.2a4.64,4.64,0,0,0-.69-.86,5.38,5.38,0,0,0-1-.82A6.51,6.51,0,0,0,69.15,32a5,5,0,0,0-1.59-.24,6.84,6.84,0,0,0-2.81.53,5.14,5.14,0,0,0-1.93,1.49,6.2,6.2,0,0,0-1.09,2.23,10.75,10.75,0,0,0-.34,2.78A7.2,7.2,0,0,0,63,43.9a6.12,6.12,0,0,0,4.69,1.71,6.37,6.37,0,0,0,1.48-.18A9.59,9.59,0,0,0,70.64,45,8.88,8.88,0,0,0,72,44.21a7.29,7.29,0,0,0,1.11-.91l.18.1a9.34,9.34,0,0,0-.22,1.6,10.62,10.62,0,0,1-2.7,1.33,10.3,10.3,0,0,1-3.36.56,12.65,12.65,0,0,1-3.14-.41A7.89,7.89,0,0,1,61,45.11,7,7,0,0,1,59,42.61a8.19,8.19,0,0,1-.78-3.75A7.87,7.87,0,0,1,59,35.2"/><path class="cls-6" d="M78.21,33a8,8,0,0,1,6.18-2.29,9.2,9.2,0,0,1,3.32.54,7,7,0,0,1,2.34,1.44,5.63,5.63,0,0,1,1.39,2.11,7.27,7.27,0,0,1,.45,2.57c0,.22,0,.44,0,.64s0,.42-.06.64l-3.88-.07c-1.28,0-2.57,0-3.88,0-.79,0-1.58,0-2.37,0l-2.37.07a2,2,0,0,0,0,.49v.42A6.66,6.66,0,0,0,79.7,42a5.33,5.33,0,0,0,1.21,1.91,5.88,5.88,0,0,0,2,1.27,7,7,0,0,0,2.68.47A6.52,6.52,0,0,0,87,45.43,9.82,9.82,0,0,0,88.52,45a8.43,8.43,0,0,0,1.36-.74A7.29,7.29,0,0,0,91,43.3l.18.1L91,45a10.62,10.62,0,0,1-2.7,1.33,10.24,10.24,0,0,1-3.35.56,11.15,11.15,0,0,1-3.57-.54,7.94,7.94,0,0,1-2.79-1.57,6.85,6.85,0,0,1-1.81-2.43,7.16,7.16,0,0,1-.64-3A8.91,8.91,0,0,1,78.21,33m4-.67a5.09,5.09,0,0,0-1.53,1.38,6.12,6.12,0,0,0-.9,1.83,8.51,8.51,0,0,0-.38,1.87l2.33.07c.81,0,1.6,0,2.38,0s1.6,0,2.42,0l2.4-.07a11.28,11.28,0,0,0-.17-1.86,5.09,5.09,0,0,0-.65-1.82,4,4,0,0,0-1.36-1.4,4.18,4.18,0,0,0-2.28-.55,4.3,4.3,0,0,0-2.26.55"/><path class="cls-6" d="M99,26.66c-.07.83-.12,1.64-.16,2.44s-.08,1.6-.13,2.41c.27,0,.76,0,1.49,0s1.51,0,2.36-.08a1,1,0,0,0,0,.36v.69a.92.92,0,0,0,0,.33c-.32,0-.64,0-1,0s-.7,0-1.09,0H98.73c0,.08,0,.43-.09,1s-.06,1.33-.09,2.17,0,1.71,0,2.63,0,1.73,0,2.45,0,1.2.06,1.79a4.82,4.82,0,0,0,.34,1.58,2.73,2.73,0,0,0,.87,1.13,2.84,2.84,0,0,0,1.67.42,6.72,6.72,0,0,0,.78-.06,5.39,5.39,0,0,0,.85-.16v.79c-.41.06-.86.14-1.36.24a7.17,7.17,0,0,1-1.43.15,4.88,4.88,0,0,1-3.38-1,3.87,3.87,0,0,1-1.09-3c0-.58,0-1.22,0-1.91s0-1.43.08-2.25S96,37,96,36s0-2.1,0-3.31H94.88c-.19,0-.4,0-.62,0s-.45,0-.69,0c0-.14,0-.26.06-.38s0-.25,0-.38,0-.22,0-.33,0-.22-.06-.33c1.09.07,1.89.11,2.4.11,0-.44,0-1-.06-1.64s0-1.33-.08-2l3-1.14Z"/><path class="cls-7" d="M106.5,28.34c-.06-1.38-.13-2.79-.2-4.23l2.74.12c.91,0,1.82.06,2.74.06s1.83,0,2.74-.09,1.82-.09,2.73-.09a17.48,17.48,0,0,1,5.46.75A9.66,9.66,0,0,1,126.43,27a8.25,8.25,0,0,1,2.12,3.4,14.19,14.19,0,0,1,.67,4.53A11.09,11.09,0,0,1,128,40.44a10.75,10.75,0,0,1-3.19,3.61,12.33,12.33,0,0,1-4.28,2,18.91,18.91,0,0,1-4.48.57c-.82,0-1.63,0-2.43,0s-1.61,0-2.43,0h-2.43c-.8,0-1.61,0-2.43.07.07-1.35.14-2.73.2-4.12s.08-2.81.08-4.25V32.58c0-1.44,0-2.85-.08-4.24m3.27,16.8a13.9,13.9,0,0,0,2.07.25c.87,0,1.77.08,2.69.08a19.49,19.49,0,0,0,4-.42,9.06,9.06,0,0,0,3.57-1.61,8.45,8.45,0,0,0,2.58-3.22,12,12,0,0,0,1-5.28,12.06,12.06,0,0,0-.78-4.68,7.18,7.18,0,0,0-2.14-2.89,7.88,7.88,0,0,0-3.25-1.47,19.76,19.76,0,0,0-4.14-.41c-1.09,0-2.11,0-3.05.1s-1.8.14-2.55.23c-.07,1-.12,2.14-.16,3.28s0,2.31,0,3.49v5.62c0,2.36.07,4.66.21,6.93"/><path class="cls-7" d="M134.66,33a8,8,0,0,1,6.18-2.29,9.2,9.2,0,0,1,3.32.54,7,7,0,0,1,2.34,1.44,5.63,5.63,0,0,1,1.39,2.11,7.27,7.27,0,0,1,.45,2.57c0,.22,0,.44,0,.64s0,.42-.06.64l-3.88-.07c-1.28,0-2.57,0-3.88,0-.79,0-1.59,0-2.37,0l-2.37.07a2,2,0,0,0,0,.49v.42a6.66,6.66,0,0,0,.42,2.38,5.33,5.33,0,0,0,1.21,1.91,5.88,5.88,0,0,0,2,1.27,7,7,0,0,0,2.68.47,6.52,6.52,0,0,0,1.49-.18A9.82,9.82,0,0,0,145,45a8.88,8.88,0,0,0,1.36-.74,7.29,7.29,0,0,0,1.11-.91l.18.1L147.4,45a10.62,10.62,0,0,1-2.7,1.33,10.24,10.24,0,0,1-3.35.56,11.15,11.15,0,0,1-3.57-.54A7.94,7.94,0,0,1,135,44.78a6.85,6.85,0,0,1-1.81-2.43,7.16,7.16,0,0,1-.64-3,8.91,8.91,0,0,1,2.12-6.3m4-.67a5.09,5.09,0,0,0-1.53,1.38,6.12,6.12,0,0,0-.9,1.83,8,8,0,0,0-.38,1.87l2.33.07c.81,0,1.61,0,2.38,0s1.6,0,2.43,0l2.39-.07a11.28,11.28,0,0,0-.17-1.86,5.09,5.09,0,0,0-.65-1.82,4,4,0,0,0-1.36-1.4,4.18,4.18,0,0,0-2.28-.55,4.3,4.3,0,0,0-2.26.55"/><path class="cls-7" d="M151.73,38.14c0-.87,0-1.73-.06-2.59s0-1.68-.09-2.47-.07-1.45-.12-2a7.9,7.9,0,0,0,3.26,0c-.09.57-.16,1.11-.21,1.63s-.07,1.05-.07,1.57h.07a6.55,6.55,0,0,1,.72-1.13A6.12,6.12,0,0,1,156.45,32a6.88,6.88,0,0,1,1.8-.9,7.36,7.36,0,0,1,2.39-.36,8,8,0,0,1,2.72.48,6.64,6.64,0,0,1,2.38,1.45,7.26,7.26,0,0,1,1.67,2.49,9.43,9.43,0,0,1,.63,3.61,8.81,8.81,0,0,1-.69,3.63,7.57,7.57,0,0,1-1.8,2.54A6.69,6.69,0,0,1,163,46.41a8.76,8.76,0,0,1-2.83.48,6,6,0,0,1-5.7-3.1h-.06v2.05c0,.7,0,1.48,0,2.34s0,1.71.06,2.56.05,1.66.09,2.43.07,1.43.12,2a9.56,9.56,0,0,0-3.26,0c0-.54.09-1.2.12-2s.07-1.59.09-2.43,0-1.7.06-2.56,0-1.64,0-2.34V40.56c0-.74,0-1.55,0-2.42m12.67-2.63a5.85,5.85,0,0,0-1.16-2,3.75,3.75,0,0,0-1.62-1.06,5.64,5.64,0,0,0-1.78-.3,5.19,5.19,0,0,0-2.48.56,4.83,4.83,0,0,0-1.69,1.48,6,6,0,0,0-.94,2.19,11.42,11.42,0,0,0-.29,2.66q0,6.8,5.3,6.79a4.53,4.53,0,0,0,2.26-.54,4.59,4.59,0,0,0,1.6-1.5,6.93,6.93,0,0,0,.94-2.25,11.61,11.61,0,0,0,.31-2.76,9.81,9.81,0,0,0-.45-3.23"/><path class="cls-7" d="M171.63,35.09a7.06,7.06,0,0,1,2.05-2.51,8.5,8.5,0,0,1,2.84-1.41,11.46,11.46,0,0,1,6.29,0,8.64,8.64,0,0,1,2.83,1.41,7.14,7.14,0,0,1,2,2.51,8.31,8.31,0,0,1,.78,3.77,8.31,8.31,0,0,1-.78,3.77,7.14,7.14,0,0,1-2,2.51,7.82,7.82,0,0,1-2.83,1.36,12.88,12.88,0,0,1-6.29,0,7.71,7.71,0,0,1-2.84-1.36,7.06,7.06,0,0,1-2.05-2.51,8.31,8.31,0,0,1-.78-3.77,8.31,8.31,0,0,1,.78-3.77m2.68,6.41a6.55,6.55,0,0,0,.93,2.27A4.66,4.66,0,0,0,177,45.35a6.48,6.48,0,0,0,5.36,0,4.82,4.82,0,0,0,1.74-1.58A6.73,6.73,0,0,0,185,41.5a13,13,0,0,0,0-5.27,6.65,6.65,0,0,0-.92-2.27,4.82,4.82,0,0,0-1.74-1.58,6.48,6.48,0,0,0-5.36,0A4.66,4.66,0,0,0,175.24,34a6.47,6.47,0,0,0-.93,2.27,13,13,0,0,0,0,5.27"/><path class="cls-7" d="M195.81,26.66c-.07.83-.12,1.64-.16,2.44s-.08,1.6-.13,2.41c.27,0,.76,0,1.49,0s1.51,0,2.36-.08a1.25,1.25,0,0,0,0,.36v.69a1.22,1.22,0,0,0,0,.33c-.32,0-.64,0-1,0s-.7,0-1.09,0h-1.78c0,.08-.05.43-.09,1s-.06,1.33-.08,2.17,0,1.71-.06,2.63,0,1.73,0,2.45,0,1.2.06,1.79a4.82,4.82,0,0,0,.34,1.58,2.73,2.73,0,0,0,.87,1.13,2.84,2.84,0,0,0,1.67.42,6.56,6.56,0,0,0,.78-.06,5.53,5.53,0,0,0,.86-.16v.79c-.42.06-.87.14-1.37.24a7.17,7.17,0,0,1-1.43.15,4.88,4.88,0,0,1-3.38-1,3.9,3.9,0,0,1-1.09-3c0-.58,0-1.22,0-1.91s0-1.43.09-2.25.06-1.72.08-2.71,0-2.1,0-3.31h-1.16c-.19,0-.4,0-.62,0s-.44,0-.68,0c0-.14,0-.26,0-.38s0-.25,0-.38,0-.22,0-.33,0-.22,0-.33c1.08.07,1.88.11,2.39.11,0-.44,0-1,0-1.64s-.05-1.33-.09-2l3-1.14Z"/><path class="cls-6" d="M201.18,45.46a.76.76,0,0,1,.54-.21.81.81,0,0,1,.55.21.65.65,0,0,1,.23.49.58.58,0,0,1-.23.46.85.85,0,0,1-.55.2.8.8,0,0,1-.54-.2A.58.58,0,0,1,201,46a.65.65,0,0,1,.23-.49"/><path class="cls-6" d="M204.49,42.26a2.91,2.91,0,0,1,.78-.95,3.21,3.21,0,0,1,1.11-.55,4.6,4.6,0,0,1,1.28-.18,5,5,0,0,1,1.34.17,2.45,2.45,0,0,1,.85.37,2.59,2.59,0,0,0-.17.38c-.05.14-.09.28-.13.43h-.11a1.5,1.5,0,0,0-.26-.33,2.53,2.53,0,0,0-.39-.31,2.78,2.78,0,0,0-.49-.23,1.89,1.89,0,0,0-.6-.09,2.55,2.55,0,0,0-1,.2,2,2,0,0,0-.73.56,2.34,2.34,0,0,0-.4.84,3.87,3.87,0,0,0-.13,1,2.72,2.72,0,0,0,.6,1.91,2.27,2.27,0,0,0,1.75.64,2.2,2.2,0,0,0,.56-.07,3,3,0,0,0,.56-.18,3.15,3.15,0,0,0,.51-.28,2.74,2.74,0,0,0,.41-.34l.07,0a2.89,2.89,0,0,0-.08.6,4.22,4.22,0,0,1-1,.5,3.79,3.79,0,0,1-1.26.21,4.69,4.69,0,0,1-1.17-.15,3.13,3.13,0,0,1-1.07-.52,2.65,2.65,0,0,1-.77-.94,3.13,3.13,0,0,1-.29-1.41,2.94,2.94,0,0,1,.3-1.37"/><path class="cls-6" d="M211.19,42.22a2.59,2.59,0,0,1,.77-.95,3.09,3.09,0,0,1,1.06-.52,4.43,4.43,0,0,1,1.18-.17,4.32,4.32,0,0,1,1.18.17,3.09,3.09,0,0,1,1.06.52,2.59,2.59,0,0,1,.77.95,3.6,3.6,0,0,1,0,2.83,2.55,2.55,0,0,1-.77.94,2.9,2.9,0,0,1-1.06.51,4.71,4.71,0,0,1-1.18.15A4.83,4.83,0,0,1,213,46.5,2.9,2.9,0,0,1,212,46a2.55,2.55,0,0,1-.77-.94,3.6,3.6,0,0,1,0-2.83m1,2.41a2.58,2.58,0,0,0,.35.85,1.68,1.68,0,0,0,.65.59,2.07,2.07,0,0,0,1,.23,2.09,2.09,0,0,0,1-.23,1.76,1.76,0,0,0,.65-.59,2.37,2.37,0,0,0,.34-.85,4.56,4.56,0,0,0,0-2,2.37,2.37,0,0,0-.34-.85,1.87,1.87,0,0,0-.65-.6,2.09,2.09,0,0,0-1-.22,2.07,2.07,0,0,0-1,.22,1.79,1.79,0,0,0-.65.6,2.58,2.58,0,0,0-.35.85,5,5,0,0,0,0,2"/><path class="cls-6" d="M219,41.84c0-.41,0-.78-.08-1.14a3.15,3.15,0,0,0,.61.07l.24,0,.31,0c0,.33,0,.66,0,1h0a2.29,2.29,0,0,1,2-1.11,2.5,2.5,0,0,1,.66.09,2.45,2.45,0,0,1,.59.26,1.7,1.7,0,0,1,.46.38,1.37,1.37,0,0,1,.26.49h0a2.29,2.29,0,0,1,.89-.91,2.74,2.74,0,0,1,1.3-.31,3.09,3.09,0,0,1,.83.11,2.06,2.06,0,0,1,.66.34,1.5,1.5,0,0,1,.43.61,2.1,2.1,0,0,1,.16.88c0,.14,0,.29,0,.45s0,.35,0,.57,0,.46,0,.74,0,.59,0,.95,0,.43,0,.63,0,.43,0,.66l-.3,0h-.59l-.3,0c0-.2,0-.61.08-1.23s.05-1.49.05-2.6a2.2,2.2,0,0,0-.07-.58,1.19,1.19,0,0,0-.24-.46,1,1,0,0,0-.44-.31,1.64,1.64,0,0,0-.67-.12,1.86,1.86,0,0,0-.83.17,1.52,1.52,0,0,0-.53.41,1.64,1.64,0,0,0-.17.26,1.84,1.84,0,0,0-.1.42c0,.18,0,.43,0,.77s0,.78,0,1.36c0,.35,0,.68,0,1s0,.6.05.94l-.59,0-.6,0c0-.44.07-.9.09-1.37s0-.92,0-1.37v-.9a4.8,4.8,0,0,0,0-.51,1.94,1.94,0,0,0-.07-.32c0-.08-.08-.17-.13-.27a1.26,1.26,0,0,0-.47-.4,1.53,1.53,0,0,0-.66-.16,1.56,1.56,0,0,0-1.31.53,2.25,2.25,0,0,0-.43,1.48v1c0,.37,0,.75,0,1.16s.05.77.09,1.09l-.61,0-.61,0c0-.32.07-.69.08-1.09s0-.79,0-1.16V43c0-.37,0-.76,0-1.16"/><path class="cls-8" d="M14.94,60.83a18.42,18.42,0,0,0,.94-1.89l.06-.15.21-.49-.38-1c-.08-.21-.25-.63-.52-1.24s-.57-1.29-.91-2.06l.21,0h.24L15,54a.76.76,0,0,0,.21,0c.08.28.2.65.37,1.1s.37,1,.61,1.56l.32.79.33-.76c.23-.52.42-1,.59-1.45s.32-.86.44-1.24L18,54h.17l.15,0a.32.32,0,0,0,.14,0c-.11.23-.24.49-.37.79s-.3.66-.49,1.1L16.4,58.67c-.28.63-.47,1.09-.58,1.39a6.7,6.7,0,0,0-.25.77l-.16,0H15.1Z"/><path class="cls-8" d="M21.71,58.41a2.09,2.09,0,0,1-1.57-.63,2.46,2.46,0,0,1,0-3.23,2.09,2.09,0,0,1,1.56-.63,2.06,2.06,0,0,1,1.56.63,2.22,2.22,0,0,1,.6,1.62,2.25,2.25,0,0,1-.6,1.62A2.12,2.12,0,0,1,21.71,58.41Zm0-.28a1.19,1.19,0,0,0,1-.49,2.36,2.36,0,0,0,.36-1.42,2.59,2.59,0,0,0-.36-1.5,1.31,1.31,0,0,0-2.07,0,2.48,2.48,0,0,0-.35,1.46,2.54,2.54,0,0,0,.35,1.47A1.2,1.2,0,0,0,21.71,58.13Z"/><path class="cls-8" d="M28.49,58.34v-.17c0-.09,0-.25,0-.49v-.09a1.62,1.62,0,0,1-.6.64,1.7,1.7,0,0,1-.87.21,1.41,1.41,0,0,1-1.07-.39,1.6,1.6,0,0,1-.36-1.13s0-.3,0-.78,0-.92,0-1.36v-.31c0-.11,0-.27,0-.46l.17,0h.4l.19,0c0,.43-.08.86-.1,1.3s0,.86,0,1.28a1.79,1.79,0,0,0,.26,1.07,1,1,0,0,0,.81.34,1.16,1.16,0,0,0,.63-.18,1,1,0,0,0,.42-.48,1.84,1.84,0,0,0,.12-.6c0-.26,0-.8,0-1.61,0-.19,0-.38,0-.57l0-.55.18,0h.4l.17,0c0,.24,0,.57,0,1s0,.94,0,1.59c0,.43,0,.76,0,1s0,.5,0,.74l-.13,0h-.34Z"/><path class="cls-8" d="M31.28,58.32q0-.45,0-1.17c0-.48,0-1.08,0-1.82,0-.39,0-.67,0-.85s0-.34,0-.48l.19,0h.21l.2,0a.57.57,0,0,0,.18,0c0,.15,0,.31,0,.47s0,.35,0,.54a2.46,2.46,0,0,1,.54-.79.86.86,0,0,1,.61-.26h.13l.22,0a1.88,1.88,0,0,0,0,.28c0,.11,0,.25,0,.41l-.07,0-.22-.08a.83.83,0,0,0-.22,0,.75.75,0,0,0-.73.44A3.1,3.1,0,0,0,32,56.48c0,.37,0,.72,0,1s0,.58,0,.81l-.18,0h-.39Z"/><path class="cls-8" d="M40,58.41a2.06,2.06,0,0,1-1.56-.63,2.46,2.46,0,0,1,0-3.23A2.07,2.07,0,0,1,40,53.92a2.09,2.09,0,0,1,1.57.63,2.47,2.47,0,0,1,0,3.24A2.09,2.09,0,0,1,40,58.41Zm0-.28a1.2,1.2,0,0,0,1-.49,2.44,2.44,0,0,0,.35-1.42,2.59,2.59,0,0,0-.36-1.5,1.16,1.16,0,0,0-1-.52,1.2,1.2,0,0,0-1,.5,3.2,3.2,0,0,0,0,2.93A1.18,1.18,0,0,0,40,58.13Z"/><path class="cls-8" d="M43.86,58.33c0-.18,0-.38,0-.6s0-.55,0-1v-.66c0-.59,0-1,0-1.31s0-.54,0-.77A.48.48,0,0,0,44,54l.19,0h.2l.16,0v0c0,.19,0,.33,0,.42v.16a1.23,1.23,0,0,1,0,.17,1.92,1.92,0,0,1,.62-.67,1.59,1.59,0,0,1,.82-.22,1.42,1.42,0,0,1,1.1.41,1.84,1.84,0,0,1,.37,1.23c0,.15,0,.38,0,.67s0,.52,0,.66v.7c0,.24,0,.49,0,.75l-.19,0h-.36l-.2,0c0-.32,0-.7,0-1.13s0-.92,0-1.47a1.58,1.58,0,0,0-.27-1,.9.9,0,0,0-.77-.34,1.07,1.07,0,0,0-.49.1,1,1,0,0,0-.37.29,1.39,1.39,0,0,0-.24.52,4.1,4.1,0,0,0-.07.91v.41c0,.53,0,.91,0,1.13s0,.42,0,.59l-.21,0h-.36Z"/><path class="cls-8" d="M49.55,58.33c0-.22,0-.5,0-.84s0-1,0-1.83v-2.4c0-.55,0-.94,0-1.18s0-.44,0-.62l.21,0h.32l.24,0c0,.3,0,.64,0,1s0,1,0,1.8c0,1.11,0,2,0,2.59s0,1.11,0,1.46l-.2,0h-.38Z"/><path class="cls-8" d="M52.35,52.4a.47.47,0,0,1,.79-.33.45.45,0,0,1,.14.33.49.49,0,0,1-.14.34.46.46,0,0,1-.66,0A.48.48,0,0,1,52.35,52.4Zm.09,5.93c0-.42,0-.82,0-1.19s0-.74,0-1.08,0-.65,0-1,0-.7,0-1.07l.18,0H53l.18,0c0,.38,0,.74,0,1.08s0,.66,0,1,0,.71,0,1.08,0,.77,0,1.19l-.19,0-.19,0h-.17Z"/><path class="cls-8" d="M55.32,58.33q0-.27,0-.6c0-.22,0-.55,0-1v-.66c0-.59,0-1,0-1.31s0-.54,0-.77a.57.57,0,0,0,.18,0l.2,0h.2l.16,0v0a3.75,3.75,0,0,0,0,.42v.16c0,.08,0,.13,0,.17a1.84,1.84,0,0,1,.62-.67,1.57,1.57,0,0,1,.82-.22,1.43,1.43,0,0,1,1.1.41A1.84,1.84,0,0,1,59,55.55c0,.15,0,.38,0,.67s0,.52,0,.66,0,.46,0,.7,0,.49,0,.75l-.2,0h-.35l-.2,0c0-.32,0-.7,0-1.13s0-.92,0-1.47a1.58,1.58,0,0,0-.26-1,.9.9,0,0,0-.78-.34,1.06,1.06,0,0,0-.48.1.94.94,0,0,0-.37.29,1.14,1.14,0,0,0-.24.52,4.1,4.1,0,0,0-.07.91v1.54c0,.23,0,.42,0,.59l-.21,0h-.36Z"/><path class="cls-8" d="M64.37,57.88a2.73,2.73,0,0,1-.75.4,2.64,2.64,0,0,1-.81.13,2.09,2.09,0,0,1-1.56-.62,2.25,2.25,0,0,1-.59-1.61,2.35,2.35,0,0,1,.57-1.65,2,2,0,0,1,1.53-.62,1.78,1.78,0,0,1,1.36.52,2.11,2.11,0,0,1,.48,1.48.46.46,0,0,1,0,.1v.1H61.44v0a2.18,2.18,0,0,0,.4,1.42A1.38,1.38,0,0,0,63,58a1.81,1.81,0,0,0,.74-.15,2.32,2.32,0,0,0,.66-.46v.45Zm-2.91-2.09h2.41v-.16a1.64,1.64,0,0,0-.31-1.05,1,1,0,0,0-.84-.38,1.06,1.06,0,0,0-.88.44A1.86,1.86,0,0,0,61.46,55.79Z"/><path class="cls-8" d="M69.29,57.37a1.56,1.56,0,0,0,.5.52,1.09,1.09,0,0,0,.61.18,1,1,0,0,0,.65-.22.81.81,0,0,0,.24-.62.64.64,0,0,0-.17-.46,1.16,1.16,0,0,0-.56-.29l-.42-.12a1.35,1.35,0,0,1-.75-.42,1.1,1.1,0,0,1-.23-.75,1.21,1.21,0,0,1,.38-.92,1.49,1.49,0,0,1,1-.35,2.43,2.43,0,0,1,.61.08,1.94,1.94,0,0,1,.53.23c0,.09-.08.19-.12.28a1.63,1.63,0,0,0-.07.3,2,2,0,0,0-.53-.46,1.08,1.08,0,0,0-.54-.15.72.72,0,0,0-.77.77.68.68,0,0,0,.16.48,1.05,1.05,0,0,0,.53.28l.62.19a1.27,1.27,0,0,1,.68.38,1,1,0,0,1,.21.67,1.35,1.35,0,0,1-.46,1,1.73,1.73,0,0,1-1.17.4,2.27,2.27,0,0,1-.65-.09,1.51,1.51,0,0,1-.53-.24c0-.12.09-.24.13-.36S69.26,57.49,69.29,57.37Z"/><path class="cls-8" d="M75.28,58.41a2.06,2.06,0,0,1-1.56-.63,2.18,2.18,0,0,1-.61-1.61,2.26,2.26,0,0,1,.61-1.62,2.09,2.09,0,0,1,1.56-.63,2.06,2.06,0,0,1,1.56.63,2.19,2.19,0,0,1,.61,1.62,2.26,2.26,0,0,1-.61,1.62A2.09,2.09,0,0,1,75.28,58.41Zm0-.28a1.18,1.18,0,0,0,1-.49,2.36,2.36,0,0,0,.36-1.42,2.59,2.59,0,0,0-.36-1.5,1.17,1.17,0,0,0-1-.52,1.18,1.18,0,0,0-1,.5,2.56,2.56,0,0,0-.35,1.46,2.62,2.62,0,0,0,.35,1.47A1.2,1.2,0,0,0,75.28,58.13Z"/><path class="cls-8" d="M82.07,58.34v-.17c0-.09,0-.25,0-.49v-.09a1.6,1.6,0,0,1-.59.64,1.71,1.71,0,0,1-.88.21,1.37,1.37,0,0,1-1.06-.39,1.56,1.56,0,0,1-.37-1.13s0-.3,0-.78,0-.92,0-1.36c0-.09,0-.19,0-.31s0-.27,0-.46l.17,0h.41L80,54c0,.43-.09.86-.11,1.3s0,.86,0,1.28a1.79,1.79,0,0,0,.26,1.07,1,1,0,0,0,.81.34,1.11,1.11,0,0,0,.63-.18,1,1,0,0,0,.42-.48,2.09,2.09,0,0,0,.13-.6c0-.26,0-.8,0-1.61,0-.19,0-.38,0-.57L82,54l.18,0h.4l.17,0c0,.24,0,.57,0,1s0,.94,0,1.59c0,.43,0,.76,0,1s0,.5,0,.74l-.13,0h-.34Z"/><path class="cls-8" d="M84.85,58.32q0-.45,0-1.17c0-.48,0-1.08,0-1.82,0-.39,0-.67,0-.85s0-.34,0-.48L85,54h.21l.2,0a.57.57,0,0,0,.18,0c0,.15,0,.31,0,.47s0,.35,0,.54a2.63,2.63,0,0,1,.53-.79.86.86,0,0,1,.61-.26h.14l.21,0a1.14,1.14,0,0,0,0,.28c0,.11,0,.25,0,.41l-.07,0-.22-.08a.78.78,0,0,0-.22,0,.76.76,0,0,0-.73.44,3.24,3.24,0,0,0-.23,1.41c0,.37,0,.72,0,1s0,.58,0,.81l-.18,0H85Z"/><path class="cls-8" d="M91.89,58a2,2,0,0,1-.68.34,2.93,2.93,0,0,1-.88.12,2.07,2.07,0,0,1-1.56-.62,2.26,2.26,0,0,1-.59-1.62,2.19,2.19,0,0,1,.63-1.64,2.23,2.23,0,0,1,1.65-.62,3.16,3.16,0,0,1,.76.09,4.06,4.06,0,0,1,.73.28c0,.12-.09.24-.14.37a4.26,4.26,0,0,0-.11.42,1.53,1.53,0,0,0-.5-.65,1.31,1.31,0,0,0-.74-.21,1.34,1.34,0,0,0-1.13.51,2.26,2.26,0,0,0-.4,1.44,2.14,2.14,0,0,0,.43,1.41,1.45,1.45,0,0,0,1.16.52,1.65,1.65,0,0,0,.72-.17,2.21,2.21,0,0,0,.66-.5v.06c0,.13,0,.23,0,.28V58Z"/><path class="cls-8" d="M96.83,57.88a2.73,2.73,0,0,1-.75.4,2.64,2.64,0,0,1-.81.13,2,2,0,0,1-1.55-.62,2.21,2.21,0,0,1-.6-1.61,2.35,2.35,0,0,1,.57-1.65,2,2,0,0,1,1.53-.62,1.78,1.78,0,0,1,1.36.52,2.11,2.11,0,0,1,.48,1.48.46.46,0,0,1,0,.1v.1H93.9v0a2.18,2.18,0,0,0,.4,1.42,1.38,1.38,0,0,0,1.14.48,1.81,1.81,0,0,0,.74-.15,2.32,2.32,0,0,0,.66-.46c0,.09,0,.16,0,.21v.24Zm-2.91-2.09h2.41v-.16A1.64,1.64,0,0,0,96,54.58a1,1,0,0,0-.84-.38,1.06,1.06,0,0,0-.88.44A1.86,1.86,0,0,0,93.92,55.79Z"/><path class="cls-8" d="M102,58.33c0-.21,0-.52,0-.92s0-1,0-1.86V54.4h-.61v-.36h0a2.79,2.79,0,0,0,.36,0h.24a3.43,3.43,0,0,1,.49-1.91,1.5,1.5,0,0,1,1.28-.7H104l-.09.73a1.06,1.06,0,0,0-.25-.09l-.27,0a.77.77,0,0,0-.59.21.92.92,0,0,0-.19.64,4.47,4.47,0,0,0,0,.47c0,.21,0,.43,0,.67h.63l.31,0v.37l-.69,0h-.23c0,1.06,0,1.91,0,2.53s0,1.09.06,1.4a1.77,1.77,0,0,0-.21,0l-.2,0h-.19Z"/><path class="cls-8" d="M107,58.41a2.09,2.09,0,0,1-1.57-.63,2.46,2.46,0,0,1,0-3.23,2.09,2.09,0,0,1,1.56-.63,2.06,2.06,0,0,1,1.56.63,2.22,2.22,0,0,1,.6,1.62,2.25,2.25,0,0,1-.6,1.62A2.12,2.12,0,0,1,107,58.41Zm0-.28a1.19,1.19,0,0,0,1-.49,2.36,2.36,0,0,0,.36-1.42,2.59,2.59,0,0,0-.36-1.5,1.31,1.31,0,0,0-2.07,0,2.48,2.48,0,0,0-.35,1.46,2.54,2.54,0,0,0,.35,1.47A1.19,1.19,0,0,0,107,58.13Z"/><path class="cls-8" d="M110.87,58.32q0-.45,0-1.17c0-.48,0-1.08,0-1.82,0-.39,0-.67,0-.85s0-.34,0-.48l.19,0h.21l.2,0a.57.57,0,0,0,.18,0c0,.15,0,.31,0,.47s0,.35,0,.54a2.46,2.46,0,0,1,.54-.79.86.86,0,0,1,.61-.26h.13l.22,0a1.88,1.88,0,0,0,0,.28c0,.11,0,.25,0,.41l-.07,0-.22-.08a.83.83,0,0,0-.22,0,.75.75,0,0,0-.73.44,3.1,3.1,0,0,0-.23,1.41c0,.37,0,.72,0,1s0,.58,0,.81l-.18,0H111Z"/><path class="cls-8" d="M117.79,58.33c0-.21,0-.52,0-.92s0-1,0-1.86V54.4h-.61v-.36h0a2.66,2.66,0,0,0,.35,0h.25a3.43,3.43,0,0,1,.49-1.91,1.49,1.49,0,0,1,1.28-.7h.18l-.09.73a1.06,1.06,0,0,0-.25-.09,1.27,1.27,0,0,0-.28,0,.75.75,0,0,0-.58.21.93.93,0,0,0-.2.64c0,.11,0,.27,0,.47s0,.43,0,.67h.62l.32,0v.37l-.69,0h-.23c0,1.06,0,1.91,0,2.53s0,1.09,0,1.4l-.2,0-.2,0H118Z"/><path class="cls-8" d="M123.23,57.8a1.93,1.93,0,0,1-.63.45,1.66,1.66,0,0,1-.73.16,1.36,1.36,0,0,1-.93-.29,1.07,1.07,0,0,1-.33-.83,1.08,1.08,0,0,1,.26-.78,1.42,1.42,0,0,1,.8-.42l.62-.12a2.48,2.48,0,0,0,1-.3v-.19a1.43,1.43,0,0,0-.24-.92,1,1,0,0,0-.78-.28,1.35,1.35,0,0,0-.67.16,1.69,1.69,0,0,0-.51.49H121l0-.48a2.08,2.08,0,0,1,.68-.39,2.32,2.32,0,0,1,.8-.13,1.43,1.43,0,0,1,1.1.37,1.65,1.65,0,0,1,.34,1.17v.11l0,1.57v.25a1,1,0,0,0,.08.49.38.38,0,0,0,.32.12h.16l0,.18h0a2.91,2.91,0,0,1-.73.14.41.41,0,0,1-.34-.13A.71.71,0,0,1,123.23,57.8Zm0-1.74a4.81,4.81,0,0,0-1.54.42.76.76,0,0,0-.34.69.91.91,0,0,0,.21.64.78.78,0,0,0,.6.22,1.11,1.11,0,0,0,.48-.11,1.35,1.35,0,0,0,.44-.29.83.83,0,0,0,.12-.16.71.71,0,0,0,0-.23V56.06Z"/><path class="cls-8" d="M129,58.34v-.17c0-.09,0-.25,0-.49v-.09a1.6,1.6,0,0,1-.59.64,1.71,1.71,0,0,1-.88.21,1.38,1.38,0,0,1-1.06-.39,1.56,1.56,0,0,1-.37-1.13s0-.3,0-.78,0-.92,0-1.36c0-.09,0-.19,0-.31s0-.27,0-.46l.17,0h.41l.19,0c0,.43-.09.86-.11,1.3s0,.86,0,1.28a1.79,1.79,0,0,0,.26,1.07,1,1,0,0,0,.81.34,1.11,1.11,0,0,0,.63-.18,1,1,0,0,0,.42-.48,2.09,2.09,0,0,0,.13-.6c0-.26,0-.8,0-1.61,0-.19,0-.38,0-.57s0-.37,0-.55l.18,0h.4l.17,0c0,.24,0,.57,0,1s0,.94,0,1.59c0,.43,0,.76,0,1s0,.5,0,.74l-.13,0h-.34Z"/><path class="cls-8" d="M135.12,58a2,2,0,0,1-.69.34,2.93,2.93,0,0,1-.88.12A2.07,2.07,0,0,1,132,57.8a2.25,2.25,0,0,1-.58-1.62,2.19,2.19,0,0,1,.62-1.64,2.23,2.23,0,0,1,1.65-.62,3.16,3.16,0,0,1,.76.09,4.06,4.06,0,0,1,.73.28c0,.12-.09.24-.14.37s-.07.27-.11.42a1.53,1.53,0,0,0-.5-.65,1.31,1.31,0,0,0-.74-.21,1.34,1.34,0,0,0-1.13.51,2.26,2.26,0,0,0-.4,1.44,2.14,2.14,0,0,0,.43,1.41,1.45,1.45,0,0,0,1.16.52,1.65,1.65,0,0,0,.72-.17,2.21,2.21,0,0,0,.66-.5v.06c0,.13,0,.23,0,.28v.12A.17.17,0,0,0,135.12,58Z"/><path class="cls-8" d="M140.05,57.88a2.73,2.73,0,0,1-.75.4,2.64,2.64,0,0,1-.81.13,2,2,0,0,1-1.55-.62,2.21,2.21,0,0,1-.6-1.61,2.35,2.35,0,0,1,.57-1.65,2,2,0,0,1,1.53-.62,1.78,1.78,0,0,1,1.36.52,2.11,2.11,0,0,1,.48,1.48V56a.41.41,0,0,0,0,.1h-3.15v0a2.18,2.18,0,0,0,.4,1.42,1.38,1.38,0,0,0,1.14.48,1.78,1.78,0,0,0,.74-.15,2.32,2.32,0,0,0,.66-.46c0,.09,0,.16,0,.21v.24Zm-2.91-2.09h2.41v-.16a1.58,1.58,0,0,0-.31-1.05,1,1,0,0,0-.84-.38,1.06,1.06,0,0,0-.88.44A1.93,1.93,0,0,0,137.14,55.79Z"/><path class="cls-8" d="M141.44,54.39c0-.07,0-.12,0-.16v-.16a.56.56,0,0,0,0-.07l.3,0h.3v-.3c0-.11,0-.21,0-.32s0-.27,0-.45a4,4,0,0,0,.4-.09,2.52,2.52,0,0,0,.33-.14c0,.2,0,.36,0,.48v.85h.54l.64,0s0,.09,0,.15a.81.81,0,0,0,0,.16v.07l-.45,0h-.71c0,.09,0,.17,0,.24v.22c0,.17,0,.5,0,1s0,.85,0,1.15a1.64,1.64,0,0,0,.17.89.66.66,0,0,0,.59.27,1,1,0,0,0,.28-.05l.36-.15.07.2a1.8,1.8,0,0,1-.48.24,1.93,1.93,0,0,1-.52.08,1.2,1.2,0,0,1-.89-.29,1.42,1.42,0,0,1-.27-1c0-.09,0-.41,0-1s0-1.07,0-1.53v-.31h-.34Z"/><path class="cls-8" d="M145.11,57.37a1.56,1.56,0,0,0,.5.52,1.09,1.09,0,0,0,.61.18,1,1,0,0,0,.65-.22.81.81,0,0,0,.23-.62.67.67,0,0,0-.15-.46,1.25,1.25,0,0,0-.57-.29l-.42-.12a1.35,1.35,0,0,1-.75-.42,1.1,1.1,0,0,1-.23-.75,1.21,1.21,0,0,1,.38-.92,1.49,1.49,0,0,1,1-.35A2.43,2.43,0,0,1,147,54a1.94,1.94,0,0,1,.53.23c-.05.09-.08.19-.12.28a1.63,1.63,0,0,0-.07.3,2,2,0,0,0-.53-.46,1.08,1.08,0,0,0-.54-.15.72.72,0,0,0-.77.77.68.68,0,0,0,.16.48,1.1,1.1,0,0,0,.53.28l.62.19a1.27,1.27,0,0,1,.68.38,1,1,0,0,1,.21.67,1.32,1.32,0,0,1-.46,1,1.73,1.73,0,0,1-1.17.4,2.27,2.27,0,0,1-.65-.09,1.51,1.51,0,0,1-.53-.24,2.53,2.53,0,0,0,.12-.36C145,57.6,145.08,57.49,145.11,57.37Z"/><path class="cls-8" d="M161.13,57.8a2.08,2.08,0,0,1-.64.45,1.63,1.63,0,0,1-.73.16,1.38,1.38,0,0,1-.93-.29,1.07,1.07,0,0,1-.33-.83,1.13,1.13,0,0,1,.26-.78,1.49,1.49,0,0,1,.8-.42l.62-.12a2.56,2.56,0,0,0,1-.3v-.19a1.37,1.37,0,0,0-.25-.92,1,1,0,0,0-.77-.28,1.35,1.35,0,0,0-.67.16,1.49,1.49,0,0,0-.51.49h-.07l0-.48a2.14,2.14,0,0,1,.67-.39,2.36,2.36,0,0,1,.8-.13,1.42,1.42,0,0,1,1.1.37,1.65,1.65,0,0,1,.35,1.17v.11l0,1.57v.25a.89.89,0,0,0,.09.49.36.36,0,0,0,.32.12h.15l0,.18h0a2.85,2.85,0,0,1-.72.14.45.45,0,0,1-.35-.13A.71.71,0,0,1,161.13,57.8Zm0-1.74a4.73,4.73,0,0,0-1.54.42.77.77,0,0,0-.35.69.87.87,0,0,0,.22.64.78.78,0,0,0,.6.22,1.11,1.11,0,0,0,.48-.11,1.3,1.3,0,0,0,.43-.29.42.42,0,0,0,.12-.16.5.5,0,0,0,0-.23V56.06Z"/><path class="cls-8" d="M164,58.33c0-.18,0-.38,0-.6s0-.55,0-1v-.66c0-.59,0-1,0-1.31s0-.54,0-.77l.18,0,.2,0h.19l.16,0v0c0,.19,0,.33,0,.42a1,1,0,0,0,0,.16v.17a2,2,0,0,1,.62-.67,1.59,1.59,0,0,1,.82-.22,1.4,1.4,0,0,1,1.1.41,1.79,1.79,0,0,1,.37,1.23c0,.15,0,.38,0,.67s0,.52,0,.66,0,.46,0,.7,0,.49,0,.75l-.2,0h-.35l-.2,0c0-.32,0-.7,0-1.13s0-.92,0-1.47a1.65,1.65,0,0,0-.26-1,.93.93,0,0,0-.78-.34,1.1,1.1,0,0,0-.49.1,1,1,0,0,0-.37.29,1.39,1.39,0,0,0-.24.52,4.1,4.1,0,0,0-.07.91v.41c0,.53,0,.91,0,1.13s0,.42,0,.59l-.21,0h-.36Z"/><path class="cls-8" d="M172.68,58.33c0-.14,0-.25,0-.33a1.7,1.7,0,0,0,0-.22v-.21s0-.09,0-.13a1.72,1.72,0,0,1-.64.73,1.68,1.68,0,0,1-.92.24,1.64,1.64,0,0,1-1.33-.6,2.32,2.32,0,0,1-.51-1.57,2.53,2.53,0,0,1,.54-1.68,1.79,1.79,0,0,1,1.4-.64,1.64,1.64,0,0,1,.84.21,1.78,1.78,0,0,1,.62.63V53.12c0-.29,0-.57,0-.85s0-.54,0-.81a1.39,1.39,0,0,0,.23,0l.17,0,.18,0,.22,0q0,.54,0,1.23c0,.46,0,1,0,1.71s0,1.31,0,2,0,1.3,0,2l-.19,0h-.37Zm-1.27-4.06a1.16,1.16,0,0,0-1,.51,2.46,2.46,0,0,0-.36,1.43,2.4,2.4,0,0,0,.33,1.36,1.05,1.05,0,0,0,.93.49,1.17,1.17,0,0,0,1-.53,2.62,2.62,0,0,0,.36-1.49,2.15,2.15,0,0,0-.34-1.31A1.09,1.09,0,0,0,171.41,54.27Z"/><path class="cls-8" d="M178.68,58.33c0-.21,0-.52,0-.92s0-1,0-1.86V54.4h-.62v-.36h0a2.88,2.88,0,0,0,.36,0h.24a3.52,3.52,0,0,1,.49-1.91,1.5,1.5,0,0,1,1.28-.7h.18l-.09.73a.92.92,0,0,0-.25-.09l-.27,0a.77.77,0,0,0-.59.21.92.92,0,0,0-.19.64,4.47,4.47,0,0,0,0,.47c0,.21,0,.43,0,.67H180l.32,0v.37l-.7,0h-.22c0,1.06,0,1.91,0,2.53s0,1.09.06,1.4l-.21,0-.2,0h-.18Z"/><path class="cls-8" d="M181.85,52.4a.42.42,0,0,1,.14-.33.44.44,0,0,1,.33-.13.44.44,0,0,1,.32.13.45.45,0,0,1,.14.33.49.49,0,0,1-.14.34.45.45,0,0,1-.32.14.48.48,0,0,1-.47-.48Zm.09,5.93c0-.42,0-.82,0-1.19s0-.74,0-1.08,0-.65,0-1,0-.7,0-1.07l.18,0h.4l.17,0q0,.57,0,1.08c0,.33,0,.66,0,1s0,.71,0,1.08,0,.77,0,1.19l-.19,0-.18,0h-.18Z"/><path class="cls-8" d="M184.18,58.33c.18-.19.35-.38.51-.58s.38-.45.62-.77l.6-.78-.43-.61-.08-.11c-.46-.65-.84-1.14-1.12-1.48a.83.83,0,0,0,.22,0l.25,0,.25,0,.22,0a2.22,2.22,0,0,0,.15.23c0,.09.14.21.25.38l.74,1.06.55-.7c.18-.23.32-.43.43-.58a3.5,3.5,0,0,0,.24-.39l.2,0,.13,0H188l.2,0-.67.77-.45.55-.54.67.85,1.18,0,.06c.25.35.53.71.85,1.1l-.23,0h-.5l-.22,0-.38-.6-.51-.75-.34-.47-.65.82a5.3,5.3,0,0,0-.36.51,5,5,0,0,0-.28.49l-.16,0h-.35Z"/><path class="cls-8" d="M189.24,54.39c0-.07,0-.12,0-.16a.32.32,0,0,0,0-.16V54l.29,0h.3v-.62c0-.12,0-.27,0-.45a3.42,3.42,0,0,0,.4-.09,2.18,2.18,0,0,0,.34-.14c0,.2,0,.36,0,.48s0,.2,0,.24v.61h.55l.63,0s0,.09,0,.15,0,.1,0,.16v.07l-.45,0h-.71c0,.09,0,.17,0,.24v.22c0,.17,0,.5,0,1s0,.85,0,1.15a1.74,1.74,0,0,0,.17.89.67.67,0,0,0,.6.27,1.11,1.11,0,0,0,.28-.05l.36-.15.06.2a1.8,1.8,0,0,1-.48.24,1.88,1.88,0,0,1-.52.08,1.2,1.2,0,0,1-.89-.29,1.42,1.42,0,0,1-.27-1q0-.13,0-1c0-.56,0-1.07,0-1.53v-.31h-.34Z"/><path class="cls-8" d="M196.06,58.34v-.17c0-.09,0-.25,0-.49a.34.34,0,0,1,0-.09,1.53,1.53,0,0,1-.59.64,1.7,1.7,0,0,1-.87.21,1.39,1.39,0,0,1-1.07-.39,1.6,1.6,0,0,1-.36-1.13s0-.3,0-.78,0-.92,0-1.36v-.31l0-.46.17,0h.41l.19,0c-.05.43-.08.86-.11,1.3s0,.86,0,1.28a1.79,1.79,0,0,0,.26,1.07,1,1,0,0,0,.81.34,1.16,1.16,0,0,0,.63-.18,1,1,0,0,0,.41-.48,1.8,1.8,0,0,0,.13-.6c0-.26,0-.8,0-1.61,0-.19,0-.38,0-.57s0-.37,0-.55l.19,0h.39l.17,0c0,.24,0,.57,0,1s0,.94,0,1.59c0,.43,0,.76,0,1l0,.74-.13,0h-.33Z"/><path class="cls-8" d="M198.85,58.32c0-.3,0-.69,0-1.17s0-1.08,0-1.82c0-.39,0-.67,0-.85s0-.34,0-.48l.18,0h.21l.21,0a.57.57,0,0,0,.18,0c0,.15,0,.31,0,.47s0,.35,0,.54a2.46,2.46,0,0,1,.54-.79.86.86,0,0,1,.61-.26h.13l.21,0c0,.08,0,.17,0,.28s0,.25,0,.41l-.07,0-.23-.08-.21,0a.77.77,0,0,0-.74.44,3.24,3.24,0,0,0-.23,1.41c0,.37,0,.72,0,1s0,.58,0,.81l-.19,0H199Z"/><path class="cls-8" d="M205.9,57.88a2.73,2.73,0,0,1-.75.4,2.64,2.64,0,0,1-.81.13,2.08,2.08,0,0,1-1.55-.62,2.21,2.21,0,0,1-.6-1.61,2.35,2.35,0,0,1,.57-1.65,2,2,0,0,1,1.53-.62,1.78,1.78,0,0,1,1.36.52,2.11,2.11,0,0,1,.48,1.48V56a.41.41,0,0,0,0,.1H203v0a2.24,2.24,0,0,0,.39,1.42,1.38,1.38,0,0,0,1.14.48,1.86,1.86,0,0,0,.75-.15,2.32,2.32,0,0,0,.66-.46c0,.09,0,.16,0,.21v.24ZM203,55.79h2.41v-.16a1.58,1.58,0,0,0-.31-1.05,1,1,0,0,0-.83-.38,1.07,1.07,0,0,0-.89.44A1.93,1.93,0,0,0,203,55.79Z"/><path class="cls-8" d="M207.63,57.37a1.47,1.47,0,0,0,.5.52,1.09,1.09,0,0,0,.61.18,1,1,0,0,0,.65-.22.85.85,0,0,0,.23-.62.63.63,0,0,0-.16-.46,1.16,1.16,0,0,0-.56-.29l-.42-.12a1.35,1.35,0,0,1-.75-.42,1.1,1.1,0,0,1-.23-.75,1.18,1.18,0,0,1,.38-.92,1.49,1.49,0,0,1,1-.35,2.49,2.49,0,0,1,.61.08,1.75,1.75,0,0,1,.52.23c0,.09-.07.19-.11.28s-.06.2-.08.3a2,2,0,0,0-.52-.46,1.1,1.1,0,0,0-.54-.15A.72.72,0,0,0,208,55a.68.68,0,0,0,.16.48,1.05,1.05,0,0,0,.53.28l.62.19a1.27,1.27,0,0,1,.68.38,1,1,0,0,1,.2.67,1.34,1.34,0,0,1-.45,1,1.73,1.73,0,0,1-1.17.4,2.27,2.27,0,0,1-.65-.09,1.51,1.51,0,0,1-.53-.24c0-.12.09-.24.12-.36S207.6,57.49,207.63,57.37Z"/><path class="cls-9" d="M47.19,11.85A3.07,3.07,0,0,0,44,10.77c.66,3.08.84,11.43.8,18,.29,7.15-.57,12-4.55,7.16-.78,13.4,12.38,13.84,11.38.17-5.11,7.11-4.49-7.87-4.54-8.76C46.73,22.22,47.05,13.85,47.19,11.85Z"/><path class="cls-2" d="M27.3,6.1C17.11,15,7.36,39.08,3.74,53.6a32.94,32.94,0,0,0,3.87.1c4.16-13,12.35-33.76,20.57-42.49,7.54-8,12.6-9.27,14.84,2.41a3.6,3.6,0,0,0,2.91-.12C43.42-.68,38.94-4.09,27.3,6.1Z"/><path class="cls-10" d="M47.52,12.44c.84.22,1.41.59,1.39,1,0,.6-1.27,1.05-2.8,1s-2.75-.58-2.73-1.18c0-.36.48-.67,1.18-.84Z"/><path class="cls-11" d="M47.52,12.44c.84.22,1.41.59,1.39,1,0,.6-1.27,1.05-2.8,1s-2.75-.58-2.73-1.18c0-.36.48-.67,1.18-.84Z"/><path class="cls-12" d="M29,5.88C18.78,14.87,9,39.23,5.4,53.71c1.29,0,2.6,0,3.91-.08,4.14-13,12.37-33.88,20.61-42.64,7.55-8,12.61-9.26,14.84,2.42a3.68,3.68,0,0,0,2.91-.12C45.16-.9,40.68-4.3,29,5.88Z"/><path class="cls-13" d="M29,5.88C18.78,14.87,9,39.23,5.4,53.71c1.29,0,2.6,0,3.91-.08,4.14-13,12.37-33.88,20.61-42.64,7.55-8,12.61-9.26,14.84,2.42a3.68,3.68,0,0,0,2.91-.12C45.16-.9,40.68-4.3,29,5.88Z"/><path class="cls-14" d="M48.94,13.81a4.79,4.79,0,0,1-3.09.79,3.33,3.33,0,0,1-2.47-1.37,6,6,0,0,0,2.52,1.1,9.17,9.17,0,0,0,3-.52"/><path class="cls-6" d="M24.5,31.13a10,10,0,0,1,2.83-.4,7.84,7.84,0,0,1,2.39.35,5.3,5.3,0,0,1,1.86,1,4.75,4.75,0,0,1,1.2,1.54,4.44,4.44,0,0,1,.43,2c0,1.24,0,2.48-.07,3.7s-.07,2.53-.07,3.9c0,.26,0,.54,0,.84a2.12,2.12,0,0,0,.16.78,1.51,1.51,0,0,0,.42.57,1.24,1.24,0,0,0,.81.23l.39,0a1,1,0,0,0,.38-.11v.72a4.37,4.37,0,0,1-1,.26,7.7,7.7,0,0,1-1.32.1A2.59,2.59,0,0,1,31.14,46a2.18,2.18,0,0,1-.73-1.39,9.67,9.67,0,0,1-2.57,1.73,7.81,7.81,0,0,1-3.12.56,7.06,7.06,0,0,1-1.78-.23,4.1,4.1,0,0,1-1.54-.75,4.24,4.24,0,0,1-1.09-1.26A3.33,3.33,0,0,1,19.89,43a3.64,3.64,0,0,1,1.36-3A7.84,7.84,0,0,1,25,38.51q1.95-.3,3.06-.51a8.32,8.32,0,0,0,1.63-.44,1.05,1.05,0,0,0,.64-.54,2.48,2.48,0,0,0,.11-.8,5.76,5.76,0,0,0-.22-1.56,3.29,3.29,0,0,0-1.92-2.2,4.49,4.49,0,0,0-1.85-.35,6.35,6.35,0,0,0-2.71.59,4.21,4.21,0,0,0-1.86,1.63h-.4V32.64a10.45,10.45,0,0,1,3-1.51M29,38.76,27.37,39c-.56.1-1.11.22-1.66.37a6.15,6.15,0,0,0-1.45.62,3.16,3.16,0,0,0-1,1,2.65,2.65,0,0,0-.38,1.5,2.76,2.76,0,0,0,1,2.32,3.38,3.38,0,0,0,2.17.78,4.86,4.86,0,0,0,2.52-.68,5.5,5.5,0,0,0,1.76-1.6l.15-4.9a9.07,9.07,0,0,1-1.44.33"/><path class="cls-6" d="M39.32,38.68c0-.82.06-1.63.06-2.44s0-1.59,0-2.48,0-1.79-.06-2.71a9.59,9.59,0,0,0,1.53.14,9.34,9.34,0,0,0,1.49-.14c-.12,1.31-.21,2.74-.27,4.3S42,38.5,42,40.13a7.93,7.93,0,0,0,.33,2.6,3.56,3.56,0,0,0,.79,1.36,4.22,4.22,0,0,0,1.29.86,4.41,4.41,0,0,0,1.82.34,4.88,4.88,0,0,0,2.53-.6A3.84,3.84,0,0,0,50.2,43.2c.17-.37.3-.68.4-.94a5.7,5.7,0,0,0,.24-1,15.1,15.1,0,0,0,.1-1.76c0-.74,0-1.76,0-3V33.66c0-.47,0-.93,0-1.37s0-.85,0-1.24l.76.1a6.23,6.23,0,0,0,.76,0,6.4,6.4,0,0,0,.77,0l.72-.1q-.18,2.55-.21,4.92c0,1.57,0,3.25,0,5,0,1,0,1.93,0,2.87s.06,1.84.11,2.71c-.49,0-1-.06-1.42-.06s-.93,0-1.42.06a5.77,5.77,0,0,0,0-.62c0-.22,0-.44,0-.68V43.85H51a5.82,5.82,0,0,1-2.43,2.3,7.12,7.12,0,0,1-3.22.74,6.63,6.63,0,0,1-4.43-1.36,4.81,4.81,0,0,1-1.61-3.9c0-1.15,0-2.14,0-3"/><path class="cls-15" d="M.16,32.09a7,7,0,0,0,1.28,1.32L8,31.48a11.74,11.74,0,0,1,2.48-2.12Z"/><path class="cls-16" d="M10.54,29.48a.13.13,0,0,0-.07-.12A11.74,11.74,0,0,0,8,31.48l.18,5c.65-.33,1.35-.62,2.09-.92C10.37,32.74,10.54,29.86,10.54,29.48Z"/><path class="cls-17" d="M11.31,36.67s.08-3.17.16-4.17A36.93,36.93,0,0,0,7,33.8l1.88,8.7Z"/><path class="cls-14" d="M18.1,24.79c.41.37,6.49-12.6,12.69-18C36.37,1.84,43.85-3,46.92,13,45.05,2,41.52-4.92,30,6.38c-5.13,5-8.18,10.79-11.88,18.41"/></g></g></g></svg>