<?xml version="1.0" encoding="utf-8"?>
<!-- Generator: Adobe Illustrator 23.0.2, SVG Export Plug-In . SVG Version: 6.00 Build 0)  -->
<svg version="1.1" id="Layer_1" xmlns="http://www.w3.org/2000/svg" xmlns:xlink="http://www.w3.org/1999/xlink" x="0px" y="0px"
	 viewBox="0 0 248 72" style="enable-background:new 0 0 248 72;" xml:space="preserve">
<style type="text/css">
	.st0{fill:#FFFFFF;}
	.st1{fill:#00B2FF;}
	.st2{fill:#22E8B3;}
</style>
<g>
	<path class="st0" d="M74.8,35h-4.1v-2.8h4.1v-2.6c0-3.4,2.2-5.7,5.7-5.7c1.7,0,2.9,0.5,3.7,0.9l-1.1,2.5c-0.5-0.2-1.4-0.6-2.4-0.6
		c-1.8,0-2.8,1.2-2.8,3.1v2.4h6V35h-6v14.8h-3V35z"/>
	<path class="st0" d="M100.9,49.8h-3v-2.2c-1.2,1.8-3.3,2.6-5.3,2.6c-3.9,0-6.6-2.7-6.6-7.1V32.2h3v10.3c0,3.1,1.7,4.8,4.3,4.8
		c2.3,0,3.9-1.4,4.6-3.5V32.2h3V49.8z"/>
	<path class="st0" d="M103.5,32.2h3v2.2c1.2-1.8,3.3-2.6,5.6-2.6c4,0,6.7,2.7,6.7,7.1v10.8h-3V39.4c0-3.1-1.7-4.8-4.4-4.8
		c-2.5,0-4.2,1.4-4.9,3.5v11.7h-3V32.2z"/>
	<path class="st0" d="M129.9,50.1c-5.3,0-9.2-4-9.2-9.1s3.9-9.1,9.2-9.1c3.6,0,6.6,1.9,8.1,4.7l-2.6,1.5c-1-2-3-3.4-5.5-3.4
		c-3.7,0-6.2,2.8-6.2,6.3c0,3.5,2.5,6.3,6.2,6.3c2.5,0,4.5-1.4,5.5-3.4l2.6,1.5C136.5,48.2,133.6,50.1,129.9,50.1z"/>
	<path class="st0" d="M149.5,49.9c-3,0-5.5-1.7-5.5-5.4V35h-4.4v-2.8h4.4v-5h3v5h5.5V35H147v9.2c0,2.3,1.2,3.1,2.8,3.1
		c1.2,0,2-0.4,2.5-0.7l0.9,2.6C152.6,49.5,151.3,49.9,149.5,49.9z"/>
	<path class="st0" d="M157.1,28.2c-1.2,0-2.2-0.9-2.2-2.1c0-1.2,1-2.1,2.2-2.1c1.2,0,2.1,1,2.1,2.1
		C159.2,27.2,158.3,28.2,157.1,28.2z M155.5,32.2h3v17.6h-3V32.2z"/>
	<path class="st0" d="M170.3,50.1c-5.3,0-9.2-4.1-9.2-9.1s3.9-9.1,9.2-9.1c5.3,0,9.2,4.1,9.2,9.1S175.6,50.1,170.3,50.1z
		 M170.3,47.3c3.7,0,6.1-2.8,6.1-6.3c0-3.5-2.4-6.3-6.1-6.3c-3.7,0-6.1,2.8-6.1,6.3C164.2,44.5,166.7,47.3,170.3,47.3z"/>
	<path class="st0" d="M181.7,32.2h3v2.2c1.2-1.8,3.3-2.6,5.6-2.6c4,0,6.7,2.7,6.7,7.1v10.8h-3V39.4c0-3.1-1.7-4.8-4.4-4.8
		c-2.5,0-4.2,1.4-4.9,3.5v11.7h-3V32.2z"/>
	<path class="st0" d="M201.5,28.2c-1.2,0-2.2-0.9-2.2-2.1c0-1.2,1-2.1,2.2-2.1c1.2,0,2.1,1,2.1,2.1
		C203.7,27.2,202.7,28.2,201.5,28.2z M200,32.2h3v17.6h-3V32.2z"/>
	<path class="st0" d="M206.2,47.4L216.3,35h-10v-2.8h13.8v2.4l-10,12.4h10.3v2.8h-14.3V47.4z"/>
	<path class="st0" d="M231.1,31.8c4.6,0,8.3,3.2,8.4,8.8c0,0.3,0,0.5,0,0.9H225c0.1,3.3,2.6,5.8,6.1,5.8c2.7,0,4.4-1.2,5.5-3.1
		l2.4,1.7c-1.6,2.6-4.3,4.2-7.9,4.2c-5.5,0-9.1-4-9.1-9.1C222,35.8,225.8,31.8,231.1,31.8z M225.3,39.1h11.1
		c-0.4-2.9-2.7-4.6-5.4-4.6C228.4,34.5,225.8,36.2,225.3,39.1z"/>
	<path class="st1" d="M29.4,28.8l10.1,7.7l3.9-5.2l-7.9-6l3.7-4.9l7.9,6l6.6-8.7C49,13,42.4,10.2,35.2,10.2
		c-14.8,0-26.8,12-26.8,26.8c0,5.2,1.5,10.1,4.1,14.2L29.4,28.8z"/>
	<path class="st2" d="M58,22.8L41,45.2l-10.1-7.7l-3.9,5.2l7.9,6l-3.7,4.9l-7.9-6l-6.6,8.7c4.8,4.7,11.4,7.5,18.6,7.5
		C50,63.8,62,51.8,62,37C62,31.8,60.5,26.9,58,22.8z"/>
</g>
</svg>
