<svg xmlns="http://www.w3.org/2000/svg" xmlns:xlink="http://www.w3.org/1999/xlink" viewBox="0 0 99.25 136.45"><defs><style>.cls-1{mask:url(#mask);filter:url(#luminosity-noclip-2);}.cls-2{mix-blend-mode:multiply;fill:url(#linear-gradient);}.cls-3{fill:url(#linear-gradient-2);}.cls-4{fill:url(#linear-gradient-3);}.cls-5{fill:url(#linear-gradient-4);}.cls-6{fill:url(#linear-gradient-5);}.cls-7{fill:url(#linear-gradient-6);}.cls-8{fill:url(#linear-gradient-7);}.cls-9{fill:url(#linear-gradient-8);}.cls-10{fill:url(#linear-gradient-9);}.cls-11{fill:url(#linear-gradient-10);}.cls-12{fill:url(#linear-gradient-11);}.cls-13{fill:url(#linear-gradient-12);}.cls-14{fill:url(#linear-gradient-13);}.cls-15{fill:url(#linear-gradient-14);}.cls-16{mask:url(#mask-2);}.cls-17{opacity:0.8;fill:url(#linear-gradient-15);}.cls-18{fill:#323131;opacity:0.5;}.cls-19{fill:url(#radial-gradient);}.cls-20{fill:url(#linear-gradient-16);}.cls-21{fill:url(#linear-gradient-17);}.cls-22{fill:url(#linear-gradient-18);}.cls-23{fill:url(#linear-gradient-19);}.cls-24{fill:url(#linear-gradient-20);}.cls-25{fill:url(#linear-gradient-21);}.cls-26{fill:url(#linear-gradient-22);}.cls-27{fill:url(#linear-gradient-23);}.cls-28{fill:url(#linear-gradient-24);}.cls-29{fill:url(#linear-gradient-25);}.cls-30{fill:url(#linear-gradient-26);}.cls-31{fill:url(#linear-gradient-27);}.cls-32{fill:url(#linear-gradient-28);}.cls-33{fill:url(#linear-gradient-29);}.cls-34{fill:url(#linear-gradient-30);}.cls-35{fill:url(#linear-gradient-31);}.cls-36{fill:url(#linear-gradient-32);}.cls-37{fill:url(#linear-gradient-33);}.cls-38{fill:url(#linear-gradient-34);}.cls-39{fill:url(#linear-gradient-35);}.cls-40{fill:url(#linear-gradient-36);}.cls-41{fill:url(#linear-gradient-37);}.cls-42{filter:url(#luminosity-noclip);}</style><filter id="luminosity-noclip" x="2.33" y="-8686.38" width="47.12" height="32766" filterUnits="userSpaceOnUse" color-interpolation-filters="sRGB"><feFlood flood-color="#fff" result="bg"/><feBlend in="SourceGraphic" in2="bg"/></filter><mask id="mask" x="2.33" y="-8686.38" width="47.12" height="32766" maskUnits="userSpaceOnUse"><g class="cls-42"/></mask><linearGradient id="linear-gradient" x1="-555.22" y1="-1369.98" x2="-530.01" y2="-1375.85" gradientTransform="matrix(0.79, -0.61, 0.61, 0.79, 1290.46, 800.73)" gradientUnits="userSpaceOnUse"><stop offset="0" stop-color="gray"/><stop offset="0.15" stop-color="#7a7a7a"/><stop offset="0.34" stop-color="#696969"/><stop offset="0.55" stop-color="#4e4e4e"/><stop offset="0.79" stop-color="#282828"/><stop offset="1"/></linearGradient><linearGradient id="linear-gradient-2" x1="-548.43" y1="-1357.01" x2="-563.2" y2="-1342.24" gradientTransform="matrix(0.79, -0.61, 0.61, 0.79, 1290.46, 800.73)" gradientUnits="userSpaceOnUse"><stop offset="0.18" stop-color="#a60000"/><stop offset="0.71" stop-color="#f60000"/><stop offset="0.77" stop-color="red"/></linearGradient><linearGradient id="linear-gradient-3" x1="-556.07" y1="-1342.84" x2="-521.45" y2="-1342.84" xlink:href="#linear-gradient-2"/><linearGradient id="linear-gradient-4" x1="-518.22" y1="-1327.11" x2="-518.22" y2="-1371.73" xlink:href="#linear-gradient-2"/><linearGradient id="linear-gradient-5" x1="-559.31" y1="-1344.14" x2="-527.61" y2="-1344.14" xlink:href="#linear-gradient-2"/><linearGradient id="linear-gradient-6" x1="-88.99" y1="-121.96" x2="-88.99" y2="-170.41" gradientTransform="matrix(0.79, -0.61, 0.61, 0.79, 233.27, 162.82)" gradientUnits="userSpaceOnUse"><stop offset="0" stop-color="#ff8000"/><stop offset="0.3" stop-color="#faa30d"/><stop offset="1" stop-color="#f0f32c"/></linearGradient><linearGradient id="linear-gradient-7" x1="-88.85" y1="-149.06" x2="-88.85" y2="-185.66" xlink:href="#linear-gradient-6"/><linearGradient id="linear-gradient-8" x1="-382.83" y1="-174.03" x2="-382.83" y2="-165.6" gradientTransform="matrix(-0.82, 0.57, 0.57, 0.82, -158.17, 447.52)" xlink:href="#linear-gradient-6"/><linearGradient id="linear-gradient-9" x1="-9.97" y1="-155.9" x2="-9.97" y2="-147.57" gradientTransform="translate(173.35 194.23) rotate(-40.2)" xlink:href="#linear-gradient-6"/><linearGradient id="linear-gradient-10" x1="-88.55" y1="-156.28" x2="-88.55" y2="-182.06" gradientTransform="matrix(0.79, -0.61, 0.61, 0.79, 233.27, 162.82)" gradientUnits="userSpaceOnUse"><stop offset="0" stop-color="#f0f32c"/><stop offset="0.5" stop-color="#f0f37c"/><stop offset="1" stop-color="#f0f4ce"/></linearGradient><linearGradient id="linear-gradient-11" x1="-556.11" y1="-1369.54" x2="-525.88" y2="-1369.54" gradientTransform="matrix(0.79, -0.61, 0.61, 0.79, 1290.46, 800.73)" gradientUnits="userSpaceOnUse"><stop offset="0" stop-color="#4d4d4d"/><stop offset="0.32" stop-color="#9d9d9d"/><stop offset="0.63" stop-color="#f0f0f0"/><stop offset="1" stop-color="#e3e3e3"/></linearGradient><linearGradient id="linear-gradient-12" x1="-105.08" y1="-175.82" x2="-64.1" y2="-175.82" gradientTransform="matrix(0.79, -0.61, 0.61, 0.79, 233.27, 162.82)" xlink:href="#linear-gradient-11"/><linearGradient id="linear-gradient-13" x1="-99.27" y1="-259.3" x2="-72.54" y2="-259.3" gradientTransform="matrix(0.79, -0.61, 0.61, 0.79, 233.27, 162.82)" xlink:href="#linear-gradient-11"/><linearGradient id="linear-gradient-14" x1="-530.59" y1="-1409.43" x2="-547.42" y2="-1409.43" xlink:href="#linear-gradient-2"/><filter id="luminosity-noclip-2" x="2.33" y="0.02" width="47.12" height="76.79" filterUnits="userSpaceOnUse" color-interpolation-filters="sRGB"><feFlood flood-color="#fff" result="bg"/><feBlend in="SourceGraphic" in2="bg"/></filter><mask id="mask-2" x="2.33" y="0.02" width="47.12" height="76.79" maskUnits="userSpaceOnUse"><g class="cls-1"><path class="cls-2" d="M49.45,76.81c-.1,0-9.92-4.77-31.15-29.41C6,33.08,2.84,20,2.39,11.63A37.3,37.3,0,0,1,3.46,0c0,.93,0,1.91.07,2.93C4.09,37.62,49.45,76.81,49.45,76.81Z"/></g></mask><linearGradient id="linear-gradient-15" x1="-555.22" y1="-1369.98" x2="-530.01" y2="-1375.85" gradientTransform="matrix(0.79, -0.61, 0.61, 0.79, 1290.46, 800.73)" gradientUnits="userSpaceOnUse"><stop offset="0" stop-color="#ebf2ed"/><stop offset="0.46" stop-color="#f1f6f2"/><stop offset="1" stop-color="#fff"/></linearGradient><radialGradient id="radial-gradient" cx="-598.5" cy="-1421.29" r="12" gradientTransform="matrix(0.9, -0.73, 0.69, 0.96, 1535.94, 951.44)" gradientUnits="userSpaceOnUse"><stop offset="0.45" stop-color="#a60000"/><stop offset="0.63" stop-color="#f60000"/><stop offset="0.65" stop-color="red"/></radialGradient><linearGradient id="linear-gradient-16" x1="-543.49" y1="-1386.37" x2="-535.39" y2="-1378.27" gradientTransform="matrix(0.79, -0.61, 0.61, 0.79, 1290.46, 800.73)" gradientUnits="userSpaceOnUse"><stop offset="0.24" stop-color="#b1e0ec"/><stop offset="1" stop-color="#e4f3f7"/></linearGradient><linearGradient id="linear-gradient-17" x1="-545.01" y1="-1380.79" x2="-533.11" y2="-1380.79" gradientTransform="matrix(0.79, -0.61, 0.61, 0.79, 1290.46, 800.73)" gradientUnits="userSpaceOnUse"><stop offset="0" stop-color="#e4f3f7"/><stop offset="0.76" stop-color="#b1e0ec"/></linearGradient><linearGradient id="linear-gradient-18" x1="-95.68" y1="-176.07" x2="-95.04" y2="-176.07" gradientTransform="matrix(0.79, -0.61, 0.61, 0.79, 233.27, 162.82)" xlink:href="#linear-gradient-11"/><linearGradient id="linear-gradient-19" x1="-94.27" y1="-175.6" x2="-93.62" y2="-175.6" gradientTransform="matrix(0.79, -0.61, 0.61, 0.79, 233.27, 162.82)" xlink:href="#linear-gradient-11"/><linearGradient id="linear-gradient-20" x1="-92.85" y1="-175.3" x2="-92.19" y2="-175.3" gradientTransform="matrix(0.79, -0.61, 0.61, 0.79, 233.27, 162.82)" xlink:href="#linear-gradient-11"/><linearGradient id="linear-gradient-21" x1="-91.43" y1="-175.11" x2="-90.77" y2="-175.11" gradientTransform="matrix(0.79, -0.61, 0.61, 0.79, 233.27, 162.82)" xlink:href="#linear-gradient-11"/><linearGradient id="linear-gradient-22" x1="-90" y1="-175.03" x2="-89.34" y2="-175.03" gradientTransform="matrix(0.79, -0.61, 0.61, 0.79, 233.27, 162.82)" xlink:href="#linear-gradient-11"/><linearGradient id="linear-gradient-23" x1="-88.57" y1="-175.04" x2="-87.91" y2="-175.04" gradientTransform="matrix(0.79, -0.61, 0.61, 0.79, 233.27, 162.82)" xlink:href="#linear-gradient-11"/><linearGradient id="linear-gradient-24" x1="-87.14" y1="-175.12" x2="-86.47" y2="-175.12" gradientTransform="matrix(0.79, -0.61, 0.61, 0.79, 233.27, 162.82)" xlink:href="#linear-gradient-11"/><linearGradient id="linear-gradient-25" x1="-85.7" y1="-175.3" x2="-85.04" y2="-175.3" gradientTransform="matrix(0.79, -0.61, 0.61, 0.79, 233.27, 162.82)" xlink:href="#linear-gradient-11"/><linearGradient id="linear-gradient-26" x1="-84.27" y1="-175.57" x2="-83.6" y2="-175.57" gradientTransform="matrix(0.79, -0.61, 0.61, 0.79, 233.27, 162.82)" xlink:href="#linear-gradient-11"/><linearGradient id="linear-gradient-27" x1="-82.82" y1="-175.96" x2="-82.16" y2="-175.96" gradientTransform="matrix(0.79, -0.61, 0.61, 0.79, 233.27, 162.82)" xlink:href="#linear-gradient-11"/><linearGradient id="linear-gradient-28" x1="-81.37" y1="-176.52" x2="-80.72" y2="-176.52" gradientTransform="matrix(0.79, -0.61, 0.61, 0.79, 233.27, 162.82)" xlink:href="#linear-gradient-11"/><linearGradient id="linear-gradient-29" x1="-49.39" y1="-146.66" x2="-49.39" y2="-162.53" gradientTransform="translate(207.76 167.93) rotate(-40.2)" xlink:href="#linear-gradient-6"/><linearGradient id="linear-gradient-30" x1="-83.4" y1="-142.18" x2="-83.4" y2="-124.2" xlink:href="#linear-gradient-6"/><linearGradient id="linear-gradient-31" x1="-89.06" y1="-117.71" x2="-89.06" y2="-134.91" xlink:href="#linear-gradient-6"/><linearGradient id="linear-gradient-32" x1="-379.14" y1="-162.32" x2="-379.14" y2="-178.39" gradientTransform="matrix(-0.82, 0.57, 0.57, 0.82, -158.17, 447.52)" xlink:href="#linear-gradient-6"/><linearGradient id="linear-gradient-33" x1="-411.66" y1="-141.82" x2="-411.66" y2="-123.94" gradientTransform="matrix(-0.79, 0.61, 0.61, 0.79, -169.82, 470.79)" xlink:href="#linear-gradient-6"/><linearGradient id="linear-gradient-34" x1="-416.53" y1="-117.73" x2="-416.53" y2="-134.82" gradientTransform="matrix(-0.79, 0.61, 0.61, 0.79, -169.82, 470.79)" xlink:href="#linear-gradient-6"/><linearGradient id="linear-gradient-35" x1="-89.16" y1="-202.21" x2="-89.16" y2="-217.75" gradientTransform="matrix(0.79, -0.61, 0.61, 0.79, 233.27, 162.82)" xlink:href="#linear-gradient-2"/><linearGradient id="linear-gradient-36" x1="-475.35" y1="-187.23" x2="-475.35" y2="-208.88" gradientTransform="matrix(-0.79, 0.61, 0.61, 0.79, -212.89, 503.7)" xlink:href="#linear-gradient-2"/><linearGradient id="linear-gradient-37" x1="-80.3" y1="-201.77" x2="-88.03" y2="-194.04" gradientTransform="matrix(0.79, -0.61, 0.61, 0.79, 233.27, 162.82)" xlink:href="#linear-gradient-2"/></defs><title>Ресурс 3</title><g id="Слой_2" data-name="Слой 2"><g id="Layer_1" data-name="Layer 1"><polygon class="cls-3" points="15.24 40.14 36.72 70.06 36.9 83.05 39.91 87.24 41.13 109.95 16.33 75.4 15.24 40.14"/><polygon class="cls-4" points="16.62 42.06 36.95 70.39 37.09 82.47 39.88 86.37 41.02 107.46 17.59 74.82 16.62 42.06"/><polygon class="cls-5" points="34.21 24.71 55.69 54.63 67.41 58.23 70.42 62.43 90.69 69.65 65.88 35.09 34.21 24.71"/><polygon class="cls-6" points="35.59 26.63 55.92 54.96 66.84 58.27 69.64 62.17 88.45 68.88 65.03 36.24 35.59 26.63"/><path class="cls-7" d="M86.22,101l-6-6.91s8.12,11.1,14.14,29l-7.07-10.81s10.8,22.58,11.91,24.13c-1.11-1.55-18.73-18.58-18.73-18.58L88.46,128a109.79,109.79,0,0,1-22.59-22.15l4.7,7.93C55.12,102,51.31,83,51.31,83l12.12-9.85S79.6,82.06,86.22,101Z"/><path class="cls-8" d="M76.52,94.82l-3.43-4a67.16,67.16,0,0,1,8.16,16.74l-4.08-6.24s6.23,13,6.87,13.91c-.64-.89-10.8-10.71-10.8-10.71l4.57,5.83a63.68,63.68,0,0,1-13-12.78l2.71,4.57c-8.91-6.79-11.1-17.72-11.1-17.72l7-5.68A31.56,31.56,0,0,1,76.52,94.82Z"/><path class="cls-9" d="M58.07,84.57a23.7,23.7,0,0,0,6.37,12.76A40.46,40.46,0,0,1,58.07,84.57Z"/><path class="cls-10" d="M63.05,80.52c6.75,3.15,9.9,9.89,9.9,9.89A38,38,0,0,0,63.05,80.52Z"/><path class="cls-11" d="M67.79,85.85l-2.33-2.71A45.55,45.55,0,0,1,71,94.52l-2.77-4.24s4.24,8.85,4.67,9.46c-.43-.61-7.34-7.29-7.34-7.29l3.11,4a43.17,43.17,0,0,1-8.85-8.69l1.84,3.11c-6.06-4.62-7.55-12-7.55-12l4.75-3.86A21.47,21.47,0,0,1,67.79,85.85Z"/><path class="cls-12" d="M42.22,28q2.52,4.23,4.58,8A203.73,203.73,0,0,1,56.91,56.36C60.32,64.51,60.78,68,60.78,68l3,5.1s-.38,3.35-4.83,7-7.59,3.13-7.59,3.13l-3.83-4.4s-3.06-1.4-9.55-7A194.78,194.78,0,0,1,22.15,56c-1.9-2.08-3.9-4.33-6-6.79C8,39.77,3.76,30.84,1.72,23.25c-.27-1-.5-1.95-.7-2.89A49,49,0,0,1,.06,13,38.3,38.3,0,0,1,1.12,1.33s0,0,0-.06.05-.18.08-.26l0-.13c.05-.18.1-.32.14-.45h0L1.47.18l0-.09h0l.34,0h0l.5,0H3.2A32.62,32.62,0,0,1,13.64,2,40.29,40.29,0,0,1,20,4.91c.8.45,1.62.94,2.44,1.47C28.8,10.47,35.78,17.15,42.22,28Z"/><path class="cls-13" d="M60.78,68l3,5.1a4.79,4.79,0,0,1-.17.73c-.06.18-.13.39-.23.63a8.69,8.69,0,0,1-.42.91l-.3.54c-.15.25-.32.51-.51.79l-.34.47c-.18.23-.37.46-.58.7l-.37.42c-.2.21-.41.43-.63.64l-.4.38c-.21.19-.43.39-.67.58l-.21.18a1.84,1.84,0,0,1-.22.17c-.23.19-.47.37-.7.53l-.45.32c-.25.17-.5.32-.74.47l-.48.28c-.27.15-.54.28-.79.4l-.52.23c-.3.12-.58.23-.85.32l-.56.16a8.94,8.94,0,0,1-.94.2l-.63.06a3.53,3.53,0,0,1-.71,0l-3.84-4.4s.4-.12,1.09-.41l.52-.22.8-.39.49-.26.77-.43.48-.29c.24-.14.49-.3.74-.47s.3-.2.46-.31l.72-.5L54,75.2q.35-.26.69-.54l.13-.11.3-.24.67-.58c.14-.12.28-.24.41-.37s.44-.4.64-.6l.4-.4c.22-.21.43-.43.62-.64l.38-.41.6-.68.36-.44.57-.72.34-.47C60.56,68.38,60.78,68,60.78,68Z"/><path class="cls-14" d="M22.46,6.38A29.31,29.31,0,0,1,14,17.49,27,27,0,0,1,1.72,23.25c-.27-1-.5-1.95-.7-2.89A49,49,0,0,1,.06,13,38.3,38.3,0,0,1,1.12,1.33s0,0,0-.06.05-.18.08-.26l0-.13L1.36.5s0,0,0,0,.07-.21.1-.28l0-.1s0,0,0,0h0l.33,0h0l.5,0H3.2A32.62,32.62,0,0,1,13.64,2,40.29,40.29,0,0,1,20,4.91C20.82,5.36,21.64,5.85,22.46,6.38Z"/><path class="cls-15" d="M20,4.91a25.56,25.56,0,0,1-7.63,10.33A23.44,23.44,0,0,1,1,20.36,49,49,0,0,1,.06,13,36.67,36.67,0,0,1,1.38.43h0A1.82,1.82,0,0,1,1.47.18l0-.09h0C1.89,0,6.75-.45,13.64,2A40.29,40.29,0,0,1,20,4.91Z"/><g class="cls-16"><path class="cls-17" d="M49.45,76.81c-.1,0-9.92-4.77-31.15-29.41C6,33.08,2.84,20,2.39,11.63A37.3,37.3,0,0,1,3.46,0c0,.93,0,1.91.07,2.93C4.09,37.62,49.45,76.81,49.45,76.81Z"/></g><path class="cls-18" d="M32.13,23.36A12.41,12.41,0,0,1,30,40a10.73,10.73,0,0,1-15.65-2.23,12.39,12.39,0,0,1,2.09-16.66A10.71,10.71,0,0,1,32.13,23.36Z"/><path class="cls-19" d="M30.92,23.19A11.44,11.44,0,0,1,29,38.56,9.89,9.89,0,0,1,14.55,36.5a11.44,11.44,0,0,1,1.93-15.37A9.89,9.89,0,0,1,30.92,23.19Z"/><path class="cls-20" d="M27.57,25.91A6.76,6.76,0,0,1,26.43,35a5.78,5.78,0,0,1-6.4.66,6.22,6.22,0,0,1-2.13-1.88A6.75,6.75,0,0,1,19,24.7a5.79,5.79,0,0,1,5.89-.9A6.13,6.13,0,0,1,27.57,25.91Z"/><path class="cls-21" d="M27.57,25.91A6.76,6.76,0,0,1,26.43,35a5.78,5.78,0,0,1-6.4.66,6.07,6.07,0,0,1,1.86-7.39,9.06,9.06,0,0,0,3-4.46A6.13,6.13,0,0,1,27.57,25.91Z"/><path class="cls-22" d="M49.11,78.18l3.57,5-.63.06L48.59,78.4Z"/><path class="cls-23" d="M50.4,77.53l3.78,5.27-.56.16-3.71-5.17Z"/><path class="cls-24" d="M51.65,76.81l3.9,5.44-.52.23L51.17,77.1Z"/><path class="cls-25" d="M52.85,76l4,5.54-.48.28-4-5.51C52.54,76.25,52.69,76.14,52.85,76Z"/><path class="cls-26" d="M54,75.2l4,5.58-.45.32-4-5.57Z"/><path class="cls-27" d="M55.13,74.31l4,5.59-.21.18a1.84,1.84,0,0,1-.22.17l-4-5.59.13-.11Z"/><path class="cls-28" d="M56.21,73.36l4,5.58-.4.38-4-5.59C55.94,73.61,56.08,73.49,56.21,73.36Z"/><path class="cls-29" d="M57.25,72.36l4,5.52-.37.42-4-5.54Z"/><path class="cls-30" d="M58.25,71.31l3.88,5.4-.34.47-3.92-5.46Z"/><path class="cls-31" d="M59.21,70.19l3.73,5.19-.3.54-3.79-5.29Z"/><path class="cls-32" d="M60.12,69l3.47,4.84c-.06.18-.13.39-.23.63l-3.58-5Z"/><path class="cls-33" d="M63.15,75.65C74.57,81,79.89,92.39,79.89,92.39A64,64,0,0,0,63.15,75.65Z"/><path class="cls-34" d="M77,93.9c9.76,8.27,12.17,20.73,12.17,20.73A67,67,0,0,0,77,93.9Z"/><path class="cls-35" d="M80.71,108c9.76,8.27,12.17,20.73,12.17,20.73A67.18,67.18,0,0,0,80.71,108Z"/><path class="cls-36" d="M53.71,83.33a40.08,40.08,0,0,0,10.77,21.59A68.08,68.08,0,0,1,53.71,83.33Z"/><path class="cls-37" d="M66.6,102.38a38.41,38.41,0,0,0,15.59,18A65.41,65.41,0,0,1,66.6,102.38Z"/><path class="cls-38" d="M78.46,109.88a38.35,38.35,0,0,0,15.59,17.94A65.42,65.42,0,0,1,78.46,109.88Z"/><polygon class="cls-39" points="31.73 42.32 58.77 79.98 57.2 81.26 40.46 60.88 31.73 42.32"/><polygon class="cls-40" points="31.71 42.34 58.75 80 60.31 78.73 46.25 56.17 31.71 42.34"/><polygon class="cls-41" points="35.11 48.56 31.73 42.32 36.69 47.27 59.65 79.27 58.07 80.55 35.11 48.56"/></g></g></svg>