<svg xmlns="http://www.w3.org/2000/svg" viewBox="0 0 99.02 99.04"><defs><style>.cls-1{fill:#bec8ff;}</style></defs><title>Ресурс 10</title><g id="Слой_2" data-name="Слой 2"><g id="Layer_1" data-name="Layer 1"><path class="cls-1" d="M91.52,0H7.5A7.52,7.52,0,0,0,0,7.52v51.8a1.49,1.49,0,0,0,1.49,1.47A1.5,1.5,0,0,0,3,59.32V18H96V91.56a4.51,4.51,0,0,1-4.49,4.5H7.5A4.51,4.51,0,0,1,3,91.56v-.75a1.54,1.54,0,0,0-1.52-1.52A1.53,1.53,0,0,0,0,90.81v.75A7.51,7.51,0,0,0,7.5,99h84A7.51,7.51,0,0,0,99,91.56v-84A7.52,7.52,0,0,0,91.52,0ZM96,15.05H3V7.52A4.48,4.48,0,0,1,7.5,3h84A4.48,4.48,0,0,1,96,7.52Z"/><path class="cls-1" d="M88.6,8a1.44,1.44,0,0,0-.44,1,1.37,1.37,0,0,0,.44,1.07,1.36,1.36,0,0,0,1.05.45,1.32,1.32,0,0,0,1-.45A1.48,1.48,0,0,0,88.6,8Z"/><path class="cls-1" d="M81.38,7.52A1.5,1.5,0,1,0,82.9,9,1.5,1.5,0,0,0,81.38,7.52Z"/><path class="cls-1" d="M72.08,8a1.51,1.51,0,0,0,0,2.09,1.4,1.4,0,0,0,1.07.45,1.43,1.43,0,0,0,1.07-.45,1.51,1.51,0,0,0,0-2.09A1.53,1.53,0,0,0,72.08,8Z"/><path class="cls-1" d="M.93,84.7a1.22,1.22,0,0,0,.56.09,1.42,1.42,0,0,0,1.07-.44L26.65,60.26a3,3,0,0,1,4.26,0L43.29,72.68a6.06,6.06,0,0,0,4.25,1.74,6,6,0,0,0,4.23-1.74L78.14,46.32l5,5a1.51,1.51,0,0,0,2.57-1.07V31.4a1.51,1.51,0,0,0-1.5-1.52H65.38a1.61,1.61,0,0,0-1.41.94,1.57,1.57,0,0,0,.34,1.65l5,4.94L49.65,57.05a3.13,3.13,0,0,1-4.25,0L33,44.62a6.05,6.05,0,0,0-8.48,0L.44,68.76a1.41,1.41,0,0,0-.44,1V83.32A1.57,1.57,0,0,0,.93,84.7ZM3,70.41,26.65,46.76a3,3,0,0,1,4.26,0L43.29,59.14a5.89,5.89,0,0,0,4.25,1.78,5.81,5.81,0,0,0,4.23-1.78L72.46,38.48a1.55,1.55,0,0,0,0-2.14L69,32.91H82.68V46.58L79.2,43.11a1.5,1.5,0,0,0-2.11,0L49.65,70.54a3.11,3.11,0,0,1-4.25,0L33,58.16a6,6,0,0,0-8.48,0L3,79.67Z"/></g></g></svg>