<svg xmlns="http://www.w3.org/2000/svg" viewBox="0 0 116.74 121.21"><defs><style>.cls-1{fill:#bec8ff;}</style></defs><title>Ресурс 15</title><g id="Слой_2" data-name="Слой 2"><g id="Layer_1" data-name="Layer 1"><path class="cls-1" d="M85.25,81.25a1.79,1.79,0,0,0-2.51.59,21.93,21.93,0,0,0-1.2,2.29c-4.66,10.31-4,21.1-3.19,26.62A2.81,2.81,0,0,1,77,113.63c-9.19,5.3-30,5.3-39,0a3.67,3.67,0,0,1-1.67-3V96.73c0-2-1.47-4.09-5.59-4.09h-.51c-.08,0-.58,0-1.37,0-7.79,0-13.35-1.63-13.82-4-1.09-5.83.19-17.83.19-18a1.83,1.83,0,0,0-1.17-1.91,75.75,75.75,0,0,1-8.92-4.2A2.8,2.8,0,0,1,3.72,63a2.54,2.54,0,0,1,.45-1.91c10.05-15.7,10.76-20.34,10.79-21C18.61,9,42.06,4.3,52,3.71A1.81,1.81,0,0,0,53.7,1.8,1.8,1.8,0,0,0,51.77.06C40.94.71,15.29,5.83,11.31,39.69c0,.22-.66,4.42-10.2,19.31a6.42,6.42,0,0,0-1,4.74,6.08,6.08,0,0,0,3.19,4,74.43,74.43,0,0,0,8.12,4c-.29,3.44-1,12.43,0,17.67,1.17,6,11.4,7,17.42,7,1,0,1.56-.06,1.56-.06h.32a3.07,3.07,0,0,1,1.91.44v13.8a7.28,7.28,0,0,0,3.47,6.21c5.09,3,13.27,4.47,21.48,4.47s16.17-1.47,21.26-4.36A6.64,6.64,0,0,0,82,110.2c-.76-5.13-1.36-15.11,2.92-24.54a15.71,15.71,0,0,1,1-1.91A1.82,1.82,0,0,0,85.25,81.25Z"/><path class="cls-1" d="M108.69,14.34a.11.11,0,0,1-.11-.06A37.3,37.3,0,0,0,79.11,0h0A37.63,37.63,0,0,0,49.48,60.91a.07.07,0,0,1,.07.05A37.42,37.42,0,0,0,79.06,75.3h0a37.68,37.68,0,0,0,29.58-61Zm-2,43.19a7.36,7.36,0,0,0-1-.44c-.47-.17-1-.38-1.44-.6s-1.18-.38-1.81-.6a13.33,13.33,0,0,0-1.47-.49c-.63-.22-1.25-.38-1.88-.6s-1-.28-1.53-.38a9.94,9.94,0,0,0-1.2-.28A47.21,47.21,0,0,0,99.2,39.48H113A33.87,33.87,0,0,1,106.65,57.53ZM53.73,56.6a4.13,4.13,0,0,1-.85.32c-.46.22-.92.39-1.36.61a33.79,33.79,0,0,1-6.35-18.05H59a48.41,48.41,0,0,0,2.92,14.61c-.47.17-.9.22-1.36.38s-.63.17-1,.22c-.84.22-1.69.49-2.48.76a6.44,6.44,0,0,0-.93.33C55.34,56,54.55,56.33,53.73,56.6ZM51.52,17.77a6,6,0,0,0,1,.39c.49.22,1,.43,1.49.6s1.17.43,1.78.6a13.73,13.73,0,0,0,1.52.54c.6.17,1.23.39,1.83.55s1,.27,1.56.43a10.91,10.91,0,0,0,1.2.28A47.2,47.2,0,0,0,59,35.77H45.17A33.77,33.77,0,0,1,51.52,17.77ZM104,14.89c-.6.21-1.22.43-1.83.7-.4.11-.78.28-1.17.38-.6.22-1.2.39-1.82.61-.44.1-.87.27-1.34.38a17.49,17.49,0,0,1-1.8.43l-1.22.33A43.29,43.29,0,0,0,85.06,4.2a33.81,33.81,0,0,1,19.16,10.57A.48.48,0,0,1,104,14.89ZM89.47,18.7c-.57.06-1.17.17-1.77.22l-1.63.16c-.69.11-1.37.11-2,.17a13.74,13.74,0,0,1-1.44.11c-.55,0-1.1,0-1.64.05V5.51A38.66,38.66,0,0,1,91.11,18.43C90.56,18.54,90,18.59,89.47,18.7ZM77.23,5.51v13.9c-.57-.05-1.12-.05-1.69-.05a8.79,8.79,0,0,1-1.14-.11,16.56,16.56,0,0,1-2.35-.17A13.09,13.09,0,0,0,70.69,19c-.71-.1-1.42-.16-2.1-.27a13.94,13.94,0,0,0-1.42-.22s-.08-.05-.14-.05A39.87,39.87,0,0,1,77.23,5.51ZM66.24,22a14.14,14.14,0,0,0,1.56.27c.71.11,1.47.16,2.21.27l1.47.17c.84.11,1.66.16,2.5.21.42,0,.85.06,1.26.06.65.06,1.33.06,2,.06v12.7H62.61a43.94,43.94,0,0,1,2.9-13.85A3.68,3.68,0,0,0,66.24,22Zm11,17.45v12.7c-.66,0-1.34,0-2,0a3.64,3.64,0,0,1-.79.06c-1,.06-2,.11-3,.22a5.88,5.88,0,0,1-1,.11c-.93.11-1.85.22-2.76.38l-1,.16a10,10,0,0,0-1.17.22,44.51,44.51,0,0,1-2.9-13.9ZM68.7,56.55c.57-.06,1.17-.12,1.77-.22l1.64-.17,2-.16a13,13,0,0,0,1.42-.11h1.66v13.9A39.28,39.28,0,0,1,67.06,56.87ZM80.94,69.74V55.89h1.69a8.79,8.79,0,0,0,1.14.11l2.35.16,1.36.17c.71.1,1.42.16,2.1.27.46,0,1,.16,1.39.22,0,0,.11,0,.14,0A38.59,38.59,0,0,1,80.94,69.74Zm11-16.52c-.51-.06-1-.16-1.55-.22-.74-.11-1.47-.22-2.2-.27a12.9,12.9,0,0,0-1.48-.22l-2.51-.16c-.43-.06-.84-.06-1.25-.12-.66,0-1.34,0-2,0V39.48H95.55a44.23,44.23,0,0,1-2.89,13.9Zm-11-17.45V23.07c.65,0,1.33,0,2-.06a3.51,3.51,0,0,0,.79-.06c1-.05,2-.1,3-.21a6.68,6.68,0,0,0,1-.11l2.75-.33,1-.16c.39-.06.79-.17,1.17-.22a44.21,44.21,0,0,1,2.89,13.85ZM63.32,17.72l-1.41-.33c-.5-.16-.93-.27-1.39-.38-.63-.16-1.23-.38-1.83-.54-.44-.11-.87-.28-1.31-.38-.62-.22-1.23-.44-1.79-.66s-.83-.33-1.23-.44a2.37,2.37,0,0,0-.41-.22A33.76,33.76,0,0,1,73.14,4.2,43.85,43.85,0,0,0,63.32,17.72ZM54.17,60.41a18.57,18.57,0,0,1,1.85-.7c.38-.17.76-.28,1.15-.44.59-.22,1.22-.38,1.82-.55.44-.16.87-.27,1.31-.43.6-.11,1.23-.28,1.82-.44a11.33,11.33,0,0,1,1.23-.27,43.46,43.46,0,0,0,9.76,13.47A33.73,33.73,0,0,1,54,60.47C54,60.47,54.11,60.41,54.17,60.41Zm40.67-2.83,1.45.33a11.51,11.51,0,0,1,1.36.38l1.83.49c.43.16.9.27,1.3.43.64.22,1.23.44,1.81.61.41.21.81.32,1.22.49l.41.16A33.75,33.75,0,0,1,85,71.05,43.76,43.76,0,0,0,94.84,57.58ZM99.2,35.77a48.4,48.4,0,0,0-2.91-14.61l1.36-.33c.33-.11.66-.17,1-.28.82-.21,1.66-.48,2.46-.7l1-.33,2.37-.82a8.88,8.88,0,0,1,.87-.38,10.88,10.88,0,0,0,1.37-.55,33.86,33.86,0,0,1,6.35,18Z"/><path class="cls-1" d="M47,76.28a1.85,1.85,0,0,0-.14-2.62,1.9,1.9,0,0,0-2.59.12,1.84,1.84,0,0,0,.14,2.61,1.78,1.78,0,0,0,1.22.49A1.94,1.94,0,0,0,47,76.28Z"/><path class="cls-1" d="M54.41,83.15a1.79,1.79,0,0,0,.9-3.38,1.77,1.77,0,0,0-2.48.66,1.81,1.81,0,0,0,.68,2.5A1.76,1.76,0,0,0,54.41,83.15Z"/><path class="cls-1" d="M64.39,87.46a1.79,1.79,0,0,0,1.74-1.31,1.86,1.86,0,0,0-1.23-2.29,1.85,1.85,0,0,0-1.06,3.55A2.05,2.05,0,0,0,64.39,87.46Z"/><path class="cls-1" d="M27.06,36.32a1.82,1.82,0,0,0,1.8,1.85h.06a1.85,1.85,0,0,0,1.82-1.8A1.81,1.81,0,0,0,29,34.51,1.83,1.83,0,0,0,27.06,36.32Z"/><path class="cls-1" d="M29.9,27.37a1.09,1.09,0,0,0,.44.06,1.82,1.82,0,0,0,.43-3.6,1.77,1.77,0,0,0-2.2,1.31A1.8,1.8,0,0,0,29.9,27.37Z"/><path class="cls-1" d="M33,59.38a1.58,1.58,0,0,0,.74-.17,1.79,1.79,0,0,0,1-2.39,1.85,1.85,0,0,0-2.4-1,1.87,1.87,0,0,0-1,2.45A2,2,0,0,0,33,59.38Z"/><path class="cls-1" d="M35.74,16.19a1.88,1.88,0,0,0-.85-2.45,1.84,1.84,0,0,0-2.45.87,1.81,1.81,0,0,0,.82,2.45,1.93,1.93,0,0,0,.81.17A1.87,1.87,0,0,0,35.74,16.19Z"/><path class="cls-1" d="M37.26,65.48a1.84,1.84,0,0,0-.41,2.57,1.87,1.87,0,0,0,1.5.76,1.58,1.58,0,0,0,1.07-.38,1.76,1.76,0,0,0,.4-2.51A1.8,1.8,0,0,0,37.26,65.48Z"/><path class="cls-1" d="M29.82,49c.11,0,.21-.06.33-.06a1.83,1.83,0,1,0-.68-3.59A1.78,1.78,0,0,0,28,47.49h0A1.91,1.91,0,0,0,29.82,49Z"/><path class="cls-1" d="M75.05,89.48a1.79,1.79,0,0,0,1.8-1.64,1.76,1.76,0,0,0-1.67-2,1.81,1.81,0,1,0-.29,3.6Z"/></g></g></svg>