<svg xmlns="http://www.w3.org/2000/svg" viewBox="0 0 113.98 116.14"><defs><style>.cls-1{fill:#bec8ff;}</style></defs><title>Ресурс 13</title><g id="Слой_2" data-name="Слой 2"><g id="Layer_1" data-name="Layer 1"><path class="cls-1" d="M74.84,89.34h-3A21,21,0,0,0,70,82.5L72.62,81a1.74,1.74,0,0,0,.63-2.4,1.77,1.77,0,0,0-2.4-.63l-2.64,1.51a20.08,20.08,0,0,0-5-5l1.55-2.61a1.84,1.84,0,0,0-.66-2.46,1.78,1.78,0,0,0-2.4.68l-1.55,2.62a20.48,20.48,0,0,0-6.81-1.83v-3a1.77,1.77,0,1,0-3.53,0v3a21,21,0,0,0-6.85,1.83l-1.51-2.62a1.77,1.77,0,1,0-3,1.78l1.54,2.61a19.6,19.6,0,0,0-5,5L32.23,78a1.75,1.75,0,1,0-1.75,3l2.64,1.52a20.5,20.5,0,0,0-1.82,6.84H28.24a1.76,1.76,0,0,0-1.75,1.78,1.71,1.71,0,0,0,1.75,1.72H31.3a19.94,19.94,0,0,0,1.82,6.85l-2.64,1.56a1.79,1.79,0,0,0-.65,2.41,1.9,1.9,0,0,0,1.54.89,1.71,1.71,0,0,0,.86-.27l2.67-1.51a20.42,20.42,0,0,0,5,5l-1.54,2.62a1.73,1.73,0,0,0,.65,2.4,1.69,1.69,0,0,0,.86.26,1.79,1.79,0,0,0,1.54-.89l1.51-2.66a20,20,0,0,0,6.85,1.82v3.09a1.77,1.77,0,0,0,3.53,0v-3.09a19.56,19.56,0,0,0,6.81-1.82l1.55,2.66a1.74,1.74,0,0,0,1.51.89,1.81,1.81,0,0,0,1.55-2.66l-1.55-2.62a21,21,0,0,0,5-5l2.64,1.51a1.78,1.78,0,0,0,.88.27,1.85,1.85,0,0,0,1.52-.89,1.75,1.75,0,0,0-.63-2.41L70,99.69a20.43,20.43,0,0,0,1.85-6.85h3a1.73,1.73,0,0,0,1.78-1.72A1.78,1.78,0,0,0,74.84,89.34Zm-23.3,18.6A16.82,16.82,0,1,1,68.36,91.12,16.86,16.86,0,0,1,51.54,107.94Z"/><path class="cls-1" d="M51.54,83.39a3.23,3.23,0,0,1,3.47,3,1.77,1.77,0,1,0,3.53,0,6.56,6.56,0,0,0-5.22-6.26V79a1.77,1.77,0,1,0-3.53,0V80.1a6.56,6.56,0,0,0-5.22,6.26c0,4,2.74,6.48,7,6.48,2.35,0,3.47,1,3.47,3a3.52,3.52,0,0,1-6.95,0,1.75,1.75,0,1,0-3.49,0,6.58,6.58,0,0,0,5.22,6.27v1.1a1.77,1.77,0,1,0,3.53,0v-1.1a6.58,6.58,0,0,0,5.22-6.27c0-4-2.74-6.53-7-6.53q-3.48,0-3.48-3A3.24,3.24,0,0,1,51.54,83.39Z"/><path class="cls-1" d="M27.67,63.42A3.31,3.31,0,0,0,31,66.77h4.73a3.32,3.32,0,0,0,3.34-3.35V60.66a29.81,29.81,0,0,0,3-.79l1.38,2.4A3.31,3.31,0,0,0,48,63.48l4.09-2.35a3.4,3.4,0,0,0,1.24-4.6L52,54.13c.75-.68,1.49-1.42,2.17-2.14l2.4,1.36a3.32,3.32,0,0,0,4.57-1.21L63.48,48a3.23,3.23,0,0,0,.31-2.5,3.06,3.06,0,0,0-1.54-2l-2.4-1.41c.31-.94.57-2,.78-2.93h2.79a3.37,3.37,0,0,0,3.35-3.34V31a3.38,3.38,0,0,0-3.35-3.35H60.63c-.21-1-.47-2-.78-3l2.4-1.41a3.33,3.33,0,0,0,1.23-4.54L61.1,14.63a3.35,3.35,0,0,0-4.57-1.2l-2.4,1.35c-.68-.73-1.42-1.46-2.17-2.14l1.39-2.4a3.33,3.33,0,0,0-1.24-4.55L48,3.29a3.37,3.37,0,0,0-4.58,1.2L42.06,6.9a29.81,29.81,0,0,0-3-.79V3.34A3.35,3.35,0,0,0,35.74,0H31a3.34,3.34,0,0,0-3.34,3.34V6.11a29.12,29.12,0,0,0-3,.79L23.3,4.49a3.37,3.37,0,0,0-4.57-1.2l-4.1,2.4a3.32,3.32,0,0,0-1.23,4.55l1.41,2.4c-.78.68-1.49,1.41-2.19,2.14l-2.41-1.35a3.1,3.1,0,0,0-2.53-.32,3.2,3.2,0,0,0-2,1.52L3.26,18.76A3.33,3.33,0,0,0,4.49,23.3L6.9,24.71a30.55,30.55,0,0,0-.79,3H3.34A3.35,3.35,0,0,0,0,31v4.75a3.35,3.35,0,0,0,3.34,3.34H6.11a28.92,28.92,0,0,0,.79,2.93L4.49,43.47A3.33,3.33,0,0,0,3.26,48l2.38,4.13a3.32,3.32,0,0,0,4.57,1.21L12.62,52c.7.72,1.41,1.46,2.19,2.14l-1.41,2.4a3.39,3.39,0,0,0,1.23,4.6l4.1,2.35a3.31,3.31,0,0,0,4.57-1.21l1.39-2.4a29.12,29.12,0,0,0,3,.79Zm-3.11-7.36a1.83,1.83,0,0,0-2.2.73l-2,3.55-3.81-2.19,2-3.55a1.76,1.76,0,0,0-.43-2.25,23.88,23.88,0,0,1-3.76-3.76,1.77,1.77,0,0,0-2.25-.42l-3.55,2L6.43,46.44l3.49-2.08a1.72,1.72,0,0,0,.79-2.15,24,24,0,0,1-1.38-5.12,1.76,1.76,0,0,0-1.75-1.51H3.5V31.19H7.58a1.77,1.77,0,0,0,1.75-1.51,24,24,0,0,1,1.38-5.12,1.72,1.72,0,0,0-.79-2.15l-3.49-2,2.16-3.81,3.55,2a1.77,1.77,0,0,0,2.25-.42,23.88,23.88,0,0,1,3.76-3.76,1.76,1.76,0,0,0,.43-2.25l-2-3.55,3.81-2.19,2,3.55a1.82,1.82,0,0,0,2.2.73,25.15,25.15,0,0,1,5.12-1.36,1.81,1.81,0,0,0,1.51-1.77V3.5h4.36V7.58a1.81,1.81,0,0,0,1.52,1.77,26.13,26.13,0,0,1,5.15,1.36A1.74,1.74,0,0,0,44.36,10l2-3.55,3.81,2.19-2,3.55a1.76,1.76,0,0,0,.42,2.25,22.67,22.67,0,0,1,3.76,3.76,1.77,1.77,0,0,0,2.25.42l3.55-2,2.19,3.81-3.55,2a1.73,1.73,0,0,0-.73,2.15,25.81,25.81,0,0,1,1.36,5.12,1.76,1.76,0,0,0,1.75,1.51h4.07v4.39H59.17a1.76,1.76,0,0,0-1.75,1.51,25.81,25.81,0,0,1-1.36,5.12,1.73,1.73,0,0,0,.73,2.15l3.55,2.08-2.19,3.77-3.55-2a1.77,1.77,0,0,0-2.25.42,25.08,25.08,0,0,1-3.76,3.81,1.68,1.68,0,0,0-.42,2.2l2,3.55L46.4,60.34l-2-3.55a1.74,1.74,0,0,0-2.14-.73,23.63,23.63,0,0,1-5.15,1.36,1.81,1.81,0,0,0-1.52,1.77v4.08H31.19V59.19a1.81,1.81,0,0,0-1.51-1.77A22.8,22.8,0,0,1,24.56,56.06Z"/><path class="cls-1" d="M113.66,51.78a1.77,1.77,0,0,0-1.46-1.47l-6.5-1a1.19,1.19,0,0,1-.08-.16l3.86-5.33a1.74,1.74,0,0,0,0-2A23.08,23.08,0,0,0,104,36.26a1.68,1.68,0,0,0-2.06,0l-5.35,3.87a.19.19,0,0,0-.16-.06l-1-6.53A1.67,1.67,0,0,0,94,32.08a24,24,0,0,0-7.75,0,1.72,1.72,0,0,0-1.47,1.46l-1,6.53s-.13,0-.15.06l-5.36-3.87a1.68,1.68,0,0,0-2.06,0,23.08,23.08,0,0,0-5.49,5.49,1.68,1.68,0,0,0,0,2l3.86,5.33a.49.49,0,0,0,0,.16l-6.53,1a1.77,1.77,0,0,0-1.46,1.47,24.25,24.25,0,0,0,0,7.73A1.76,1.76,0,0,0,68,61L74.5,62a.44.44,0,0,0,0,.15L70.69,67.5a1.7,1.7,0,0,0,0,2,25.09,25.09,0,0,0,5.49,5.54A1.77,1.77,0,0,0,78.21,75l5.33-3.81a.25.25,0,0,1,.18.05l1,6.54a1.73,1.73,0,0,0,1.47,1.41,24.37,24.37,0,0,0,7.75,0A1.68,1.68,0,0,0,95.4,77.8l1-6.54c0-.05.1-.05.16-.1L102,75a1.77,1.77,0,0,0,2.06.06,24.66,24.66,0,0,0,5.49-5.54,1.76,1.76,0,0,0,0-2l-3.86-5.33a1.09,1.09,0,0,1,.08-.15L112.2,61a1.76,1.76,0,0,0,1.46-1.46,23.5,23.5,0,0,0,0-7.73Zm-3.32,5.95-6.21,1a1.67,1.67,0,0,0-1.41,1.15A12.61,12.61,0,0,1,102,61.6a1.77,1.77,0,0,0,.16,1.82l3.71,5.08A17.59,17.59,0,0,1,103,71.42l-5.09-3.71A1.9,1.9,0,0,0,96,67.56a10.78,10.78,0,0,1-1.72.72,1.86,1.86,0,0,0-1.18,1.42l-1,6.21a17.66,17.66,0,0,1-4.11,0L87,69.7a1.77,1.77,0,0,0-1.2-1.42,9,9,0,0,1-1.67-.72,1.93,1.93,0,0,0-1.85.15l-5.1,3.71A17.54,17.54,0,0,1,74.3,68.5L78,63.42a1.77,1.77,0,0,0,.16-1.82,14,14,0,0,1-.71-1.73,1.67,1.67,0,0,0-1.38-1.15l-6.24-1a18.32,18.32,0,0,1-.13-2.09,17.46,17.46,0,0,1,.13-2l6.24-1a1.79,1.79,0,0,0,1.38-1.2,13.89,13.89,0,0,1,.71-1.72A1.69,1.69,0,0,0,78,47.91l-3.7-5.12a20.72,20.72,0,0,1,2.92-2.93l5.12,3.71a1.72,1.72,0,0,0,1.8.16c.6-.31,1.18-.52,1.7-.73A1.75,1.75,0,0,0,87,41.64l1-6.27a17.66,17.66,0,0,1,4.11,0l1,6.27A1.82,1.82,0,0,0,94.33,43a13.59,13.59,0,0,1,1.7.73,1.78,1.78,0,0,0,1.83-.16L103,39.86a19.8,19.8,0,0,1,2.93,2.93l-3.71,5.12a1.69,1.69,0,0,0-.16,1.78,15.73,15.73,0,0,1,.71,1.72,1.79,1.79,0,0,0,1.41,1.2l6.21,1a17.46,17.46,0,0,1,.13,2A19.05,19.05,0,0,1,110.34,57.73Z"/><path class="cls-1" d="M90.1,47a8.62,8.62,0,1,0,8.62,8.62A8.64,8.64,0,0,0,90.1,47Zm0,13.74a5.12,5.12,0,1,1,5.09-5.12A5.12,5.12,0,0,1,90.1,60.76Z"/><path class="cls-1" d="M49.81,33.38A16.44,16.44,0,1,0,33.38,49.84,16.45,16.45,0,0,0,49.81,33.38Zm-29.36,0A12.92,12.92,0,1,1,33.38,46.29,12.94,12.94,0,0,1,20.45,33.38Z"/><path class="cls-1" d="M73.35,28.79a1.75,1.75,0,0,0,3.5,0V10.87h3.53L75.1,1.78l-5.24,9.09h3.49Z"/><path class="cls-1" d="M87.15,21.89a1.76,1.76,0,0,0,3.52,0v-11h3.5L88.92,1.78l-5.27,9.09h3.5Z"/></g></g></svg>