<svg xmlns="http://www.w3.org/2000/svg" viewBox="0 0 85.11 85.1"><defs><style>.cls-1{fill:#bec8ff;}</style></defs><title>Ресурс 8</title><g id="Слой_2" data-name="Слой 2"><g id="Layer_1" data-name="Layer 1"><path class="cls-1" d="M85,36a1.27,1.27,0,0,0-.31-.42h0L78.2,30.06A16.59,16.59,0,1,0,53.7,9.12L43.39.32a1.24,1.24,0,0,0-1.67,0L27.27,12.64H15.47a1.3,1.3,0,0,0-1.29,1.3v9.88L.44,35.57h0A1.37,1.37,0,0,0,.15,36s0,0,0,.08a1.27,1.27,0,0,0-.1.5V83.84H0a1,1,0,0,0,.08.42v0a.26.26,0,0,1,.07.11,1.2,1.2,0,0,0,.19.27.13.13,0,0,0,.1.08A1.2,1.2,0,0,0,.71,85s.07,0,.11.07a1.93,1.93,0,0,0,.46.08H83.81a1.64,1.64,0,0,0,.46-.08s.08,0,.14-.07a1.06,1.06,0,0,0,.24-.19s.08,0,.12-.08a2.61,2.61,0,0,0,.19-.27L85,84.3l0,0a2,2,0,0,0,0-.42h0V36.57a1.27,1.27,0,0,0-.11-.5S85,36,85,36Zm-2.43,3.37V81L58.14,60.18Zm-.69-2.79-10.91,9.3V33a15.55,15.55,0,0,0,4.94-1.54ZM68.5,2.58a14,14,0,1,1-14,14A14.05,14.05,0,0,1,68.5,2.58ZM42.55,3l10.1,8.66c-.09.3-.17.65-.26,1H31.24ZM52,15.24c0,.43-.06.89-.06,1.34A16.6,16.6,0,0,0,68.35,33.2V48.09L56.17,58.5l-12.78-11a1.37,1.37,0,0,0-1.67,0l-12.78,11L16.77,48.09V15.24ZM27,60.18,2.57,81V39.36ZM14.18,45.87,3.27,36.57l10.91-9.34ZM4.79,82.54,42.55,50.23,80.32,82.54Z"/><path class="cls-1" d="M66.89,25.35a1.25,1.25,0,0,0,1,.46H68a1.3,1.3,0,0,0,1-.69l7.5-14.51A1.27,1.27,0,0,0,76,8.89a1.26,1.26,0,0,0-1.74.54l-6.6,12.78-5-6.12a1.28,1.28,0,0,0-1.81-.16,1.26,1.26,0,0,0-.18,1.8Z"/><path class="cls-1" d="M24.5,34.46H52.86a1.29,1.29,0,1,0,0-2.57H24.5a1.29,1.29,0,0,0,0,2.57Z"/><path class="cls-1" d="M24.5,26.08H46.41a1.29,1.29,0,0,0,1.3-1.26,1.31,1.31,0,0,0-1.3-1.31H24.5a1.29,1.29,0,0,0-1.28,1.31A1.27,1.27,0,0,0,24.5,26.08Z"/><path class="cls-1" d="M24.5,42.84H60.61a1.28,1.28,0,1,0,0-2.56H24.5a1.28,1.28,0,1,0,0,2.56Z"/></g></g></svg>