<svg xmlns="http://www.w3.org/2000/svg" viewBox="0 0 106.78 106.76"><defs><style>.cls-1{fill:#bec8ff;}</style></defs><title>Ресурс 14</title><g id="Слой_2" data-name="Слой 2"><g id="Layer_1" data-name="Layer 1"><path class="cls-1" d="M105.17,0H1.61A1.61,1.61,0,0,0,0,1.63v46.2a1.62,1.62,0,0,0,1.61,1.64,1.64,1.64,0,0,0,1.63-1.64V19.41h100.3v3.4a1.62,1.62,0,1,0,3.24,0V1.63A1.61,1.61,0,0,0,105.17,0ZM3.24,3.22h100.3v13H3.24Z"/><path class="cls-1" d="M95.52,8.55A1.67,1.67,0,0,0,95,9.7a1.55,1.55,0,0,0,.48,1.15,1.72,1.72,0,0,0,1.15.49,1.61,1.61,0,0,0,1.13-.49,1.55,1.55,0,0,0,.48-1.15,1.59,1.59,0,0,0-.48-1.15A1.71,1.71,0,0,0,95.52,8.55Z"/><path class="cls-1" d="M87.76,8.12A1.58,1.58,0,0,0,86.15,9.7a1.62,1.62,0,1,0,3.24,0A1.59,1.59,0,0,0,87.76,8.12Z"/><path class="cls-1" d="M77.72,8.55a1.58,1.58,0,0,0-.47,1.15,1.55,1.55,0,0,0,.47,1.15,1.65,1.65,0,0,0,1.16.49A1.76,1.76,0,0,0,80,10.85a1.71,1.71,0,0,0,.46-1.15A1.67,1.67,0,0,0,80,8.55,1.72,1.72,0,0,0,77.72,8.55Z"/><path class="cls-1" d="M35.56,99.36a1.63,1.63,0,0,0,1.63-1.63V78a1.63,1.63,0,0,0-1.63-1.63H24.83A1.61,1.61,0,0,0,23.22,78V97.73a1.61,1.61,0,0,0,1.61,1.63Zm-9.1-19.73H34V96.1H26.46Z"/><path class="cls-1" d="M105.17,45.63H94.42a1.61,1.61,0,0,0-1.61,1.63V97.73a1.61,1.61,0,0,0,1.61,1.63h10.75a1.61,1.61,0,0,0,1.61-1.63V47.26A1.61,1.61,0,0,0,105.17,45.63ZM103.54,96.1H96.05V48.84h7.49Z"/><path class="cls-1" d="M82,99.36a1.62,1.62,0,0,0,1.61-1.63V65A1.61,1.61,0,0,0,82,63.44H71.22A1.6,1.6,0,0,0,69.61,65v32.7a1.61,1.61,0,0,0,1.61,1.63Zm-9.13-32.7h7.5V96.1h-7.5Z"/><path class="cls-1" d="M58.76,99.36a1.62,1.62,0,0,0,1.63-1.63V57a1.58,1.58,0,0,0-1.63-1.59H48A1.59,1.59,0,0,0,46.41,57V97.73A1.62,1.62,0,0,0,48,99.36ZM49.65,58.59h7.5V96.1h-7.5Z"/><path class="cls-1" d="M1.63,99.36H12.36A1.62,1.62,0,0,0,14,97.73V73.05a1.65,1.65,0,0,0-1.62-1.63H1.63A1.66,1.66,0,0,0,0,73.05V97.73A1.63,1.63,0,0,0,1.63,99.36ZM3.27,74.68h7.49V96.1H3.27Z"/><path class="cls-1" d="M105.17,103.54H1.61a1.61,1.61,0,1,0,0,3.22H105.17a1.61,1.61,0,1,0,0-3.22Z"/><path class="cls-1" d="M99.8,26.8a7,7,0,0,0-7,7,6.6,6.6,0,0,0,.62,2.87L81,46.2a6.71,6.71,0,0,0-4.37-1.58,6.89,6.89,0,0,0-5.88,3.21l-10.4-3.64c0-.25.07-.44.07-.68a7,7,0,1,0-14,0,6.77,6.77,0,0,0,.89,3.32l-13.16,12a6.93,6.93,0,0,0-3.94-1.24,7,7,0,0,0-6.31,4L14,59.5a7,7,0,1,0-.68,3.17l9.94,2.07a7,7,0,0,0,14-.24,7.33,7.33,0,0,0-.88-3.31L49.46,49.28a7,7,0,0,0,9.8-2l10.42,3.65c0,.24-.07.43-.07.67a7,7,0,1,0,14,0A6.94,6.94,0,0,0,83,48.74l12.46-9.55a6.68,6.68,0,0,0,4.38,1.58,7,7,0,0,0,0-14ZM7,63.44A3.75,3.75,0,0,1,3.27,59.7,3.79,3.79,0,0,1,7,55.9a3.8,3.8,0,0,1,3.75,3.8A3.76,3.76,0,0,1,7,63.44ZM30.2,68.29A3.75,3.75,0,1,1,34,64.5,3.76,3.76,0,0,1,30.2,68.29Zm23.2-21a3.76,3.76,0,0,1-3.75-3.75,3.75,3.75,0,1,1,7.5,0A3.75,3.75,0,0,1,53.4,47.26Zm23.2,8.11a3.77,3.77,0,1,1,3.75-3.79A3.79,3.79,0,0,1,76.6,55.37ZM99.8,37.56a3.77,3.77,0,1,1,3.74-3.79A3.77,3.77,0,0,1,99.8,37.56Z"/></g></g></svg>