<svg xmlns="http://www.w3.org/2000/svg" viewBox="0 0 101.47 101.49"><defs><style>.cls-1{fill:#bec8ff;}</style></defs><title>Ресурс 12</title><g id="Слой_2" data-name="Слой 2"><g id="Layer_1" data-name="Layer 1"><path class="cls-1" d="M99.94,81.37a1.49,1.49,0,0,0-1.55,1.5v11a4.63,4.63,0,0,1-4.61,4.6h-21a1.53,1.53,0,1,0,0,3.06h21a7.7,7.7,0,0,0,7.69-7.66v-11A1.49,1.49,0,0,0,99.94,81.37Z"/><path class="cls-1" d="M93.78,0H7.69A7.72,7.72,0,0,0,0,7.71V99.94a1.53,1.53,0,0,0,1.53,1.55h59A1.53,1.53,0,0,0,62,99.94V83.42l5.25-3.83.66.27,1.23,7.67a1.47,1.47,0,0,0,1.26,1.28,26.28,26.28,0,0,0,8.67,0,1.49,1.49,0,0,0,1.26-1.28l1.23-7.67.64-.27,6.3,4.56a1.46,1.46,0,0,0,1.79,0A26.34,26.34,0,0,0,96.45,78a1.5,1.5,0,0,0,0-1.78L91.89,70c.09-.23.18-.46.27-.64l7.67-1.23a1.57,1.57,0,0,0,1.28-1.28,26.28,26.28,0,0,0,0-8.67,1.53,1.53,0,0,0-1.28-1.24l-7.67-1.23L91.89,55l4.56-6.25a1.52,1.52,0,0,0,0-1.79,26.08,26.08,0,0,0-6.12-6.15,1.58,1.58,0,0,0-1.79,0l-6.3,4.56-.64-.27-1.23-7.67a1.57,1.57,0,0,0-1.26-1.28,27.41,27.41,0,0,0-8.67,0,1.56,1.56,0,0,0-1.26,1.28L68,45.09l-.66.27L62,41.57V30.62a1.25,1.25,0,0,0-.09-.37,1.21,1.21,0,0,0-.05-.18,2.4,2.4,0,0,0-.29-.41L47.81,15.83a1.16,1.16,0,0,0-.46-.27c-.05-.05-.09-.05-.14-.09s-.27-.05-.39-.05-.07,0-.11,0H3.08V7.71A4.6,4.6,0,0,1,7.69,3.1H93.78a4.6,4.6,0,0,1,4.61,4.61v7.67H60.51A1.55,1.55,0,0,0,59,16.93a1.58,1.58,0,0,0,1.55,1.55H98.39v23.6a1.54,1.54,0,1,0,3.08,0V7.71A7.71,7.71,0,0,0,93.78,0ZM3.08,98.43V18.48h42.1V30.71a1.53,1.53,0,0,0,1.53,1.55H59V41a27.29,27.29,0,0,0-5.88,6,1.55,1.55,0,0,0,0,1.79L57.64,55c-.09.23-.19.46-.27.68L49.72,56.9a1.53,1.53,0,0,0-1.28,1.24,26.28,26.28,0,0,0,0,8.67,1.53,1.53,0,0,0,1.28,1.28l7.65,1.23c.08.18.18.41.27.64L53.1,76.25a1.53,1.53,0,0,0,0,1.78A26.31,26.31,0,0,0,59,84V98.43ZM67.82,48.51a20.59,20.59,0,0,1,2-.82,1.54,1.54,0,0,0,1-1.24L72,39a26.41,26.41,0,0,1,5.48,0l1.19,7.43a1.51,1.51,0,0,0,1,1.24,20.59,20.59,0,0,1,2,.82,1.46,1.46,0,0,0,1.6-.14L89.42,44a24,24,0,0,1,3.86,3.87l-4.43,6.12a1.6,1.6,0,0,0-.11,1.59,16.21,16.21,0,0,1,.84,2,1.5,1.5,0,0,0,1.21,1l7.44,1.19a23.21,23.21,0,0,1,.16,2.73,22.89,22.89,0,0,1-.16,2.74L90.79,66.4a1.53,1.53,0,0,0-1.21,1,15,15,0,0,1-.84,2,1.62,1.62,0,0,0,.11,1.6l4.43,6.11A24,24,0,0,1,89.42,81l-6.09-4.43a1.66,1.66,0,0,0-1.6-.13,19.1,19.1,0,0,1-2,.82,1.56,1.56,0,0,0-1,1.23l-1.19,7.44a27.87,27.87,0,0,1-5.48,0l-1.18-7.44a1.6,1.6,0,0,0-1-1.23,14.41,14.41,0,0,1-2-.82,1.57,1.57,0,0,0-1.6.13L60.12,81a25.88,25.88,0,0,1-3.88-3.88L60.67,71a1.53,1.53,0,0,0,.14-1.6,13,13,0,0,1-.85-2,1.52,1.52,0,0,0-1.21-1l-7.43-1.19a23.46,23.46,0,0,1,0-5.47l7.43-1.19a1.49,1.49,0,0,0,1.21-1,13.6,13.6,0,0,1,.85-2,1.52,1.52,0,0,0-.14-1.59l-4.43-6.12A25.81,25.81,0,0,1,60.12,44l6.1,4.42A1.45,1.45,0,0,0,67.82,48.51Zm-11-19.35H48.26V20.63Z"/><path class="cls-1" d="M92.94,10.31a1.49,1.49,0,0,0,.46-1.05A1.58,1.58,0,0,0,93,8.17a1.61,1.61,0,0,0-2.19,0,1.47,1.47,0,0,0-.46,1.09,1.57,1.57,0,0,0,1.55,1.51A1.39,1.39,0,0,0,92.94,10.31Z"/><path class="cls-1" d="M85,9.26A1.54,1.54,0,0,0,83.4,7.71a1.53,1.53,0,0,0-1.53,1.55,1.56,1.56,0,0,0,1.53,1.55A1.58,1.58,0,0,0,85,9.26Z"/><path class="cls-1" d="M76.05,10.31a1.55,1.55,0,0,0,.43-1.05,1.79,1.79,0,0,0-.43-1.14,1.72,1.72,0,0,0-2.19,0,1.83,1.83,0,0,0-.46,1.14,1.58,1.58,0,0,0,.46,1.05,1.43,1.43,0,0,0,1.07.46A1.51,1.51,0,0,0,76.05,10.31Z"/><path class="cls-1" d="M74.77,71.69a9.22,9.22,0,1,0-9.21-9.22A9.21,9.21,0,0,0,74.77,71.69Zm0-15.38a6.16,6.16,0,1,1-6.16,6.16A6.18,6.18,0,0,1,74.77,56.31Z"/><path class="cls-1" d="M12,32.26H35.62a1.53,1.53,0,0,0,1.53-1.55,1.57,1.57,0,0,0-1.53-1.55H12a1.57,1.57,0,0,0-1.54,1.55A1.54,1.54,0,0,0,12,32.26Z"/><path class="cls-1" d="M46.39,42.21H12a1.57,1.57,0,0,0-1.54,1.55A1.54,1.54,0,0,0,12,45.31H46.39a1.53,1.53,0,0,0,1.53-1.55A1.56,1.56,0,0,0,46.39,42.21Z"/><path class="cls-1" d="M12,58.37H40.23a1.57,1.57,0,0,0,1.53-1.56,1.54,1.54,0,0,0-1.53-1.55H12a1.54,1.54,0,0,0-1.54,1.55A1.57,1.57,0,0,0,12,58.37Z"/><path class="cls-1" d="M12,71.37H40.23a1.53,1.53,0,1,0,0-3.05H12a1.53,1.53,0,1,0,0,3.05Z"/><path class="cls-1" d="M46.39,81.37H12a1.49,1.49,0,0,0-1.54,1.5A1.54,1.54,0,0,0,12,84.42H46.39a1.53,1.53,0,0,0,1.53-1.55A1.49,1.49,0,0,0,46.39,81.37Z"/></g></g></svg>