<svg xmlns="http://www.w3.org/2000/svg" viewBox="0 0 106.72 106.72"><defs><style>.cls-1{fill:#bec8ff;}</style></defs><title>Ресурс 9</title><g id="Слой_2" data-name="Слой 2"><g id="Layer_1" data-name="Layer 1"><path class="cls-1" d="M14.68,69.77H26a1.61,1.61,0,1,0,0-3.22H14.68a1.61,1.61,0,1,0,0,3.22Z"/><path class="cls-1" d="M60,79.27H55.11a1.63,1.63,0,0,0,0,3.26H60a1.63,1.63,0,0,0,0-3.26Z"/><path class="cls-1" d="M38.92,79.27H14.68a1.63,1.63,0,0,0,0,3.26H38.92a1.63,1.63,0,1,0,0-3.26Z"/><path class="cls-1" d="M100.24,26.58H74.62V6.43A6.46,6.46,0,0,0,68.16,0H6.48A6.46,6.46,0,0,0,0,6.43V35a6.46,6.46,0,0,0,6.48,6.43h25.6V53.79H6.48A6.5,6.5,0,0,0,0,60.27v28.5A6.51,6.51,0,0,0,6.48,95.3H44.14l15.65,11.08a1.8,1.8,0,0,0,1,.34,2,2,0,0,0,.72-.19,1.66,1.66,0,0,0,.88-1.44V95.3h5.81a6.51,6.51,0,0,0,6.46-6.53V68.09h25.62a6.52,6.52,0,0,0,6.48-6.48V33.06A6.52,6.52,0,0,0,100.24,26.58ZM3.24,35V6.43A3.24,3.24,0,0,1,6.48,3.21H68.16A3.24,3.24,0,0,1,71.4,6.43V35a3.27,3.27,0,0,1-3.24,3.21H60.75a1.62,1.62,0,0,0-1.64,1.59v8.3l-13.53-9.6a1.6,1.6,0,0,0-.93-.29H6.48A3.26,3.26,0,0,1,3.24,35ZM71.4,88.77A3.25,3.25,0,0,1,68.16,92H60.75a1.62,1.62,0,0,0-1.64,1.63v8.25l-13.53-9.6a1.59,1.59,0,0,0-.93-.28H6.48a3.25,3.25,0,0,1-3.24-3.27V60.27A3.27,3.27,0,0,1,6.48,57h25.6v4.6a6.5,6.5,0,0,0,6.48,6.48h5.8v9.79a1.64,1.64,0,0,0,.86,1.44,2.3,2.3,0,0,0,.75.19,1.63,1.63,0,0,0,.93-.34L62.57,68.09H71.4Zm32.05-27.16a3.22,3.22,0,0,1-3.21,3.22H62a1.58,1.58,0,0,0-.91.33l-13.55,9.6v-8.3A1.65,1.65,0,0,0,46,64.83H38.56a3.24,3.24,0,0,1-3.25-3.22V41.46h8.83L59.79,52.59a1.74,1.74,0,0,0,1,.29,1.34,1.34,0,0,0,.72-.19,1.6,1.6,0,0,0,.88-1.44V41.46h5.81A6.46,6.46,0,0,0,74.62,35V29.84h25.62a3.22,3.22,0,0,1,3.21,3.22Z"/><path class="cls-1" d="M92,39.35H80.71A1.61,1.61,0,0,0,79.1,41a1.65,1.65,0,0,0,1.61,1.63H92A1.65,1.65,0,0,0,93.64,41,1.61,1.61,0,0,0,92,39.35Z"/><path class="cls-1" d="M51.61,52.11H46.76a1.61,1.61,0,1,0,0,3.22h4.85a1.61,1.61,0,0,0,0-3.22Z"/><path class="cls-1" d="M85.55,52.11H67.78a1.61,1.61,0,1,0,0,3.22H85.55a1.61,1.61,0,1,0,0-3.22Z"/><path class="cls-1" d="M38.94,16H60a1.61,1.61,0,0,0,1.61-1.63A1.64,1.64,0,0,0,60,12.72h-21a1.66,1.66,0,0,0-1.63,1.63A1.63,1.63,0,0,0,38.94,16Z"/><path class="cls-1" d="M14.68,16H29.22a1.62,1.62,0,0,0,1.63-1.63,1.64,1.64,0,0,0-1.63-1.63H14.68a1.65,1.65,0,0,0-1.61,1.63A1.62,1.62,0,0,0,14.68,16Z"/><path class="cls-1" d="M50.24,27.11a1.61,1.61,0,0,0-1.61-1.63H14.68a1.62,1.62,0,0,0-1.61,1.63,1.58,1.58,0,0,0,1.61,1.58h34A1.57,1.57,0,0,0,50.24,27.11Z"/></g></g></svg>