<svg xmlns="http://www.w3.org/2000/svg" viewBox="0 0 81.73 81.9"><defs><style>.cls-1{fill:#bec8ff;}</style></defs><title>Ресурс 11</title><g id="Слой_2" data-name="Слой 2"><g id="Layer_1" data-name="Layer 1"><path class="cls-1" d="M13.58,80.63l0-10.91a1.23,1.23,0,0,0-1.22-1.23H8.11L8,13.56h3.45l6.24,27.39a1.29,1.29,0,0,0,.92.94c.11,0,11.36,2.89,20.16,10.47l3.59,8.19a1.23,1.23,0,0,0,.92.71,1.25,1.25,0,0,0,1.1-.35L60.91,44.23a1.25,1.25,0,0,0,.37-1.1,1.28,1.28,0,0,0-.74-.9l-8.2-3.54A55.7,55.7,0,0,1,41.78,18.58a1.32,1.32,0,0,0-1-.92L13.4,11.58V8.11l55-.14v4.19a1.24,1.24,0,0,0,1.25,1.24l10.88,0a1.23,1.23,0,0,0,1.24-1.25l0-10.89A1.23,1.23,0,0,0,80.45,0L69.58,0a1.23,1.23,0,0,0-1.25,1.23l0,4.21-55,.14V1.41A1.23,1.23,0,0,0,12.16.18L1.25.21A1.23,1.23,0,0,0,0,1.44L0,12.33a1.24,1.24,0,0,0,1.25,1.25H5.47l.14,54.94H1.42A1.23,1.23,0,0,0,.18,69.76l0,10.91A1.23,1.23,0,0,0,1.46,81.9l10.91,0A1.23,1.23,0,0,0,13.58,80.63ZM79.21,2.48l0,8.42-8.41,0,0-8.42ZM57.9,43.78l-14,14.09-2.63-6L51.87,41.19ZM39.58,19.93A57.9,57.9,0,0,0,49.92,39.65L39.69,49.92A57.47,57.47,0,0,0,19.94,39.69L14.66,16.54l11.45,11.4a5.26,5.26,0,0,0-.72,2.66,5,5,0,0,0,1.52,3.65,5.14,5.14,0,0,0,3.67,1.52,5.26,5.26,0,0,0,3.64-1.53,5.22,5.22,0,0,0,0-7.32,5.2,5.2,0,0,0-6.33-.73L16.42,14.77Zm-7.14,8.76a2.6,2.6,0,0,1,.77,1.89,2.66,2.66,0,0,1-2.64,2.71,2.85,2.85,0,0,1-1.95-.79,2.7,2.7,0,1,1,3.82-3.81ZM2.52,11.1l0-8.42,8.41,0,0,8.42ZM2.7,79.41l0-8.41,8.41,0,0,8.41Z"/></g></g></svg>