<svg xmlns="http://www.w3.org/2000/svg" width="133" height="21" viewBox="0 0 133 21"><g><g><g><g><g><path d="M.151.121C.264.041.416 0 .642 0h2.154c.265 0 .453.04.529.121.113.08.151.242.151.525v14.256c0 .808.19 1.373.567 1.696.378.323.869.485 1.511.485h5.026c.226 0 .453 0 .604.161.151.121.113.202.189.525.113.323.302 1.939.302 1.939 0 .161 0 .282-.113.404-.113.12-.302.201-.453.242-.152.04-.492.08-.945.08H5.025c-.982 0-1.813-.16-2.456-.444-.642-.323-1.171-.727-1.549-1.252a4.675 4.675 0 0 1-.793-1.776A9.022 9.022 0 0 1 0 14.902V.646C0 .363.038.202.151.121z"/></g><g><path fill="#d32d27" d="M68.956 13.327v4.12a2.39 2.39 0 0 1-.756.241c-.302.081-.529.122-.793.162-.265.04-.491.08-.718.08h-.53c-.83 0-1.51-.16-2.04-.484-.49-.323-.755-.888-.755-1.696 0-.565.113-1.01.302-1.333.19-.323.454-.565.756-.727.302-.161.642-.282.982-.323.378-.04.68-.04.983-.04zm3.098 5.411v-8.561c0-1.696-.415-2.948-1.284-3.837-.87-.888-2.192-1.332-4.043-1.332-.794 0-2.343.242-3.099.565-.226.121-.302.283-.226.606l.378 1.615c.037.162.113.283.188.323.076.04.227 0 .416-.04a6.38 6.38 0 0 1 1.851-.323c.53 0 1.02.08 1.36.202.34.12.643.282.832.525.227.242.34.484.416.807.075.324.113.647.113 1.01v.485h-2.985c-1.058 0-1.965.161-2.683.444-.718.283-1.322.646-1.776 1.13a3.903 3.903 0 0 0-.982 1.616 6.907 6.907 0 0 0-.302 1.939c0 .646.075 1.292.264 1.857.19.566.492 1.05.945 1.494a5.016 5.016 0 0 0 1.814 1.01c.755.283 1.738.404 2.909.404.416 0 .869 0 1.322-.04.492-.04.945-.081 1.436-.162.491-.08.945-.202 1.398-.323a5.826 5.826 0 0 0 1.247-.485c.34-.161.491-.484.491-.929z"/></g><g><path d="M36.199 15.871c0 .767-.114 1.414-.378 1.979-.265.565-.605 1.05-1.096 1.413-.453.364-1.02.647-1.662.849-.643.201-1.323.282-2.079.323-.415 0-.869 0-1.36-.04-.491-.041-.944-.082-1.436-.203a7.948 7.948 0 0 1-1.398-.363c-.453-.162-.869-.323-1.246-.566-.265-.161-.34-.363-.19-.686l.605-1.575c.076-.162.19-.283.265-.323.075-.04.226-.04.415.08.643.324 1.36.526 2.116.687.794.162 1.474.242 2.078.242.756 0 1.285-.161 1.663-.484.378-.323.529-.727.529-1.212 0-.525-.265-.969-.756-1.292-.491-.323-1.209-.646-2.154-1.01-.718-.282-1.36-.525-1.927-.807-.529-.283-.982-.566-1.36-.93a3.317 3.317 0 0 1-.831-1.13 3.737 3.737 0 0 1-.302-1.494c0-.606.075-1.171.302-1.696.189-.525.529-.97.945-1.333a5.438 5.438 0 0 1 1.549-.929c.604-.242 1.322-.363 2.153-.363.756 0 1.474.04 2.23.161a9.514 9.514 0 0 1 2.153.606c.151.08.227.162.265.283a.73.73 0 0 1 0 .404l-.567 1.615c-.038.161-.113.242-.189.242-.075.04-.189 0-.34-.04-.68-.242-1.285-.404-1.814-.485a9.614 9.614 0 0 0-1.624-.12c-.643 0-1.134.16-1.436.443-.302.283-.454.606-.454.97 0 .242.038.484.152.686.113.202.264.364.49.525.228.162.492.323.832.485.34.161.756.323 1.285.525.566.202 1.133.444 1.662.686.53.243 1.02.525 1.436.889.416.363.756.767 1.02 1.252.302.444.454 1.05.454 1.736"/></g><g><path d="M46.096 20.033a7.229 7.229 0 0 1-1.813.364c-.605.04-1.058.04-1.398.04-1.436 0-2.494-.323-3.06-1.01-.605-.686-.908-1.696-.908-3.069l.076-8.117h-1.965c-.189 0-.264-.04-.34-.121-.076-.081-.113-.162-.076-.323.038-.122.53-1.495.53-1.495.037-.04.15-.363.188-.404.038-.08.114-.12.34-.12h1.323V3.03c0-.363.151-.444.227-.525.075-.08.226-.161.415-.242l1.89-.566c.15-.04.264-.04.34.04.075.082.15.203.15.405v3.634h2.683c.19 0 .303.04.34.121.038.081.076.202.076.324v1.575a.852.852 0 0 1-.076.363c-.037.08-.15.121-.34.121h-2.682v7.673c0 .606.15 1.01.415 1.252s.68.323 1.21.323h.415c.189 0 .34-.04.529-.04s.378-.04.567-.08c.189-.041.34-.041.453-.082.189-.04.302-.04.34 0 .038.04.076.121.114.283l.302 1.817c0 .121.038.202 0 .283-.038.162-.114.242-.265.323z"/></g><g><path fill="#d32d27" d="M59.17 7.11c0 .969-.265 1.776-.794 2.382-.529.606-1.398.929-2.569.929h-3.4V3.717h3.325c.68 0 1.246.121 1.7.323.453.243.793.525 1.058.848.264.323.415.687.529 1.09.113.405.189.768.15 1.131zm-6.877 12.923V13.53h3.212c1.398 0 2.531-.243 3.4-.727a6.012 6.012 0 0 0 2.003-1.777c.453-.687.793-1.414.945-2.181.15-.727.226-1.413.226-1.938 0-.97-.15-1.818-.453-2.625-.302-.808-.718-1.495-1.285-2.06A6.352 6.352 0 0 0 58.34.89a6.656 6.656 0 0 0-2.57-.484h-5.327c-.227 0-.34-.04-.491 0a.96.96 0 0 0-.643.363c-.15.162-.15.242-.189.525a5.303 5.303 0 0 0-.075.808v17.93c0 .283.038.445.15.526.114.08.303.12.492.12h1.738c.265 0 .605-.04.68-.12.076-.081.114-.243.114-.525z"/></g><g><path fill="#d32d27" d="M83.807 18.052c-.265.565-.605 1.05-1.096 1.413-.454.364-1.02.647-1.663.848-.642.202-1.322.283-2.078.324-.415 0-.869 0-1.36-.04-.491-.041-.945-.082-1.436-.203a7.948 7.948 0 0 1-1.398-.363c-.453-.162-.869-.323-1.247-.566-.264-.161-.34-.363-.189-.686l.605-1.575c.076-.162.189-.283.264-.323.076-.04.227-.04.416.08.642.324 1.36.526 2.116.687.793.162 1.474.242 2.078.242.756 0 1.285-.161 1.663-.484.377-.323.529-.727.529-1.212 0-.525-.265-.969-.756-1.292-.491-.323-1.21-.646-2.154-1.01-.718-.282-1.36-.525-1.927-.807-.529-.283-.982-.566-1.36-.93a3.317 3.317 0 0 1-.831-1.13 3.737 3.737 0 0 1-.303-1.494c0-.606.076-1.171.303-1.696a3.64 3.64 0 0 1 .944-1.333 5.438 5.438 0 0 1 1.55-.929c.604-.242 1.322-.363 2.153-.363.756 0 1.474.04 2.23.161a9.514 9.514 0 0 1 2.153.606c.151.08.227.161.265.283a.73.73 0 0 1 0 .403L82.71 8.28c-.038.161-.114.242-.19.242-.075.04-.188 0-.34-.04-.68-.243-1.284-.404-1.813-.485a11.276 11.276 0 0 0-1.7-.121c-.642 0-1.134.162-1.436.444-.302.283-.453.606-.453.97 0 .242.037.484.15.686.114.202.265.363.492.525.227.162.491.323.831.485.34.161.756.323 1.285.525.567.202 1.133.444 1.662.686.53.242 1.02.525 1.436.889.416.363.756.767 1.02 1.252.265.484.416 1.05.416 1.776.113.687 0 1.333-.264 1.939z"/></g><g><path fill="#d32d27" d="M96.049 16.073c0 .767-.114 1.414-.378 1.979-.265.565-.605 1.05-1.096 1.413-.453.364-1.02.647-1.662.848-.643.202-1.323.283-2.079.324-.415 0-.869 0-1.36-.04-.491-.041-.944-.082-1.436-.203a7.948 7.948 0 0 1-1.398-.363c-.453-.162-.869-.323-1.246-.566-.265-.161-.34-.363-.19-.686l.605-1.575c.076-.162.19-.283.265-.323.075-.04.226-.04.415.08.643.324 1.36.526 2.116.687.794.162 1.474.242 2.078.242.756 0 1.285-.161 1.663-.484.378-.323.529-.727.529-1.212 0-.525-.265-.969-.756-1.292-.491-.323-1.209-.646-2.154-1.01-.718-.282-1.36-.525-1.927-.807-.529-.283-.982-.566-1.36-.93a3.317 3.317 0 0 1-.831-1.13 3.737 3.737 0 0 1-.302-1.494c0-.606.075-1.171.302-1.696.189-.525.529-.97.945-1.333a5.438 5.438 0 0 1 1.549-.929c.604-.242 1.322-.363 2.153-.363.756 0 1.474.04 2.23.161a9.514 9.514 0 0 1 2.153.606c.151.08.227.161.265.283a.73.73 0 0 1 0 .403l-.567 1.616c-.038.161-.113.242-.189.242-.075.04-.189 0-.34-.04-.68-.243-1.285-.404-1.814-.485a11.276 11.276 0 0 0-1.7-.121c-.642 0-1.133.162-1.436.444-.302.283-.453.606-.453.97 0 .242.038.484.151.686.113.202.265.363.491.525.227.162.491.323.832.485.34.161.755.323 1.284.525.567.202 1.134.444 1.663.686.529.242 1.02.525 1.435.889.416.363.756.767 1.02 1.252.416.444.53 1.05.53 1.736"/></g><g><path d="M21.008 13.165v4.12a2.39 2.39 0 0 1-.756.242c-.302.08-.529.121-.793.161-.265.04-.491.081-.718.081h-.53c-.83 0-1.51-.161-2.04-.484-.49-.323-.755-.889-.755-1.697 0-.565.113-1.01.302-1.332.19-.323.454-.566.756-.727.302-.162.642-.283.982-.323.378-.04.68-.04.983-.04zm3.098 5.372V9.894c0-1.696-.415-2.948-1.284-3.836-.87-.889-2.192-1.333-4.043-1.333-.794 0-1.625.08-2.494.202-.907.121-1.7.323-2.456.646-.227.121-.302.283-.227.606l.378 1.615c.038.162.113.283.189.323.076.04.227 0 .416-.04.453-.162 1.02-.283 1.738-.404.718-.121 1.36-.161 1.964-.161.53 0 1.02.08 1.36.201.34.122.643.283.832.525.189.243.34.485.416.808.075.323.113.646.113 1.01v.484h-2.985c-1.058 0-1.965.162-2.683.445-.718.282-1.322.646-1.776 1.13a3.903 3.903 0 0 0-.982 1.616c-.189.646-.302 1.252-.302 1.938 0 .646.075 1.293.264 1.858a3.55 3.55 0 0 0 .945 1.535 5.016 5.016 0 0 0 1.814 1.01c.755.282 1.738.403 2.909.403.416 0 .869 0 1.322-.04.492-.04.945-.081 1.436-.162.491-.08.945-.202 1.398-.323a5.826 5.826 0 0 0 1.247-.485c.34-.161.491-.484.491-.928z"/></g></g><g><path fill="#d32d27" d="M131.262 5.21c0-.525.378-.93.869-.93s.869.405.869.93V20.07c0 .525-.378.929-.869.929s-.87-.404-.87-.929z"/></g><g><g><path fill="#d32d27" d="M103.687 16.146c1.628 0 2.947-1.41 2.947-3.15s-1.32-3.15-2.947-3.15c-1.628 0-2.947 1.41-2.947 3.15s1.32 3.15 2.947 3.15z"/></g><g><path fill="#d32d27" d="M113.511 16.146c1.628 0 2.947-1.41 2.947-3.15s-1.32-3.15-2.947-3.15c-1.628 0-2.947 1.41-2.947 3.15s1.32 3.15 2.947 3.15z"/></g><g><path fill="#d32d27" d="M123.335 16.146c1.628 0 2.947-1.41 2.947-3.15s-1.32-3.15-2.947-3.15c-1.628 0-2.947 1.41-2.947 3.15s1.32 3.15 2.947 3.15z"/></g></g></g></g></g></svg>