<svg xmlns="http://www.w3.org/2000/svg" width="115" height="27" viewBox="0 0 115 27"><defs><clipPath id="16bla"><path d="M0 .07h106.912v26.91H0z"/></clipPath></defs><g><g><g><g><g/><g clip-path="url(#16bla)"><path fill="#fff" d="M105.951 8.402c.64 1.514.961 3.24.961 5.174 0 1.937-.32 3.661-.96 5.175-.642 1.515-1.537 2.796-2.69 3.843-1.153 1.047-2.533 1.827-4.14 2.34-1.606.513-3.376.768-5.31.768-1.91 0-3.666-.255-5.273-.768-1.607-.513-2.986-1.293-4.14-2.34-1.153-1.047-2.049-2.328-2.688-3.843-.643-1.514-.961-3.238-.961-5.175 0-1.935.318-3.66.961-5.174.639-1.514 1.535-2.795 2.689-3.843 1.153-1.047 2.532-1.845 4.139-2.392 1.607-.545 3.363-.82 5.273-.82 1.934 0 3.704.275 5.31.82 1.607.547 2.987 1.345 4.14 2.392 1.153 1.048 2.048 2.329 2.69 3.843m-3.244 10.003c.488-1.37.73-2.995.73-4.875s-.242-3.505-.73-4.875c-.487-1.37-1.165-2.503-2.033-3.397a8.117 8.117 0 0 0-3.06-1.988c-1.17-.43-2.436-.646-3.803-.646-1.345 0-2.602.216-3.772.646a8.114 8.114 0 0 0-3.057 1.988c-.87.894-1.548 2.027-2.034 3.397-.486 1.37-.728 2.995-.728 4.875s.242 3.505.728 4.875 1.164 2.503 2.034 3.397a8.082 8.082 0 0 0 3.057 1.988c1.17.43 2.427.646 3.772.646 1.367 0 2.634-.216 3.804-.646a8.085 8.085 0 0 0 3.06-1.988c.867-.894 1.545-2.026 2.032-3.397m-24.06-9.46c.555 1.356.832 2.9.832 4.633 0 1.734-.277 3.278-.832 4.633-.555 1.357-1.33 2.503-2.328 3.441-.997.938-2.192 1.636-3.581 2.095-1.39.459-2.923.688-4.595.688-1.653 0-3.176-.23-4.567-.688-1.389-.459-2.583-1.157-3.58-2.095-.998-.938-1.774-2.084-2.328-3.441-.555-1.355-.832-2.9-.832-4.633 0-1.732.277-3.277.832-4.633.554-1.355 1.33-2.502 2.327-3.44.998-.938 2.192-1.65 3.581-2.14 1.391-.49 2.914-.734 4.567-.734 1.672 0 3.204.244 4.595.734 1.39.49 2.584 1.202 3.581 2.14.997.938 1.773 2.085 2.328 3.44m-3.22 8.951c.397-1.214.596-2.655.596-4.323 0-1.666-.199-3.108-.597-4.322-.398-1.215-.953-2.22-1.664-3.014a6.64 6.64 0 0 0-2.503-1.761c-.958-.382-1.996-.573-3.116-.573-1.1 0-2.13.19-3.086.573a6.646 6.646 0 0 0-2.504 1.761c-.711.794-1.265 1.799-1.663 3.014-.4 1.214-.599 2.656-.599 4.322 0 1.668.2 3.109.599 4.323.398 1.217.952 2.22 1.663 3.013a6.615 6.615 0 0 0 2.504 1.762 8.245 8.245 0 0 0 3.086.572c1.12 0 2.158-.19 3.116-.572a6.61 6.61 0 0 0 2.503-1.762c.711-.792 1.266-1.796 1.664-3.013M41.15 2.882c-.064 1.417-.13 2.869-.18 4.129-.05 1.285-.076 2.619-.076 3.962l-.005 1.836c.917.017 1.81.034 2.678.052a161.964 161.964 0 0 0 6.34 0c.867-.018 1.76-.035 2.678-.052l-.006-1.836c0-1.343-.026-2.677-.077-3.962-.048-1.26-.114-2.712-.177-4.129.55.16 1.13.24 1.738.24.616 0 1.199-.079 1.749-.238-.062 1.353-.105 2.806-.157 4.107a103.66 103.66 0 0 0-.075 3.982v5.29c0 1.353.025 2.686.075 3.999.052 1.311.106 2.63.168 3.902a6.267 6.267 0 0 0-1.752-.238c-.61 0-1.189.079-1.738.239.062-1.299.121-2.654.17-3.923.05-1.296.076-2.634.076-3.978V14.27c-.915-.016-1.813-.028-2.678-.038a351.163 351.163 0 0 0-6.33 0c-.864.01-1.76.022-2.677.038v1.994c0 1.344.026 2.682.076 3.978.05 1.27.107 2.624.17 3.923a6.171 6.171 0 0 0-1.738-.239 6.26 6.26 0 0 0-1.752.238c.061-1.271.116-2.59.168-3.902.05-1.313.076-2.646.076-3.998v-5.291c0-1.353-.027-2.68-.076-3.982-.052-1.301-.096-2.754-.157-4.107.55.16 1.132.237 1.749.237.608 0 1.19-.08 1.74-.239M10.503 26.747a6.17 6.17 0 0 0-1.724.232c.06-1.3.116-4.953.168-6.275.052-1.327.078-2.804.078-4.173l.001-1.028a972.754 972.754 0 0 0-3.964-7.015c-.749-1.312-1.827-3.127-2.48-4.253A71.973 71.973 0 0 0 .695 1.147 53.918 53.918 0 0 1 0 .07c.55.162 1.133.242 1.744.242.616 0 1.199-.079 1.747-.237 1.536 2.799 6.744 11.343 7.012 11.84.268-.497 5.475-9.046 7.01-11.844a6.3 6.3 0 0 0 1.747.241c.612 0 1.194-.08 1.745-.242-.22.354-.416.652-.694 1.077a71.168 71.168 0 0 0-1.887 3.088c-.653 1.126-1.732 2.941-2.48 4.253a738.024 738.024 0 0 0-2.283 4.022 706.245 706.245 0 0 0-1.68 2.993l.001 1.028c0 1.369.026 2.846.076 4.173.052 1.322.109 4.975.169 6.275a6.17 6.17 0 0 0-1.724-.232m25.57-3.215c.098.19.268.525.32.63a6.305 6.305 0 0 0-1.747-.238c-.604 0-1.18.08-1.724.237-.188-.502-1.235-3.138-2.451-6.234-.522-.015-1.111-.036-1.63-.045-.682-.009-1.977-.014-2.655-.014h-.045c-.679 0-1.974.005-2.656.014-.52.01-1.109.03-1.632.045-1.215 3.096-2.263 5.732-2.45 6.234a6.204 6.204 0 0 0-1.723-.237 6.32 6.32 0 0 0-1.75.238c.055-.105.223-.44.322-.63 2.272-4.408 7.107-16.567 8.495-20.147.074-.19.144-.366.192-.498a3.222 3.222 0 0 0 1.218.232c.433 0 .835-.075 1.207-.222.007-.003.014-.008.023-.01.047.133.117.309.19.498 1.388 3.58 6.223 15.74 8.496 20.147m-9.91-7c.69 0 3.09-.065 3.746-.096-1.7-4.331-3.52-9.042-3.746-9.96-.227.918-2.048 5.629-3.747 9.96.656.03 3.055.096 3.747.096"/></g></g><g><path fill="#fff" d="M111.95 24.107c.06.194.066.41.018.643a1.45 1.45 0 0 1-.269.608c-.135.172-.3.31-.5.414-.199.106-.425.174-.678.205-.254.032-.528.03-.82-.006a3.092 3.092 0 0 1-.773-.191 1.665 1.665 0 0 1-.565-.36 1.236 1.236 0 0 1-.313-.516 1.286 1.286 0 0 1-.018-.643c.047-.234.138-.437.271-.607.133-.172.298-.31.499-.415.197-.104.424-.175.68-.212.255-.036.527-.036.814 0 .29.036.55.103.778.199.23.096.417.218.566.366.148.149.25.32.31.515"/></g><g><path fill="#fff" d="M109.725 21.806a2.62 2.62 0 0 0-.725-.01c.12-1.05.782-4.764 1.306-10.61.15-1.633.535-5.79.777-8.38.003-.032.026-.215.036-.285l.015-.101c.046-.265.134-.493.263-.685.13-.192.29-.348.485-.466.193-.119.413-.199.661-.238.25-.041.515-.041.797 0h.002c.283.04.535.115.758.223.22.108.404.247.548.414.144.166.245.36.302.578.06.22.066.463.02.726a2.38 2.38 0 0 1-.04.182c-.007.026-1.738 6.792-2.15 8.389-1.486 5.707-2.116 9.424-2.36 10.457a2.575 2.575 0 0 0-.692-.193z"/></g></g></g></g></svg>