<svg width="48" height="77" viewBox="0 0 48 77" fill="none" xmlns="http://www.w3.org/2000/svg">
<path fill-rule="evenodd" clip-rule="evenodd" d="M27.8999 62.6307C27.8999 60.3874 29.6999 58.5079 31.9799 58.5079C34.2599 58.5079 36.1199 60.3874 36.0599 62.6307C36.0599 64.874 34.2599 66.7535 31.9799 66.7535C29.7599 66.7535 27.8999 64.9346 27.8999 62.6307ZM29.8799 62.6913C29.8799 63.8433 30.8399 64.8134 31.9799 64.8134C33.1799 64.8134 34.0799 63.8433 34.0799 62.6913C34.0799 61.5394 33.1199 60.5693 31.9799 60.5693C30.8399 60.5693 29.8799 61.5394 29.8799 62.6913Z" fill="black"/>
<path fill-rule="evenodd" clip-rule="evenodd" d="M9.06006 62.6307C9.06006 60.3874 10.8601 58.5079 13.1401 58.5079C15.3601 58.5079 17.2201 60.3874 17.2201 62.6307C17.2201 64.874 15.4201 66.7535 13.1401 66.7535C10.9201 66.7535 9.06006 64.9346 9.06006 62.6307ZM11.0401 62.6913C11.0401 63.8433 12.0001 64.8134 13.1401 64.8134C14.2801 64.8134 15.2401 63.8433 15.2401 62.6913C15.2401 61.5394 14.2801 60.5693 13.1401 60.5693C12.0001 60.5693 11.0401 61.5394 11.0401 62.6913Z" fill="black"/>
<path d="M27.6001 64.874C27.3601 64.9346 26.9401 64.9953 26.8201 64.9953C26.1001 64.9953 25.9801 64.7528 25.9801 64.0858V60.2661H27.6601V58.6898H25.9801V56.4465H24.1201L23.7001 58.6898H22.3801H22.2601C21.1801 58.6898 20.4001 59.3567 19.8601 60.3874L19.2001 58.6898H17.8201V66.6323H20.1601V63.1764C20.1601 61.4181 21.1801 60.3268 22.3801 60.2661H23.6401V64.2071C23.6401 66.0866 24.6001 66.7535 26.1001 66.7535C26.8801 66.7535 27.4801 66.5717 27.8401 66.4504L27.6001 64.874Z" fill="black"/>
<path d="M38.8799 61.2362V66.6929H36.6599V58.6898H38.0399L38.5199 59.9024" fill="black"/>
<path d="M38.46 59.9024C39.12 59.1142 40.08 58.5079 41.16 58.5079C43.02 58.5079 43.8 60.0236 43.8 61.4181V66.6323H41.46V61.4787C41.46 60.8118 40.92 60.448 40.26 60.448C39.6 60.448 39.18 60.8118 38.82 61.2362" fill="black"/>
<path d="M0.0600586 55.8402H2.64006L6.18006 62.6307V55.8402H8.34006V66.6929H5.94006L2.16006 59.1748V66.6929H0.0600586V55.8402Z" fill="black"/>
<path d="M44.52 58.6898V58.8717H44.28V59.7811H44.1V58.8717H43.8V58.6898H44.52Z" fill="black"/>
<path d="M44.7 59.7811V58.6898H45L45.18 59.4173L45.36 58.6898H45.6V59.7811H45.42V58.9323L45.18 59.7811H45.06L44.82 58.9323V59.7811H44.7Z" fill="black"/>
<path fill-rule="evenodd" clip-rule="evenodd" d="M0.540117 75.3024L0.720117 74.7567C1.02012 75.1205 1.38012 75.3024 1.86012 75.4236C2.88012 75.4236 3.60012 74.4535 3.60012 73.1197C3.60012 72.1496 3.12012 70.9976 1.98012 70.9976C1.50012 70.9976 1.08012 71.3008 0.840117 71.5433V69.3606H0.120117V75.3024H0.540117ZM1.80012 71.5433C2.58012 71.5433 2.82012 72.3921 2.82012 73.0591C2.82012 74.1504 2.46012 74.7567 1.74012 74.7567C1.38012 74.7567 1.08012 74.6354 0.840117 74.3323V72.0283C1.08012 71.7252 1.44012 71.5433 1.80012 71.5433Z" fill="#A7A9AC"/>
<path d="M4.13989 70.9976H4.91989L5.99989 74.5748L6.95989 70.9976H7.67989L6.23989 75.6055C5.99989 76.3937 5.57989 76.8181 4.73989 76.8181C4.55989 76.8181 4.37989 76.8181 4.19989 76.7575L4.31989 76.2118C4.43989 76.2118 4.55989 76.2724 4.67989 76.2724C5.09989 76.2724 5.45989 76.0905 5.57989 75.5449L4.13989 70.9976Z" fill="#A7A9AC"/>
<path d="M9.84009 74.6354L10.2001 74.0898C10.5601 74.3929 11.1001 74.6354 11.8801 74.6354C12.6601 74.6354 13.0801 74.2716 13.0801 73.6047C13.0801 72.8772 12.5401 72.6953 11.7601 72.3921C10.9201 72.089 10.1401 71.7252 10.1401 70.6339C10.1401 69.6638 10.9201 69.1181 11.8801 69.1181C12.6001 69.1181 13.0201 69.2394 13.4401 69.4819L13.1401 70.0882C12.7801 69.9063 12.3601 69.785 11.8801 69.785C11.2801 69.785 10.8001 70.0276 10.8001 70.6339C10.8001 71.2402 11.2201 71.4827 12.0601 71.7858C12.9001 72.089 13.7401 72.4527 13.7401 73.6047C13.7401 74.6354 13.0201 75.2417 11.8201 75.2417C10.9201 75.3024 10.2601 74.9992 9.84009 74.6354Z" fill="#A7A9AC"/>
<path d="M14.28 70.9976H15L16.08 74.5748L17.04 70.9976H17.76L16.32 75.6055C16.08 76.3937 15.66 76.8181 14.82 76.8181C14.64 76.8181 14.46 76.8181 14.28 76.7575L14.4 76.2118C14.52 76.2118 14.64 76.2724 14.76 76.2724C15.18 76.2724 15.54 76.0905 15.66 75.5449L14.28 70.9976Z" fill="#A7A9AC"/>
<path d="M23.0401 70.937C23.8801 70.937 24.1201 71.6646 24.1201 72.3921V75.3024H23.4001V72.3921C23.4001 71.9677 23.3401 71.6039 22.8001 71.6039C22.4401 71.6039 22.0801 71.7858 21.7201 72.2102V75.363H21.0001V72.4527C21.0001 72.0283 20.9401 71.6646 20.4001 71.6646C20.0401 71.6646 19.6801 71.9071 19.3201 72.2709V75.363H18.6001V71.1189H19.0201L19.2001 71.7858C19.5601 71.3614 20.0401 70.9976 20.6401 70.9976C21.1801 70.9976 21.4201 71.3008 21.6001 71.7252C21.9601 71.2401 22.5001 70.937 23.0401 70.937Z" fill="#A7A9AC"/>
<path fill-rule="evenodd" clip-rule="evenodd" d="M26.76 71.5433C27.36 71.5433 27.54 71.8464 27.54 72.3921H27.48V72.6953C26.58 72.8165 25.92 72.9984 25.56 73.2409C25.2 73.4835 25.02 73.7866 25.02 74.2716C25.02 74.9386 25.62 75.4236 26.34 75.4236C26.88 75.4236 27.36 75.1205 27.66 74.8173L27.84 75.3024H28.26V72.4527C28.26 71.5433 27.84 70.937 26.82 70.937C26.22 70.937 25.74 71.1189 25.32 71.422L25.56 71.9071C25.6073 71.8866 25.6538 71.8661 25.6997 71.8459C26.0618 71.6866 26.3873 71.5433 26.76 71.5433ZM25.92 73.6653C26.16 73.4228 26.7 73.2409 27.54 73.059V74.3323C27.5164 74.3466 27.4924 74.3613 27.468 74.3762C27.1829 74.5509 26.8469 74.7567 26.46 74.7567C25.98 74.7567 25.8 74.5142 25.8 74.0898C25.8 73.9079 25.8 73.7866 25.92 73.6653Z" fill="#A7A9AC"/>
<path d="M29.52 70.9976H29.94L30.12 71.7252C30.48 71.3008 31.02 70.937 31.62 70.937C32.52 70.937 32.76 71.6646 32.76 72.3921V75.3024H32.04V72.3921C32.04 71.9677 31.92 71.6039 31.38 71.6039C30.96 71.6039 30.6 71.8464 30.24 72.2102V75.3024H29.52V70.9976H29.52Z" fill="#A7A9AC"/>
<path d="M33.54 71.5433V70.9976H34.2L34.38 69.785H34.92V70.9976H35.88V71.5433H34.92V74.1504C34.92 74.5748 34.98 74.7567 35.4 74.7567C35.58 74.7567 35.7 74.6961 35.88 74.6961L36 75.1811C35.82 75.2417 35.58 75.3024 35.34 75.3024C34.56 75.3024 34.2 74.9386 34.2 74.1504V71.5433H33.54Z" fill="#A7A9AC"/>
<path fill-rule="evenodd" clip-rule="evenodd" d="M39.54 74.3323C39.18 74.5748 38.88 74.7567 38.4 74.7567C37.68 74.7567 37.32 74.2716 37.32 73.3016H39.96V73.1197C39.96 71.7252 39.36 70.8764 38.28 70.8764C37.2 70.8764 36.54 71.7858 36.54 73.1197C36.54 74.4535 37.26 75.3024 38.34 75.3024C39.06 75.3024 39.42 75.1205 39.84 74.7567L39.54 74.3323ZM38.28 71.4827C38.88 71.4827 39.18 71.9071 39.18 72.8165H37.32C37.38 71.9071 37.74 71.4827 38.28 71.4827Z" fill="#A7A9AC"/>
<path d="M40.6201 73.1803C40.6201 72.089 41.1001 70.937 42.4201 70.937C42.9601 70.937 43.3801 71.0583 43.7401 71.3614L43.4401 71.8464C43.2001 71.6646 42.8401 71.4827 42.4801 71.4827C41.5801 71.4827 41.4601 72.3921 41.4601 73.1197C41.4601 73.8472 41.6401 74.6961 42.4801 74.6961C42.9001 74.6961 43.2001 74.5142 43.5001 74.2716L43.8601 74.6961C43.5601 74.9992 43.1401 75.2417 42.4801 75.2417C41.1001 75.3024 40.6201 74.211 40.6201 73.1803Z" fill="#A7A9AC"/>
<path fill-rule="evenodd" clip-rule="evenodd" d="M0 28.9811C0 41.1677 9.84 51.111 21.9 51.111C33.96 51.111 43.8 41.1677 43.8 28.9811C43.8 16.7945 33.96 6.85118 21.9 6.85118C9.84 6.85118 0 16.7945 0 28.9811ZM11.34 18.2496C14.16 15.4 17.88 13.8236 21.9 13.8236C25.92 13.8236 29.64 15.4 32.46 18.2496C35.28 21.0992 36.84 24.8583 36.84 28.9205C36.84 32.922 35.28 36.7417 32.46 39.5913C29.64 42.4409 25.92 44.0173 21.9 44.0173C17.94 44.0173 14.16 42.4409 11.34 39.5913C8.52 36.7417 6.96 32.9827 6.96 28.9205C6.96 24.9189 8.52 21.0992 11.34 18.2496Z" fill="#FFC20E"/>
<rect x="45.78" y="3.4559" width="1.68" height="1.69764" fill="#FFC20E"/>
<rect x="45.78" width="1.68" height="1.75827" fill="#FFC20E"/>
<rect x="40.98" y="5.15354" width="1.62" height="1.69764" fill="#FFC20E"/>
<rect x="37.8" y="8.48819" width="1.62" height="1.63701" fill="black"/>
<rect x="42.54" y="6.85118" width="1.8" height="1.63701" fill="black"/>
<rect x="36.1799" y="6.91181" width="1.62" height="1.51575" fill="black"/>
<rect x="40.98" y="8.48819" width="1.62" height="1.63701" fill="black"/>
<rect x="44.04" y="1.75827" width="1.68" height="1.69764" fill="black"/>
<rect x="40.98" y="3.4559" width="3.12" height="1.69764" fill="black"/>
<rect x="39.4199" y="5.15354" width="1.56" height="3.33465" fill="black"/>
<path d="M39.4199 10.0646V11.7016H37.7999V10.0646H35.1599V11.2165H33.7199V12.6717H35.3399V14.3087H33.7199V12.6717H32.0399V15.2181H30.4199V16.8551H29.3399V18.4921H28.1999C26.8799 20.4929 23.5799 26.6165 22.6199 29.163C19.0199 24.1307 16.2599 22.1299 14.0399 21.4024C12.8399 21.0386 11.3999 22.3724 13.3799 24.3732C17.8799 29.4055 19.3199 33.5283 20.6999 36.863C21.4199 38.6213 24.6599 38.8638 25.3199 37.1055C26.6999 33.3465 28.7399 29.1024 31.1399 25.6465V23.8276H32.3999V22.1906H33.7199V20.311H35.3399V18.4921H33.7199V16.8551H35.3399V18.4921H36.8999V16.8551H38.1599V14.915H39.5999V13.5811H40.9799V10.1858H39.4199V10.0646Z" fill="black"/>
</svg>
