<svg xmlns="http://www.w3.org/2000/svg" width="251" height="29" viewBox="0 0 251 29"><g><g><g><path fill="#400090" d="M28.754 17.638c-.78 0-3.419-.059-4.138-.118 1.859-4.616 3.838-9.706 4.138-10.653.24 1.006 2.219 6.037 4.138 10.653-.78.06-3.358.118-4.138.118zM30.32 3.553c-.06-.178-.18-.415-.18-.533-.42.178-.84.237-1.321.237-.48 0-.9-.06-1.321-.237-.06.118-.12.355-.24.533C25.757 7.4 20.412 20.42 17.89 25.155c-.12.177-.3.592-.36.65.6-.177 1.261-.236 1.922-.236.66 0 1.32.06 1.921.237.18-.533 1.381-3.374 2.702-6.688.6 0 1.201-.06 1.802-.06h5.944c.54 0 1.201.06 1.802.06 1.32 3.314 2.462 6.155 2.702 6.688.6-.178 1.2-.237 1.922-.237.66 0 1.32.06 1.921.237-.06-.119-.24-.474-.36-.651C37.166 20.42 31.82 7.4 30.32 3.553z"/></g><g><path fill="#400090" d="M61.066 17.342v-5.681c0-1.42 0-2.9.06-4.261.06-1.42.12-2.96.18-4.38-.6.178-1.261.237-1.922.237-.66 0-1.32-.06-1.921-.237.06 1.539.12 3.078.18 4.439.06 1.361.06 2.781.06 4.261v1.953c-1.02 0-1.981.06-2.942.06-1.141 0-2.282.058-3.483.058s-2.342 0-3.483-.059c-.96 0-1.921-.059-2.942-.059V11.72c0-1.42 0-2.84.06-4.261.06-1.361.12-2.9.18-4.439-.6.178-1.26.237-1.921.237s-1.322-.06-1.922-.237c.06 1.42.12 3.018.18 4.38.06 1.42.06 2.84.06 4.26v5.682c0 1.42 0 2.9-.06 4.262-.06 1.42-.12 2.84-.18 4.202.6-.178 1.261-.237 1.922-.237.66 0 1.32.06 1.921.237-.06-1.42-.12-2.841-.18-4.202-.06-1.362-.06-2.841-.06-4.262v-2.13c1.02 0 1.981-.06 2.942-.06h6.966c.96 0 1.921 0 2.942.06v2.13c0 1.42 0 2.9-.06 4.262-.06 1.36-.12 2.84-.18 4.202.6-.178 1.26-.237 1.921-.237s1.322.06 1.922.237c-.06-1.362-.12-2.782-.18-4.202 0-1.362-.06-2.782-.06-4.262z"/></g><g><path fill="#400090" d="M112.89 19.648c-.541 1.48-1.262 2.663-2.222 3.61a9.527 9.527 0 0 1-3.363 2.13c-1.261.474-2.702.71-4.204.71-1.5 0-2.882-.236-4.143-.71a9.527 9.527 0 0 1-3.362-2.13c-.961-.947-1.682-2.19-2.222-3.61-.54-1.48-.78-3.196-.78-5.208 0-2.013.24-3.729.78-5.209.54-1.48 1.26-2.663 2.221-3.61a9.527 9.527 0 0 1 3.363-2.13c1.261-.474 2.642-.71 4.143-.71 1.502 0 2.883.236 4.204.71a9.527 9.527 0 0 1 3.363 2.13c.96.947 1.68 2.19 2.221 3.61.54 1.48.78 3.196.78 5.209 0 2.012-.24 3.728-.78 5.208zm.6-14.855c-1.261-1.125-2.762-1.953-4.564-2.545-1.741-.592-3.723-.888-5.825-.888-2.101 0-4.023.296-5.824.888-1.742.592-3.303 1.42-4.564 2.545-1.26 1.124-2.282 2.485-2.942 4.143-.72 1.597-1.081 3.491-1.081 5.563 0 2.071.36 3.906 1.08 5.563.721 1.598 1.682 3.018 2.943 4.143 1.261 1.124 2.762 1.953 4.564 2.486 1.741.532 3.723.828 5.824.828 2.102 0 4.084-.296 5.825-.828 1.742-.533 3.303-1.362 4.564-2.486 1.26-1.125 2.222-2.486 2.942-4.143.72-1.598 1.081-3.492 1.081-5.563 0-2.072-.36-3.906-1.08-5.563-.661-1.658-1.682-3.019-2.943-4.143z"/></g><g><path fill="#400090" d="M17.534 8.996c.84-1.42 1.982-3.374 2.702-4.557.9-1.539 1.681-2.723 2.102-3.315.3-.414.48-.769.72-1.124-.6.178-1.26.237-1.921.237-.66 0-1.321-.119-1.922-.237-1.681 3.018-7.386 12.133-7.686 12.665-.3-.532-6.005-9.647-7.686-12.665-.6.178-1.26.237-1.921.237S.6.177 0 0c.24.355.48.71.78 1.124.36.592 1.142 1.776 2.102 3.315.72 1.183 1.922 3.137 2.702 4.557.841 1.42 1.682 2.9 2.522 4.32.6 1.066 1.261 2.13 1.862 3.196v1.125c0 1.48 0 3.077-.06 4.498-.06 1.42-.12 5.326-.18 6.747.6-.178 1.2-.237 1.921-.237.66 0 1.321.06 1.922.237-.06-1.42-.12-5.327-.18-6.747s-.06-3.019-.06-4.498v-1.125c.6-1.065 1.2-2.13 1.861-3.196.66-1.42 1.501-2.9 2.342-4.32z"/></g><g><path fill="#400090" d="M82.936 19.114c-.42 1.302-1.021 2.367-1.803 3.255-.78.829-1.682 1.48-2.763 1.894-1.082.414-2.223.592-3.425.592s-2.343-.178-3.365-.592c-1.081-.414-1.982-1.065-2.763-1.894-.782-.829-1.382-1.953-1.803-3.255-.42-1.302-.66-2.84-.66-4.616 0-1.776.24-3.315.66-4.617.42-1.302 1.021-2.367 1.803-3.255.78-.828 1.682-1.48 2.763-1.894 1.082-.414 2.163-.592 3.365-.592 1.262 0 2.343.178 3.425.592 1.081.415 1.982 1.066 2.763 1.894.782.829 1.382 1.953 1.803 3.255.42 1.302.66 2.841.66 4.617 0 1.775-.24 3.314-.66 4.616zm.951-13.316c-1.08-1.007-2.402-1.776-3.963-2.309-1.501-.532-3.243-.769-5.044-.769-1.801 0-3.483.237-5.044.77a11.983 11.983 0 0 0-3.963 2.308c-1.081 1.006-1.922 2.249-2.582 3.669-.6 1.48-.901 3.077-.901 4.971 0 1.835.3 3.492.9 4.972.601 1.48 1.442 2.663 2.583 3.67 1.08 1.005 2.402 1.775 3.963 2.248 1.501.474 3.182.71 5.044.71 1.861 0 3.543-.236 5.044-.71a10.916 10.916 0 0 0 3.963-2.249c1.081-1.006 1.922-2.249 2.582-3.67.6-1.479.9-3.077.9-4.97 0-1.835-.3-3.492-.9-4.972-.66-1.42-1.501-2.663-2.582-3.67z"/></g><g><path fill="#400090" d="M121.658 25.925c-.12-.177-.3-.296-.54-.414a3.42 3.42 0 0 0-.721-.237c-.3-.059-.54-.059-.78 0-.241.06-.481.119-.661.237-.18.118-.36.296-.48.474-.12.177-.241.473-.241.71a1.66 1.66 0 0 0 0 .77c.06.236.18.413.3.591s.3.296.54.414c.24.119.481.178.721.237.3.06.54.06.78 0 .241-.06.481-.118.661-.237.18-.118.36-.296.48-.473.12-.178.241-.474.241-.71a1.66 1.66 0 0 0 0-.77 2.749 2.749 0 0 0-.3-.592z"/></g><g><path fill="#400090" d="M125.684 1.005c-.12-.177-.3-.296-.54-.414a3.42 3.42 0 0 0-.72-.237c-.3-.059-.541-.059-.781 0-.24.06-.48.119-.66.237-.18.118-.361.296-.481.474-.12.177-.24.473-.24.71v.118c0 .06-.06.296-.06.296-.24 2.782-.6 7.161-.781 8.937-.54 6.214-1.14 10.18-1.261 11.304.24-.06.48 0 .72 0 .24.06.481.118.661.177.24-1.124.84-5.03 2.342-11.126.42-1.716 2.102-8.878 2.102-8.937 0-.059 0-.118.06-.177a1.66 1.66 0 0 0 0-.77c-.12-.177-.24-.414-.36-.592z"/></g><g><path fill="#400090" d="M136.313 16.166l1.626-3.383 1.566 3.383zm1.501-6.816l-5.164 10.653h1.741l1.381-2.84h4.084l1.32 2.84h2.643L138.835 9.35z"/></g><g><path fill="#400090" d="M148.683 11.657c.36-.356.72-.592 1.141-.77.42-.177.9-.296 1.381-.296.36 0 .72.06 1.021.178.3.118.66.296.96.473.301.237.601.474.841.71l.721.888 1.08-.77c-.24-.413-.54-.769-.84-1.124-.3-.355-.72-.65-1.08-.887-.421-.237-.901-.474-1.382-.592-.48-.119-1.08-.237-1.681-.237-.6 0-1.201.06-1.742.178a6.45 6.45 0 0 0-1.5.532c-.481.237-.841.533-1.202.829-.36.296-.66.71-.9 1.124-.24.415-.42.829-.6 1.302-.181.474-.181 1.066-.181 1.598 0 .829.18 1.539.48 2.25.3.65.721 1.242 1.321 1.716.6.473 1.201.828 1.982 1.124.78.237 1.621.414 2.522.414.54 0 1.08-.059 1.561-.236.48-.178.961-.355 1.321-.651.42-.237.78-.592 1.081-.888.3-.355.6-.71.84-1.065l-1.08-.77-.72.888c-.24.296-.481.533-.781.71l-.9.533c-.301.118-.661.177-1.022.177-.48 0-.96-.118-1.38-.296-.421-.177-.842-.473-1.202-.769-.36-.355-.6-.77-.84-1.302a5.506 5.506 0 0 1-.3-1.776c0-.65.12-1.302.3-1.775.18-.592.42-1.065.78-1.42z"/></g><g><path fill="#400090" d="M161.413 11.657c.36-.356.72-.592 1.141-.77.42-.177.9-.296 1.381-.296.36 0 .72.06 1.021.178.3.118.66.296.96.473.301.237.601.474.841.71l.721.888 1.08-.77c-.24-.413-.54-.769-.84-1.124-.3-.355-.72-.65-1.08-.887-.421-.237-.901-.474-1.382-.592-.48-.119-1.08-.237-1.681-.237-.6 0-1.201.06-1.742.178a6.45 6.45 0 0 0-1.5.532c-.481.237-.841.533-1.202.829-.36.296-.66.71-.9 1.124-.24.415-.42.829-.6 1.302-.181.474-.181 1.006-.181 1.48 0 .828.18 1.539.48 2.249.3.65.721 1.243 1.321 1.716.6.474 1.201.829 1.982 1.125.78.236 1.621.414 2.522.414.54 0 1.08-.06 1.561-.237.48-.177.961-.355 1.321-.65.42-.238.78-.593 1.081-.889.3-.355.6-.71.84-1.065l-1.08-.77-.72.889c-.24.295-.481.532-.781.71l-.9.532c-.301.119-.661.178-1.022.178-.48 0-.96-.118-1.38-.296-.421-.178-.842-.473-1.202-.77-.36-.354-.6-.769-.84-1.301a5.506 5.506 0 0 1-.3-1.776c0-.65.12-1.302.3-1.775.18-.474.48-.947.78-1.302z"/></g><g><path fill="#400090" d="M179.127 16.57c-.12.591-.36 1.065-.6 1.48-.24.413-.6.71-1.021.946-.42.237-.84.355-1.381.355-.54 0-.961-.118-1.381-.355-.42-.237-.72-.533-1.021-.947-.3-.414-.48-.888-.6-1.48a9.061 9.061 0 0 1-.18-1.834c0-.651.06-1.243.18-1.835.12-.532.36-1.006.6-1.42.24-.414.6-.71 1.02-.947.421-.237.841-.355 1.382-.355.54 0 .96.118 1.38.355.421.237.721.533 1.022.947.24.414.48.888.6 1.42.12.533.18 1.125.18 1.835 0 .65-.06 1.243-.18 1.835zm2.282-4.676c-.24-.414-.54-.77-.96-1.065a8.584 8.584 0 0 0-1.202-.829c-.42-.237-.9-.414-1.44-.532a7.558 7.558 0 0 0-1.622-.178c-.54 0-1.141.06-1.621.178-.54.118-1.021.295-1.442.532-.42.237-.84.474-1.2.829-.36.296-.661.65-.961 1.065-.3.414-.48.829-.6 1.302-.12.474-.241.947-.241 1.48 0 .532.06 1.065.24 1.538.18.474.36.947.6 1.362.24.414.541.77.961 1.124.36.355.781.592 1.201.829.42.237.901.414 1.442.532.54.119 1.08.178 1.62.178.541 0 1.142-.06 1.622-.178.48-.118 1.02-.295 1.441-.532.42-.237.84-.474 1.201-.829.36-.296.66-.71.961-1.124.3-.415.48-.888.6-1.362.12-.473.24-1.006.24-1.538 0-.533-.06-1.006-.24-1.48a8.653 8.653 0 0 0-.6-1.302z"/></g><g><path fill="#400090" d="M192.216 16.278c0 .414-.06.77-.18 1.124-.12.355-.3.651-.54.947-.24.237-.54.474-.84.651-.301.178-.721.237-1.142.237-.42 0-.78-.06-1.14-.237-.361-.177-.601-.355-.841-.65-.24-.238-.42-.593-.54-.948a3.4 3.4 0 0 1-.18-1.124V9.59h-2.583v6.688c0 .532.12 1.065.3 1.539.18.473.48.887.901 1.242.42.355.9.651 1.501.888.6.237 1.261.296 2.042.296.84 0 1.621-.118 2.222-.296.6-.177 1.14-.473 1.5-.828.421-.356.661-.77.841-1.243.18-.474.3-1.006.3-1.54V9.59h-1.62v6.688z"/></g><g><path fill="#400090" d="M204.046 16.219l-6.005-6.629h-1.681v10.416h1.681v-7.16l6.546 7.338h1.14V9.59h-1.68z"/></g><g><path fill="#400090" d="M207.47 10.478h3.663v9.528h2.642v-9.528h3.663V9.59h-9.968z"/></g><g><path fill="#400090" d="M227.7 12.61h-1.14v2.071h1.201c.72 0 1.2-.414 1.2-1.006-.06-.71-.54-1.065-1.26-1.065z"/></g><g><path fill="#400090" d="M242.778 18.049c-2.102 0-3.603-1.539-3.603-3.433s1.5-3.432 3.603-3.432c2.101-.06 3.602 1.48 3.602 3.432 0 1.894-1.5 3.433-3.602 3.433zm-6.546-.118l-1.44-2.131h-1.202v2.13h-1.501v-6.687h3.123c.84 0 1.56.237 1.981.65.36.356.6.889.6 1.54 0 1.065-.6 1.775-1.44 2.071l1.68 2.367h-1.8zm-8.582-1.953h-1.143v2.012h-1.504v-6.747h2.768c1.684 0 2.647.947 2.647 2.367 0 1.539-1.203 2.368-2.768 2.368zM248.302 7.1h-25.28c-1.261 0-2.282 1.006-2.282 2.249v10.535c0 1.243 1.02 2.249 2.282 2.249h25.28c1.261 0 2.282-1.006 2.282-2.25V9.35c0-1.243-1.021-2.249-2.282-2.249z"/></g><g><path fill="#400090" d="M235.091 12.61h-1.501v1.894h1.501c.72 0 1.141-.355 1.141-.947 0-.651-.42-.947-1.14-.947z"/></g><g><path fill="#400090" d="M242.772 12.49c-1.201 0-2.042.947-2.042 2.071 0 1.125.84 2.131 2.042 2.131 1.2 0 2.041-.947 2.041-2.071 0-1.184-.84-2.131-2.041-2.131z"/></g></g></g></svg>