<svg xmlns="http://www.w3.org/2000/svg" width="672" height="490" viewBox="0 0 672 490"><g><g><path fill="#9fa3a4" d="M264.746 485.506h138.752v4.197H264.746z"/></g><g><path fill="#46484c" d="M671.23 17.838c0-9.37-7.595-16.966-16.966-16.966H17.736C8.366.872.77 8.468.77 17.838v383.634h670.462z"/></g><g><path fill="#e4e4e4" d="M671.23 408.741c0 1.562-7.595 2.828-16.966 2.828H17.736c-9.369 0-16.966-1.266-16.966-2.828v-7.27h670.462z"/></g><g><path fill="#f6f6f8" d="M19.903 7.394H652.16c7.404 0 13.406 6.002 13.406 13.407v368.267a3.439 3.439 0 0 1-3.438 3.44H9.936c-1.9 0-3.439-1.54-3.439-3.44V20.801c0-7.404 6.002-13.406 13.406-13.406z"/></g><g><path fill="#dadada" d="M388.565 478.42c-4.116-1.865-4.888-8.953-4.888-8.953l-3.86-58.03h-91.388l-3.86 58.03s-.773 7.088-4.893 8.954c-4.119 1.864-14.93 4.848-14.93 4.848v3.729h138.752v-3.73s-10.812-2.983-14.933-4.847z"/></g><g><path fill="#caced0" d="M287.097 431.469h94.05l-1.33-20.032H288.43z"/></g><g><path fill="#f3f3f3" d="M264.746 483.297h138.752v4.844H264.746z"/></g></g></svg>