<?xml version="1.0" ?><svg viewBox="0 0 24 24" xmlns="http://www.w3.org/2000/svg"><title/><g data-name="Male User Circle" id="Male_User_Circle"><g data-name="&lt;Group&gt;" id="_Group_"><circle cx="12" cy="12" data-name="&lt;Path&gt;" id="_Path_" r="11.5" style="fill:none;stroke:#000000;stroke-linecap:round;stroke-linejoin:round"/><path d="M18.48,21.49l-.18-.06a4,4,0,0,1-2.06-1.58L16,19.5H15l-.5-2a5.53,5.53,0,0,0,1.5-3c.67,0,1-2.61,1-3s-.17-1.25-.75-1.25A3.43,3.43,0,0,0,17,8l.5-.5c0-1.83-1.83-4-5-4-2.25,0-3,1-3,1A2.67,2.67,0,0,0,7.5,7c0,1.08-.07,2.93.25,3.25-.58,0-.75.86-.75,1.25s.33,3,1,3a5.53,5.53,0,0,0,1.5,3l-.5,2H8l-.24.36A4,4,0,0,1,5.7,21.43l-.18.06" data-name="&lt;Path&gt;" id="_Path_2" style="fill:none;stroke:#000000;stroke-linecap:round;stroke-linejoin:round"/></g></g></svg>