<?xml version="1.0" ?><svg data-name="Layer 1" id="Layer_1" viewBox="0 0 24 24" xmlns="http://www.w3.org/2000/svg"><defs><style>.cls-1,.cls-2{fill:none;}.cls-1{stroke:#000;stroke-linecap:round;stroke-linejoin:round;stroke-width:2px;}</style></defs><title/><path class="cls-1" d="M5,21a7.14,7.14,0,0,1,7-7.17A7.14,7.14,0,0,1,19,21H5Z"/><path class="cls-2" d="M21.86,18.12a4.21,4.21,0,0,0-1-1.9,4.09,4.09,0,0,0-1.09-.79,9.77,9.77,0,0,1,1.33,2.69h0.8Z"/><path class="cls-2" d="M4,9a3.73,3.73,0,0,0,.67,2.25A1.68,1.68,0,0,0,6,12a1.55,1.55,0,0,0,.89-0.3A8.28,8.28,0,0,1,5.51,7.07,2,2,0,0,0,4,9Z"/><path class="cls-2" d="M17.17,11.72A1.47,1.47,0,0,0,18,12a1.66,1.66,0,0,0,1.33-.7A3.71,3.71,0,0,0,20,9a2,2,0,0,0-1.5-1.93,8.68,8.68,0,0,1-1,4.12C17.41,11.37,17.28,11.54,17.17,11.72Z"/><path class="cls-2" d="M3.18,16.22a4.21,4.21,0,0,0-1,1.9h0.8a9.77,9.77,0,0,1,1.33-2.69A4.09,4.09,0,0,0,3.18,16.22Z"/><path d="M20,13.36a3.88,3.88,0,0,0,.92-0.84A5.69,5.69,0,0,0,22,9a4,4,0,0,0-3.8-4,6.47,6.47,0,0,1,.3,2s0,0.06,0,.09A2,2,0,0,1,20,9a3.71,3.71,0,0,1-.67,2.3A1.66,1.66,0,0,1,18,12a1.47,1.47,0,0,1-.83-0.28,6.5,6.5,0,0,1-.64.8,8.91,8.91,0,0,1,1.92,1.43l0.3,0.28a9.82,9.82,0,0,1,1,1.2,4.09,4.09,0,0,1,1.09.79,4.21,4.21,0,0,1,1,1.9h-0.8a9.66,9.66,0,0,1,.4,2H23a1,1,0,0,0,1-1,6.18,6.18,0,0,0-1.75-4.29A6,6,0,0,0,20,13.36Z"/><path d="M0.29,19.83a1,1,0,0,0,.71.29H2.54a9.66,9.66,0,0,1,.4-2H2.14a4.21,4.21,0,0,1,1-1.9,4.09,4.09,0,0,1,1.09-.79,9.82,9.82,0,0,1,1-1.2L5.53,14a8.86,8.86,0,0,1,2-1.46l-0.26-.28C7.11,12.06,7,11.88,6.89,11.7A1.55,1.55,0,0,1,6,12a1.68,1.68,0,0,1-1.33-.75A3.73,3.73,0,0,1,4,9,2,2,0,0,1,5.51,7.07S5.5,7,5.5,7a6.47,6.47,0,0,1,.3-2A4,4,0,0,0,2,9a5.71,5.71,0,0,0,1.08,3.46,4.08,4.08,0,0,0,.93.9,6,6,0,0,0-2.26,1.47A6.18,6.18,0,0,0,0,19.12,1,1,0,0,0,.29,19.83Z"/><path d="M15.05,11.86a4.6,4.6,0,0,0,.54-0.51,5.29,5.29,0,0,0,.64-1A7.13,7.13,0,0,0,17,7.29c0-.11,0-0.2,0-0.31A5,5,0,0,0,7,7c0,0.11,0,.21,0,0.31a7,7,0,0,0,.78,3.08,5.55,5.55,0,0,0,.6.9,4.88,4.88,0,0,0,.57.58L9.21,12A4.61,4.61,0,0,0,11,12.9a7.74,7.74,0,0,0-2.3.66l-0.14.07a8.07,8.07,0,0,0-2.05,1.43l-0.23.21a8.32,8.32,0,0,0-1.8,2.85A8.18,8.18,0,0,0,4,21a1,1,0,0,0,1,1H19a1,1,0,0,0,1-1,8.18,8.18,0,0,0-.54-2.88,8.32,8.32,0,0,0-1.8-2.85l-0.23-.21a8.07,8.07,0,0,0-2.05-1.43l-0.12-.06A7.74,7.74,0,0,0,13,12.9a4.63,4.63,0,0,0,1.87-.84C14.91,12,15,11.93,15.05,11.86ZM9.94,10v0a3.8,3.8,0,0,1-.55-1A5.32,5.32,0,0,1,9,7a3,3,0,0,1,6,0A4.68,4.68,0,0,1,14.08,10l0,0A2.67,2.67,0,0,1,9.94,10Zm6.29,6.67a6.33,6.33,0,0,1,1.05,1.46c0.07,0.12.12,0.25,0.18,0.38a6.2,6.2,0,0,1,.45,1.5H6.09a6.2,6.2,0,0,1,.45-1.5c0.06-.13.11-0.26,0.18-0.38a6.33,6.33,0,0,1,1.05-1.46A6.24,6.24,0,0,1,8.55,16a5.89,5.89,0,0,1,1.91-.93,5.54,5.54,0,0,1,3.09,0,5.89,5.89,0,0,1,1.91.93A6.24,6.24,0,0,1,16.23,16.66Z"/></svg>