<svg xmlns="http://www.w3.org/2000/svg" width="53" height="36" viewBox="0 0 53 36"><g><g><path fill="none" stroke="#b4b9c1" stroke-miterlimit="50" stroke-width="3" d="M11.82 29.193c-3.6-2.618-6.5-5.881-8.81-9.678a15.224 15.224 0 0 1-.463-.814c-.302-.575-.29-1.149.069-1.694 1.69-2.584 3.678-4.921 5.903-7.059 1.973-1.895 4.116-3.567 6.486-4.939 2.677-1.55 5.522-2.643 8.594-3.092 3.836-.561 7.549-.066 11.145 1.353 2.65 1.045 5.062 2.503 7.292 4.268a40.624 40.624 0 0 1 8.66 9.437c.376.566.409 1.16.073 1.75-2.664 4.682-6.196 8.557-10.742 11.473a24.52 24.52 0 0 1-9.033 3.55c-.542.096-1.088.18-1.635.228-.897.079-1.796.124-2.695.183-5.491-.05-10.423-1.75-14.843-4.966zM26.66 6.555c-6.263.005-11.35 5.093-11.347 11.353.002 6.275 5.105 11.371 11.368 11.349 6.28-.021 11.349-5.1 11.334-11.359C38 11.625 32.92 6.55 26.66 6.555z"/></g><g><path fill="none" stroke="#b4b9c1" stroke-miterlimit="50" stroke-width="3" d="M31.53 17.911a4.865 4.865 0 0 1-4.879 4.861 4.87 4.87 0 0 1-4.854-4.866 4.88 4.88 0 0 1 4.881-4.866 4.874 4.874 0 0 1 4.852 4.871z"/></g></g></svg>